<svg xmlns="http://www.w3.org/2000/svg" viewBox="0 0 640 360" fill="none" role="img" aria-labelledby="title desc">
  <title id="title">Assassination phase</title>
  <desc id="desc">A non-graphic final spotlight scene.</desc>
  <defs>
    <linearGradient id="assassinationBg" x1="60" y1="40" x2="580" y2="320" gradientUnits="userSpaceOnUse">
      <stop stop-color="#1D1D1B"/>
      <stop offset=".55" stop-color="#156240"/>
      <stop offset="1" stop-color="#FFF5E6"/>
    </linearGradient>
  </defs>
  <rect x="32" y="28" width="576" height="304" rx="42" fill="url(#assassinationBg)"/>
  <ellipse cx="320" cy="236" rx="150" ry="42" fill="#FEFFF9" opacity=".16"/>
  <path d="M320 62 220 268h200L320 62Z" fill="#FEFFF9" opacity=".24"/>
  <circle cx="320" cy="178" r="48" fill="#FEFFF9"/>
  <path d="M295 174c6-16 20-25 36-20 15 5 22 20 17 35-4 12-13 17-25 22-10 4-15 8-17 18" stroke="#156240" stroke-width="12" stroke-linecap="round"/>
  <circle cx="304" cy="246" r="8" fill="#F09182"/>
  <path d="m500 76 7 17 18 2-14 12 4 18-15-10-16 10 5-18-14-12 18-2 7-17Z" fill="#F09182"/>
</svg>
