<svg xmlns="http://www.w3.org/2000/svg" viewBox="0 0 160 160" role="img" aria-labelledby="title desc">
  <title id="title">Player console token</title>
  <desc id="desc">Original Friemi player console token for Avalon private in-game actions.</desc>
  <defs>
    <radialGradient id="glow" cx="48%" cy="38%" r="72%">
      <stop offset="0" stop-color="#FEFFF9"/>
      <stop offset="0.56" stop-color="#F1F2EC"/>
      <stop offset="1" stop-color="#D6D5B2"/>
    </radialGradient>
    <linearGradient id="screen" x1="26" x2="132" y1="24" y2="136">
      <stop offset="0" stop-color="#369758"/>
      <stop offset="0.55" stop-color="#156240"/>
      <stop offset="1" stop-color="#0E2A5A"/>
    </linearGradient>
    <filter id="shadow" color-interpolation-filters="sRGB" x="-20%" y="-20%" width="140%" height="145%">
      <feDropShadow dx="0" dy="12" stdDeviation="10" flood-color="#156240" flood-opacity=".18"/>
    </filter>
  </defs>
  <circle cx="80" cy="80" r="72" fill="url(#glow)"/>
  <path d="M50 26h60c17 0 28 12 28 28v52c0 17-11 28-28 28H50c-17 0-28-11-28-28V54c0-16 11-28 28-28Z" fill="#FEFFF9" filter="url(#shadow)" stroke="#8AB68E" stroke-width="4"/>
  <path d="M54 42h52c11 0 18 8 18 18v40c0 11-7 18-18 18H54c-11 0-18-7-18-18V60c0-10 7-18 18-18Z" fill="url(#screen)"/>
  <circle cx="62" cy="80" r="13" fill="#FEFFF9" opacity=".92"/>
  <circle cx="98" cy="80" r="13" fill="#F09182"/>
  <path d="M57 80h10M62 75v10" stroke="#156240" stroke-width="5" stroke-linecap="round"/>
  <circle cx="98" cy="80" r="4" fill="#FEFFF9"/>
  <path d="M52 58h56" stroke="#FEFFF9" stroke-width="4" stroke-linecap="round" opacity=".32"/>
  <path d="M52 102h56" stroke="#FEFFF9" stroke-width="4" stroke-linecap="round" opacity=".24"/>
  <circle cx="119" cy="43" r="8" fill="#F09182"/>
  <circle cx="41" cy="119" r="7" fill="#8AB68E"/>
</svg>
