<?xml version="1.0" encoding="UTF-8"?>
<svg xmlns="http://www.w3.org/2000/svg" version="1.1" viewBox="0 0 102 102">
  <defs>
    <style>
      .cls-1 {
        fill: #ff5559;
      }

      .cls-1, .cls-2, .cls-3, .cls-4, .cls-5 {
        fill-rule: evenodd;
      }

      .cls-2 {
        fill: #fff;
      }

      .cls-3 {
        fill: #ffb61d;
      }

      .cls-4 {
        fill: #242a1b;
      }

      .cls-5 {
        fill: #0f5dc5;
      }
    </style>
  </defs>
  <!-- Generator: Adobe Illustrator 28.7.10, SVG Export Plug-In . SVG Version: 1.2.0 Build 236)  -->
  <g>
    <g id="_图层_1" data-name="图层_1">
      <path class="cls-1" d="M81.1,80.1c-9.9,12.6-25.2-4.5-38.3,2-13.1,6.5-25.5-7.1-24.6-29.5.9-22.4,16.2-33.4,34.4-31.7,14.2,1.3,33.5,14.3,27.3,28.9-3,10.2,9.8,19.5,1.3,30.3Z"/>
      <path class="cls-2" d="M67.4,8.2c.6.3.6,1.1.5,1.8-1,5.2-2,9-3,14.1,0,.1.2,0,.4.1.2,0,.5.2.4.4-.1,1.4-.6,2.8-1.1,4.5,1.2,0,3,0,5.4.1.2,0,.3.1.3.3h0c0,1.3-.1,2.5-.5,3.7.6-.2,1.3.3,1.5.9.2.6,0,1.3,0,1.9-1.2,5.9-2.3,11.8-3.5,17.8.8,0,1.2.9,1.5,1.6,2.9,7.9,5.7,15.8,8.4,23.7-.3.7-1.3.8-1.9.3-.6-.4-.9-1.1-1.1-1.8-.8-2.2-1.6-4.4-2.4-6.6-2.7.7-5.4,1.4-8.1,2.1-.9,3.4-1.6,6.9-2.2,10.4.4.3.8.6,1,1.1,0-.6.5-1,1.1-1.1.3.6.3,1.3,0,1.8.9.4,1.8.9,2.7,1.3-.9,0-1.9-.3-2.7-.8.5.8,1.6,1,2.4,1.3.9.3,1.8,1.1,1.6,2.1-.3,1-1.6,1.2-2.6,1.1-2.2-.3-4.4-.9-6.4-1.8-.5-.2-1.1-.7-.9-1.2.7-2.1.6-4.5-.5-6.5-1,2.2-1.4,4.7-1.1,7.2.5-.2,1-.4,1.4-.7-.4,1.3,1.1,2.7,2.4,2.2-.5.3-1.1.5-1.7.4.9.5,1.8,1,2.8,1.6.6.3,1.2.7,1.2,1.4,0,.9-1.1,1.4-2,1.5-3.1.3-6.4-.4-9.1-2.1,1.2-6.1,1.6-12.4,1.1-18.6-1.5,1.1-3.3,1.7-5.1,1.6.5,4.7.9,9.4,1.4,14.1,0,.9.2,2-.3,2.8-.5.8-1.9,1.1-2.4.3-.2-.3-.2-.7-.3-1-.6-6-1.2-12.1-1.7-18.1-2,0-3.9,0-5.9,0-.2,6.1-.4,12.2-.6,18.3,0,1.5-.6,3.5-2.1,3.4-1.5,0-1.8-2.1-1.8-3.5.3-6.2.5-12.4.8-18.6-.7-.4-1.6-.6-2.4-.6-1.1,4.9-2.2,9.8-3.2,14.7,0,.4-.2.8-.5,1-.6.5-1.5,0-1.8-.7-.3-.7-.1-1.4,0-2.1,1-4.3,1.9-8.6,2.9-12.9,0-.4.1-.9-.2-1.1-1.2-.6-1.2-2.4-.4-3.4.8-1.1,2.1-1.6,3.4-2-6.7-15.6-2.4-19.4-1.9-17.9h0c0-.4,2.1-4.5.7-3.9-3,1.3-2.1-4.7-2.1-4.7.3-2,2.7-6.6,3.4-7.2-.5.5-1.3.6-1.8.2-.5-.4-.4-1.4.3-1.6.3,0,.5-.2.8-.3.6-.5.9-1.4,1-2.2,0-1.1-.2-2.2-.1-3.3.2-2.8,3-5,5.9-4.9,2.8.1,5.3,2.3,6.2,5,.9-.4,2-.7,2.9-.3.9.4,1.1,2.1,0,2.3-1.2.3-2.4.9-3.1,2.2-.2.4.4.9-.4,1.7-.4.4-.5,1.3-.8,1.8-.8,1-1.9,1.6-3.6,1.4-.3.7-.4.9-.3,1,1.9.8,2.9,3,3.7,5l1.2,3.1c1.8-.8,3.8-.9,5.7-.5.7.2,1.3.4,2,.2.7-.2,1.1-1.1.7-1.6l-4.1-.9c1.5,0,2.9.2,4.4.2.4-2.6,1.2-6.5,2.3-11.5h5.4c.1-.4.3-1,.5-1.7.2-.7.2-1.5.4-2.2.1-.7.8-1.4,1.5-1.3,1-5.2,2.1-9,3.1-14.2.2-.9.8-2.1,1.7-1.7ZM59.1,54c-.8,2.9-1.1,4.6-.9,4.9.3.5,3,.8,3.9,2.1.9,1.3-.1,1.5-.3,2.8-.2,1.2.3.4.2,2.6,0,1.4-.2,4.4-.5,9h0c0,.1,4.1-19.7,4.1-19.7-1-.1-2-.3-2.8-.5-.8-.2-2.1-.6-3.7-1.1ZM67.2,56.5l-1.7,8,5.1,1.8-3.4-9.8ZM50.7,52.9l-.8,4.6,2.8,1-1.9-5.6ZM53.8,52.2l2,6.4,1.1-5.3-3.2-1.1ZM50.1,50.2c-1.5,1.1-2.6,1.8-3.2,2.2-.6.4-.8.6-1.3.8-1.3.5-2.2.4-2.6-.3,0,1.1,0,1.9-.1,2.4,0,.5-.2,1-.4,1.5,1.2.8,2.3,1.2,3.4,1.4s1.9,0,2.6-.3l1.7-7.7Z"/>
      <path class="cls-3" d="M32.7,27.9c.5-.1,4-.9,5.8-1.6,1.2-.5,2.7-1.3,4.7-2.5.1.6.3,1,.4,1.3.2.3.5.4.9.4-.7.6-1.2,1-1.6,1.2-1.8,1.1-3.7,1.7-5.5,2.1-1.7.4-2.9.9-3.9.8-.4,0-.7,0-1-.4s-.5-1.3,0-1.4Z"/>
      <path class="cls-4" d="M67.4,8.2c.6.3.6,1.1.5,1.8-1,5.2-2,9-3,14.1,0,.1.2,0,.4.1.2,0,.5.2.4.4-.1,1.4-.6,2.8-1.1,4.5,1.2,0,3,0,5.4.1.2,0,.3.1.3.3h0c0,1.3-.1,2.5-.5,3.7.6-.2,1.3.3,1.5.9.2.6,0,1.3,0,1.9-1.2,5.9-2.3,11.8-3.5,17.8.8,0,1.2.9,1.5,1.6,2.9,7.9,5.7,15.8,8.4,23.7-.3.7-1.3.8-1.9.3-.6-.4-.9-1.1-1.1-1.8-.8-2.2-1.6-4.4-2.4-6.6-2.7.7-5.4,1.4-8.1,2.1-.9,3.4-1.6,6.9-2.2,10.4.4.3.8.6,1,1.1,0-.6.5-1,1.1-1.1.3.6.3,1.3,0,1.8.9.4,1.8.9,2.7,1.3-.9,0-1.9-.3-2.7-.8.5.8,1.6,1,2.4,1.3.9.3,1.8,1.1,1.6,2.1-.3,1-1.6,1.2-2.6,1.1-2.2-.3-4.4-.9-6.4-1.8-.5-.2-1.1-.7-.9-1.2.7-2.1.6-4.5-.5-6.5-1,2.2-1.4,4.7-1.1,7.2.5-.2,1-.4,1.4-.7-.4,1.3,1.1,2.7,2.4,2.2-.5.3-1.1.5-1.7.4.9.5,1.8,1,2.8,1.6.6.3,1.2.7,1.2,1.4,0,.9-1.1,1.4-2,1.5-3.1.3-6.4-.4-9.1-2.1,1.2-6.1,1.6-12.4,1.1-18.6-1.5,1.1-3.3,1.7-5.1,1.6.5,4.7.9,9.4,1.4,14.1,0,.9.2,2-.3,2.8-.5.8-1.9,1.1-2.4.3-.2-.3-.2-.7-.3-1-.6-6-1.2-12.1-1.7-18.1-2,0-3.9,0-5.9,0-.2,6.1-.4,12.2-.6,18.3,0,1.5-.6,3.5-2.1,3.4-1.5,0-1.8-2.1-1.8-3.5.3-6.2.5-12.4.8-18.6-.7-.4-1.6-.6-2.4-.6-1.1,4.9-2.2,9.8-3.2,14.7,0,.4-.2.8-.5,1-.6.5-1.5,0-1.8-.7-.3-.7-.1-1.4,0-2.1,1-4.3,1.9-8.6,2.9-12.9,0-.4.1-.9-.2-1.1-1.2-.6-1.2-2.4-.4-3.4.8-1.1,2.1-1.6,3.4-2-3-5.2-4.2-11.4-3.3-17.4.1,2.5.2,5.1.3,7.6,4.7.7,9.5,0,13.8-2.1.2-3.2-4.8-4.8-4.8-8.1,1.4,2.4,3.2,4.6,5.3,6.5.3.3.7.6,1.1.6.4,0,.7-.1,1-.3,3.1-1.7,6-3.8,8.5-6.3-.5-1.1-1.3-2.1-2.3-2.8-1.3,1.2-2.7,2.3-4,3.5-.3.3-.6.5-1,.5-.5,0-.9-.3-1.2-.7-2.3-2.8-2.4-7.5-5.7-9-.5,1.5-1.1,3-2.2,4-1.1,1.1-3,1.5-4.2.5-.1,1.1-.6,2.1-1.3,2.9.5-2.4,1.4-4.7,2.5-6.8-2.5,3-3.6,7.2-2.8,11-1.3-1.7-1.3-4.4,0-6.1-1.3,1-2,2.9-1.6,4.5-.6-.2-1.1-.6-1.3-1.2,0,.5,0,1,.1,1.5-.5-.4-1-.7-1.5-1.1.3.5.7.9,1,1.4-1.6,0-2.9-1.5-2.9-3h0s0,1.5,0,1.5v1.5c0,0,0-.1,0-.1,0-1.6-.2-3.2-.7-4.6-.7-2,.1-4.3,1.8-5.6h0s0,0,0,0c-.4.2-.7.4-1.1.5l6.9-6.6c-.5.5-1.3.6-1.8.2-.5-.4-.4-1.4.3-1.6.3,0,.5-.2.8-.3.6-.5.9-1.4,1-2.2,0-1.1-.2-2.2-.1-3.3.2-2.8,3-5,5.9-4.9,2.8.1,5.3,2.3,6.2,5,.9-.4,2-.7,2.9-.3.9.4,1.1,2.1,0,2.3-1.2.3-2.1,1.1-3,2.1,0,.2,0,.4.1.5.2.4,0,.7-.3.9h0c-.1.2-.2.2-.3.4h0c0,0-.1.5-.2.6-.1.4-.3.7-.5,1-.7,1.1-1.7,1.8-3.6,1.7-.1,0-.3.3-.5.8,1.9.8,2.9,3,3.7,5l1.2,3.1c1.8-.8,3.8-.9,5.7-.5.7.2,1.3.4,2,.2.7-.2,1.1-1.1.7-1.6-1.4-.3-2.7-.6-4.1-.9,1.5,0,2.9.2,4.4.2.4-2.6,1.2-6.5,2.3-11.5h5.4c.1-.4.3-1,.5-1.7.2-.7.2-1.5.4-2.2.1-.7.8-1.4,1.5-1.3,1-5.2,2.1-9,3.1-14.2.2-.9.8-2.1,1.7-1.7ZM36.5,73.2c0,0-.2,0-.3,0,0,0,0,.1,0,.2l-.8,20.6c0,.1,0,.2,0,.3.1.3.5.3.7.2.7-.3.9-1.3.9-2.1.2-6.2.5-12.5.7-18.7,0-.5-.7-.7-1.2-.7ZM34.7,73.4c-.2,6.2-.5,12.4-.7,18.7,0,1,0,2.2,1,2.5.3-6.9.5-13.8.8-20.7,0-.3,0-.6-.2-.8-.3-.3-.8,0-.8.4ZM55.8,88.2c-.3.2-.5.4-.8.6-.3.2-.7.4-1,.4-.4,0-.8-.2-.9-.6,0-.3-.5-.3-.7-.1-.2.2-.3.4-.3.7-.2,1-.3,2.1-.2,3.1l2.2.9c1.6.6,3.2,1.2,4.9,1-2.4-.4-4.7-1.1-6.9-2.1.5-.2,1.1,0,1.7.3,1.6.7,3.3,1.1,5,1.4.3,0,.8,0,.9-.3.2-.7.8-1.3,1.5-1.6-.5-.6-1.4-.7-2.1-.3-.1,0,0-.3,0-.4.1,0,.3,0,.4,0-.2-.3-.6-.4-.9-.4s-.7.3-.9.5c0-.4.3-.8.7-.8,0-.2-.3-.3-.5-.3-.2,0-.4.2-.7.2,0-.4.5-.6.8-.6-.1-.4-.8-.4-1.1,0-.3.4-.3.8-.5,1.2-.2.4-.7.7-1,.5.6-.3,1-.9,1.1-1.5-.4.1-1,.2-1.3-.2-.2-.2-.2-.6,0-.9.2-.2.6-.3.9,0,.3.2.6-.3.5-.6-.2-.3-.6-.3-.9-.2ZM61.2,92.3c-.4.2-.6.5-.8.9l-.3.5c0,0,0,.2,0,.2.4-.2.9-.2,1.3-.3.4-.1.9-.5.8-1-.1-.4-.6-.5-1-.3ZM44.5,73.4c.5,6.2,1.1,12.3,1.7,18.4,0,.3,0,.6.3.7-.6-6.3-1.1-12.6-1.7-18.9,0-.2-.2-.4-.3-.3ZM46.8,73.2c-.4,0-.8,0-1.2.1,0,0-.2,0-.3.1,0,0,0,.2,0,.2.5,6.1,1.1,12.2,1.6,18.2,0,.5.9.6,1.3.2.4-.4.3-1,.3-1.6,0-.7-.1-1.4-.2-2.1l-1.4-15.2ZM61,88.8c1.2.8,2.6,1.3,4,1.5,0,0,0-.2-.2-.2-.6,0-1.2-.3-1.8-.5-.7-.3-1.3-.7-2-.7ZM67,88.4c-.4.3-.8.7-1,1.2,0,0,0,.1,0,.2,0,.1.2.1.3.1.2,0,.4,0,.5,0,.2,0,.5,0,.6-.3,0-.1.1-.3,0-.5,0-.2,0-.4-.2-.6,0,0,0-.1-.1-.2,0,0-.2,0-.3,0ZM61.7,84.1c-.2,0-.4.3-.5.5,0,.2,0,.5-.2.7-.2.3-.5.4-.8.4-.3,0-.6-.3-.7-.6,0-.2-.4-.3-.7-.1-.2.2-.3.4-.4.7-.2.5-.3,1.1-.1,1.6.2.5.7.8,1.2.9.5.1,1.1.1,1.6.2,1.4.3,2.7,1.3,4.1,1.3.2,0,.3,0,.4-.2.2-.7.6-1.2,1.2-1.6-.5-.3-1-.6-1.5-.7-.5,0-1.2,0-1.5.6,0-.3-.1-.6-.2-.9-.2.1-.5.2-.7.2.1-.1.3-.3.3-.5s-.2-.4-.4-.3c-.3.1-.5.3-.8.3-.3,0-.6-.2-.7-.5,0-.3.2-.6.5-.7.3,0,.6,0,.9,0-.1-.2-.2-.5-.3-.7-.2-.3-.4-.7-.8-.6ZM55.7,89.2c-.2.1,0,.4.1.5.2,0,.4,0,.6,0,.1,0,.2,0,.3-.2-.2-.2-.5-.2-.8-.3,0,0-.1,0-.2,0ZM57.2,88.7c-.1.1-.1.4,0,.5,0,0,0-.1.1-.2h0c.1-.1,0-.3,0-.3ZM58.9,69.8c-.6.5-1.1.9-1.5,1.6-.3.4-.5.9-.9,1.2-.8.5-2,0-2.4.8-.1.2-.2.5-.5.5-.4,0-.5.4-.5.8,0,4.3-.1,8.6-.2,12.9,0,.5.4,1.1.9,1.3,0,0,.2,0,.3,0,.6,0,1.2-.4,1.5-1,.3-.6.3-1.2.4-1.8.4-2.8,1.3-5.4,2.1-8,.8-2.7,1.4-5.5.9-8.2ZM58.5,88c0,0,0,.2.1.3.3.2.6.3,1,.3-.3-.2-.7-.4-1.1-.6ZM57.6,87.8c-.1.1-.2.3-.3.5,0,0,0,.2,0,.2,0,0,.3,0,.3,0,0-.1,0-.2,0-.4,0,0,0-.1,0-.2ZM30.5,72.1c-1.1,5.1-2.2,10.2-3.3,15.2,0,.2,0,.5,0,.6.2.2.5.1.7,0,.2-.2.2-.4.3-.7l3.3-14.8c-.3-.2-.7-.3-1.1-.3ZM29.8,72.1c-1,4.3-1.9,8.5-2.9,12.8-.2.8-.4,1.6-.2,2.5,1.1-5.2,2.3-10.3,3.4-15.5,0-.2-.3,0-.4.2ZM64.1,86.9c0,.1,0,.3.2.4,0,0,.2-.2.4-.2h0c0-.2-.4-.3-.5-.2ZM63.6,86.2c-.1.1,0,.3.1.3h0s0,0,0,0l-.3-.3ZM61.8,86.1c.4,0,.9,0,1.3-.1,0,0,.1,0,.1-.2-.5-.2-1,0-1.4.3ZM63.8,84.3c-.4.2-.6.7-.5,1.2,0,0,0,0,0,0,.1,0,.2,0,.3-.2,0-.3.1-.7.2-1ZM61.6,64.4c0,1.3-1.3,2.2-1.9,3.4-.6,1.2-.4,2.6-.4,3.9,0,2.6-.4,5.1-1.4,7.5-.3.7,0,1.5.1,2.2.3.9.5,1.7.8,2.6,0,.2.2.5.4.5.3,0,.4.3.6.5.2.2.4.4.7.3,0,0,.1-.1.2-.2,1-1.7.7-3.8.5-5.8-.3-4.5.5-8.9.6-13.4,0-.5,0-1-.2-1.4h0ZM69.8,34.2c-2.3,14.4-4.9,28.7-8,42.9-.3,1.5-.4,3.1-.1,4.7,2.5-12.1,4.9-24.2,7.3-36.3.7-3.4,1.3-6.8,1.8-10.3,0-.4,0-.8-.1-1.1-.2-.3-.8-.3-.9,0ZM67.4,56.6l7.9,22.3c.1.3.3.6.6.7-2.7-7.6-5.4-15.2-8.1-22.8,0-.2-.3-.4-.4-.2ZM67.6,54.9c.3-.2.8,0,1,.3.2.3.1.8-.2,1-.2.1-.1.4,0,.6,2.7,7.5,5.3,15.1,8,22.6.2.2.6,0,.7-.3,0-.3,0-.6,0-.8l-8.2-23.2c-.1-.3-.3-.7-.6-.8-.3-.1-.7.3-.5.5ZM59.3,54.1c-.4,1.3-.7,2.7-.9,4.1,0,.4,0,.9.3.9,1.1.2,2.2.4,3,1.1.8.7,1.3,2,.6,2.9-.2.3-.6.7-.4,1.1.4.8.4,1.7.3,2.5-.2,2.8-.4,5.5-.6,8.3,1.3-6.4,2.5-12.8,3.8-19.3-2.1-.1-4.1-.9-6.1-1.6ZM59,66.4c.1.3.3.7.4,1-.2,0-.5-.2-.7-.3,0,.3.2.6.4.9-.3,0-.5-.1-.7-.3-.2.4-.1,1,.1,1.4-.2-.2-.4-.3-.6-.3-.2,0-.5.1-.5.4.3.1.5.5.3.8-.1-.2-.3-.4-.5-.5-.2,0-.5,0-.5.3,0,.2.1.3.2.4,0,.1,0,.4,0,.4-.2-.2-.4-.4-.7-.6,0,.4,0,.8.1,1.1-.2-.4-.7-.9-1-.6.2.3.4.7.4,1.1-.3,0-.4-.3-.5-.5-.1-.2-.5-.4-.6-.2.2.3.3.7.3,1.1-.4.2-.6-1-1.1-.8-.2.1,0,.4,0,.6,0,.2,0,.6-.1.6l-.5-.9c-.1,0-.2.1-.3.2.2.3.3.7.1,1-.2,0-.3-.3-.3-.5,0-.2-.3-.4-.4-.2,0,0,0,.1,0,.2,0,.3.1.7.2,1-.3,0-.4-.4-.4-.6,0-.3-.4-.5-.6-.3.2.3.2.7,0,1-.1-.3-.3-.6-.6-.8.1.4.1.9,0,1.3-.3-.3-.5-.8-.4-1.2-.4,0-.4.5-.3.9,0,.3,0,.9-.3.9,0-.4,0-.7,0-1.1,0-.1,0-.3-.1-.4,0-.1-.3,0-.3,0,.1.4,0,.8-.1,1.2-.2,0-.3-.2-.3-.4,0-.2.1-.4,0-.5,0-.2-.3-.3-.4-.1,0,0,0,.1,0,.2v1.2c-.3-.2-.5-.7-.3-1.1,0-.2-.3-.3-.4,0,0,.2,0,.4,0,.6,0,.2,0,.5-.2.5-.3-.4-.3-1-.2-1.4-.2,0-.4,0-.5.2,0,.4,0,.8.1,1.3,0,.2,0,.3.1.5.4.5,1.3-.6,1.8-.1.4.3,1,.1,1.3-.2.4-.3.7-.7,1.1-.9.7-.3,1.8,0,2.2-.7.5-.8,1.8-.3,2.5-.8.3-.3.5-.7.7-1,.4-.5,1-.9,1.4-1.4.6-.8.7-2,1.4-2.7-.3-.2-.6-.4-.9-.6ZM28.6,69.1c-.4.3-.4,1,0,1.5.3.4.9.7,1.4.8,4.4,1.6,9.2,1.6,13.9,1.6,1.1,0,2.1,0,3.2-.3,1.3-.3,2.6-1.2,2.7-2.6-.3.8-1.1,1.4-2,1.6-.8.3-1.7.3-2.6.3h-2.5c-4.2,0-8.5,0-12.5-1.4-.7-.3-1.5-.7-1.5-1.5ZM72,70.8c-2.5.5-4.9,1.1-7.4,1.8-.2,0-.5.1-.7.2.1,0,.3,0,.4,0,2.5-.7,5.1-1.4,7.6-2.1ZM40.4,57.6c-.9.4-2,.6-3,.7-1,.1-2.1.3-3.1.4-.7,0-1.4.2-2.1.2-.9,0-1.8-.1-2.6-.5.2,1.4.5,2.9,1,4.2.5,1.3,1.4,2.6,2.6,3.4.8.5,1.7.8,2.7,1,2.6.6,5.3.4,8,.2,1,0,2-.1,3-.2.6,0,1.3,0,1.9-.2.7-.1,1.3-.4,1.9-.6,2.6-1,4.9-2.4,7.3-3.8,0,0,.2.2.2.3,0,.1-.2.2-.2,0-2.9,2-6.1,3.5-9.5,4.6,1,.4,1.7,1.5,1.6,2.6,0,1.1-.8,2.1-1.8,2.5,2.3-.2,4.5-1,6.5-2,1.1-.6,2.2-1.3,3-2.3.6-.7.9-1.5,1.3-2.3.7-1.7,1.1-3.5,1.4-5.4,0-.2,0-.4,0-.6,0-.1-.3-.2-.4-.2-2.3-.7-4.7-.9-7.1-.7-1.1,0-2.2.3-3.3,0-1-.2-1.9-.7-2.9-.8-.8,0-1.6.2-2.3,0-.7-.3-1.2-1.1-1.9-1.2-.7-.1-1.4.3-2,.6ZM70.6,67l-5.1.9c-.2,0-.3,0-.4.2,0,.1-.1.2-.2.4-.2,1.3-.5,2.6-.7,3.9,2.6-.7,5.1-1.3,7.7-2,0,0,0,0,.1,0,0,0,0-.2,0-.3-.3-.9-.6-1.8-.9-2.7,0-.2-.2-.5-.4-.4ZM29.8,67.5c-.4.3-.9.7-.9,1.3,0,.7.8,1.2,1.5,1.5,3.4,1.3,7.2,1.3,10.8,1.3,1.4,0,2.9,0,4.3,0,1.1,0,2.3,0,3.2-.8.4-.3.7-.8.7-1.3,0-.8-.6-1.5-1.4-1.8-.8-.3-1.6-.2-2.4-.2-2.1.2-4.2.4-6.3.4-2.1,0-4.2-.4-6.1-1.4-1.1-.6-2.4.2-3.4.9ZM50.3,70.8c.1,0,.1.3,0,.4h0c-.2,0-.2-.3,0-.4ZM52.5,71c0,.1,0,.3-.2.3-.1,0-.1-.3,0-.3h0c0,0,.1,0,.1,0ZM51.5,71.1c0,0,0,.1-.2.1,0,0-.1-.2,0-.2h0c0-.1.3,0,.2.1ZM52.5,70c0,0,0,.1.1.2,0,0-.1.1-.2.2h0c0,0,0-.1-.1-.2,0,0,.1-.1.2-.2ZM54.2,70.1h0c0,0,0,.2,0,.3-.1,0-.3,0-.3-.2,0-.1.2-.2.2-.1ZM51.4,70.1c0,0,.1.1.1.2,0,0-.2,0-.2,0h0c-.1,0,0-.3.1-.2ZM53.3,70.1c0,.1-.1.3-.2.1,0-.1.1-.3.2-.1ZM55.1,69.2h0c0,.1,0,.3-.1.3,0,0-.1-.1,0-.2s.2-.1.2,0ZM53.4,69.2h0c0,.1-.1.2-.3.2,0,0,0-.2,0-.3,0,0,.3,0,.2.1ZM51.5,69.2h.2c0,.2-.1.3-.2.2,0,0-.1-.2,0-.2h0ZM56.1,69.2c0,.1,0,.2-.2.2,0,0,0-.1-.1-.2h0c0,0,.2-.1.3,0ZM54.3,69.1c0,0,.1.1.1.2,0,0-.1.1-.2,0h0c0,0,0-.1-.1-.2,0,0,.1,0,.2-.1ZM52.3,69h.2c0,.2-.1.3-.2.3-.1,0-.1-.2,0-.2h0ZM56.2,68.3c0,.2-.3.2-.3,0,0-.2.3-.2.3,0ZM50.3,68.1c0,0,.1,0,.1.2,0,0-.1.1-.2,0h0c-.1,0,0-.3.1-.2ZM57.1,68c0,0,0,.1.1.2l-.2.2h0c-.2,0,0-.3,0-.4ZM53.2,68c0,0,.1.1.2.2,0,0,0,.2-.1.1h0c-.2,0-.1-.2,0-.3ZM52.5,68.2h0c0,0,0,.1,0,.2,0,0-.2,0-.2-.2,0,0,.2-.1.2,0ZM55.3,68c.1,0,.1.3,0,.3-.1,0-.3,0-.3-.2s.2-.2.3-.2ZM54.2,68.2h0c0,0-.1.1-.2,0,0,0,0-.2.1-.2s.2.1.1.2ZM51.6,68.1c0,0-.2.1-.2.1h0s0,0,0,0c0,0,0,0,0-.2,0-.2.3,0,.3,0ZM65.5,65.3c-.2.7-.3,1.4-.4,2.1,0,0,0,.1,0,.1,0,0,.1,0,.2,0,1.4-.3,2.8-.5,4.3-.8,0,0,0-.2-.2-.2-1.3-.4-2.6-.9-3.9-1.3ZM51.6,67.2h0c0,0,0,.2,0,.2,0,0-.2,0-.2-.1,0,0,.2-.1.2-.1ZM50.6,67.3c0,0-.1.1-.2.2,0,0-.1-.2,0-.2h0c0-.1.3,0,.3,0ZM53.4,67.3c0,0,0,.1-.2.1,0,0-.1-.2,0-.2h0c0-.1.3,0,.2.1ZM52.5,67.1c.1,0,.1.2,0,.2h0c0,0-.2,0-.2,0,0-.1.1-.2.2-.2ZM55.2,67.2c0,.1-.2.2-.3.1,0,0,0-.2,0-.3h0c0,0,.2,0,.2.2ZM54.4,67.3c0,0-.2.1-.3.1,0,0-.2-.1-.1-.2h0c.1,0,.3,0,.4,0ZM58.1,67.3c0,0-.1,0-.2.1h0c0,0-.1-.1,0-.2,0,0,.2,0,.2,0ZM56.1,67.2h0c0,.2-.3.2-.3,0,0,0,.2-.1.3,0ZM57.1,67c.1.1-.1.3-.2.2-.1-.1.1-.3.2-.2ZM40.2,67.1c0,.1-.2.2-.3.1,0-.1.2-.2.3-.1ZM60.4,62.8c-.2,0,0,.3.1.5.2.2.4.3.6.5.1,0,0,.3-.2.3-.2,0-.3-.2-.4-.3-.1-.1-.3-.2-.4-.2-.2.2,0,.5.2.6.2.1.5.2.6.5-.2.2-.5,0-.7,0-.1-.1-.4-.2-.5,0,0,.1,0,.2.1.3.3.2.8.4.8.8-.4,0-.8-.3-1.1-.5-.1.1,0,.4,0,.5.1.1.3.2.4.3.1.1.1.4,0,.5-.2-.3-.5-.5-.9-.6.1.4.4.7.7,1,0,0,0,0,0,0,0,0,0,0,.1,0,.8-.8,1.1-2,1.3-3.1,0-.2-.1-.3-.3-.4l-.9-.4ZM65.5,65c1.6.6,3.2,1.1,4.8,1.7.2,0,.4,0,.4-.1-1.6-.6-3.1-1.1-4.7-1.6-.2,0-.3,0-.5,0ZM52.5,66.4c0,.1-.2.2-.3.1h0c0-.2.2-.3.3-.1ZM56.2,66.2c.1,0,0,.3,0,.3-.1,0-.3,0-.3-.2s.2-.2.3-.1ZM44.9,66.4c0,.1-.2.2-.3.1,0,0,0-.2,0-.3h0c0,0,.2,0,.2.2ZM39.4,66.4c0,0-.2.1-.3,0-.1,0-.1-.2,0-.3h0c.1,0,.3,0,.3.2ZM53.4,66.4c0,.1-.1.2-.2.1,0,0,0-.2,0-.2h0c0,0,.2,0,.2.1ZM47.6,66.2c0,.2-.2.4-.3.2,0-.1.1-.3.3-.2h0ZM35.5,66.4c0,0-.1.1-.2,0h0c0-.1.2-.2.2,0ZM58.1,66.3c0,.1-.2.1-.3,0h0c0-.2.3-.2.4,0ZM36.4,66.2c0,0,.2.1.1.2h0c-.1,0-.3,0-.4,0,0,0,.2-.1.3-.1ZM49.5,66.3c0,.1-.2.1-.3,0h0c0-.2.3-.2.4,0ZM46.6,66.3c0,0-.2.1-.2.1h0c0,0,0-.2,0-.2,0,0,.2,0,.2.1ZM54.4,66.3c0,0-.2.1-.3,0h0c0-.2.3-.2.3,0ZM41.1,66.3c0,.2-.3.1-.4,0h0c.1-.1.3-.1.4,0ZM41.9,66.2c0,0,0,.2,0,.2,0,0,0-.2,0-.2h0ZM37.4,66.3h0c0,.2-.3.2-.3,0,0,0,.2-.1.3,0ZM34.5,66.2h0c0,0,0,.2,0,.2,0,0-.1,0-.1,0,0,0,.1,0,.2-.1ZM48.5,66.1c.1,0,.2.2,0,.3h0c0,0-.3,0-.3,0,0-.1.2-.2.3-.2ZM45.9,66.3h0s-.2,0-.2,0c0,0,0-.1,0-.2,0-.1.3,0,.3.1ZM43,66.3h0s-.2,0-.2,0c0,0,0-.1,0-.2,0-.1.3,0,.2.1ZM57,66.1h.2c0,.2-.1.3-.2.2,0,0-.1-.2,0-.2h0ZM43.8,66.1c0,0,0,.2,0,.3h0s0,0,0,0c0,0,0,0,0-.2,0,0,.1,0,.2-.1ZM40.3,66.3h0s0,0,0,0c0,.1-.3.1-.3,0,0-.1.3-.1.3,0ZM55.1,66.1h.2c0,.2-.1.3-.2.2,0,0-.1-.2,0-.2h0ZM38.3,66.3h0c0,0-.2,0-.3,0,0-.2.3,0,.3,0ZM67.1,56.8l-1.4,7.2c0,.2,0,.3,0,.4,0,.1.3.2.4.3l4.3,1.4c-1.1-3.1-2.2-6.2-3.3-9.3ZM42,65.6h0c0,0-.1.1-.2,0,0,0,0-.3,0-.3.1,0,.2.2.1.2ZM38.3,65.7h0c-.1,0-.3-.1-.2-.2.1,0,.3.1.2.2ZM47.7,65.5c0,0,0,.1-.2.2,0,0-.2,0-.2-.1h0c0-.2.3-.2.3,0ZM49.3,65.4h.3c0,.2-.2.3-.3.3-.1,0-.2-.2,0-.3h0ZM43.8,65.4c.1,0,.1.2,0,.3h0s0,0,0,0c0,0,0-.2,0-.3ZM55.3,65.4c0,0,0,.1,0,.2h0c0,.1-.3,0-.3,0,0,0,.1-.1.2-.1ZM34.5,65.4h0c0,0,0,.1,0,.2,0,0-.2,0-.2-.2,0,0,.2-.1.2,0ZM51.3,65.3c0,0,.1.2,0,.3h0c0,0-.1,0-.2,0,0,0,0-.2.1-.2ZM41.3,65.3h0c0,.1,0,.3-.1.3-.1,0-.2-.2-.2-.3,0-.1.3-.1.3,0ZM43.1,65.3c0,0,0,.2,0,.2-.1,0-.2-.2-.2-.3h0c0,0,.2,0,.3,0ZM40.1,65.6c-.1,0-.3-.2-.1-.3.1,0,.3.2.1.3ZM56.9,65.3c.1,0,.2.2.1.3,0,0-.2,0-.3,0h0c0,0,0-.2.2-.2ZM58.1,65.2c0,0,.1.2,0,.3,0,0-.2.1-.3,0h0c0-.2,0-.4.2-.4ZM45.7,65.4c0,.1-.2.3-.3.1s.2-.3.3-.1ZM39.1,65.3c0,0,.1.2,0,.3,0,0-.2,0-.2,0,0,0,0-.2.2-.2h0ZM44.9,65.4c0,0-.1.1-.2,0,0,0-.1-.2,0-.2h0c0,0,.3,0,.3.2ZM56.1,65.5h0c-.1,0-.3-.1-.2-.2.1,0,.3.1.2.2ZM35.5,65.4h0c0,0-.1.2-.2.1,0,0,0-.2,0-.2,0,0,.2,0,.2.1ZM36.5,65.2h0c0,0,0,.2,0,.3-.1,0-.3,0-.3-.1,0-.1.2-.2.3-.1ZM48.5,65.4c0,.2-.3.2-.3,0,0-.2.3-.2.3,0ZM46.5,65.2h.2c0,.2-.1.3-.2.2,0,0-.1-.2,0-.2h0ZM50.4,65.3c0,0,0,.1-.2.1,0,0-.1-.2,0-.2h0c0-.1.3,0,.2.1ZM33.4,65.2c0,0,.1,0,.1.2,0,0-.1.1-.2,0h0c-.1,0,0-.3.1-.2ZM37.5,65.3c0,.1-.3.1-.4,0h0c0-.2.3-.2.4,0ZM37.3,64.5h0c.2,0,0,.4,0,.3,0,0,0-.1-.1-.2l.2-.2ZM52.4,64.5h0c.1,0,0,.3-.1.2,0,0-.1,0-.1-.2,0,0,.1-.1.2,0ZM35.4,64.5c0,0,.1.1,0,.2h0c0,.1-.3,0-.2-.1,0,0,0-.1.2-.1ZM56.2,64.4c0,0,0,.1,0,.2,0,0-.2,0-.2.1h0s-.2-.1-.2-.1c0-.1.2-.2.4-.2ZM33.4,64.4c.1,0,.1.2,0,.3h0c-.1,0-.1-.2,0-.3ZM32.6,64.3c0,.1,0,.3,0,.3h0c-.1,0-.2-.1-.2-.2,0-.1.1-.2.2-.1ZM40.1,64.4c0,0,0,.3,0,.3-.1,0-.2-.1-.2-.2,0-.1.2-.1.3,0ZM44.9,64.6c0,0-.2.1-.2.1h0c0,0,0-.1,0-.2,0-.2.3,0,.3,0ZM50.3,64.4c0,0,.1.2.1.2,0,0-.2,0-.2,0h0s.1-.2.1-.2ZM39.2,64.4c0,0,0,.2,0,.3-.1,0-.2,0-.2-.2,0,0,.1-.1.2-.1h0ZM43.8,64.3c.2,0,0,.3,0,.3,0,0-.1-.2,0-.2h0s0,0,.1-.1ZM49.6,64.3c.1,0,0,.3,0,.3-.1,0-.2-.2,0-.3h0c0,0,.1,0,.2,0ZM57,64.4c0,0,.1.2,0,.3,0,0-.2,0-.2-.1h0c0-.1.1-.2.2-.1ZM47.6,64.3c0,0,0,.1.1.2,0,0-.1.1-.2.2h0c-.1,0,0-.3.1-.3ZM46.5,64.3c.1,0,.2.1.1.2s-.2,0-.3,0h0c0-.1,0-.3.1-.2ZM58,64.6c-.1,0-.3-.1-.2-.2.1,0,.3.1.2.2ZM41,64.6c-.1,0-.3-.1-.2-.2.1,0,.3.1.2.2ZM45.8,64.6c0,0-.2,0-.3,0,0,0,0-.2,0-.3h0c.1,0,.3.1.2.2ZM53.5,64.4h0c0,0,0,.2,0,.2,0,0-.2,0-.3,0-.1-.1.1-.4.3-.2ZM38.4,64.4c0,0-.1.1-.2.2h0c0,0-.2,0-.2-.2,0-.1.3-.1.4,0ZM34.8,64.4c0,.1-.2.2-.3.2h0c0,0,0-.2.1-.3,0,0,.2,0,.3.1ZM36.7,64.4c0,.2-.3.2-.3,0,0-.2.3-.2.3,0ZM51.8,64.4c0,.2-.3.2-.4.1h0c0-.2.3-.3.4-.1ZM41.8,64.3c.1,0,.2.1.1.2,0,0-.2.1-.3,0,0,0,0-.2.1-.2h0ZM58.9,64.3c0,0,0,.2,0,.2,0,0-.2,0-.2,0h0c0-.1.1-.2.2-.2ZM42.9,64.3c0,0,0,.2,0,.2h0c0,0-.2,0-.2-.1s.1-.2.2-.1ZM48.7,64.4c0,.1-.3.1-.4,0h0c0-.1.3-.1.3,0ZM38.3,63.5c0,0,.1.2.1.2h0s0,0,0,0c0,0,0,0-.2,0-.2,0,0-.3,0-.3ZM55.2,63.5h0c0,.1,0,.3-.1.3,0,0-.1-.1,0-.2,0,0,.1-.1.2,0ZM42.1,63.5c.1,0,0,.3,0,.2h0c0,0-.2,0-.2,0,0-.1.2-.2.3-.2ZM44.9,63.6c0,.1-.2.2-.3.2,0,0,0-.2,0-.3,0,0,.2,0,.3,0ZM33.4,63.6c0,0-.1.1-.2.1,0,0,0-.1-.1-.2,0,0,.1,0,.2-.1h0c0,0,.1,0,.1.2ZM50.4,63.5c0,0,0,.2-.1.2h0c0,0-.2,0-.2-.2s.2-.1.3,0ZM39.2,63.5c.1,0,.1.2,0,.3h0c-.1,0-.3,0-.2-.1,0-.1.2-.2.3-.1ZM35.4,63.4c0,0,.1.1,0,.2h0s0,0-.1.1c-.2,0,0-.3,0-.3ZM49.3,63.4h0c0,.1,0,.3,0,.3-.1,0-.1-.3,0-.3h0ZM59.1,63.7h0c0,.2-.4.1-.4,0,0-.2.4-.1.4,0ZM47.6,63.5c0,0,0,.2,0,.2,0,0-.2,0-.2-.2h0c0,0,.2-.1.3,0ZM32.4,63.4c0,.1,0,.3,0,.3h0c-.1,0,0-.3.1-.3ZM37.4,63.5h0c0,.1-.1.2-.2.3,0,0-.1-.2,0-.3,0,0,.2,0,.3,0ZM43.8,63.5h0s0,0,0,0c0,0,0,0,0,.2,0,.2-.3,0-.3,0,0,0,.2-.1.2-.1ZM54.2,63.4c.1,0,.2.2.1.3,0,0-.2,0-.3,0h0c0-.1,0-.3.2-.3ZM46.7,63.6c0,.2-.3.2-.3,0,0-.2.3-.2.3,0ZM52.3,63.4c.1,0,.2.1.1.2,0,0-.2,0-.3,0h0c0-.1,0-.3.1-.2ZM40,63.4c0,0,0,.1.1.2,0,0-.1,0-.2.1,0,0,0-.1-.1-.2,0,0,.1,0,.2-.1h0ZM51.5,63.5h0c0,.1,0,.2-.1.2-.1,0,0-.3.1-.2ZM31.5,63.4h0c0,0,0,.1,0,.2,0,0-.3,0-.3-.1,0,0,.1-.1.2,0ZM36.4,63.3h0c.2,0,.1.3,0,.3-.2,0,0-.3,0-.3ZM34.5,63.4c.1,0,0,.3-.1.2,0,0,0-.2.1-.2h0ZM45.8,63.5c0,.1-.2.2-.3.2h0c0,0,0-.3,0-.3.1,0,.3,0,.3.2ZM48.5,63.6h0c0,.1-.3,0-.3,0,0-.2.3,0,.3,0ZM53.3,63.4c0,0,.1.2,0,.3,0,0-.2,0-.2-.1h0c0-.1.1-.2.2-.1ZM42.9,63.3h0c0,0,.1.2.1.3,0,0-.2,0-.3,0,0,0,.1-.1.2-.2ZM58.2,63.5c0,.1-.3.1-.3,0h0c0,0,0-.3.2-.3.1,0,.3.2.2.3ZM41.1,63.2h0c.1,0,.2.2.1.3,0,0-.3,0-.3,0,0-.1,0-.2.2-.2h0ZM60.8,60.7c0,0,0,.2-.1.2l1.1.6c0,0,.2.1.2.2,0,.1-.2,0-.3,0-.3-.1-.6-.3-.9-.4,0,0-.1.1-.1.2.4.2.9.5,1.2.8,0,.2-.3.1-.5,0-.2,0-.3-.2-.5-.3-.2,0-.4,0-.4.2.5.2.9.5,1.3.8.3-.2.5-.5.6-.9,0-.4,0-.8-.3-1-.4-.3-.9-.2-1.3-.6ZM44.7,62.6c.1,0,.2.2.2.3,0,.1-.2.1-.3,0,0,0,0-.3.1-.3h0ZM46.6,62.7c0,.1,0,.3-.2.3,0,0,0-.1,0-.2h0c0,0,.1-.1.2,0ZM52.3,62.6h0c.1,0,.2.2,0,.3-.1,0-.1-.2,0-.3ZM54.3,62.6h0c0,.1,0,.3-.2.3,0,0-.1-.2,0-.3,0,0,.2-.1.3,0ZM37.3,62.6c0,.1,0,.3-.2.3,0,0-.1-.1,0-.2,0,0,.1-.1.2,0h0ZM35.4,62.9c0,0-.1-.2,0-.3h0c.2,0,.2.2,0,.3ZM33.4,62.7h0c0,0,0,.1-.1.2,0,0-.1-.1,0-.2,0,0,.2,0,.2,0ZM41.1,62.9c-.1,0-.3-.2-.1-.3.1,0,.3.2.1.3ZM50.3,62.6c0,0,.1.2,0,.2h0c-.1,0-.2-.2,0-.2ZM31.6,62.5c0,0,0,.1.1.2,0,0-.1.1-.2.2h0c0,0-.2,0-.2-.2,0,0,.1-.1.2-.2ZM48.5,62.5h0c0,.1,0,.3-.2.3,0,0,0,0,0-.2,0-.1.2-.2.3-.2ZM42.9,62.6c0,.1,0,.2-.2.2h0c-.1-.1,0-.3.2-.2ZM56.3,62.6l-.2.2h0c-.1,0-.3-.2-.2-.3.1-.1.3,0,.4.1ZM55.1,62.8c-.1,0-.2-.2,0-.3h0c.1,0,.2.2,0,.3ZM39.3,62.6c0,.1-.2.2-.3.2h0c-.1,0,0-.3,0-.3.1,0,.3,0,.3.2ZM32.5,62.4c.2,0,0,.3,0,.3h0c-.2,0-.1-.3,0-.3ZM38.2,62.7c0,0,0,.1-.2.1,0,0-.1-.1,0-.2h0c0-.1.3,0,.2.1ZM43.9,62.6c0,0,0,.2,0,.2,0,0-.1-.1-.2-.2h0c0,0,.2,0,.2,0ZM45.7,62.6c0,.2-.3.2-.3,0,0-.2.3-.2.3,0ZM42.1,62.6c0,.2-.3.2-.3,0,0-.2.3-.2.3,0ZM49.4,62.4c0,0,.1.1,0,.2,0,0-.2.1-.2,0h0c0-.1,0-.3.1-.3ZM59.1,62.6c0,0-.1,0-.2.1h0c0,.1-.3,0-.2-.1,0-.1.3-.1.4,0ZM59.7,62.6c.1,0,0,.2,0,.1h0c0,0,0-.1,0-.1ZM40.2,62.3c0,.1,0,.3-.2.3h0c0,0,0,0-.1-.2,0-.1.2-.2.3-.2ZM51.6,62.6c0,0-.1.1-.2.1,0,0,0-.1-.1-.2,0,0,.1,0,.2-.1h0c0,0,.1,0,.1.2ZM57.1,62.3c0,0,0,.2,0,.3h0c0,0-.1,0-.2.1,0,0,0-.1,0-.2,0-.1.2-.2.3-.2ZM53.4,62.6h0c0,0-.2,0-.2,0,0-.1.2,0,.2,0ZM34.6,62.4c0,0,0,.2,0,.2s-.2,0-.2,0h0c0-.1.1-.2.2-.2ZM36.5,62.5c0,.1-.1.3-.2.1,0-.1.1-.3.2-.1ZM47.7,62.5c0,.2-.4.2-.4,0h0c0-.1.3-.1.4,0ZM55.2,61.7c.1.1-.1.3-.2.2-.1-.1.1-.3.2-.2ZM57.1,61.9c0,0-.2.1-.2.1h0c0,0,0-.1,0-.2,0-.2.3,0,.3,0ZM38.4,61.9c0,0-.2.1-.2.1h0c0,0,0-.1,0-.2,0-.2.3,0,.3,0ZM59,61.7h0c0,.1,0,.3-.2.3,0,0-.1-.2,0-.3,0,0,.2-.1.3,0ZM34.6,61.7h0c.1,0,0,.3-.1.2,0,0-.1,0-.1-.2,0,0,.1-.1.2,0ZM41.9,61.7c.1,0,.1.3,0,.3,0,0-.2,0-.2-.2,0,0,0-.2.1-.1h0ZM40.2,61.9h0c0,.1-.3,0-.3,0,0-.2.3,0,.3,0ZM51.5,61.8c0,.1-.1.3-.2.1,0-.1.1-.3.2-.1ZM47.5,61.9c-.1,0-.3-.2-.1-.3.1,0,.3.2.1.3ZM39.4,61.7c0,.1-.1.2-.2.3,0,0-.1-.2,0-.3h0c0,0,.3,0,.3,0ZM50.4,61.6c0,0,0,.1.1.2l-.2.2h0c-.2,0,0-.4,0-.3ZM44.8,61.6c0,0,.1.2.1.3,0,0-.2,0-.3,0,0-.1,0-.2.2-.2h0ZM56.2,61.6h.2c0,.2-.1.3-.2.4-.2,0-.1-.3,0-.3h0ZM52.4,61.6c.2,0,0,.3,0,.3,0,0-.1-.2-.1-.2h0c0,0,.1,0,.2,0ZM35.5,61.6h0c.2,0,.1.3,0,.3-.2,0,0-.3,0-.3ZM36.5,61.7c0,0,0,.3-.2.2-.1,0-.1-.2,0-.3h0c0,0,.1,0,.2,0ZM54.5,61.6h0c0,.1,0,.3-.2.3,0,0-.1-.2,0-.3,0,0,.2-.1.3,0ZM37.5,61.6c0,.1,0,.3-.2.3-.1,0-.1-.3,0-.3h0c0,0,.1,0,.1,0ZM53.4,61.7c0,.1-.1.3-.2.2h0c0-.1.1-.3.2-.2ZM48.7,61.8c0,.1-.2.2-.3,0s0-.3,0-.3c.1,0,.2,0,.2.2ZM33.5,61.6c0,0,0,0,0,.2,0,0-.1.2-.2.1h0c0-.1,0-.3.1-.3ZM46.8,61.6h0s0,0,.1.1c-.1.1-.3.1-.4,0-.1-.1.1-.3.3-.2ZM43.8,61.8c0,0-.2,0-.2,0,0,0,0-.2,0-.2h0c0,0,.2,0,.1.2ZM58.1,61.6c.1,0,0,.3,0,.3h0c0,0-.1,0-.2,0,0-.1.1-.3.2-.2ZM41.3,61.8h0c0,.1-.2.1-.3,0,0-.1,0-.2.1-.2.1,0,.2,0,.2.2ZM59.9,61.7c0,0-.1.1-.2.2,0,0,0-.1-.1-.2,0-.1.2-.1.3,0ZM49.3,61.6c0,0,0,.1.1.2,0,0-.1,0-.2.1,0,0,0-.1-.1-.2h0c0,0,.1,0,.2-.1ZM43,61.8c0,0,0,.1-.2.1,0,0-.1-.1,0-.2h0c0-.1.3,0,.2.1ZM45.7,61.4c.1.1,0,.4,0,.4,0,0-.1-.1-.2-.2,0,0,.1-.1.2-.2h0ZM31.7,61.6h0c0,.2-.3.3-.4.1,0-.2.3-.2.4-.1ZM32.5,61.6c0,.1-.1.3-.2.1,0-.1.1-.3.2-.1ZM58,61h0c-.1,0-.2-.3,0-.3.1,0,.2.3,0,.3ZM52.5,61h0c0,0-.1,0-.2,0,0,0,0-.1,0-.2,0-.1.3,0,.2.1ZM49.3,60.7c.1,0,.2.1.2.2,0,.1-.1.2-.2.1,0-.1,0-.3,0-.3h0ZM32.5,60.9h0c0,0-.1.1-.2,0,0,0,0-.3,0-.3.1,0,.2.2.1.2ZM35.4,60.8h.2c0,.2-.2.3-.3.2,0,0,0-.2,0-.2h0ZM41.2,61h0c-.1,0-.3-.1-.2-.2s.3.1.2.2ZM34.6,60.7h0s0,.3,0,.3c0,0-.3,0-.3-.1,0-.1.2-.2.3-.2ZM51.5,60.7h0c0,.1,0,.2,0,.3-.1,0-.3,0-.3-.1,0,0,.1-.2.2-.2ZM33.5,60.8c0,0,0,.2-.1.2,0,0-.1-.1,0-.2h0c0,0,.1,0,.2,0ZM50.4,60.8c0,0,0,.2,0,.2,0,0-.2,0-.1,0h0c0-.1.1-.2.2-.1ZM30.7,60.8c0,.2-.3.2-.3,0,0-.2.3-.2.3,0ZM44.9,60.8c0,.1-.3.2-.3,0h0c0-.2.3-.2.3,0ZM53.2,60.7c0,0,.1.2.1.2h0c0,0-.2,0-.2,0,0,0,0-.2.1-.2ZM40.2,60.8c0,.1-.2.2-.3.1,0,0,0-.2,0-.3h0c0,0,.2,0,.2.2ZM54.2,60.7l.2.2c0,0-.2.1-.2.1,0,0-.2-.1-.1-.2h0s.1,0,.2,0ZM58.9,60.7c.1,0,.2.1.2.3-.1,0-.3,0-.4,0,0,0,.1-.1.2-.2h0ZM47.6,60.9h0c-.1,0-.3.1-.4,0,0-.2.4-.2.4,0ZM43.8,60.7s0,.1,0,.2c0,0-.2,0-.2,0h0c0,0,0-.1,0-.2,0,0,.2,0,.2,0ZM42.8,60.7c0,0,.1.2,0,.3h0c0,0-.1,0-.2,0,0,0,0-.2.1-.2ZM42.1,60.8h0c0,.1-.2.2-.4.1,0,0,0-.2.1-.2,0,0,.2,0,.2.1ZM59.8,60.7c0,0,0,.2,0,.2,0,0-.1,0-.2,0h0c0-.1,0-.3.1-.3ZM45.6,60.8c0,0,0,.1-.2.1,0,0,0-.2,0-.2h0c0,0,.1,0,.1.1ZM37.2,60.6c0,0,.2,0,.2.2,0,.1-.3.1-.4,0l.2-.2h0ZM46.5,60.7c0,0,0,.1.1.2h0c0,0-.1,0-.2.1,0,0,0-.1-.1-.2,0,0,.1,0,.2-.1ZM55.1,60.9c-.1,0-.2-.2,0-.3h0c.1,0,.2.2,0,.3ZM36.5,60.8c0,0,0,.1-.2.1,0,0-.1-.1,0-.2h0c0-.1.3,0,.2.1ZM57.1,60.7c0,.1-.2.3-.3.1,0-.1.2-.3.3-.1ZM38.2,60.7c0,.1-.1.3-.2.1,0-.1.1-.3.2-.1ZM39.3,60.8c0,.1-.2.1-.3,0,0,0,0-.2,0-.3h0c0,0,.2,0,.2.2ZM56.2,60.6h0c0,0,0,0,.1.2,0,0-.2.1-.3.1,0-.1,0-.3.2-.3ZM48.5,60.6h0c0,0,0,.1,0,.2,0,.2-.3,0-.3,0,0,0,.2-.1.2-.1ZM31.6,60.6h0c0,0,0,.1,0,.2,0,.2-.3,0-.3,0,0,0,.2-.1.2-.1ZM60.8,60.1c-.1,0,0,.2,0,.3.2.2.5.3.9.4-.2-.3-.5-.5-.9-.7ZM43.8,59.8c.2,0,0,.3,0,.3,0,0-.1-.1,0-.2h0s0,0,.1-.1ZM32.5,59.9h.2c0,.2-.2.3-.3.2,0,0,0-.1,0-.2,0,0,.1,0,.2,0h0ZM49.4,59.9h.2c0,.2-.2.3-.3.2,0,0,0-.2,0-.2h0ZM47.6,59.9v.2s0,0,0,0c0,0-.1,0-.2,0,0-.1.1-.2.2-.1ZM30.6,59.9c0,0,0,.1,0,.2h0c0,0-.2,0-.3,0,0,0,.2-.1.2-.1ZM58,59.8c0,0,0,.1,0,.2h-.2c0,0-.1,0,0-.1h0s.2,0,.2,0ZM55.4,60c0,.2-.3,0-.3,0h0c0-.1.3,0,.3,0ZM38.4,60h0c0,.1-.3,0-.3,0,0-.2.3,0,.3,0ZM41.1,59.9c0,.2-.2.3-.3.2h0c0-.2.2-.3.3-.2ZM40,59.8c0,0,.1.2,0,.2h0s-.2,0-.2,0c0,0,.1-.1.2-.1ZM51.4,59.8c0,0,0,.2,0,.2h0s0-.1,0-.1c0,0,.1,0,.2-.1ZM45.8,59.9c0,.1-.2.2-.3.1,0,0,0-.2,0-.3h0c0,0,.2,0,.2.2ZM34.5,59.9c0,0,0,.2,0,.2,0,0-.1,0-.1-.1h0c0,0,.1-.1.2,0ZM57.1,60h0c0,.1-.3,0-.3,0,0-.1.3-.1.3,0ZM35.5,59.8h0s-.2.2-.2.2c0,0-.1-.2,0-.2,0,0,.2,0,.2,0ZM43,59.9c0,.1-.2.1-.3,0h0c0-.1.2-.2.3,0ZM52.3,59.8h0c0,0,0,.2-.1.2,0,0,0,0,0-.2,0,0,.1-.1.2,0ZM36.5,59.7h0c0,0,0,.2,0,.2,0,0-.2,0-.3,0,0-.2.2-.4.3-.2ZM59.1,59.9c-.1.1-.4,0-.4-.1h0c.1-.1.4,0,.4.1ZM53.3,59.7c.1,0,.2.2,0,.3h0c0,0-.2,0-.2,0,0-.1,0-.3.2-.3ZM50.3,59.9h0c-.1,0-.2-.2,0-.3.1,0,.2.2,0,.3ZM42.2,59.9h0c0,.1-.4,0-.4,0,0-.2.4,0,.4,0ZM31.6,59.8c0,.1-.2.1-.3,0h0c0-.1.2-.2.3,0ZM33.5,59.7c0,0,0,.2,0,.2h0c0,0-.2,0-.2-.1,0-.1.1-.2.2-.1ZM48.5,59.8h0s0,0,0,0c0,.1-.3.1-.3,0,0-.1.3-.1.3,0ZM46.8,59.8c0,.1-.3.1-.3,0h0s0,0,0,0c0-.1.3-.1.3,0ZM54.5,59.8c0,0-.2.1-.3.1,0,0-.1-.2,0-.2h0c.1,0,.3,0,.3.1ZM44.9,59.8h0c-.1,0-.3.1-.4,0,0-.2.4-.2.4,0ZM37.5,59.8c0,0-.2.1-.3.1h0c0,0,0-.2,0-.2s.2,0,.3.1ZM39.1,59.6h.2c0,.2-.1.3-.2.2,0,0-.1-.2,0-.2h0ZM56.2,59.7h0c0,.2-.3.2-.3,0,0,0,.2-.1.3,0ZM42.8,58.7c0,0,0,.2,0,.3h0c0,0,0,0-.1-.2,0,0,.1,0,.2-.1ZM41.3,58.8c0,0,0,.2-.2.2,0,0-.2,0-.1-.1h0c0-.1.3-.1.3,0ZM44.9,58.8c0,.2-.3.2-.3,0,0-.2.3-.2.3,0ZM46.6,58.7c0,0,0,.2-.1.2,0,0-.2-.1-.2-.2h0c0,0,.2,0,.2,0ZM40.1,58.7c0,0,0,.2,0,.2,0,0-.2,0-.2-.1h0c0,0,.2-.1.3,0ZM38.2,58.6c0,0,.2.1.1.2-.1,0-.3,0-.3,0h0c0,0,.1-.2.2-.2ZM43.9,58.8c0,.1-.2.1-.3,0h0c0-.1.2-.1.3,0ZM45.6,58.7h.2c0,.3-.4.2-.4,0h.2s0,0,0,0ZM58.6,54c0,0-.1.2-.1.3-.3,1.5-.6,2.9-.9,4.4,0,.1.1.2.2.1,0,0,.1-.2.1-.3.3-1.5.6-3,.9-4.5,0-.1-.2-.1-.3,0ZM50.5,51.4c0,0,0,.1,0,.2-.4,2.2-.9,4.5-1.3,6.7,0,.1,0,.2,0,.3,0,0,.1,0,.2,0,1,.2,2.1.2,3.2,0-.8-.3-1.6-.5-2.4-.8-.2,0-.3-.1-.4-.3,0,0,0-.2,0-.3.3-1.9.7-3.8,1.1-5.7.4.1.6.5.7.9l2,6c0,0,.1.1.2.1.5,0,1,0,1.4,0-.7-2-1.4-4-2-6,0-.1,0-.3-.2-.4-.1-.1-.3-.2-.4-.2l-1.6-.5c-.1,0-.2,0-.3,0ZM41.9,58.6c0,0,0,.1,0,.2h0c0,0-.1,0-.2,0,0,0,0-.2.1-.2ZM36.4,58.7c0,0,0,.2,0,.1h0c-.1,0-.3,0-.2-.1h.3ZM37.4,58.7h0c0,.2-.3.2-.4,0,0-.1.3-.1.4,0ZM39.2,58.7c0,.1-.2.2-.3,0s.2-.2.3,0ZM57.2,53.5c0,0,0,.1-.1.2-.3,1.6-.6,3.2-.9,4.7,0,0,0,.1,0,.2,0,0,0,0,.1,0,.2,0,.5,0,.7,0,0,0,.1,0,.2,0,0,0,0-.1,0-.2.3-1.5.6-3,.9-4.5,0,0,0-.2,0-.2-.2,0-.5-.2-.7-.3,0,0-.1,0-.2,0ZM53.4,52.2c-.1,0,0,.2,0,.3.7,2,1.4,4,2,6,0,.1.1.2.2.2,0-.2,0-.3,0-.4-.6-1.8-1.2-3.6-1.8-5.4,0-.2-.2-.5-.3-.7ZM50.9,52.2c0,.2,0,.5.1.7.6,1.9,1.3,3.8,1.9,5.8.2-.1.1-.4,0-.6-.6-1.8-1.2-3.7-1.9-5.5,0-.1-.1-.3-.2-.3ZM42.7,54.6c-1.7,1.2-3.8,1.7-5.9,1.6-.6,0-1.1.2-1.7.4-1.9.7-4.1.6-5.9-.2,0,.6.2,1.2.5,1.7l.2-1.2.5,1.4c0-.4.1-.9.4-1.2,0,.3,0,.6,0,.9,0,.3.3.5.6.5,0-.3-.2-.5-.2-.8,0-.3.3-.6.5-.4,0,.4,0,.7,0,1.1.1.1.4.1.5,0-.2-.3-.2-.8,0-1.1.2.3.3.6.3,1,0,.2.4.2.5,0,0-.2,0-.5,0-.7,0-.2.5-.4.5-.1-.1.4-.1.8,0,1.2.3-.4.4-.9.4-1.3.2,0,.3.2.3.4,0,.2,0,.4,0,.6.2.2.6-.2.6-.5,0-.3.1-.8.5-.7-.1.4,0,.9,0,1.3.3-.5.5-1,.6-1.6l.3,1.3c0-.4,0-.8.1-1.2,0,0,0-.1,0-.2.1-.1.4,0,.4.2,0,.2,0,.4,0,.6,0,.2.1.4.3.4l.4-1.3c0,.4,0,.8.1,1.1,0,0,0,0,0,.1.1.2.4-.1.4-.4,0-.2,0-.6.3-.5l.2,1c0-.4.1-.8.2-1.2.2.2.3.6.3.9.2.2.4-.2.4-.4,0-.2-.2-.5,0-.7.2,0,.3.3.3.5,0,.2.2.5.4.4,0,0,0-.2,0-.2,0-.3,0-.6,0-.9.2.3.4.6.6.9.2-.4.3-.8.2-1.3.2.3.4.6.5.9,0-.4,0-.7,0-1.1.2.3.4.6.6.9.1-.4.2-.8,0-1.2.3.2.5.5.5.8.2-.5.2-1.1.2-1.6ZM49.6,50.5c-1.1.9-2.3,1.7-3.6,2.5-.5.3-1,.6-1.5.7-.6,0-1.2,0-1.5-.6.2,1.2,0,2.4-.5,3.5,1.5,1.2,3.5,1.8,5.3,1.5.3,0,.4-.4.5-.7l1-5.7c0-.4.2-1,.6-1.1-.5,2.7-1,5.3-1.5,8,.6-2.6,1.1-5.1,1.7-7.7,4.5,1.4,8.9,2.9,13.4,4.3.3,0,.8,0,.7-.3-4.5-1.5-9-2.9-13.6-4.4-.4-.1-.9-.3-1.3,0ZM53.9,52.5c.6,1.8,1.2,3.6,1.8,5.4,0,.1,0,.3.2.4.3-1.6.6-3.2.9-4.8,0-.1-.1-.2-.2-.2-.8-.3-1.7-.5-2.5-.8,0,0-.1,0-.2,0ZM50.8,53.2c0,.1-.1.3-.2.5-.2,1.2-.4,2.3-.6,3.5,0,0,0,.1,0,.2,0,.1.2.1.3.2.7.2,1.3.4,2,.7,0,0,0,0,.1,0,0,0,0-.1,0-.2l-1.6-4.8ZM42.1,57.7c0,0,0,.3,0,.3-.1,0-.2,0-.2-.2,0-.1.2-.2.3,0ZM41.3,57.7c0,0-.2.1-.2.1h0c0,0-.1,0-.2,0,0-.2.3-.2.4,0ZM42.9,57.7h0c0,0,.2,0,.2.1,0,0-.2,0-.2-.1ZM33,56.2c0,0,.1.1,0,.1h0c0,0-.2,0-.2,0,0,0,.1-.1.2-.1ZM32.2,56l.2.2c0,0-.2.1-.3.2h0c0,0,0-.1-.1-.2,0,0,.1-.1.2-.2ZM31.3,56.2c0,0-.2.1-.2.1h0c-.1,0-.1-.2,0-.2,0,0,.2,0,.3,0ZM34.1,56.2h0c0,0-.1,0-.2,0,0,0,0-.1,0-.2,0-.1.3,0,.3.1ZM30.2,56c0,0,0,.2,0,.2h0c0,0-.2,0-.2-.1,0,0,.1-.1.2-.1ZM67.5,55.2c-.1.3-.2.6-.2,1,.3,0,.7-.2.9-.4,0,0,0,0,0-.2,0,0,0-.1-.1-.2-.2-.2-.5-.2-.7-.2ZM68,55.6c0,.1-.3.2-.4.2h0c0-.2,0-.3.1-.3.1,0,.2,0,.3.1ZM35.8,55.3h0s0,.2,0,.2c0,0-.1,0-.2,0-.1,0,0-.3.1-.2ZM30.3,55.3c.1.1-.1.3-.2.2-.1-.1.1-.3.2-.2ZM31.2,55.3h0c0,.1-.2.2-.3.2,0,0,0-.2,0-.3,0,0,.2,0,.2,0ZM32,55.1h0c0,0,.2,0,.2.2s0,.1-.2.2l-.2-.2.2-.2ZM37.6,55.1l.2.2c0,0-.1.1-.2.2-.2,0,0-.3,0-.3h0ZM36.6,55.1c.1,0,.2.1.1.2,0,0-.2.1-.3,0,0,0,0-.2.1-.2h0ZM34.9,55.3h0c0,0,0,.1,0,.1h0c0,0-.2-.1,0-.2,0,0,.2,0,.2,0ZM33,55.1h0c0,0,0,.2,0,.2,0,0-.2,0-.2,0,0,0,0-.2,0-.2,0,0,.2,0,.2,0ZM38.6,55.3c0,.1-.2.1-.3,0h0c0,0,0-.2.1-.2,0,0,.2,0,.2.2ZM69.8,29.7c0,0-.1.2-.1.3-1.7,8.4-3.3,16.9-5,25.3.3,0,.6,0,.8-.3.2-.3.2-.6.3-.9,1.4-8.1,2.9-16.2,4.3-24.3,0-.1-.2-.1-.3,0ZM34.1,55.2h0c0,.1-.2.1-.3,0,0,0,0-.2,0-.3.1,0,.2,0,.2.2ZM39.6,55.1c0,.1-.1.3-.2.1,0-.1.1-.3.2-.1ZM34.7,54.2c.1,0,.1.3,0,.3-.1,0-.1-.3,0-.3h0s0,0,0,0ZM38.5,54.3c.1,0,.2.2.1.3,0,0-.2,0-.3,0h0c0,0,0-.2.2-.2ZM33.2,54.5c-.1,0-.3,0-.3,0,0,0,.2-.1.2-.1h0c0,0,.1,0,.1.2ZM40.4,54.2c.1,0,.2.1.1.2-.1,0-.3,0-.3,0h0c0-.1.1-.2.2-.2ZM30.2,54.3c0,.1,0,.2-.2.2-.1,0-.1-.2,0-.3h0c0,0,.1,0,.2,0ZM41.4,54.3h0c0,.2-.3.2-.4,0,0-.1.2-.1.3,0ZM34,54.1h.2c0,.2-.2.3-.3.3,0-.1,0-.3.1-.3h0ZM36.6,54.1c.2,0,0,.3,0,.3,0,0-.1-.1,0-.2h0s0,0,.1-.1ZM35.8,54.3h0c0,0,0,.1-.1.2,0,0-.1,0-.1-.2,0,0,.2,0,.2,0ZM31.1,54.2h0c0,0,.2,0,.2.2,0,.2-.4.1-.4,0,0,0,.2-.1.2-.1ZM39.6,54.2c0,0,.1.2,0,.2h0c-.1,0-.3,0-.3-.1,0,0,.2-.1.3-.1ZM37.7,54.2l-.2.2c0,0-.1-.1,0-.2h0c0,0,.2,0,.2,0ZM32.1,54.1h0c0,0,.2,0,.2.2,0,.2-.4.1-.4,0,0,0,.2-.1.2-.1ZM55.4,29.8c-.1,0-.2,0-.3,0,0,0-.1.2-.1.3-.7,3.5-1.4,7-2.1,10.5,0,.1,0,.3,0,.4,0,.1.3.1.3,0-.2-.3.2-.7.5-.5.3.1.4.5.5.9.3-.3.7-.7,1.1-.8.5,0,1,.4.8.8.7,0,1.4,0,2.1.1.2,0,.4,0,.6,0s.3-.3.3-.5c-1.3-.4-2.1-1.8-2-3.2s1.3-2.5,2.6-2.7c1.3-.2,2.7.4,3.5,1.5.3.4.4.8.5,1.2,0,1-.6,1.9-1.3,2.6,1.1,0,1.9,1.2,1.7,2.3-.1,1.1-1.1,1.9-2.2,2-.7,0-1,.9-1.1,1.5-.1.7-.2,1.5-.8,1.8-.2,0-.4-.2-.5-.4,0-.2,0-.5.2-.7.3-.7.6-1.3.9-2-.4-.2-.8-.4-1.1-.7-.2.7-.3,1.4-.5,2,0,.3-.2.6-.5.8-.4.2-.8-.1-.9-.5s0-.8.1-1.2l.9-3c-.8-.4-1.7-.5-2.6-.5.5.3.4,1.2,0,1.7-.3.5-.8,1-.8,1.7,0,.4.3.8.3,1.2,0,.4-.4.8-.7.6-.3-.3-.7-.2-1.1,0-.3.2-.6.5-.9.8-.7.8-1.6,1.5-2.4,2.1,4.5,1.4,8.9,2.9,13.4,4.3.1,0,.2,0,.3,0,.2,0,.2-.3.3-.4,1.6-8,3.2-16.1,4.8-24.1-4.6,0-9.3,0-13.9,0ZM30.3,53.4c0,.1-.2.2-.3.1,0,0,0-.2,0-.3h0c0,0,.2,0,.2.2ZM37.8,53.4h0c0,.1-.2.2-.3.2,0,0,0-.2,0-.3,0,0,.2,0,.2,0ZM41.6,53.4c0,0-.2.1-.3.1-.1,0-.2-.2,0-.3h0c.1,0,.3,0,.4.1ZM36.9,53.2h0c0,.1,0,.3-.1.4,0,0-.1-.2-.1-.3,0-.1.2-.2.3,0ZM29.4,53c0,.2,0,.4-.1.5v-.2c-.1,0,0,0,0,0,0-.1,0-.3.2-.3ZM35.7,53.3h0s.1,0,0,0c0,0,0,0,0,.1,0,0,0-.2,0-.2ZM32.2,53.5h0c0,.1-.3,0-.2-.1,0-.1.3,0,.3.1ZM31.2,53.1h0c0,0,0,.1,0,.2,0,.1-.1.2-.2.2,0-.1,0-.3.1-.4ZM33.9,53.2c0,0,.1.2,0,.3h0c-.1,0-.3,0-.3-.2,0,0,.2-.1.3,0ZM35.1,53.3c0,.1-.1.2-.2.2-.1,0-.1-.2,0-.3,0,0,.3,0,.3.1ZM39.7,53.3c0,.1-.2.2-.3.2h0c0,0,0-.2.1-.3,0,0,.2,0,.3.1ZM33.2,53.2c0,.1-.1.2-.2.2-.1,0-.2-.2,0-.3,0,0,.3,0,.3.1ZM38.6,53.1h0c0,0,0,.1,0,.2,0,.2-.3,0-.3,0,0,0,.2-.1.2-.1ZM40.5,53.1c0,0,0,.2,0,.2h0c0,0-.3,0-.2-.1,0,0,.1-.1.2-.1ZM42.5,53.1c0,.1-.2.2-.3,0h0s0,0,0,0c0,0,.2-.1.3,0ZM33.1,52.3c0,0,.1.2,0,.2h0c-.1,0-.3,0-.3-.1,0,0,.2-.1.3-.1ZM44.4,52.3h0s0,.2,0,.2c-.1,0-.3,0-.3-.1,0,0,.2,0,.2,0ZM38.7,52.4h0c0,.1-.2,0-.2,0,0,0,.2,0,.2,0ZM41.6,52.4c0,.1-.2.2-.3,0,0,0,0-.3,0-.3.1,0,.2,0,.2.2ZM34,52.3c0,0,0,.2,0,.2,0,0-.2,0-.2-.1h0c0,0,.2-.1.3-.1ZM30.3,52.4c0,0-.1,0-.2.1h0c0,0-.1,0-.2,0,0-.1.3-.1.3,0ZM40.6,52.4c0,0-.2.1-.3,0,0,0,0-.2,0-.2h0c.1,0,.3,0,.3.1ZM45.3,52.3c0,0,0,.1,0,.1h0c0,0-.1-.1,0-.2,0,0,.1,0,.1,0ZM43.5,52.3c0,0,0,.2,0,.1h0c-.1,0-.2-.1-.1-.2,0,0,.1,0,.2,0ZM39.6,52.3c0,0,.1.2,0,.2h0s0,0,0,0c-.1,0-.3,0-.3-.1,0,0,.2-.1.3-.1ZM37.7,52.4h0c0,.1-.2.1-.3,0,0-.2.2-.2.3,0ZM35.8,52.3c0,0-.1.1-.2.2,0,0-.1-.2,0-.2h0c0,0,.2,0,.3,0ZM32.1,52.2c0,0,.1,0,.2.1,0,.1-.3.1-.3,0,0,0,.1,0,.2-.1h0ZM36.7,52.2c0,.1,0,.3-.1.3-.1,0-.2-.2,0-.2h0c0,0,.1-.1.2,0ZM29.2,52.2h0c0,0,0,.2,0,.2-.1,0,0-.3,0-.2ZM34.9,52.3h0c0,0-.2,0-.2,0,0,0,0-.2.1-.2,0,0,.2,0,.1.1ZM31.2,52.2c0,.1-.2.3-.3.1,0-.1.2-.3.3-.1ZM40.3,51.3h.3c0,.1,0,.2-.1.3-.1,0-.2,0-.3-.1,0,0,.1-.1.2-.2h0ZM38.6,51.3c0,.2-.1.4-.3.3,0,0,0-.2,0-.2h0s.3,0,.3,0ZM30.4,51.5c0,0-.2.1-.2.1h0c0,0-.2,0-.2-.2,0-.2.4-.1.4,0ZM44.3,51.6c-.1,0-.2-.2,0-.3h0c.1,0,.2.2,0,.3ZM43.6,51.6h0c0,.1-.3,0-.3,0,0-.1.3-.1.3,0ZM35.9,51.4h0c0,0,0,.1-.1.2,0,0-.1-.1,0-.2,0,0,.2,0,.2,0ZM45.2,51.3c0,0,0,0,0,.2,0,0-.1.2-.2.1h0c0-.1,0-.2.2-.3ZM37.6,51.3h0c0,0,0,.2,0,.2,0,0-.2,0-.2-.1,0,0,.2-.1.2-.1ZM47.1,51.4c0,0,0,.2,0,.2h0c0,0-.1,0-.2,0,0,0,0-.2.2-.2ZM32.1,51.4h0c0,.2-.3.2-.4,0,0-.1.3-.1.4,0ZM32.9,51.3c0,0,0,.1.1.2,0,0-.1,0-.2,0h0s0,0,0,0c0,0,.1,0,.2-.1ZM39.6,51.2c0,0,0,.2,0,.3,0,0-.2,0-.3-.1,0-.1.2-.2.3-.2h0ZM34,51.4h0c0,0-.2.1-.3.1,0,0,0-.2,0-.3,0,0,.2,0,.2.2ZM31.1,51.2h.2c0,.2-.1.3-.2.2,0,0-.1-.2,0-.2h0ZM29.2,51.1h0c.1,0,.1.3,0,.3-.1,0-.1-.3,0-.3h0ZM36.7,51.3c0,0,0,.2,0,.2,0,0,0-.2,0-.2h0ZM34.8,51.2c0,0,.1.1,0,.2,0,0-.2,0-.2,0h0c0,0,0-.1.1-.2ZM46.3,51.3c0,0-.1,0-.2,0,0,0,0-.1,0-.2h0c0,0,.2,0,.2,0ZM29.3,50.3c0,0,0,.1.1.2h0c0,.1,0,.3-.2.3-.2-.1-.1-.4,0-.5ZM46.2,50.4c.1,0,.1.3,0,.4h0c-.2,0-.2-.3,0-.4ZM38.7,50.6l-.2.2h0c0,0-.1,0-.2,0,0,0,0-.2.1-.2,0,0,.2,0,.2,0ZM33,50.5c.1,0,0,.3,0,.3,0,0-.2,0-.2,0h0c0-.1,0-.3.2-.2ZM40.5,50.7h0c0,0-.1,0-.2.1,0,0,0-.1-.1-.2,0,0,.2,0,.3,0ZM34.7,50.4c0,0,.1.2.1.2h0c0,0-.2,0-.2,0,0,0,0-.2.1-.2ZM42.5,50.6c0,0-.1.1-.2.1,0,0-.1-.1-.1-.2h0c0-.1.3,0,.3.1ZM32.2,50.3h0c0,.2,0,.4-.2.4-.2-.1,0-.5.2-.4ZM31.1,50.4c.2,0,0,.3,0,.3,0,0-.1-.2-.1-.2h0s0,0,0,0c0,0,0,0,.2,0ZM43.4,50.4c.1,0,0,.3-.1.3l-.2-.2h0c0-.1.2-.2.3-.1ZM36.6,50.4c.1,0,.2.2.1.3,0,0-.2,0-.3,0h0c0,0,0-.2.2-.2ZM48.1,50.5c0,.1-.2.3-.3.1,0-.1.2-.3.3-.1ZM39.5,50.4c.1.1-.1.3-.2.2-.1-.1.1-.3.2-.2ZM30.3,50.6c0,0-.2,0-.2,0,0,0,0-.2,0-.2h0c.1,0,.3.1.2.2ZM47.2,50.5h0s0,.1,0,.2c-.1,0-.3,0-.2-.2,0-.1.2-.1.2,0ZM44.4,50.5c0,.1-.1.2-.2.2-.1,0-.1-.2,0-.3,0,0,.3,0,.3.1ZM34.1,50.4c0,0,.1.1.1.2h0c0,.1-.3,0-.3-.1,0,0,.1-.1.2-.1ZM35.7,50.4h0c.1,0,.1.2,0,.3-.1,0-.1-.2,0-.3h0ZM37.8,50.5h0s0,0,0,0c0,.1-.3.1-.3,0,0-.1.3-.1.3,0ZM45.2,50.3c0,0,.1.1,0,.2h0c0,0-.1-.1,0-.2ZM45.2,49.6c0,0,0,.1.1.2h0c0,0,0,.1-.1.2-.1,0-.1-.3,0-.3ZM43.6,49.8c0,0-.2.1-.3.1-.1,0-.2-.2,0-.3h0c.1,0,.3,0,.4.1ZM30.3,49.6v.2c-.1,0-.4,0-.4,0h0c0-.2.3-.3.3-.1ZM47.2,49.6h0c0,0,0,.2,0,.2,0,0-.2,0-.2-.2,0-.1.2-.2.3,0ZM41.6,49.8c0,0-.1,0-.2,0h0c-.1,0-.2-.2,0-.3.1,0,.3.1.2.2ZM37.7,49.6h0s-.2.2-.2.2c-.1,0-.1-.2,0-.3,0,0,.3,0,.2.1ZM47.9,49.5c.1,0,.2.1.2.3,0,.1-.2.1-.3,0s0-.3.1-.3ZM49,49.5c.1,0,0,.3,0,.3h-.1c0-.1,0-.1,0-.1,0,0,0-.2.2-.2ZM38.6,49.4c0,0,0,.1.1.2,0,0-.1.1-.2.2-.2,0,0-.3,0-.3h0ZM46.3,49.5c0,0,0,.2,0,.3h0c-.1,0-.2,0-.2-.2,0-.1.2-.2.3-.1ZM35.8,49.5c.1,0,0,.3-.1.2,0,0,0-.2.1-.2h0ZM31.1,49.5h0c0,0,0,.1,0,.2,0,.2-.3,0-.3,0,0,0,.2-.1.2-.1ZM36.6,49.5c.1,0,.2.2,0,.3,0,0-.2,0-.3,0h0c0-.1,0-.2.2-.2ZM44.6,49.5c0,.1,0,.3-.1.3-.1,0-.2-.1-.2-.3,0-.1.2-.1.3,0ZM29.3,49.3c.1,0,.1.3,0,.4h0c0,0-.2,0-.2-.1,0-.1.1-.2.2-.3ZM34.9,49.7c-.1.1-.3-.1-.2-.2.1-.1.3.1.2.2ZM33,49.5c0,0-.1.1-.2.2,0,0,0-.1-.1-.2,0-.1.2-.1.3,0ZM42.7,49.4h.1c0,.3-.4.3-.4.1,0,0,.2-.1.3-.1h0ZM49.8,49.4c0,0,0,.1,0,.2h0c0,.1-.2,0-.2,0,0,0,0-.1.2-.1ZM34.1,49.5c0,.2-.4.1-.4,0h0c0-.2.4-.1.4,0ZM29.3,48.5c.1,0,.1.3,0,.4h0c-.1,0-.1-.3,0-.4ZM46.2,48.9c0,0-.1-.2,0-.3h0c.2,0,.2.2,0,.3ZM50.1,48.6c.1,0,0,.3,0,.3-.1,0-.3,0-.3-.2,0-.1.2-.2.3-.1ZM35.7,48.9c-.1,0-.2-.2-.1-.3s.2.2.1.3ZM34.8,48.6v.2c0,0-.2,0-.2,0,0,0,0-.2,0-.2h0c0,0,.1,0,.2,0ZM33.2,48.8h0c0,.1-.4,0-.4,0,0-.2.4,0,.4,0ZM47.1,48.5c0,0,.1.2.1.3,0,0-.2,0-.3,0,0-.1,0-.2.2-.2h0ZM41.2,48.6h.3c0,.2-.2.3-.3.3-.1,0-.2-.2,0-.3h0ZM30.2,48.5c0,0,.1.2.1.3-.1,0-.3,0-.3-.2h0c0,0,.1,0,.2-.1ZM38.6,48.6h0c.1,0,0,.3-.1.2,0,0-.1,0-.1-.2,0,0,.1-.1.2,0ZM45.2,48.9c-.1,0-.1-.2,0-.3h0s0,0,0,0c.1,0,.1.2,0,.3ZM37.7,48.7c0,0,0,.2-.2.2,0,0-.2,0-.1-.1h0c0-.1.3-.1.3,0ZM43.4,48.5c.1,0,.2.2,0,.3,0,0-.3,0-.3-.1,0-.1.1-.2.2-.2ZM44.3,48.5c0,0,.1.2.1.3h-.2s0,0,0,0c0-.1,0-.3,0-.4ZM42.6,48.6h0c0,.2-.2.3-.3.2,0-.2.2-.3.3-.2ZM48,48.8c-.1,0-.3-.1-.1-.2.1,0,.3.1.1.2ZM36.7,48.4c.1,0,.1.2,0,.4h0c0,.1-.2,0-.2,0,0-.1,0-.2.2-.3ZM40.4,48.5h0c0,0,0,.1,0,.2,0,.2-.3,0-.3,0,0,0,.2-.1.2-.1ZM51,48.5c.1,0,0,.3,0,.3h0c0,0-.1,0-.2,0,0-.1.1-.3.2-.2ZM34.1,48.6c0,.2-.3.2-.3,0,0-.2.3-.2.3,0ZM32.2,48.4c.1,0,.2.2,0,.3h0c0,0-.3,0-.3,0,0-.1.2-.2.3-.2ZM49.2,48.6c0,0-.2.1-.3.1-.1,0-.2-.2,0-.3h0c.1,0,.3,0,.4.1ZM35.7,47.8c0,0,0,.2,0,.2,0,0-.2,0-.2,0h0c0-.1,0-.2.2-.2ZM37.6,47.7c0,0,0,.3-.1.3h0c0,0,0-.2,0-.2,0,0,.1,0,.2,0ZM32.1,47.7c.2,0,0,.3,0,.3,0,0-.1-.2-.1-.2h0s0,0,0,0c0,0,0,0,.2,0ZM49.1,47.7c0,0,.1.1.1.2,0,0-.1.1-.2.1h0c-.1,0,0-.3.1-.3ZM41.5,47.9c0,.1-.2.2-.3.1h0c0,0,0-.2,0-.2,0,0,.2,0,.2,0ZM43.6,47.9c0,.2-.3.2-.3,0,0-.2.3-.2.3,0ZM50.9,47.6c.1,0,.1.3,0,.3-.1,0-.3,0-.3-.2,0-.1.2-.2.3-.2ZM45.1,47.7h0c0,0,.1.2.1.3,0,0-.2,0-.2,0v-.3ZM34,47.7c0,.1,0,.2-.2.2-.1,0-.2-.2-.1-.3,0,0,.2,0,.3,0ZM39.5,47.6c.1,0,0,.3-.1.3h0c0-.1,0-.3.1-.3ZM36.7,47.8c0,.1-.2.2-.3.1,0,0,0-.2,0-.3h0c0,0,.2,0,.2.2ZM34.9,47.6c0,0,0,.1.1.2h0c0,0-.1,0-.2.1,0,0,0-.1-.1-.2,0,0,.1,0,.2-.1ZM33.2,47.7c0,0-.2.1-.3.2,0,0-.1-.1,0-.2h0c.1-.1.3,0,.4,0ZM50.2,47.7h-.2c0,.1,0,.1,0,.1,0,.1-.2-.1-.1-.2.1,0,.3,0,.4,0ZM40.5,47.6h0c0,.1,0,.3-.1.3,0,0-.1-.1,0-.2,0,0,.2-.1.2,0ZM44.4,47.6c.1,0,0,.3,0,.2h0c0,0-.2,0-.2,0,0-.1.2-.2.3-.2ZM48.2,47.5c0,.2-.1.4-.3.3h0c0-.2.1-.4.3-.3ZM51.8,47.5c0,0,.1.1.2.2h0c-.1.1-.3,0-.4,0,0,0,.1-.1.2-.2ZM42.7,47.7c0,0-.2.1-.2.2,0,0-.1-.1,0-.2h0c0-.1.3,0,.3,0ZM44,43.5c0,.2.1.4.3.6.1-.2.3-.3.5-.4.2,0,.4,0,.5.2.1.3-.3.6-.5.8-.3.4,0,1,.3,1.4.4.4.8.7,1.1,1.1.1.2.4.3.6.2.2,0,.4-.2.6-.4l4-3.5c-2.3-.7-4.8-.8-7.2,0ZM26.1,45.9c-.1.4,0,.9.2,1.3,0,0,.1.1.2.2,0,0,0,0,.1,0-.2-.5-.4-.9-.5-1.4ZM49.9,46.7h.2c0,.2-.1.3-.2.4-.2,0-.1-.3,0-.3h0ZM42.6,46.9c0,.1-.1.3-.2.2,0-.1.1-.3.2-.2ZM33.1,46.9c0,.1,0,.2-.2.2-.1,0-.2-.1-.1-.2h0c0-.1.3-.2.3,0ZM44.3,46.8c0,0,0,.1,0,.2h0c0,0-.1.1-.2.1,0,0,0-.2,0-.2,0,0,.1,0,.2,0ZM52.7,46.7c0,0,.1.2,0,.3,0,0-.2,0-.2,0h0c-.1,0,0-.3.1-.3ZM34.1,46.8c0,.1-.2.2-.3.3h0c-.1,0,0-.3,0-.3.1,0,.2,0,.3,0ZM35.8,46.7c.2,0,0,.3,0,.3,0,0,0-.2-.1-.2h0c0,0,.1,0,.2,0ZM37.7,46.9h0c0,0,0,.1-.1.2,0,0-.1-.1-.1-.2,0,0,.2,0,.2,0ZM41.5,46.7c.1.1,0,.4-.2.3h0c-.1-.1,0-.4.2-.3ZM49.2,46.9c0,0-.2.1-.3.1-.1,0-.2-.2,0-.3h0c.1,0,.3,0,.4.1ZM32.3,46.9h0c0,0-.2,0-.3,0,0,0,0-.3.1-.3.1,0,.2.1.2.2ZM34.7,46.7h0c0,0,0,.2,0,.2,0,0-.2,0-.2-.1,0,0,0-.2.1-.1ZM39.7,46.9c0,0-.2.1-.2.1h0c0,0-.2,0-.2-.2,0-.2.4-.1.4,0ZM43.5,46.7c.1,0,.1.2,0,.3h0c-.1,0-.3,0-.3-.2,0,0,.2-.1.3,0ZM51,46.8c0,0-.2.2-.3.2-.1,0-.2-.2,0-.2h0c.1,0,.3,0,.3,0ZM40.4,46.9c-.1,0-.3-.1-.1-.2.1,0,.3.1.1.2ZM51.8,46.7c0,0,0,.1-.1.2h0c0,0-.2,0-.2-.1s.2-.1.3,0ZM30.3,46.9c0,0-.1,0,0-.2h0c0,0,.2.1.1.2ZM36.7,46.6h0c0,0,0,.2,0,.3,0,0-.3,0-.3-.1,0,0,.1-.1.2-.2ZM55,46.4c-.2,0-.3.1-.5.1,0,.1.2.2.3.2h0c.2,0,.5.1.5,0,0-.2-.2-.3-.4-.2ZM47.6,45.3c.1,0,.2,0,.3.2,0,.1,0,.3,0,.4-.1.2-.3.4-.5.6-.2.2-.5.3-.7.1-.2-.2-.2-.5,0-.8.2-.4.6-.7,1-.6ZM55.1,45.9c-.4,0-.8.2-1.1.4.3,0,.7,0,1-.2,0,0,.1-.1,0-.2ZM26.8,45.2l-.2.4h0c0,.2,0,.5.1.7.2-.3.2-.8,0-1.1ZM43.6,45.9h0s0,.2,0,.2c-.1,0-.2,0-.3,0,0,0,0-.2,0-.3,0,0,.2,0,.3,0ZM51.8,46c0,0-.1.1-.2.1,0,0,0-.1-.1-.2,0,0,.1,0,.2-.1h0c0,0,.1,0,.1.2ZM34.8,45.8c0,0,0,.1,0,.2h0c0,0-.1,0-.2.1,0,0,0-.1-.1-.2,0,0,.2-.1.2-.1ZM41.6,46c0,.1-.2.2-.3.2h0c0,0,0-.2.1-.3,0,0,.2,0,.3.1ZM32.2,45.9h0c0,0,0,.1,0,.2,0,0-.3,0-.3-.1,0,0,.1-.1.2,0ZM35.8,45.9h0c0,0,0,.2,0,.2,0,0,0-.1,0-.2,0,0,.1,0,.2,0ZM52.7,45.9c0,0,.1.1,0,.2h0c0,0-.2,0-.2,0,0,0,0-.2,0-.2ZM33,45.8c.1,0,.2.1.2.2,0,0-.2,0-.3,0h0s-.1,0-.1,0c0-.1.1-.2.2-.2ZM50.2,46c0,0-.2.1-.3.1-.1,0-.2-.2,0-.2h0c.1-.1.4,0,.4.1ZM40.5,45.9c0,.1-.2.3-.3.1,0-.1.2-.3.3-.1ZM42.4,45.8c.1,0,.2.1.2.3-.1,0-.2,0-.4,0,0-.1,0-.2.2-.2h0ZM38.6,46h0c-.1.1-.3.1-.4,0,0-.2.3-.1.4,0ZM33.8,45.8c0,0,0,.1.1.2,0,0-.1,0-.2.1h0s0,0,0,0c0,0,0,0,0-.2,0,0,.1,0,.2-.1ZM36.6,45.8c0,0,0,.1.1.2,0,0-.1,0-.2.1,0,0,0-.2,0-.3h0ZM50.9,45.9c0,.2-.3.2-.3,0,0-.2.3-.2.3,0ZM37.5,45.8c0,0,.1.1,0,.2h0c0,.1-.3,0-.2-.1,0,0,0-.1.2-.1ZM39.6,45.8c0,.1-.2.3-.3.1,0-.1.2-.3.3-.1ZM55,45.1c-.4.3-.7.5-1.1.8.4,0,.8-.2,1.1-.4.1-.1.2-.4,0-.4ZM46,44.8c.3,0,.5.5.3.8-.1.2-.4.4-.6.3-.2,0-.4-.3-.4-.5,0-.1,0-.2.1-.3.1-.2.3-.3.5-.3ZM54.9,44.5c-.4.4-.8.7-1.2,1.1.5,0,.8-.4,1.2-.8,0,0,0,0,.1-.2,0,0,0-.2,0-.2ZM54.4,43.7s0,0,0,0l-1.1,1.1c0,.1.2,0,.3,0,.4-.3.7-.6,1.1-.9,0,.4-.4.7-.7.9-.2.1-.4.3-.3.5.2-.2.4-.3.6-.5.2-.1.4-.3.4-.5,0-.2,0-.5-.1-.6,0,0,0,0,0,0ZM38.6,45c0,0,0,.2-.1.2,0,0-.1-.2,0-.2h0c0,0,.1,0,.2,0ZM51.8,44.9c0,0,.2.1.1.2h0c-.1,0-.3,0-.3,0,0,0,.1-.1.2-.2ZM40.5,45c0,0,.2.1.1.2h0c-.1,0-.3,0-.4,0,0,0,.2-.1.3-.1ZM26.2,41.7c-.4.2-.5.6-.5,1.1,0,.4.3.8.3,1.2,0,.3,0,.7,0,1.1,0,0,0,.2.1.2.4-.9-.5-2.1,0-3,0-.1.1-.3,0-.5ZM34.9,45c0,0,.1,0,.2.1,0,.1-.3.1-.3,0,0,0,.1,0,.2-.1h0ZM34.1,45c0,.2-.3.2-.4.1h0c0-.2.3-.3.4-.1ZM51,45h0c0,.2-.3.2-.4.1,0-.2.3-.2.4-.1ZM49.3,44c.1.2,0,.5-.2.7-.4.4-1,.6-1.3.3,0-.5.3-.9.8-1.1.3-.1.7-.1.8.1ZM42.4,44.9h0c0,0,.1,0,.2,0,0,.2-.3.2-.4,0,0,0,.1,0,.2-.1ZM36.8,45h0c0,.1-.3,0-.3,0,0-.2.3,0,.3,0ZM43.5,45c0,0-.1,0-.2.1h0s-.2,0-.2,0c0-.2.3-.2.4,0ZM33.2,45c-.1,0-.3.1-.4,0,0-.1,0-.3.2-.3h0c0,0,.2,0,.2.2ZM39.6,45c0,0-.2.1-.2.1h0c0,0,0-.2,0-.2,0,0,.2,0,.2.1ZM37.8,45c0,.1-.3.1-.3,0h0s0,0,0,0c0-.1.3-.1.3,0ZM35.8,44.9c0,0-.1.1-.2.1,0,0,0-.1,0-.2h0c0,0,.2,0,.2,0ZM41.4,44.8h.2c0,.3-.3.3-.4.1,0,0,.2-.1.2-.1h0ZM54,43.4c-.3.3-.7.6-1,.9,0,0-.2.2-.1.3.5-.3,1-.7,1.3-1.2,0,0,0,0-.1,0ZM61.4,41c-.3.1-.6,0-.9,0-.3,0-.6.3-.4.6.1,0,.3,0,.4-.1.3-.2.8,0,1.1.2.3.3.4.6.6,1-.1.2-.4,0-.6,0-.3,0-.6.3-.9.2-.2,0-.3-.1-.4-.2-.1,0-.3-.1-.4,0,0,0,0,.1,0,.2-.1.4-.2.9,0,1.2.1.1.3.2.4.2.2,0,.4.1.5,0s.3-.2.3-.4c-.2,0-.4,0-.5,0,0,0,.2-.2.3-.3-.2-.1-.3-.3-.3-.5.3,0,.6.1.7.3,0-.2.1-.4.3-.5,0,.3,0,.5,0,.8.1-.2.2-.4.3-.6.3,0,.6,0,.8.2-.4.1-.8.3-1.1.6-.1.1-.3.3-.1.4.8-.2,1.7-.5,2.1-1.2.4-.6.3-1.5-.2-2.1-.5-.5-1.4-.7-2-.4ZM55.6,41l-1,.5c-.1,0-.3.2-.5.2s-.3,0-.4-.3c0,0,0-.2,0-.3,0,0-.1-.2-.2-.1,0,.2,0,.5-.2.7,0,.2,0,.6.1.7.8.5,1.5,1.3,1.7,2.2.4-.6.9-1.3.9-2,0-.1-.2,0-.3,0,0,0-.2.2-.3.1-.1,0,0-.3.1-.4.1,0,.3-.3.2-.4,0-.1-.3,0-.4,0-.1.1-.2.2-.3.3-.1,0-.3-.1-.2-.2.2-.2.5-.5.7-.7,0,0,.1-.1.1-.2,0,0,0-.2-.2-.2ZM25,43.1c-.1,0-.1.2,0,.3.1.4.4.7.6,1,.1,0,0-.3,0-.4-.2-.3-.4-.6-.6-.9ZM53.5,43.2c-.4.3-.7.5-1.1.8,0,0,0,.2,0,.2.5-.3,1-.6,1.4-1,0-.1-.3,0-.4,0ZM43.5,44c0,0,0,.1-.2.1,0,0,0-.2,0-.2h0c0,0,.1,0,.1.1ZM35.8,43.9h0c0,0,0,.2,0,.2,0,0,0-.1,0-.2,0,0,.1,0,.2,0ZM41.5,44h0s0,0,0,0c0,.1-.3.1-.3,0,0-.1.3-.1.3,0ZM33.8,43.7c0,0,0,.1.1.2,0,0-.1,0-.2.1h0c0,0-.1,0-.1-.2,0,0,.1-.1.2-.1ZM37.5,43.7c0,0,.2,0,.2.1,0,0-.2.1-.3.2-.1,0-.1-.2,0-.3h0ZM40.6,43.9c0,.1-.3.1-.4,0h.1c0-.1,0-.2,0-.2.1,0,.2,0,.3.2ZM36.7,43.8c0,0,.1,0,.2.1,0,.1-.3.1-.3,0,0,0,.1,0,.2-.1h0ZM42.6,43.9c0,.1-.3.1-.3,0h0s0,0,0,0c0-.1.3-.1.3,0ZM34.9,44h0c0,0-.2,0-.2-.1,0-.1.3,0,.2.1ZM39.7,43.8c0,0-.2.1-.2.1h0c0,0,0-.1,0-.2,0-.2.3,0,.3,0ZM38.5,43.7c0,0,.1,0,.2.1,0,.1-.3.1-.4,0,0,0,.2-.1.2-.1h0ZM52.6,42.6c-.3.3-.6.6-.9.9.1.2.3.2.5.2.2,0,.4-.2.5-.3.2-.2.4-.3.6-.5,0,0,0,0,.1-.1,0-.1-.1-.2-.2-.2s-.2.1-.2.2c-.2.3-.6.5-.9.6.1-.3.4-.6.7-.7,0,0-.1-.1-.2-.1ZM31.1,41.4c-.4.4-.7.9-1,1.5,0,.2-.2.4-.1.6.4-.5.7-1.1,1.1-1.6,0-.1.2-.3,0-.4ZM42.5,42.9c0,0,.1.1.1.2,0,0-.2,0-.2,0h0c0,0,0-.1-.1-.2,0,0,.2-.1.2,0ZM38.6,42.9h0c0,0,.1.1.1.2,0,0-.2,0-.2,0,0,0,0-.2.2-.2ZM39.8,37c-.1.3-.5.6-.8.5,0,.2,0,.4,0,.6-.3-.2-.7,0-.7.2,0,.1.1.2.2.4s.1.3,0,.4c-.2.1-.4-.3-.6-.2-.2,0,0,.3,0,.5,0,.2,0,.5-.2.4-.2-.1-.4,0-.5.1s0,.4,0,.5c-.4-.1-.7.4-.5.8-.2,0-.5,0-.7,0,.2.2.2.4,0,.6-.2,0-.3-.2-.5-.3-.1.3-.3.6-.4.8,0-.2,0-.4-.2-.6-.1-.1-.4,0-.5.1h0c0,.3-.4.2-.5,0,0-.2,0-.5.2-.7-.2,0-.4,0-.6,0,.2-.3.2-.7-.1-.9-.1.3-.3.6-.3,1,0,.3.2.7.5.8.2,0,.2.3.3.5.2.3.6.4.9.4.4,0,.7-.3,1-.5.2-.1.4-.3.4-.5,0-.3.4-.4.7-.6.5-.2.9-.8,1.2-1.3.2-.3.3-.6.2-.9.3-.1.6-.4.7-.7,0-.2,0-.5.3-.7.2-.1.4,0,.6,0,.7.2,1.4.4,1.7,1,0,.2.3.4.4.3-.3-.9-.9-1.6-1.7-2.1.1.1-.1.4-.3.3-.2,0-.3-.2-.4-.4ZM40.6,43c0,.1-.2.1-.3,0h0c0-.2.3-.2.4,0ZM41.5,42.9c0,.1-.2.1-.3,0h0c0-.2.3-.2.4,0ZM37.8,42.8h0s0,0,0,0c0,.1-.3.1-.3,0,0-.1.3-.1.3,0ZM39.7,42.8h0s0,0,0,0c0,.1-.3.1-.3,0,0-.1.3-.1.3,0ZM60.7,41.9s0,0,0,.2c0,.1,0,.3,0,.4,0,.1.1.3.2.2.2-.2.5-.3.8-.3-.1-.3-.3-.5-.6-.6-.1,0-.3,0-.3,0ZM25.7,39.8c-.7.5-1,1.4-1.2,2.3,0,.2,0,.5.2.5.1-1,.5-1.9,1.1-2.7,0,0,0-.1,0-.1ZM58.1,41.9c0,0,.1.1.2.1.6.1,1.2.2,1.8.3,0,0,.2,0,.3,0,0,0,0-.2,0-.2-.7-.2-1.5-.3-2.3-.2ZM41.4,42s0,.1,0,.2c-.1,0-.3,0-.3,0h0c0,0,.2-.1.3,0ZM39.7,41.9c0,.1,0,.3-.2.3,0,0,0-.1-.1-.2h0c0-.1.2-.2.3-.1ZM52.7,41.7c0,.2,0,.4,0,.6.2,0,.4,0,.5-.3h0c0-.1,0-.3,0-.4-.2-.1-.4,0-.5.2ZM40.7,42c0,.1-.2.2-.3.2-.1,0-.1-.3,0-.3.1,0,.3,0,.3.2ZM42.5,41.9h0c.1,0,.2.2,0,.2,0,0-.1-.2,0-.2ZM38.7,42c0,0-.2.1-.2.1h0c-.1,0-.1-.2,0-.3.1,0,.3,0,.3.2ZM28.5,40c-.5.5-.9.9-1.2,1.5,0,.1-.1.3,0,.4.4-.5.7-1,1.1-1.4.1-.1.2-.3.1-.4ZM38,35.7c-.9,1.6-2.4,2.7-3.8,3.9-.2.2-.5.6-.3.8,0-.1.2-.3.4-.3.2,0,.3.2.2.3-.2.1-.3.5-.1.7,0-.1.2-.2.4-.3.1,0,.2.2.2.4,0,.2.2.3.3.2,0-.2,0-.5.2-.7,0,.2.2.3.3.5.1,0,.2-.2.2-.3,0-.1,0-.3,0-.4.1,0,.2,0,.3.2,0-.2,0-.4,0-.5.2,0,.5-.1.5-.3,0-.2,0-.5-.2-.6.1-.2.5,0,.5.1.3-.2.4-.6.3-.9,0-.1.2-.2.3-.2.1,0,.4,0,.3-.2-.1-.1-.1-.4,0-.5.1-.1.4-.1.5,0,.2,0,.2-.2.2-.4,0-.2-.1-.4,0-.5.2-.1.4.3.6.3,0-.3,0-.6,0-.8.2.3.6.5.9.5-.3-.4-.7-.7-1.2-1-.3-.2-.8-.3-1,0ZM38.6,41.1c0,0,0,.2,0,.2h0c0,0-.2,0-.2,0,0,0,0-.2.2-.2ZM31.6,38.9l-.9,2.1c0,0,0,.2,0,.2.5-.7.9-1.6,1.1-2.5,0,0-.2,0-.2.1ZM39.7,41.1c0,.2-.3.2-.4.1h0c0-.2.3-.3.4-.1ZM41.4,40.9c0,.1,0,.3-.1.3-.1,0-.2-.1-.2-.3,0-.1.2-.1.3,0ZM40.5,41h0c0,0,0,.1,0,.2,0,0-.2,0-.3,0,0-.1.2-.2.3-.2ZM59.8,35.5c-1.1.2-2.1,1.2-2.3,2.3-.2,1.1.5,2.4,1.6,2.8,0,0,.1,0,.2,0,.1,0,.2-.2.2-.3,0-.1.1-.3,0-.4,0-.1-.1-.3-.3-.3-.1,0-.3,0-.3,0,.1,0,.3-.2.4-.3-.1-.1-.2-.3-.2-.5,0-.2.4,0,.4.1,0,.2,0,.4.2.5.2-.2.1-.5,0-.7-.1-.2-.2-.5-.1-.7l.3.5c.1-.2.1-.5,0-.7,0-.1.2-.1.4-.1,0-.2.2-.4.4-.3-.1.2-.1.4,0,.6,0-.2.3-.2.4,0-.3.1-.6.4-.7.8-.1.3-.1.7-.2,1.1,0,0,0,0,0,.1,0,0,0,0,0,0,.3-.2.6-.6.6-.9,0-.2.1-.5.3-.4,0,.2,0,.5,0,.7.2-.2.5-.4.8-.4-.1.3-.4.5-.7.6.1.1.3.2.5.1,0,0,0,.2,0,.3s-.2,0-.4,0c-.6,0-1.2.3-1.3.9,0,.1,0,.3.1.3.9,0,1.8-.4,2.4-1,.6-.7.9-1.6.5-2.5,0-.2-.2-.5-.4-.7-.7-.9-1.9-1.4-3.1-1.2ZM41.4,40.1c0,0,.1.2.1.2,0,0-.2,0-.2,0,0,0,0-.1,0-.2h0c0,0,.1,0,.2-.1ZM39.6,40c.1,0,0,.3,0,.3-.1,0-.3,0-.3-.2,0-.1.2-.2.3-.1ZM27.1,39.5c-.2.2-.4.5-.5.7,0,.1.2,0,.3,0,.2-.2.4-.4.5-.6,0,0,0-.1,0-.2,0,0-.1,0-.2,0ZM40.6,40c0,.1-.2.3-.3.1,0-.1.2-.3.3-.1ZM40.6,39.4c0,.1-.3.2-.4,0h0c0-.2.3-.2.4,0ZM32.7,38.3c-.4.3-.5.8-.5,1.2h.1c.2-.4.3-.8.4-1.2ZM39.7,39.1c0,0,.1.2,0,.2,0,0-.2,0-.3,0h0c0-.1,0-.2.2-.3ZM27.6,37.6c-.4.2-.8.4-1.1.6h0s0,0,0,0c.3-.2.6-.3.9-.5h.2ZM34.3,36.6c-.5.3-.8.8-1,1.4,0,0,0,.2,0,.3.4-.5.8-1,1-1.6ZM35.1,38c0,0-.1,0-.1.1h.2s0,0,0,0c0,0,0-.1,0-.1ZM28.9,37c-.3.1-.4.4-.4.7.2-.2.4-.4.4-.7ZM35,37.4c0,0,0,.1,0,.2,0,0,0-.1.1-.2h0s-.1,0-.2,0ZM31.5,36c-.3.3-.6.7-.7,1.1.3-.3.6-.7.7-1.1ZM34.2,35.9c-.3.3-.5.6-.7.9,0,0,0,.2,0,.3.3-.4.7-.8,1-1.2,0-.1-.2,0-.3,0ZM31.7,35c-.5.2-.9.7-1.2,1.2,0,.2-.2.4-.2.6.4-.6.9-1.1,1.3-1.7ZM63.4,31.9c.1,0,.3,0,.4.2.3.2.6.4.9.6.5.3,1,.7,1.4,1.1.3.3.5.7.4,1.1,0,.1-.1.3-.2.4,0,.1,0,.3,0,.4.2.1.3.4.2.6,0,.2-.4.3-.5.2-.4-.4-1-.4-1.5-.2-.4.2-.8-.2-1.1-.5,0,0,0,0,0-.1,0-.1.2-.2.3-.1.1,0,.2.2.3.3.3.3.8-.2,1.2-.1.4,0,.8.5,1.2.4-.3-.3-.7-.6-1.1-.8,0-.1.2-.1.4-.1.3,0,.5-.3.4-.6,0-.3-.3-.5-.5-.7-.4-.4-.8-.8-1.3-.9-.2,0-.4,0-.4-.2-.1-.3-.4-.5-.8-.4-.3,0-.6.3-.6.7-.1,0-.2-.1-.3-.2-.3-.2-.6-.2-.9,0-.3.2-.3.6-.2.9-.2,0-.3.2-.3.4,0,.2.2.3.3.5.4.4.8.7,1.3.8.2,0,.3,0,.5,0,.1,0,0,.4,0,.3-.9,0-1.7-.5-2.2-1.2-.2-.3-.4-.7,0-.9.2-.1.2-.4.2-.6.1-.4.6-.6.9-.6.4,0,.8,0,1.2-.2.2,0,.3-.2.5-.2ZM44.1,29.5h0c-1.4,1.7-2.6,3.5-4.6,3.5-.3.7-.6,1.4-.9,2.1,0,0,.1,0,.2,0,.2-.6.5-1,.6-1,1,0,2.8-.4,3.5-1.5.1-.2.2-.4.3-.6-.1,0-.3,0-.4,0-.2,0-.3-.3-.3-.3,0,0,.2.1.4.2.1,0,.3,0,.4,0,.2-.6.4-1.2.6-1.3h0c.3-.3.3-.5.2-.9,0-.1,0-.2,0-.4ZM44.5,25.9c-.9,1.2-2.4,1.8-3.8,2.4-2.1.8-4.2,1.3-6.4,1.7-.6.1-1.4.1-1.8-.4-.2.2-.7,1-.9,1.2-.6.5-1,.2-1.2.7-.5,1,.8.9,1.3.8,1.7-.4,3.5-.3,5.2,0,1.4.3,3,.7,4.3,0,1.3-.7,1.9-2.3,2.9-3.4,1.1-1,2.6-1.4,3.5-2.7,0-.1.1-.2.1-.3,0-.2-.2-.2-.4-.3-1-.2-2.1-.4-2.7.4ZM43.1,24c-.7.8-1.7,1.3-2.7,1.7-2.4,1-5,1.8-7.5,2.2,0,.4,0,.8,0,1.2,0,.3.4.4.8.4,3.1-.3,6.2-1.2,8.9-2.6.7-.3,1.4-.8,1.7-1.4-.6-.2-1.1-.9-1.1-1.5ZM61.7,24.9c-.3,1.4-.7,2.8-1,4.2,0,0,0,.1,0,.2,0,0,.1,0,.2,0,.8,0,1.5,0,2.3,0,0,0,.2,0,.2,0,0,0,0-.1,0-.2.4-1.4.7-2.8,1.1-4.2,0-.2-.2-.3-.4-.3-.5,0-1.1,0-1.6,0-.3,0-.8,0-.9.4ZM64.9,25l-1,3.9c0,.1,0,.3,0,.4.2.1.3-.1.4-.4.3-1.3.6-2.6,1-3.9,0-.2,0-.4-.1-.4-.2,0-.3.2-.3.3ZM36.6,20.9c-1.4.3-2.8,1-3.5,2.3-.7,1.2-.6,2.7-.5,4,0,.2,0,.4.2.4.1,0,.2,0,.4,0,2.4-.5,4.8-1.2,7-2.2,1-.4,2-.9,2.7-1.7-.3-1.2-1.3-2.2-2.5-2.7-1.2-.5-2.5-.4-3.8-.2ZM67.5,8.8c-1.1,5.5-2.1,9.8-3.2,15.3v.3c0,0,0-.3,0-.3,1.1-5.2,2.2-9.2,3.3-14.5,0-.3,0-.6-.1-.8ZM66.4,8.8c-.2.2-.2.4-.3.7-1,5.3-2.1,9.3-3.1,14.7.2.2.6.2.8,0,.2-.2.3-.5.3-.8,1-4.9,1.9-8.4,2.9-13.3,0-.3.1-.5.1-.8,0-.1,0-.3,0-.4-.2-.2-.5-.1-.7,0Z"/>
      <path class="cls-5" d="M56.9,31.9c.1-.1.3,0,.4.2.2.1.4,0,.6,0,.3.1.2.6,0,.8-.2.2-.6.3-.9.4-.3.1-.5.4-.7.5-.5.2-1.2-.2-1.3-.8,0-.6.5-1.2,1-1.1.3,0,.7.2.9,0ZM55.7,33.4c0,0,.1.1.2.1,0,0,.1,0,.2,0,.6-.3,1.2-.6,1.8-1-.2-.2-.6,0-.8.2,0,0-.2,0-.2-.1,0,0,0-.2.1-.3-.3.2-.6,0-.9,0-.3,0-.7,0-.8.3-.1.3.1.6.3.8Z"/>
    </g>
  </g>
</svg>