<?xml version="1.0" encoding="UTF-8"?>
<svg xmlns="http://www.w3.org/2000/svg" version="1.1" viewBox="0 0 102 107">
  <defs>
    <style>
      .cls-1, .cls-2 {
        fill: #00160a;
      }

      .cls-3 {
        fill: #e1a5b4;
        stroke: #979797;
      }

      .cls-3, .cls-4, .cls-5, .cls-2 {
        fill-rule: evenodd;
      }

      .cls-4, .cls-6 {
        fill: #fff;
      }

      .cls-5 {
        fill: #5675f1;
      }
    </style>
  </defs>
  <!-- Generator: Adobe Illustrator 28.7.10, SVG Export Plug-In . SVG Version: 1.2.0 Build 236)  -->
  <g>
    <g id="_图层_1" data-name="图层_1">
      <path class="cls-5" d="M52.3,76.3c8.9,0,16.7-6.6,12.3-15.6-4.4-9,11.9-8.7,16.7-14.9,5.8-7.6,4.1-39.7-33.3-20.1-6,3.1-21.4-3.2-26.5,0-6,3.7-14.5,11.3-6,19.1,4.2,3.8-10.8,13.8-4.2,22.7,6.4,8.7,10.9.4,20.6,2.2,9.7,1.8,13.9,6.6,20.5,6.6Z"/>
      <path class="cls-6" d="M42,60.7s2-1,2.8-1.6c.8-.7,1.7-2.3,1.7-2.3,0,0,10.4,7.5,17.2,6.5,1.6-.2,4.6-1.3,4.8-3.1.5-5-6.8-6.3-5.2-8.8,1-1.6,4,.8,4,.8l12.6,6.2s-4.4,10.8-15,11.2c-13,.5-23.1-8.7-23.1-8.7Z"/>
      <path class="cls-4" d="M31.9,18.5c-.1,0-.8-.8-1.6-1-.4,0,0,.4-.4.4-1.2,0-3.2-.2-3.5,0-.3.2.3.7,0,.7-3.1.2-7.7,3.3-8.7,4.8-.3.5,2.3-.3,1.9,0-.5.3-1,2-1.3,3.3-.2.9-.3,2.1-.4,3.4,0,1.1,0,1.3.1,1.9.2.7.3.9.6.8,0,0,.1-.2.1-.4s0-.7.2-1.2l.2-.8v.3c.2.4.8,1.7,1.4,2.6,0,0,.2,0,.3-.3.1-.3,0-.7.3-1.2.4-1.1,1.3-2.4,2.3-3.5,1.5-1.6,1.9-3.5,3.3-5,2.5-2.8,5.7-4.5,5.3-4.7Z"/>
      <path class="cls-3" d="M19.6,23.7c-.4.3-1,3-1,3-.2.9-.4,4.1-.2,4.7.2.6.8-1.6.8-1.6,0,0,.9,2.3,1.7,3,0,0-.9-2.9-1.2-4.6-.4-2.2.2-4.7,0-4.5Z"/>
      <path class="cls-4" d="M34.8,70.3c.8-.2,2-.7,2.5-.9.5-.2,2-2.3,2.5-4.7.4-1.8.6-4.3.4-4.7,0,0-.2-1.2.2-.8.7.8,1.6,2.1,4.2-.2.7-.6,1.7-1.4,1.4-2.2-.7-2-3.8-6.1-4.2-6.4-.6-.4-3.4,0-7.6-1.3-4.8-1.4-6.7-5.5-8.6-5-1.5.4-5.1,3.1-6,4.8-4.3,8,.9,13.6,2.1,15.2l1.1.5v1s0,.6,0,.6c.1,1.2.1,1.3.7,1.8,1.4,1.1,4.1,2,6.6,2.4,1.1.2,3.6.1,4.6-.1Z"/>
      <path class="cls-3" d="M23.3,65.3v.6c.2,1.2.2,1.3.8,1.8.8.6,2.1,1.2,3.5,1.7,1,.3,2,.6,3.1.7,1.1.2,3.6.1,4.6-.1.5-.1-3.4-3.1-5.7-2.3-1.7.7-5.9-4.4-4.2-5.7,1.9-1.5-1.6-7.3-1.7-8.5-.1-1.3-.5-1.6-.6-1.5,0,0,0,.2,0,.6.1,1.6.1,12.8.1,12.8Z"/>
      <path class="cls-4" d="M22.8,53.1c.2,0,.3,0,.4.2.6,3.1,3.1,5.1,7.6,6.2,4.5,1.1,7.6,1,9.3-.1.1,0,0,.7,0,.8-1.1.7-4.7,1.7-9,.8-5.5-1.2-8.1-5.8-8.5-7.6,0-.2,0-.3.2-.4Z"/>
      <path class="cls-4" d="M20.5,47.6c.1,0,5.6,6.2,13.2,7.6,7.5,1.4,9.3.5,9.6-1.4,0-.2.2-.3.3-.3.2,0,.3.2.3.3-.4,2.5-3.9,3-10.4,1.9-6.4-1.1-10.8-3.7-13.2-7.8,0-.1,0-.3.1-.4Z"/>
      <path class="cls-1" d="M39.9,16.7c3.2,0,4.5.5,6.4,1.3.2,0,.5.2.7.3,5.8,2.2,7.8,6.5,8.3,7.6,0,0,0,0,0,.1,1.7,3.5,2.2,6.8,1.5,10.6,0,.5-.1.9-.1,1,0,0,.2,0,.4-.2.3-.2.5-.2.7-.2.5,0,.7.2.9.5.3.4.3,1.1,0,2.4q0,.2.4.2c.5,0,.7.1.9.6,0,.3.1.5,0,.8,0,.4.7.7,4,2.2l.9.4c1.9.8,3.4,1.3,3.5,1.3,0,0,.2-.2.3-.4.3-.7,1.1-1.2,2.2-1.4.5,0,1.2,0,1.7.1.5.2,1.1,1.1,1.3,1.6v.3c0,0,.5-.2.5-.2.4-.2.6-.2,1.2-.2.8,0,.9,0,1.8.6.6.4,1,.9,1.1,1.5v.4c.1,0,.5-.2.5-.2.9-.3,1.9,0,2.7.7.4.5.8.9.8,1.8,0,.8-.6,3.9-.9,4.7-.6,1.8-2.3,6.8-4.3,9-1.7,2-2.4,2.3-3.4,3-.1,0-.3.2-.4.2-3.1,1.8-6.4,2.7-10.7,2.7s-4.4-.2-7.1-.9c-5.3-1.3-10.5-4-13.9-7.5-.1-.1-.3-.3-.5-.5-.6-.6-1.4-1.4-1.3-1.2.2.4,0,2.9-.4,4.7-.5,2.4-2,4.5-2.5,4.7,0,0-.2,0-.4.2h0s0,0,0,0c-.6.3-1.6.7-2.2.8-1,.2-3.4.3-4.6.1-2.5-.3-5.2-1.3-6.6-2.4-.6-.4-.6-.5-.7-1.8v-.6c0,0-.4-.3-.4-.3-.6-.4-2-1.8-2.4-2.4-.4-.5-.9-1.6-1.2-2.2,0-.2-.2-.3-.2-.4-.1-.1-.7-1.8-.8-2.6-.5-3.3.2-7.1,2-9.7,1.2-1.9,3-3.3,4.8-3.8.5-.2,1.5-.2,1.3,0,0,0-.4.2-.8.3-2.4.7-4.1,2.3-5.4,5-1.6,3.2-2,6.8-.8,10,0,.1,0,.2.1.4.2.6.5,1.4.9,2,.5.7,2.1,2.3,2.5,2.6l.3.2v-.4c-.3-1.7-.3-9.8-.1-11.4,0-.7.2-.9.4-.9,0,0,.1.3.1,1.8,0,3.5.4,11,.7,13v.3c0,.3.1.5.1.6.1,0,1.6.7,2.2.9,2.2.8,5.2,1.3,7.2,1.1,1.6-.2,2.7-.4,3.5-1,.2-.2.9-.7,1.2-1.5.6-1.4,1.3-3.7,1.7-6.1.1-.7.2-1.3.3-1.3,0,0,0-.2-.2-.5-.4-.7-.8-1.4-.8-1.6,0-.3.3,0,.9.8.3.5.8,1,1,1.1.2.2.7.6,1.2,1,2.6,2.3,5.1,3.9,7.9,5.3,4.3,2.1,9.4,3.2,13.4,3,6.3-.3,11.4-2.7,14-6.6.3-.4,2.3-3.7,2.2-3.9,0,0-.3,0-.6,0-.2,0-.4,0-.5,0-.4,0-2.1-.5-2.3-1.6,0-.1-.4-.6-.4-.6,0,0-.3,0-.7.3-.8.4-1.5.2-2.5-.7-.5-.4-.8-.9-.8-1.3,0-.3-.3-.6-.3-.7,0,0-.4,0-.5.2-.4.4-1.9.4-2.5,0-.3-.2-.9-.7-1-1.1,0,0,0,0,0-.2,0-.3-.2-.8-.5-.9,0,0-.6-.3-1-.5-.5-.2-1.1-.5-1.3-.6-.4-.2-.4-.2-.8-.1-.4,0-.6.5-.6.7,0,.3.1.8.5,1.3.5.8,1.4,1.5,2.7,2.4,1.2.8,1.4,1,1.8,1.8.4.8.6,1.5.6,2.7,0,.9-2.7,4.3-6.4,3.9-3.7-.3-7.8-1.4-10.3-2.7-2.7-1.4-5.1-3.1-7.3-5.4-1-1.1-1.1-1.2-2-2.7-1.2-2-1.2-2.1-1.2-2.3q0-.2-.8-.1c-1,0-2.7,0-3.8-.2-2.7-.5-5.2-1.6-7.6-3.4-.2-.2-.4-.2-.3-.2,0,0,0,.1-.5.2-.6.1-1.2,0-1.5-.3-.4-.5-1-1.9-1-2.6,0-.3,0-.5-.1-.6h0c0-.1,0-.2,0-.3,0,0,0-.1-.1,0,0,0-.2,0-.3-.1,0,0,0,0-.1-.1-.6-.4-3.2-2.2-3.6-4-.5-2-.7-3.4-.8-3.9-.1-1-.1-1-.5-1.6-.6-.9-1.2-2.2-1.3-2.6v-.3c0,0-.3.8-.3.8-.1.5-.2,1-.2,1.2s0,.3-.1.4c-.2,0-.4-.1-.6-.8-.2-.6-.2-.8-.1-1.9,0-1.3.2-2.4.4-3.4.3-1.3.8-2.6,1.2-3,.2-.2.4-.2.4,0,0,0,0,0-.1,0-.3,0-1,2.2-1.3,4-.1.9-.2,3.7,0,3.7,0,0,.1-.2.2-.5.2-.6.5-1.1.7-1.1,0,0,0,0,0,.1,0,.2,0,.6.2.9,0,0,0,.1.2.3.1.2.3.5.5.8l.6.9v-1c0-.6,0-1.3,0-1.7,0-.7.3-1.2.4-1.2,0,0,0,.3,0,1.4,0,.4,0,.8,0,.9,0,0,0,0,.2-.2,0-.1.3-.4.5-.6.2-.2.5-.6.6-.8.2-.5,1.2-1.6,1.7-2,.2-.2.4-.4.6-.9,1.3-3.1,3.7-5.7,6.7-7.5.8-.4.8-.5.6-.6,0,0-.5-.2-.8-.4-.2-.1-.4-.2-.6-.3,0,0,0,0,0,0,0,0,0,0-.1.1,0,.2-.2.2-.3,0,0-.1-.2-.3-.3-.3-.2,0-.2-.3,0-.4.2,0,.6.1,1.3.6.2.2.6.4.7.4.2,0,.3.2.3.2,0,0,.3,0,.6-.2,2.3-1.1,3.5-1.6,7.1-1.6ZM50.7,47c-2.3,1.7-5.1,2.9-7.9,3.4-.7.1-.8.2-.7.2.2,0,.3.2.5.5.9,1.5,3.1,4.3,4.8,5.8,4,3.4,9.6,5.6,14.2,6,1.5.1,3.4-.2,4.5-.7.6-.3,1.3-.9,1.6-1.3.4-.6.7-1.2.7-1.5,0-2.2-2-3.6-3.2-4.4-1.5-1-2.4-2.4-2.4-3.1,0-.7.3-1.1.5-1.4l.2-.2h-.2c-1.1-.8-2.2-1.4-3.3-2-.7-.4-1.6-.8-1.9-1.1l-.6-.4-.2.2c-.4.3-1,.6-1.6.6s-.5,0-.8-.3l-.3-.3-.3.2c-.5.3-1.3.7-1.6.7-.6,0-1.4-.5-1.6-1v-.2c0,0-.4.2-.4.2ZM60.6,42.7c-.5-.3-.6-.3-.6-.1,0,.2-.5,1.3-.9,1.9-.2.3-.6.9-.9,1.3l-.5.7.6.3c.1,0,1.4.7,3,1.4,2.5,1.2,5.7,2.7,5.8,2.8,0,0,.2-.3.2-.7,0-.9.4-2,.7-2.9.2-.4.3-.8.3-.9,0,0-.1,0-.3-.2-.3-.1-.6-.2-1-.4-2-1-5.9-2.9-6.4-3.2ZM59.5,45.8c.3,0,7,3.5,7.5,3.7.2.1-.2.3-.3.4-.6,0-1.2,0-1.8-.4-.3-.2-2.5-1.4-4-2.3-.7-.4-1.2-.7-1.3-.7-.3-.2-.6-.4-.7-.5-.2-.2,0-.3.5-.3ZM58.2,37.8c-.2-.1-.7,0-1.1.2-.3.2-.5.3-.6.6-.1.2-.2.5-.2.5,0,.2-.7,1.9-1,2.4-.9,1.5-1.8,2.8-3.1,4.1l-.8.8.2.3c.1.2.4.3.6.4.6.2.9.2,1.5-.2.6-.3,1-.7,1.7-1.6.2-.3.6-.8.8-1,1.2-1.6,1.7-2.6,2.1-4.2.4-1.4.4-2.2,0-2.4ZM59.1,40.8c-.3,0-.5.3-.9,1.3-.5,1.3-3.3,4.8-3.3,4.8l.2.2c.1.1.2.2.5.1.4,0,1.2-.4,1.5-.7.1-.1.5-.6.7-.9,1.1-1.6,1.5-2.4,1.7-3.5.1-.7,0-.9,0-1.1,0,0-.2-.1-.4-.1ZM23.8,28.5c0,0-1.9,2.1-2.2,2.8,0,.1-.2.4-.3.6l-.2.3s0,.4.1.8c.2,1.1.1,1.4.3,2.3.1.6.3,1.2.3,1.3,0,0,.1.4.2.8.2.9.6,1.8.9,2.2.6.8,1.5,1.8,1.9,2.1.2.2.4.3.5.3,0,0-.2-.4-.4-.8-.9-1.8-1.4-3.6-1.7-5.6,0-.5-.1-.8-.2-1-.2-.3-.2-.7,0-1.1.1-.2.2-.5.2-.8v-.4l-.4.4c-.4.4-.7.5-.7.3,0-.2.6-1,.9-1.3.2-.2.3-.3.4-.9,0-.4.2-1,.3-1.5.1-.4.2-.8.2-.8ZM19.5,26.7c.1-.1.2-.2.2-.1,0,.1-.4.5-.6.5-.1,0,0,0,.2.2.2,0,.4.1.3.2-.1.1-.6,0-.8,0-.2-.2-.2-.3.1-.4.1,0,.4-.1.5-.3ZM22.2,26.8c.1-.3.2-.3.2-.2,0,0,0,.2,0,.3-.2.3-.2.3.1.3.3,0,.3,0,0,.2-.2,0-.4,0-.6,0-.2,0-.2-.2,0-.2s.2-.2.3-.3ZM24.3,18.9c.8-.2,1.6-.3,1.9,0,.1.1,0,.1-.5.1-1.3,0-2.7.6-5.1,2.2-1.2.8-2.7,2-2.7,2.2,0,0,.2,0,.5-.2.6-.3,1.2-.4,1.5-.4.3,0,.2.2-.2.2-.2,0-.8.3-1.3.5-.5.3-1,.5-1,.5-.8,0,.3-1.4,2.4-2.8,2-1.3,3.3-2,4.5-2.4ZM24,21.1c.4,0,.5,0,.5.1,0,.1,0,.1-.2,0-.1,0-.3,0-.5,0h-.2c0,0,.2.1.2.1.2,0,.2.2,0,.4-.1,0-.5.5-.8.8l-.6.7h.6c.4,0,.6,0,.6.1,0,0,0,0-.8.2-.8.2-1,0-.7-.4.2-.3,1.4-1.6,1.6-1.6,0,0,0,0,0,0,0,0-.2-.1-.5-.1-.9-.1-.4-.4.7-.5ZM27.8,20.1c0,0,.8,0,1,.1,0,0,.1,0,.2,0,.1-.1.3,0,.3.2,0,0,0,.1,0,0,0,0-.1,0-.2,0,0,0-.1,0-.2,0,0,0-.2,0-.3,0s-.2,0-.2,0c0,0,0,0,0,.2.1.2.1.2-.2.2h0c-.2,0-.3,0-.3.2,0,0,0,0,0,0,0,0,0,0,0,.1,0,0,0,0-.2,0,0,0,0,0,0,0-.2,0-.2-.1,0-.2,0,0,.2-.1.3-.1h.2c0,0-.2-.2-.2-.2,0-.1-.1-.2-.1-.2ZM25,18c-.1-.4.7-.5,2.2-.4,1.3,0,2,.2,2.5.5.3.2.3.2.2.2-.1,0-.4,0-.7-.1-.3,0-1-.1-1.7-.2h-1.2s.2.2.2.2c.1.1.2.3.2.4,0,.2,0,.2-.3,0-.2-.2-.8-.4-1.2-.4s-.3,0-.3-.1Z"/>
      <path class="cls-6" d="M77,54.8c1-2.7.8-3.3.7-3.3,0,0-.4.2-.5.7-.3.8-1.4,3.1-1.8,3.5q-.5.5-.9.5c-.5,0-1.8-.7-2-1.4-.3-1.1,1-5,1-5.3l-.2-.2c-.1.1-2,5.8-4.4,4.3-.3-.2-.9-1-.9-1.4-.3-1.2.9-5.5,1.2-6.4.2-.8,1.1-1.5,2.3-1.5,1.8,0,1.6,1.6,2.4,2.1.4.2,1-.2,1.1-.2,1-.2,1.4,0,2.2.6.6.5,1,1.4,1.5,1.7.3.2.5,0,.6-.1.4-.2,1.2,0,1.4.1.3.1,1.1.9,1.2,1.4.6,2-1.2,6.5-1.9,7.3-1.1,1.4-3.8.3-2.8-2.4Z"/>
      <path class="cls-4" d="M31.5,47.4c2.2,1.4,4.4,2.3,7,2.5,2,.2,4.7,0,6.7-.7,1.6-.5,3.9-2,5.3-3.2,2.9-2.4,4.7-6.2,5.5-10.2.1-.6.3-2,.3-3.4,0-1.6-.7-6.1-2.9-8.7-4.5-5.3-11.9-7.7-18.1-5.6-2.2.7-4.6,2.1-6.4,3.8-2.3,2.2-3.9,5.2-4.6,8.3-.7,3.2.2,7.1,1.8,10.3,1.3,2.5,3.3,5.5,5.5,6.9ZM52.7,37.9c-1.5,4.5-5.4,7.8-10.2,8.8-.7.2-1.3.2-2.3.2-.7,0-1.5,0-1.6,0-3.4-.4-6-1.7-8.4-4.1-1-1.1-1.5-1.6-2.1-2.7-1-1.8-1.6-3.6-1.7-5.8-.6-7.5,4.8-13.8,12.4-14.4,3-.3,6.3.7,8.8,2.4.9.7,2.6,2.3,3.1,3.1.2.3,2.3,3.3,2.7,5.1.5,2.3.3,5.1-.5,7.4Z"/>
      <path class="cls-3" d="M56.2,32.5c0,5.3-2.5,11.1-5.8,13.6-1.5,1.2-3.6,2.6-5.3,3.2-2.6.8-6.7.7-6.7.7,0,0,4.2-.6,5.7-1.2,4.4-1.8,6.9-4.5,8.3-7.2,3-5.2,3.7-9.3,3.7-9.2Z"/>
      <path class="cls-4" d="M38.6,46c-2.1-.3-4.2-1-5.9-2.1-1-.7-2.5-2.2-3.3-3.3-1.1-1.6-1.8-3.3-2.1-5.1-.2-1.3-.2-3.4,0-4.5.3-1.2.6-2.1,1.2-3.3.7-1.3,1.4-2.3,2.5-3.4,1.8-1.8,3.9-3,6.5-3.5.8-.2,3.8-.3,3.9-.2,0,0,.2.1.3.2.2,0,.6.4,1,.8.5.5.8.8,1.3,1.5.3.5.6,1,.6,1,0,0,.3.2.4.2s.3-.6.4-1.6c0-.6,0-1.1.1-1.1.1,0,1.3.7,1.9,1.1,1.1.7,2.2,1.8,3.1,2.9.4.5.4.6.4.9s0,.5.3.9c.6,1.1,1.1,2.4,1.4,3.9.2,1,.2,2.9,0,4-.5,2.9-2.1,5.8-4.2,7.6-1.8,1.5-3.6,2.5-5.9,3-.8.2-3,.3-3.7.2ZM32.9,40.5c0,0,.1-.2,0-.3,0,0-.1,0-.3-.1-.3-.2-.9-.4-1.2-.7-1-1.2-1.4-2-1.6-3.8-.2-1.7,0-2.9.4-4.8.2-.9.7-1.7,1-2.2.2-.3.3-.5.2-.5-.3,0-.4,0-.7.3-.7.7-1,1.2-1.3,2.2-.5,1.6-.6,5.9.4,7.9,1,1.9,2.8,2.2,3,2ZM44.2,33.9c-.1,1.2-.7,3-1.4,3.8-.3.4-1.4,1-2.4.9-.9-.1-1.6-.6-2.3-1.5-.5-.8-.8-1.8-1-3-.3-2.1,1.1-4.6,1.7-5.2.6-.6,1-.8,1.6-.9.5,0,.9.1,1.4.5,1,.7,2.6,3,2.3,5.4ZM33.5,27.3c.2-.2.2-.3.1-.6,0-.3,0-.4-.3-.6-.3-.2-.7-.2-.9,0-.2.2-.2.2-.2.7,0,.5,0,.5.3.6.3.2.7.1.9-.2ZM38.4,22.5c-1.4,1-2,1.4-2.7,1.8-.5.3-.7.3-.7,0s.1-.3.4-.6l.4-.4h-.8c-.9-.2-1.7-.5-1.9-.6-.3-.3,0-.4.8-.2.4,0,1.1.1,1.6.2h1s.7-.5.7-.5c1.5-1.1,3.1-1.7,3.8-1.5.5.1.4.2-.1.3-.6,0-1,.3-2.6,1.4Z"/>
      <path class="cls-6" d="M40.5,37.5s0,0,.1,0,.1,0,.2,0c0,0,0,0-.1,0s-.2,0-.2,0Z"/>
      <path class="cls-6" d="M40.9,37.4c0,0,.2-.2.4-.2q.2,0,0,.1c-.2.1-.4.2-.4,0Z"/>
      <path class="cls-6" d="M39.7,37.2c0,0,0-.2,0-.2,0,0,0-.1.1-.1s.2,0,.2.1,0,.2,0,.2c0,0,0,.1,0,.1s-.2,0-.2-.1Z"/>
      <path class="cls-6" d="M40.1,37c0-.2,0-.3.3-.3s.2,0,.2.2c0,.2,0,.3-.3.3s-.2,0-.2-.2Z"/>
      <path class="cls-6" d="M39.3,37q-.2-.1,0-.1c.1,0,.2,0,.2.1q0,.1-.2,0Z"/>
      <path class="cls-6" d="M40.9,37c-.1-.1,0-.4,0-.5.2,0,.3,0,.4.2,0,.1,0,.2,0,.2,0,0-.4.1-.5,0Z"/>
      <path class="cls-6" d="M41.6,36.8s0-.1,0-.2c0-.1,0-.2.3-.2.2,0,.3,0,.3,0,0,.1,0,.3,0,.3-.1,0-.5.1-.5,0Z"/>
      <path class="cls-6" d="M39,36.6c0,0,0-.2.2-.2.2,0,.2,0,.2.1,0,.1,0,.2-.2.2-.2,0-.2,0-.2-.1Z"/>
      <path class="cls-6" d="M39.6,36.6c-.1-.1,0-.3.1-.3s.2,0,.2.2c0,.2-.2.3-.3.2Z"/>
      <path class="cls-6" d="M40,36.4c0-.2,0-.3.3-.3s.2,0,.2.2,0,.2-.2.2c-.3,0-.3,0-.3,0Z"/>
      <path class="cls-6" d="M42.3,36.3s0,0,0,0,0,0,0,0c0,0,0,0,0,0s0,0,0,0Z"/>
      <path class="cls-6" d="M40.7,36.2c0-.2,0-.2.3-.3.1,0,.2,0,.2.1,0,.3-.4.4-.5.2Z"/>
      <path class="cls-6" d="M38.8,36.1c0-.3,0-.3.2-.3s.2,0,.2,0,0,.1,0,.2c0,0,0,.1-.2.2-.2,0-.2,0-.2-.1Z"/>
      <path class="cls-6" d="M41.5,36c0-.1,0-.2.2-.2.2,0,.3,0,.3.3s0,.1-.3.1-.3,0-.3-.2Z"/>
      <path class="cls-6" d="M38.6,36c0,0,0-.1,0-.1s0,0,0,.1,0,.1,0,.1,0,0,0-.1Z"/>
      <path class="cls-6" d="M39.4,36.1c-.1-.1,0-.3,0-.4,0,0,.2,0,.2,0,0,0,0,.3,0,.4q-.2,0-.2,0Z"/>
      <path class="cls-6" d="M42.2,36c0-.2,0-.4.2-.4.2,0,.2,0,.2.1,0,.3,0,.4-.2.4s-.2,0-.2-.1Z"/>
      <path class="cls-6" d="M40,35.9c0,0,0-.2,0-.3.2,0,.5.1.4.2-.1,0-.4.2-.5.1Z"/>
      <path class="cls-6" d="M40.7,35.7c0-.1.2-.3.4-.3s.1,0,.1.1c0,.2-.4.3-.5.2Z"/>
      <path class="cls-6" d="M38.5,35.6s0-.1,0-.2c0,0,0-.1,0-.1.1,0,.2.3,0,.4,0,0,0,0,0,0Z"/>
      <path class="cls-6" d="M38.7,35.5c0-.2,0-.3.2-.3s.2.3.1.4c0,.1-.3,0-.4-.1Z"/>
      <path class="cls-6" d="M39.3,35.5c-.1-.1,0-.4.1-.4.1,0,.2,0,.2.2,0,.1,0,.2,0,.2,0,0-.4.1-.4,0Z"/>
      <path class="cls-6" d="M41.4,35.5c-.1-.1,0-.2.2-.3.2,0,.3,0,.3,0,0,.2-.3.4-.5.2Z"/>
      <path class="cls-6" d="M42.1,35.3c0-.1,0-.2.2-.2s.3.2,0,.3c-.2,0-.3,0-.3,0Z"/>
      <path class="cls-6" d="M42.8,35.1c0-.1.1-.2.2-.2,0,0,0,.3-.1.3s0,0,0-.1Z"/>
      <path class="cls-6" d="M38.4,35s0-.1,0-.2c0-.2,0-.2,0,0,0,.2,0,.3,0,.2Z"/>
      <path class="cls-6" d="M38.5,34.9c0-.3,0-.3.1-.3s.4.3.2.4c-.2.1-.3,0-.3-.1Z"/>
      <path class="cls-6" d="M41.3,35.1s0-.2,0-.3c.1-.3.4-.3.4,0,0,.1,0,.2,0,.2,0,0-.5.1-.5,0Z"/>
      <path class="cls-6" d="M39.1,34.9s0-.1,0-.2c0-.1,0-.1.1,0,0,0,.1.2.1.2,0,.1,0,.2-.2,0Z"/>
      <path class="cls-6" d="M41.9,34.7c0-.2,0-.4.3-.3.1,0,.2,0,.2.3s0,.2-.2.3c-.2,0-.2,0-.3-.2Z"/>
      <path class="cls-6" d="M42.7,34.7c-.1-.3,0-.4.1-.4.2,0,.2,0,.2.2s0,.2-.2.3c0,0-.2,0-.2,0Z"/>
      <path class="cls-6" d="M38.3,34.3c0-.2,0-.2,0-.1,0,0,0,.2,0,.3,0,0,0,0,0-.1Z"/>
      <path class="cls-6" d="M38.5,34.4c-.1,0,0-.4,0-.5.2,0,.3,0,.3.3s0,.2-.1.2-.2,0-.2,0Z"/>
      <path class="cls-6" d="M38.9,34.2c0-.1,0-.2,0-.3,0,0,.1,0,.1.3v.2s0-.2,0-.2Z"/>
      <path class="cls-6" d="M41.5,34.1c0,0,0-.1,0-.1,0,0,0,.1,0,.2s0,.1,0,.1,0,0,0-.2Z"/>
      <path class="cls-6" d="M41.9,34.2c-.1-.1,0-.3.2-.4.2,0,.2,0,.3.2,0,.1,0,.2-.2.2-.1,0-.3,0-.3,0Z"/>
      <path class="cls-6" d="M42.6,34.1c0,0,0-.3,0-.3s0,0,0,0,0,0-.1,0c-.1,0-.2-.4-.1-.5s.3,0,.4.4c0,.2.1.4.1.5,0,.1,0,.1-.2.1s-.2,0-.2,0Z"/>
      <path class="cls-6" d="M43,33.7c0-.2-.2-.7-.3-1.1-.2-.5-.2-.6,0-.7,0,0,.1,0,.2,0,0,0,.4,1.6.4,1.9v.3s-.1-.4-.1-.4Z"/>
      <path class="cls-6" d="M38.2,33.6c0-.1,0-.2,0,0,0,0,0,.2,0,.2,0,0,0,0,0-.1Z"/>
      <path class="cls-6" d="M38.3,33.6c0-.3.3-.3.3,0,0,.2,0,.2-.2.3-.2,0-.2,0-.2-.2Z"/>
      <path class="cls-6" d="M41.7,33.5c0-.2,0-.4.3-.3.2,0,.3.4.1.5-.2.1-.4,0-.4-.1Z"/>
      <path class="cls-6" d="M38.8,33.5c0-.1,0-.2.1-.2s.1,0,0,.2c0,.3-.2.3-.2,0Z"/>
      <path class="cls-6" d="M38.1,33.1c0,0,0-.1,0,0,0,0,0,.1,0,.2,0,0,0,0,0-.1Z"/>
      <path class="cls-6" d="M38.2,33.1c0-.1,0-.2.2-.2s.2,0,.1.1c0,.2-.3.2-.3,0Z"/>
      <path class="cls-6" d="M38.7,33q0-.1.2-.2c.1,0,.2,0,.2,0,0,.2-.3.3-.4.1Z"/>
      <path class="cls-6" d="M41.5,32.9c0-.2,0-.3.3-.3s.2,0,.2.2,0,.2-.1.2-.2,0-.2,0c0,0-.1,0-.2-.1Z"/>
      <path class="cls-6" d="M42.2,32.7c0-.2,0-.3.2-.3s.2,0,.2.2,0,.2-.2.2-.2,0-.2-.1Z"/>
      <path class="cls-6" d="M38.2,32.6c0-.2.2-.4.3-.3,0,0,0,.1,0,.2s0,.2-.2.2-.2,0-.2-.2Z"/>
      <path class="cls-6" d="M38.6,32.5c0-.2,0-.3.3-.3.2,0,.3.2.1.4-.2.2-.3.1-.4,0Z"/>
      <path class="cls-6" d="M41.5,32.5c0,0,0-.3,0-.3s.1,0,.3,0c.2,0,.3,0,.2.2,0,.2,0,.2-.2.3-.2,0-.2,0-.3,0Z"/>
      <path class="cls-6" d="M41.2,32.3c0,0,0,0,0,0,0,0,0,0,0,.1,0,0,0,0,0,0Z"/>
      <path class="cls-6" d="M42.1,32.2c0-.1.3-.3.3-.3,0,0,0,.1,0,.2,0,.2,0,.2-.2.2s-.2,0-.2-.1Z"/>
      <path class="cls-6" d="M38.2,32.2s0-.1,0-.2c0,0,0,0,0,0s0,.2,0,.2,0,0,0,0Z"/>
      <path class="cls-6" d="M38.5,32c0-.2.2-.3.3-.1,0,.1,0,.2,0,.2-.2.1-.3,0-.3,0Z"/>
      <path class="cls-6" d="M40.9,31.9c-.1-.2-.1-.2,0-.1,0,0,.2,0,.2,0s0,0,0,.1c0,.2-.1.2-.3,0Z"/>
      <path class="cls-6" d="M39.2,31.9c-.3-.3-.4-.8,0-.8s.4.3.4.6c0,.3-.1.3-.3.2Z"/>
      <path class="cls-6" d="M41.4,31.9s0,0,.1,0c0,0,0,0,0,0s0,0,0,0Z"/>
      <path class="cls-6" d="M42.6,31.6c0,0,0-.1,0-.2s0,0,0,0,0,0,0,.2,0,.2-.1.2-.1,0,0-.1Z"/>
      <path class="cls-6" d="M38.4,31.6c0-.2.2-.5.3-.5.2,0,0,.5-.1.5,0,0-.1,0-.1,0Z"/>
      <path class="cls-6" d="M40.2,31.5h-.2c0,0,.2-.1.2-.1.2,0,.4,0,.4.1s0,0-.4,0Z"/>
      <path class="cls-6" d="M39.9,31.1c0-.3.2-.4.3,0,.1.2.1.2,0,.2s-.2,0-.2,0c0,0-.1,0-.1-.2Z"/>
      <path class="cls-6" d="M41.3,31.2c-.4-.2-.6-.6-.6-1.1s0-.4.2-.6c.1-.1.3-.2.3-.2.2,0,.8.6,1,1l.2.4-.3.3c-.3.3-.6.4-1,.2Z"/>
      <path class="cls-6" d="M39.6,31s0,0,0,0,0,0,0,0,0,0,0,0c0,0,0,0,0,0Z"/>
      <path class="cls-6" d="M38.6,30.9c0,0,0-.1,0-.2s0,0,.2,0c.2,0,.2.1,0,.2-.2.1-.3.1-.2,0Z"/>
      <path class="cls-6" d="M39.2,30.8c-.2,0-.2-.1-.1-.2,0,0,.2,0,.3,0,.2,0,.3,0,.3.1s-.2.2-.5.2Z"/>
      <path class="cls-6" d="M39.8,30.5c0,0,0-.2,0-.1,0,0,0,0,.1.2,0,.1,0,.1,0,.1s-.1,0-.1-.2Z"/>
      <path class="cls-6" d="M38.7,30.5s0-.1,0-.1c0,0,0,0,0,0s0,.1,0,.1,0,0,0,0Z"/>
      <path class="cls-6" d="M39,30.4c0-.2.5-.3.6-.2,0,.1,0,.2-.3.2-.2,0-.3,0-.3,0Z"/>
      <path class="cls-6" d="M39.8,30.1c0,0,0-.1,0,0,0,0,0,.1,0,.2,0,0,0,0,0-.1Z"/>
      <path class="cls-6" d="M39.1,30c0-.2.4-.5.4-.5s0,.4,0,.4c0,0-.2,0-.3,0-.2,0-.2,0-.2,0Z"/>
      <path class="cls-6" d="M39.7,29.8c0-.2,0-.3.1-.4q.2,0,0,.2c-.2.3-.2.3-.2.2Z"/>
      <path class="cls-6" d="M39.7,29.3s.2-.1.4-.2c.2-.1.4-.2.5-.2.1,0,.1,0-.2.2-.4.2-.6.2-.6.2Z"/>
      <path class="cls-6" d="M44.1,22.3c-.2-.3-.7-.8-1-1.1-.3-.3-.5-.5-.5-.5.2,0,1.5.4,1.8.5.3.1.3.1.2.4,0,.1,0,.5,0,.8s0,.5,0,.5-.2-.3-.5-.6Z"/>
      <path class="cls-6" d="M28,46.3c-.3-.2-.4-.3-.8-1.1-.6-1.2-.6-1.4,0-.8.2.3.7.8,1.1,1.2.7.7.7.7.5.7-.2,0-.2,0-.2,0,0,.1-.2.1-.6,0Z"/>
      <path class="cls-2" d="M41.2,60.7c0-.2,0-.3.2-.4h.2c1.7-.8,2.6-1.2,3.3-1.9.6-.7.7-1.7.8-2.3,0-.2.4.1.6.2.2,0,.3.2.2.4-.1.7-.5,1.4-1.2,2.1-.6.7-1.9,1.4-3.7,2.1-.2,0-.3,0-.4-.2Z"/>
      <path class="cls-2" d="M48.7,29.1c.1,0,.3,0,.4.1.9,1.5,1.3,3.1,1.3,4.9,0,5.3-4.3,9.5-9.5,9.5s-2.7-.3-4-.9c-.2,0-.7-.6-.1-.4.6.2,2.8.7,4.2.7,4.9,0,8.4-4.1,8.4-9s-.6-3.1-.8-4.5c0-.2,0-.3.1-.4Z"/>
      <path class="cls-2" d="M18.4,52.3c.1-.1.3-.4.4-.3.5.4,1.1,1,1.7,1.1.6.1,1.4.1,2.3,0,.2,0,.3,0,.3.3,0,.2,0,.3-.3.3-.9.1-1.7.1-2.4,0-.7-.1-1.4-.4-2-.9-.1-.1-.1-.3,0-.4Z"/>
      <path class="cls-6" d="M24.9,41.6c-.4-.3-1.2-1.3-1.9-2.1-.3-.4-.7-1.3-.9-2.2-.1-.4-.2-.8-.2-.8,0,0-.2-.6-.3-1.3-.2-.9-.1-1.2-.3-2.3,0-.5-.1-.8-.1-.8l.2-.3c.1-.2.3-.4.3-.6.3-.7,2.1-2.8,2.2-2.8,0,0,0,.4-.2.8-.1.4-.2,1.1-.3,1.5,0,.6-.1.7-.4.9-.3.3-.9,1.1-.9,1.3s.4,0,.7-.3l.4-.4v.4c0,.3,0,.5-.2.8-.2.4-.2.8,0,1.1,0,.2.2.5.2,1,.2,2,.8,3.8,1.7,5.6.2.4.4.8.4.8,0,0-.2-.2-.5-.3Z"/>
      <path class="cls-4" d="M57.8,46.5l.6.3c.1,0,1.4.7,3,1.4,2.5,1.2,5.7,2.8,5.8,2.8,0,0,.2-.3.2-.7,0-.9.4-2,.7-2.9.2-.4.3-.8.3-.9s-.1,0-.3-.2c-.3-.1-.6-.2-1-.4-2-1-5.9-2.9-6.4-3.2-.5-.3-.6-.3-.6-.1s-.5,1.3-.9,1.9c-.2.3-.6.9-.9,1.3l-.5.7ZM67,49.5c.2.1-.2.3-.3.4-.6,0-1.2,0-1.8-.4-.3-.2-2.5-1.4-4-2.3-.7-.4-1.2-.7-1.3-.7-.3-.2-.6-.4-.7-.5-.2-.2,0-.3.5-.3.3,0,7,3.5,7.5,3.7Z"/>
      <path class="cls-6" d="M52.1,47.2c-.2,0-.4-.2-.6-.4l-.2-.3.8-.8c1.3-1.3,2.2-2.7,3.1-4.2.3-.5,1.1-2.6,1.2-2.8.2-.3.3-.5.6-.6.4-.2.9-.3,1.1-.2.4.3.4,1.1,0,2.4-.4,1.5-1,2.6-2.1,4.2-.2.2-.5.7-.8,1-.7.9-1.1,1.3-1.7,1.6-.6.3-.9.4-1.5.2Z"/>
      <path class="cls-6" d="M55.1,47l-.2-.2s2.8-3.5,3.3-4.8c.4-1,.6-1.3.9-1.3s.3,0,.4.1c.1.2.2.4,0,1.1-.2,1.1-.6,1.9-1.7,3.5-.3.4-.6.8-.7.9-.3.3-1.1.6-1.5.7-.3,0-.4,0-.5-.1Z"/>
      <path class="cls-3" d="M59.8,43.4c.2-.4.3-.7.3-.8,0-.2,0-.2.6.1.5.3,4.4,2.2,6.4,3.2.7.4,1.4.6,1.4.6s-8.8-2.7-8.6-3.1Z"/>
      <path class="cls-3" d="M32.7,43.8c-1-.7-2.5-2.2-3.3-3.3-1.1-1.6-1.8-3.3-2.1-5.1-.2-1.3-.2-3.4,0-4.5.3-1.2.6-2.1,1.2-3.3.7-1.3,1.4-2.3,2.5-3.4,1-1-3.6,3.3-2.5,11,.9,6.5,4.9,9.1,4.2,8.6Z"/>
    </g>
  </g>
</svg>