<?xml version="1.0" encoding="UTF-8"?>
<svg xmlns="http://www.w3.org/2000/svg" version="1.1" viewBox="0 0 106.4 111">
  <defs>
    <style>
      .cls-1 {
        fill: #fff;
      }

      .cls-1, .cls-2, .cls-3, .cls-4 {
        fill-rule: evenodd;
      }

      .cls-2 {
        fill: #d6a9ee;
      }

      .cls-3 {
        fill: #400617;
      }

      .cls-4 {
        fill: #cabe20;
      }
    </style>
  </defs>
  <!-- Generator: Adobe Illustrator 28.7.10, SVG Export Plug-In . SVG Version: 1.2.0 Build 236)  -->
  <g>
    <g id="_图层_1" data-name="图层_1">
      <path class="cls-2" d="M91.9,74.9c-2.9,5.2-25.4-5.1-36-2.8-8.9,2-26.2,20.1-31.3,16.5-5.1-3.5,7.4-21.2,3.5-31.4-3.7-9.9-25.9-24.6-22.7-29.5,3.1-4.9,22.3,4.3,32.7,1.6,9.6-2.5,27.9-18.6,32.8-15.4,4.8,3.3-4.8,20.3-.9,30.5,4,10.5,24.8,25.2,21.9,30.4Z"/>
      <path class="cls-1" d="M72.9,30.9s0,0,0,0c-.3,0-.5,0-.8,0,0,0-.1,0-.2,0-.1,0-.2,0-.3.1-.6.3-.9,1-1.1,1.6-.1,0-.2,0-.2,0-.5-.9-2.1-1.7-2.9-.7-.6.7-.7,1.6-.5,2.5,0,0,.3.2.5.3.3.1.7.3.6.4-.2.5-.5.8-.9,1.1h0c-.1.1-.2.2-.3.3-.1,0-.2.2-.4.3h0c-.2.2-.5.4-.6.6-.7.8-1.4,1.8-1.7,2.9,0,0,0,.2,0,.3h0c-.1.4-.2.7,0,1.1,0,.1,0,.2,0,.4,0,.1-.1.3,0,.4.5,1,1.6,1,2.5,1,.2,0,.3,0,.5,0h0c.8,0,1.7,0,2.5.2.3,0,.3.4.3.6,0,.6,0,.9,0,1.2h0c0,.2,0,.5,0,.9,0,0,1.7,0,3.4-.6,1.5-.3,3.1-1.6,3.2-1.7,0,0,0,0,0,0,.1,0,.3-.4.3-.5.3-1.1.5-2.2.5-3.4,0-2.3-.4-4.7-1.2-6.9-.3-.9-1-1.6-1.8-2.1-.2-.2-.5-.3-.8-.2ZM72.7,45.7c1.3-.4,2.6-1.1,3.1-2.3.6-1.5-.3-3.8-1.1-5.8-.6-1.4-1.1-2.6-1-3.4.1-1.3-2.5-1.5-3.2-1.5,0,0,0,0,0,0,0,0,0,0,0,0,0,0,0,0,0,0,0,.2-.2.6,0,.7-.1.3,0,.6.2.8,0,0,0,.9-.1,2-.2,2.6-.7,7,.2,8.6.5.9,1.2,1.1,2,.9ZM34.3,55.2c.1,0,.2,0,.2,0,.8,0,2.5,0,3.3-.1.2,0,.4,0,.7-.1h0c.2,0,.3,0,.5-.1.4,0,.8-.2,1.2-.5.5-.4.6-.7-.1-1.1-.3-.2-.5-.2-.8-.1-.1,0-.2,0-.4,0-.5,0-.9,0-1.3,0h0c-.5,0-.9,0-1.6,0-.1,0-.3,0-.4,0h0s0,0,0,0h0c-.6,0-1.3-.1-1.9-.5-.8-.5-1.4-1-1.7-1.4-.5-.6,0-.5.4-.4.3,0,.5.1.5,0,0-.2,0-.2.1-.3,0,0,.1-.1.1-.3,0-.4,0-1,0-1.4-.2-.7-.4-1.3-.7-1.9-.2-.6-.5-1.1-.6-1.7-.2-.6,0-1.4.5-1.7.4-.3.9-.1,1.4,0,.1,0,.3,0,.4.1.6.1,2-.3,2.5-.7.2-.2.2-.4.1-.6,0-.2,0-.4,0-.7,0,0,.2-.1.4-.1.2,0,.4,0,.4-.2-.8-2.8-1.3-3.9-2.9-5.2-.2-.1-.5-.3-.8-.4-.3,0-.5-.2-.7-.3-.1,0-.1-.2-.1-.4,0-.1,0-.2,0-.4,0-.2.2-.5.4-.8.1-.2.2-.3.2-.4,0-.7-.1-1.4-.6-1.8-.6-.5-1.1-.5-1.8,0,0,0-.1.1-.2.2,0,.1-.2.3-.4.3,0,0-.1,0-.1,0h0s0,0,0,0c0,0,0,0,0,0,0,0,0,0,0,0,0,0-.2-.2-.2-.2-.5-.4-1-.3-1.6,0-1.5.5-2.3,1.9-2.8,3.3-.4,1.1-.6,2.3-.7,3.5,0,.8-.2,1.5-.3,2.3-.1.6-.2,1.3-.3,2.2h0c-.2,1.3-.4,2.9-.8,4.5-1,4.1-2.7,8.2-3.4,9.5-.4.8-1.4,2.6-1.5,3.2-.2,1.5-.4,2-1.1,3-.8,1.1-2.2,1.5-3.5,1.8-.5.1-.9.2-1.3.4-.3.1-.8.2-1.2.2h0c-.7,0-1.4.2-1.8.5-.4.3-.6.7-.8,1.2,0,0,0,.2-.1.2,0,0,0,0,0,.1h0s0,0,0,0h0c-.1.2-.2.4-.1.6,0,0,0,0,0,0,0,.3,0,.6,0,1,0,.1.1.2.1.3,0,0,0,.2,0,.3.2.5.4.8.9,1.2.5.4,1.2.8,1.8,1.1,2.1,1,4.8,2.3,7.2,1.1.7-.3,1-.7,1.5-1.2.2-.2.3-.6.4-.9,0,0,0,0,0,0,0,0,0-.2,0-.2.1,0,.2,0,.2,0,0,0,0,0,.1,0,.5,0,.9,0,1.4,0,1.4,0,2.5,0,3.9,0h.4s.5,0,.5,0h0c1.5,0,3.3,0,4.7-.2.4,0,.7-.2,1-.3h0c.3-.2.6-.3.9-.3.3,0,.6,0,.9,0,.6,0,1.2,0,1.7-.2.3-.1.5-.5.6-.8h0s0,0,0,0c0-.1.1-.3,0-.4.1-.5-.3-.8-.6-1.1-.5-.4-1.1-.6-1.7-.7-.3,0-.5,0-.8,0h-.1c-.2,0-.4,0-.6,0h0c-.1,0-.2,0-.3,0-.1,0-.2,0-.3,0-.3,0-.5,0-.8,0h0s0,0,0,0c0,0,0,0,0-.1,0,0,.2-.2.3-.3h0c.1,0,.2-.2.3-.3.3-.4.6-.9.8-1.3.9-2,.6-4.3.2-6.4,0,0,0-.2-.2-.5-.3-.7-1-1.9-.8-2.4.2-.5,1.3-.1,1.8,0ZM80.6,72.8c1,.8,2.2,1.2,3.3,1.4h1.6c.2,0,.4,0,.6-.1.4,0,.7-.1,1.2-.3,1.6-.5,3.1-1.2,4.3-2.3.2-.2.9-.9,1-1.2.2-.3.3-.7.5-1.1,0,0,0-.1,0-.2,0,0,0-.2,0-.3,0-.3,0-.7,0-1,0-.1,0-.2,0-.3h0s0,0,0,0h0c-.1-.4-.1-.5-.4-.9-.7-1.1-2-1.7-3.3-1.9-.3,0-.7-.1-1-.2-1.1-.1-2.2-.3-3.1-.9-.8-.6-.9-1.7-1-2.6h0c0,0,0-.2,0-.4,0-.4,0-.9,0-1.3,0,0,.1,0,.2,0,.4-.1.7-.6.6-1-.1-.3-.5-.5-.8-.6,0,0-.1,0-.2,0h-.2c-.6-.3-.8-.4-1.3-.7-.8-.5-1.3-1.1-1.8-1.8-.4-.6-.9-1.1-1.6-1.7-1.6-1.3-2.5-4.3-3.2-6.3h0c0-.3-.1-.5-.2-.8h0c0-.2,0-.3-.1-.5,0-.1,0-.3,0-.4,0-.4-.1-.8-.3-.7-.5.3-1,.6-1.5.8-.6.2-.9.3-1.4.5-.2,0-.3,0-.5.1,0,0-.2,0-.2,0-1.4.4-3,.8-3.6,2.2,0,.2-.2.4-.2.6,0,.4.2,2.5.2,2.5,0,0,1.2.2,1.1.4-.1.4-.6.6-.8.7h0s0,0,0,0c-.2,0-.3.1-.5.2h0c-.3,0-.5.2-.5.3,0,.5-.1.8-.2,1.1,0,.1,0,.2-.1.3-.2.2-.2.4,0,.5,0,0,0,0,0,0,0,0,0,0,0,0,.4-.2.8-.2,1.2-.2,0,0,0,.1.1.2,0,0,.1.1.2.2-.4,0-.4.7-.5,1.1,0,.1,0,.2,0,.3-.3,1.4-.8,2.7-1.5,4,0,0-.1.2-.2.3-.3.4-.7,1-.4,1.4.3.3.7.4,1.1.5,0,0,.1,0,.3,0,.1.4.4.8.6,1,0,.2,0,.5.2.7,0,0,0,0,0,0,0,0,.2.3.4.6h0c.4.5,1,1.3.8,1.3-.4.2-1.2.2-2.1.3h0c-.9,0-1.9.1-2.3.4-.4.2-1,.5-1.2,1-.2.4,0,.8.4,1,.5.4,1.1.7,1.7.9,0,0,.3,0,.5,0h0c.4,0,1-.2,1.3,0,.2,0,.3.2.4.4.1.2.2.4.5.5.6.1,1.6.2,2.3.3,1.7,0,3.7.2,5.4.1.4,0,.8,0,1.1-.1.5,0,1.1-.2,1.6-.1.2,0,.3.2.4.4h0c0,0,0,.1,0,.1.3.5.5.8,1,1.2ZM67.3,63c0-.2,0-.3,0-.5.1-.9,13.5-3,16.3-3.4h0c.3,0,.5,0,.5,0,.2,0,.3.2.4.5-1.7.4-14.9,3.2-17.1,3.5ZM68.3,55.1c.1,0,.2,0,.3,0h0c.2,0,.4,0,.5,0,.8,0,.3-.5-.6-.6-.2,0-.3,0-.5,0-.2,0-.4,0-.6,0,0,0-.2,0-.3.2,0,.1,0,.3,0,.5h0s0,0,0,0c0,0,0,0,.2,0,.2-.1.5-.3.9-.2.1,0,.2,0,.3.2ZM44.5,68.9s0,0,0,0c.1,0,.3,0,0-.5-.1-.3-.7-.8-1.1-1.2h0c-.4-.4-.8-.7-.8-.9-.2-.7-.6-2-.8-2.7-.1-.5-.1-.9-.1-1.3h0c0-.8,0-1.5-.7-1.7-2.1-.6-2-2.4-2-2.4,0,0-.8-1.9,2.8-1.9,1.1,0,2.5-.2,3.2-1,.5-.5.3-1.7.3-1.7,0,0-3.7-3-.4-6.1.2-.2,2.6-2.5,3.1-3.1,0,0-.2-.3-.5-.6-.4-.4-1-.9-1.2-1.4-.5-1.3-.4-2.2-.3-2.4,0,0,0,0,0,0,.1-.4.5-1.4.2-2.1-.8-1.4-1-3.7.6-5.1.7-.6,1.7,0,2.3.8.3.4.3.5.3.6,0,0,0,0,.2.2,0,0,.2,0,.5-.2.9-.6,2.8-1.9,5.4,1.4,0,.1.2-.1.3-.5.3-.8.9-2.3,2.3-1.4,1.3.8.4,2.7-.2,3.8-.2.3-.3.6-.3.7,0,.3-.2.4-.4.5-.2.1-.4.2-.3.7.3,1.1.2,3.2-.3,3.9-.4.7-.6,1-.8,1.1,0,0-.1.1-.1.2s0,0,0,0h0s0,0,0,0c.2.4.5.7.9,1.1.5.5,1.2,1.2,1.8,2.6.9,1.9.5,2.4.2,2.9-.2.3-.4.5-.3,1,0,.4-.5.9-1,1.3-.5.4-1,.8-1,1.3,0,.8.9,1.7.9,1.7.4-.3,7.4.4,7,2.3-.2.9-.7,1.6-2.1,2.1-.7.3-1.6.3-2.3.4-.7,0-1.2,0-1.2.3.1,1.3.2,2.6,0,3.2-.2,1.4-.8,1.9-1.3,2.4-.2.2-.3.3-.4.4-.4.6,0,.6,0,.6h0s0,0,0,0c.3.2.6.6.5,1,0,.2-.3.4-.5.5-.7.4-1.6.6-2.4.7-2.1.3-4.8-.2-6.9-.5-.3,0-.6,0-1,0-1,0-2.1,0-2.3-.9ZM67,53.6h0c0,.8,0,1.7-.8,2-.2,0-.4.2-.6.2-.3,0-.7.1-1,0-.3.1-.7-.3-.6-.6,0-.1.1-.2.2-.2,0,0,.1,0,.2-.2,0-.1.1-.3.1-.4,0-.1,0-.3,0-.4,0-.3,0-.6,0-.9,0-.1,0-.3-.1-.4-.1-.3-.3-.6,0-.9,0-.2.3-.2.5-.2.7,0,1.4,0,1.9.4.3.2.3.6.3.9,0,.1,0,.3,0,.4,0,.1,0,.3,0,.5h0ZM61,53.7c0-.2,0-.4.1-.6.1-.2.2-.1.4,0,0,0,0,0,0,0,.1,0,1.2.2,1.7.2,0,0,.1,0,.2,0,.3,0,.8-.1.9.3,0,.3,0,1-.2,1.2-.3.2-.6.1-.9,0,0,0-.1,0-.2,0-.1,0-.3,0-.4,0-.7-.1-1.3-.2-1.5-1ZM63.2,51.8c0-.2-.1-.5-.4-.5-.3,0-.6-.2-.9-.2,0,0,0-.2,0-.3,0,0,0,0,0,0,0,0,0-.2,0-.3,0,0,0-.2,0-.2,0,0,0-.1,0-.2h0c0-.2.1-.3.1-.5,0-.2,0-.4-.2-.5,0,0-.2-.1-.2,0,0,.2-.1.4-.1.6h0c0,0,0,.2,0,.3,0,0,0,.2,0,.2,0,.1-.1.1-.2.1,0,0,0,0-.1,0-.1,0-.2.1-.3.2-.1.3-.1.6,0,.8-.5.2-1,.9-.6,1.4,0,0,.2.2.3.3.1,0,1.6-.4,2.2-.6.2,0,.3,0,.3,0,0,0,0,0,0,0,0,0,0-.1,0-.2,0,0,0,0,0,0,0,0,0,0,0-.1ZM61.1,51.2h0c.2-.1.5-.2.7-.2,0,.2-.2.4-.3.5-.2,0-.3,0-.4-.3ZM40.5,51.9c.2.2.6.7.2.9-.2.1-.3,0-.3-.2,0-.1-.1-.3-.3-.3-.5,0-.9,0-1.4,0-.3,0-.6,0-.8,0,0,0-.1,0-.2,0,0,0,0-.1,0-.2h0c.3-.4.6-.7.9-.9,0,0,.1,0,.2,0,0,0,0,.1,0,.2,0,0,0,0,.1,0,0,0,0,0,0,0,0,0,0,0,0,0,0,0,0,0,0,0,0,0,0,0,0-.1,0,0,.2,0,.2,0,0,0,0,0,0,.1,0,0,0,0,0,0,0,0,0,0,0,0,0,0,0,0,.1,0,.2.1.4.3.6.5,0,0,0,0,0,0,0,0,0,0,0,0ZM39.9,51.2c0-.1.1-.4.1-.5,0,0,0-.2,0-.2,0,0,0-.2-.1-.2,0,0-.1,0-.2,0,0,0,0,0,0,.1,0,0,0,0,0,0,0,0,0,.1,0,.2,0,0,0,0,0,.1,0,0,0,0,0,.2,0,0,0,.1,0,.2,0,0,.2,0,.3.1ZM39.3,51c0-.2,0-.5,0-.7h0c0-.1,0-.2,0-.3,0,0,0-.2,0-.3,0-.2,0-.3,0-.5,0-.2-.3,0-.4,0-.2.1-.2.4-.1.6,0,0,0,.2,0,.3h0c0,0,0,.2,0,.2,0,0,0,0,0,.1h0s0,0,0,.1c0,0,0,.2,0,.3,0,0,0,.1,0,.2.1,0,.2,0,.3,0Z"/>
      <path class="cls-3" d="M54.7,51.3c.3-.1.7,0,1,.2-.9.4-1.8.7-2.7.8-.2,0-.4,0-.6.2-.1,0-.2.2-.4.2.1-.4.4-.8.8-1,.4-.2.8-.4,1.1-.7.3-.3.6-.7.6-1.1.2,0,.4.4.4.6,0,.3,0,.5-.2.7Z"/>
      <path class="cls-3" d="M58,52.3c.4-.6.8-1.2.8-1.9,0-.8-.4-1.6-.9-2.3-.8-1.3-1.6-2.6-2.4-3.8.9.4,1.6,1.2,2.2,2.1.6.9,1.2,1.9,1.5,3,.2,1.1.1,2.3-.6,3.2-.2.3-.5.5-.7.7-.2.2-.4.4-.6.6-.2.2-.4.4-.6.5-.8.5-1.7.8-2.6.8,0-.2,0-.4,0-.6,1.5,0,3-1,3.9-2.2Z"/>
      <path class="cls-3" d="M47.3,49.9c.2.8.8,1.5,1.4,2,.3.2.7.4.8.8-.3,0-.6-.1-.9-.2-.5-.2-1-.5-1.4-1-.3-.5-.4-1.1,0-1.6Z"/>
      <path class="cls-3" d="M46.5,64.4c.2,0,.5,0,.6.3.1.2.2.4.3.6,0-.2,0-.4,0-.6,0-.2,0-.5.2-.6.4.8.8,1.5,1.2,2.3,0,.1.1.2.1.4,0,.1-.1.3-.2.3,0,0-.2,0-.2-.1-.7-.6-1.4-1.3-1.9-2.1,0,0-.1-.2,0-.2,0,0,0,0,.1-.1Z"/>
      <path class="cls-3" d="M58,66.6c.4-.6.4-1.3.5-2,0-.3,0-.6,0-.9.4.7.6,1.5.4,2.3-.2.8-.7,1.5-1.4,1.9-.2.1-.4.2-.5.4-.1.2,0,.5,0,.6.1,0,0-.3,0-.2,0,0,.2-.1.3,0,0,0,.2.1.2.2.2.3.2.7.1,1.1,0,.4-.3.7-.7.9-.2,0-.3.2-.5.1-.2,0-.3-.2-.3-.4,0-.1.1-.3.2-.4.1-.2.2-.5,0-.7,0-.2-.3-.4-.5-.5-.3,0-.6,0-.9,0-.9.1-1.9-.3-2.7-.9,0-.3.4-.4.7-.4s.6.2.8.3c0,0,0,.2,0,.3,0,0,.2.1.3.1.7.1,1.3-.1,1.9-.4.7-.3,1.4-.7,1.8-1.4Z"/>
      <path class="cls-3" d="M51.7,50.7c.3.3.3.8.2,1.2-.1.4-.4.7-.8.8-.1,0-.3,0-.4,0-.3,0-.5,0-.7-.2-.1,0-.2-.2-.3-.4-.1-.2-.2-.4-.3-.6,0-.2-.1-.4-.1-.6,0-.2,0-.4.2-.5.2-.1.4-.1.5,0,.2.1.2.4,0,.5.3.1.7,0,1,0-.1-.1,0-.3.1-.4.2,0,.3,0,.5.1ZM51.4,51.5c-.4.1-.8.2-1.1.1,0,0,0,0-.1,0,0,.2,0,.5.3.6.2.1.5,0,.7,0,.2-.2.3-.4.3-.7Z"/>
      <path class="cls-3" d="M54.1,69.9c0-.1,0-.2.1-.3,0,0,.1,0,.2-.1,0,0,0,0,0,0,0,0,0,0,0,0,.2.3.1.8-.1,1-.2-.2-.3-.4-.3-.7Z"/>
      <path class="cls-3" d="M53.1,42.9c-.8.5-1.8.7-2.7.5-.3,0-.7-.1-1-.3-.3-.2-.5-.5-.6-.8.4,0,.7.3,1.1.4.8.3,1.6.1,2.3-.2.7-.4,1.3-.9,1.9-1.5,0,.4,0,.8-.2,1.1-.2.3-.5.6-.9.8Z"/>
      <path class="cls-3" d="M50.6,49c0,.3,0,.6.1.9,0,.2.2.4.2.6,0,.1,0,.3-.2.3,0,0-.2,0-.2,0,0,0,0-.1-.1-.2-.1-.3-.3-.5-.3-.8,0-.3.2-.6.5-.7Z"/>
      <path class="cls-3" d="M46.9,70.2c-.1.2-.4.3-.6.3-.2,0-.4-.3-.5-.5,0-.3,0-.5.3-.7,0,0,.2-.1.3-.2.2,0,.5,0,.7.1,0,.2,0,.4,0,.6,0,.1,0,.2,0,.3Z"/>
      <path class="cls-3" d="M55.7,70.6s0,0,0,0c0,0-.2,0-.3,0,0,0-.1-.2-.1-.3,0,0,0-.2.1-.2,0-.1.2-.2.3-.3.2.2.2.6,0,.8Z"/>
      <path class="cls-3" d="M46.6,68.2c.2,0,.5,0,.7,0,.2,0,.5,0,.6.2-.9.4-2,.5-3,.2-.1,0-.3,0-.3.2,0,.1-.1.2-.1.4,0,.2,0,.5,0,.7,0,.2.3.4.5.3,0-.2,0-.3,0-.5,0-.1.2-.3.3-.3.1,0,.3,0,.4.2,0,.3-.3.5-.1.7,0,0,0,.2,0,.2-.5.4-1.4.3-1.8-.2-.4-.5-.3-1.4.2-1.8,0,0,0-.2,0-.4,0-.1-.2-.2-.3-.3-1.3-1-2.1-2.7-2.1-4.3,0-.1,0-.3.1-.4,0,0,.3,0,.3,0,.2,1.2.6,2.5,1.4,3.4.8,1,2,1.6,3.3,1.5Z"/>
      <path class="cls-3" d="M52.5,40.2c0,.1,0,.3-.1.4-.1.3-.3.6-.6.8-.3.2-.6.3-.9.2-.3,0-.4-.3-.6-.6-.1-.2-.2-.5-.2-.8,0-.1,0-.2,0-.3,0-.1.1-.2.2-.2.1,0,.2,0,.3.1.4.2.9.2,1.4.1,0,0,.2,0,.3,0,.1,0,.1.2.1.3ZM51.9,40.5c-.3,0-.6-.1-.9-.1,0,0-.2,0-.2,0,.1.3.4.4.7.5.2,0,.4-.2.5-.4Z"/>
      <path class="cls-3" d="M48.4,37.2c.4.4.7.7,1,1.1,0,0,0,.2,0,.2,0,0-.2,0-.3,0,0,0-.2,0-.2-.1-.2-.1-.3-.2-.5-.3-.1-.1-.3-.3-.3-.4,0-.2,0-.4.2-.5,0,0,0,0,.1,0Z"/>
      <path class="cls-3" d="M54.9,38.1c-.2.2-.4.3-.7.4-.1,0-.2,0-.3,0-.1,0-.2,0-.3,0,0,0-.1-.2,0-.3,0-.1.2-.2.3-.1.1,0,.2,0,.3,0,0,0,.2-.1.3-.2.1-.1.2-.2.4-.2.2,0,.3.1.3.3,0,.1,0,.2-.2.3Z"/>
      <path class="cls-3" d="M44,52.2c.9,1.1,2.1,1.9,3.5,2.2,0,.2,0,.5,0,.7-1.1-.3-2.1-.7-3-1.4-.9-.7-1.6-1.6-1.8-2.7-.2-1.4.3-2.8,1.2-3.9.9-1.1,2.1-1.9,3.2-2.6.2-.1.2-.4.1-.7,0-.2-.3-.4-.5-.6-1.3-1.3-1.5-3.6-.5-5.1-1.1-1.4-1.6-3.2-1.3-4.9.1-.6.3-1.2.8-1.6.6-.5,1.6-.4,2.3,0s1.1,1.2,1.4,2c1-.7,2.4-1,3.7-.7.8.2,1.5.6,2.1,1-.2-.3,0-.7.2-1,.4-.6,1-1.2,1.8-1.2.9,0,1.7.7,1.9,1.6.2.9,0,1.8-.4,2.5-.4.8-.9,1.5-1.3,2.3-.4-.5,0-1.2.3-1.7.3-.5.6-1.1.8-1.7.1-.6.2-1.3-.3-1.6-.6-.4-1.3,0-1.8.5-.2.3-.4.7,0,.9.6.3,1,1,.8,1.7-.4-.2-.8-.6-1-1,.1,1.7,1.2,3.2,1.3,4.9.1,1.6-.7,3.3-2.1,4-1.8.9-3.9.3-5.9.5,0,.2,0,.4,0,.5-.4-.4-1-.8-1.6-.7-.2,0-.4.2-.6.3-1.3.9-2.4,2.1-3.3,3.3-.3.5-.6,1-.7,1.5-.2.9.2,1.8.8,2.5ZM48.7,43.5c1.2.5,2.6.6,3.9.5,1.1,0,2.1-.4,2.9-1.2.7-.8,1-1.9,1-2.9,0-1.1-.4-2.1-.7-3.1-.3-.8-.6-1.6-1.1-2.2-.5-.6-1.2-1-2-1.1-.8-.1-1.6,0-2.3.4-.7.4-1.2,1-1.7,1.6-.8,1-1.7,2.1-2.1,3.3-.4,1.2-.3,2.8.6,3.7.4.4,1,.7,1.5.9ZM48.4,34.9c.3-.3.3-.7.2-1.1-.1-.4-.4-.8-.7-1.1-.3-.2-.7-.4-1-.4-.3,0-.6.3-.7.6-.2.3-.2.6-.3.9-.2,1.1,0,2.2.3,3.3,0,.1,0,.2.2.3.1,0,.2,0,.3,0,.7-.5,1.3-1.2,1.6-2.1-.4.2-.7.5-.9.9-.2-.1-.3-.5-.1-.7.1-.2.4-.4.6-.6.1,0,.2-.1.4-.2.1,0,.3,0,.3.2Z"/>
      <path class="cls-1" d="M48,52.3c-.4.6-1.1,1.7-.1,3.1l-.8.6s-9.2-.3-7.9,1.4l.2,2.1s1.4,1.9,10.9,2.2c0,0,1.7,2.1.3,3.7,0,0,.4,1-.7,1.9-1.4,1.1-4.2,2.2-3.7,2.9,0,0,0,1.5,5.3,1.6,0,0,4.7.2,6-1.1,0,0,.1-1-2.5-1.6-1.6-.3-2.2-1.9-1.8-3.8,0,0,1.2-3.6,2.2-3.8,0,0,8.2.1,8.8-1.3,0,0,.5-.8.3-2,0,0-.5-1.3-8.1-2h-1.4c0,.1,2.1-1.3.9-3,0,0-.2-.7-3-.5,0,0-1.3-.8-2.7-1.2,0,0-1.8,0-2.2.7Z"/>
      <path class="cls-3" d="M26,58.6c.2.1.4.2.6.3,0,0,.2,0,.2.1.6.4,1.2,1,1.6,1.6.1.2.2.4.3.6.1.4.3.7.4,1.1,0,.3,0,.6,0,.9,0,.4,0,.8-.2,1.2,0,.3,0,.5-.2.7-.1.3-.2.6-.4.8-.1.1-.2.3-.3.5,0,0,0,0,0,0,0,0,0,.1-.1.2,0,0,.1,0,.2,0,.3,0,.6,0,.9,0,.1,0,.2,0,.3,0,.3,0,.6-.1.9-.3.2,0,.4-.2.6-.3.5-.3.9-.7,1.2-1.1.2-.2.3-.4.4-.7,0-.1.1-.3.2-.4,0-.2.2-.3.2-.5,0-.2,0-.5.1-.7.2-.6.1-1.3.2-2-.2-.2,0-.5,0-.7,0-.2,0-.5,0-.7,0-.3-.1-.5-.2-.8,0-.2,0-.4-.1-.6-.1-.4-.3-.9-.5-1.3,0-.2-.1-.5-.2-.7,0-.2-.2-.3-.2-.5,0,0,0-.1,0-.2.1-.1.5,0,.6.1.2.5.4,1,.5,1.5,0,.2,0,.4.1.6,0,.3.2.6.3.9,0,.3,0,.5.1.8,0,.2,0,.4.1.5,0,0,0,.1,0,.2,0,.2,0,.4,0,.6,0,.4,0,.8,0,1.2,0,.3,0,.5,0,.8,0,.2,0,.5-.2.7,0,.2-.2.4-.2.6,0,.1-.1.3-.2.4,0,0,0,.1,0,.2-.1.2-.3.3-.4.5-.2.5-.6.9-1,1.2-.1.1,0,.1,0,.1.3,0,.7,0,1,0h.1c.6,0,1.2,0,1.7,0,.2,0,.3,0,.5.1.1,0,.3,0,.4,0,.4,0,.7.2,1,.5.1.1.3.3.4.4.1.2.3.5.2.7.2.1,0,.3,0,.4,0,.3-.2.6-.6.9-.4.2-.8.3-1.2.3-.4,0-.8,0-1.2,0-.2,0-.4,0-.5,0-.3.1-.6.2-.8.4-.3.2-.6.3-.9.3-.5,0-1.1,0-1.6,0-.6,0-1.3,0-1.9,0-.5,0-1.1,0-1.6,0-1,0-2,0-3,0-.5,0-1,0-1.5,0-.4,0-.8,0-1.2,0,0,0,0,0-.1,0-.1,0-.2,0-.3,0,0,0,0,.1,0,.2,0,.2-.2.4-.3.5,0,.1,0,.2-.2.3-.2.2-.3.4-.5.5-.2.2-.4.4-.7.5-.1,0-.3.1-.5.2-.3.2-.7.3-1.1.4,0,0-.2,0-.3,0-.3,0-.6,0-1,0,0,0,0,0-.1,0-.2,0-.5,0-.7-.1-.2,0-.5,0-.7-.1-.3,0-.7-.2-1-.3-.3,0-.5-.2-.8-.3-.5-.2-1-.5-1.4-.7-.2-.1-.5-.2-.7-.3-.5-.3-.9-.6-1.3-1.1-.1-.1-.3-.2-.3-.4,0-.2-.2-.3-.3-.5,0-.2,0-.4-.2-.6,0-.3,0-.6,0-1,0,0,0,0,0,0,0-.3,0-.5.2-.7,0,0,.1-.2.1-.3.1-.4.4-.8.7-1.1.3-.3.6-.5.9-.8.3-.2.6-.3.9-.5.2,0,.4-.2.6-.3.2,0,.4-.2.7-.2.2,0,.4-.1.6-.2.2,0,.5-.2.7-.3.3,0,.6-.2.9-.3.2-.1.5-.3.7-.4.2-.1.3-.3.5-.5,0-.1.1-.3.2-.5,0-.2.1-.4.2-.6.1-.5.2-.9.3-1.4,0-.2.1-.5.2-.7,0-.2.2-.3.2-.5,0-.2,0-.4.2-.5,0-.2.2-.4.3-.6.2-.3.3-.7.5-1,.1-.3.3-.5.4-.7,0-.1.1-.3.2-.5,0-.2.2-.3.3-.4.1-.2.2-.4.3-.5.2-.3.4-.6.6-.9.1-.2.2-.4.3-.5.2-.2.3-.5.5-.7.1-.2.2-.4.3-.6,0-.2.2-.3.3-.5.1-.2.2-.5.3-.7.2-.4.4-.8.6-1.2.1-.2.2-.4.2-.7,0-.1.2-.3.2-.4,0-.2.1-.4.2-.7,0-.2.2-.4.3-.6,0-.4.2-.7.2-1,.1-.5.2-1,.2-1.5,0-.6,0-1.3,0-1.9,0-.3,0-.6,0-.9,0-.3,0-.6,0-.9,0-.2,0-.4,0-.7,0-.2,0-.4.1-.7,0-.2.1-.4.1-.6,0-.3.1-.5.2-.8,0-.2.2-.5.2-.7,0-.2,0-.3.1-.5,0-.2.1-.3.2-.4.1-.3.2-.5.3-.8,0-.2.1-.3.2-.5,0-.2.2-.4.2-.6,0-.2.1-.3.2-.5.1-.2.3-.5.4-.7.1-.2.2-.4.3-.5.2-.2.4-.5.6-.7.1-.1.3-.2.4-.3.2-.1.4-.2.7-.3.2,0,.4-.1.6,0,.3,0,.6,0,.8.2.2,0,.4.3.6.4.2.2.2.2.3,0,.2-.3.5-.5.9-.6.3-.1.6-.2.9-.1.5,0,.9.2,1.2.6.4.4.5,1,.5,1.5,0,.2-.1.4-.2.6,0,.2-.2.3-.2.5,0,0,0,.1.1.2.2.1.4.2.6.3.3.2.6.5.9.7.3.3.6.5.9.8.2.2.4.5.6.8.1.2.3.4.4.7.1.3.1.6.3.8.3.5.3,1.1.3,1.7,0,.2,0,.3-.1.5,0,0,0,.2,0,.2,0,.3-.2.6-.3.9-.1.3-.3.5-.5.7-.3.2-.7.5-1.1.6-.5.1-1,.1-1.5.1-.3,0-.7,0-1-.1-.2,0-.5-.1-.7,0-.2,0-.5.3-.7.5-.4.5-.4,1.1-.3,1.7,0,.3.2.6.3.9.2.2.3.5.4.8,0,.1.2.2.2.3.1.2.2.5.3.8.1.5.3,1.1.2,1.6,0,.2,0,.4-.1.6,0,0,0,.2,0,.3-.2.4.2.5.4.8.2,0,.3.1.4.2.3,0,.6.2.9.3.2,0,.4,0,.6.1.6.2,1.3.1,2,.1.4,0,.8,0,1.2,0,.5,0,1,.1,1.5.2.3,0,.5.2.5.6,0,.3.1.7-.2,1-.1.1-.2.3-.4.3-.2.1-.5.2-.7.3-.1,0-.3,0-.4,0-.2,0-.5.1-.7.2-.1,0-.3,0-.4,0-.6,0-1.2.1-1.9.1-.7,0-1.3,0-2,0-.2,0-.4,0-.6,0-.2,0-.3,0-.5,0-.5,0-1-.1-1.5-.2-.3,0-.7-.1-1-.2-.3,0-.6-.2-.8-.3-.3-.1-.6-.3-.9-.5-.4-.2-.8-.4-1.2-.8-.4-.4-.8-.7-1.1-1.2-.1-.2-.2-.4-.3-.6-.2-.5-.4-.9-.4-1.4,0-.2,0-.5,0-.7,0-.3.2-.7.3-1,.2-.5.7-.9,1.1-1.3.2-.2.5-.2.7-.3.4-.2.8-.3,1.2-.2.2,0,.5,0,.7.2.3.1.6.3.8.5.3.2.5.5.7.8.1.1.2.3.3.4,0,0,0,0,0,0,0,0,0,0,0,0,0-.2,0-.4,0-.6,0-.1,0-.3,0-.4,0-.2,0-.5,0-.7,0-.1,0-.2,0-.3,0-.4,0-.9,0-1.3,0,0,0-.2,0-.3,0-.3,0-.6.2-.9.1-.3.3-.5.5-.7.2-.2.5-.2.8-.2,0,0,0,0,0,0-.3-.4-.3-.9-.1-1.4,0-.2.3-.4.4-.6,0,0,0,0,0,0,0,0,0,0,0,0,0,.1,0,.3,0,.4,0,.2,0,.4,0,.5.2.3.4.7.7,1,.7.5,1.4.5,2.1.2,0,0,.2-.1.3-.2,0,0,.2-.1.2-.1,0,0,0-.2-.1-.2-.2-.1-.2-.3-.2-.5,0-.4.5-.8.9-.7.3,0,.4,0,.4-.4,0-.3,0-.6,0-.9,0-.2,0-.4,0-.5,0-.2-.2-.4-.3-.6,0-.3-.2-.5-.3-.8-.1-.3-.4-.6-.6-.8-.3-.3-.5-.6-.8-.8-.2-.2-.4-.3-.6-.4-.2-.1-.3-.3-.5-.3-.4-.2-.8-.3-1.2-.4-.3,0-.6-.1-.9-.2-.3-.1-.6-.2-1-.4-.1,0,0,0,0-.1.2-.2.4-.2.6-.2.2,0,.4.2.6.2.3,0,.7.2,1,0,.3-.1.4-.3.4-.6,0-.2.1-.4.1-.5,0-.4-.1-.7-.3-1-.2-.3-.5-.3-.7-.3-.4,0-.7.1-1,.3-.3.2-.5.4-.7.6-.1.1-.2.3-.2.5,0,.2-.2.3-.3.5,0,0,0,.2,0,.2-.3.5-.6,1-1.1,1.3-.2,0-.4.2-.6.2-.2,0-.4,0-.6,0-.2,0-.3-.2-.5-.3,0,0,0,0,0,0,0,0,0,0,0,0,0,0,.1,0,.2,0,.3-.1.6-.1.9-.2,0,0,.1-.1.2-.2.5-.2.8-.5,1.1-1,.2-.4.1-1.3-.3-1.6-.1,0-.3-.1-.4-.1-.2,0-.4,0-.6,0-.2,0-.3.1-.5.2-.7.4-1.1,1-1.5,1.7-.1.2-.2.3-.3.5,0,.2-.3.4-.3.6,0,.1-.2.3-.2.4,0,.2,0,.3-.1.5,0,.2-.2.5-.3.7,0,.1,0,.3,0,.4,0,.1-.1.3-.2.4,0,.1,0,.3,0,.4,0,.6-.2,1.1-.3,1.7,0,.2,0,.3,0,.5,0,.4-.1.9-.2,1.3,0,.2,0,.3,0,.5,0,.2,0,.4,0,.6,0,.3,0,.6,0,.9,0,.5,0,.9-.2,1.4,0,.5-.2,1.1-.3,1.6,0,.2-.1.4-.2.7,0,.2,0,.4-.1.7,0,.3-.2.5-.3.7,0,.2-.2.4-.2.6-.1.3-.2.6-.4.9,0,.1-.1.3-.2.5-.1.2-.3.4-.4.6,0,.1-.1.3-.2.4,0,0,0,.2-.2.3-.1.2-.2.4-.3.5-.2.3-.4.5-.5.8-.1.2-.3.5-.4.7-.2.3-.4.6-.6.9-.1.2-.3.3-.4.5,0,.1-.1.3-.2.4-.1.2-.3.4-.4.7,0,0,0,.2-.1.3,0,.2-.2.3-.3.5,0,.2-.2.4-.2.6-.1.4-.3.7-.5,1,0,.1,0,.3-.1.4,0,.1-.2.3-.2.4,0,.1,0,.3,0,.5-.2.5-.2.9-.4,1.4,0,.2,0,.4-.2.6-.1.3-.2.6-.5.8-.2.2-.4.5-.6.7-.3.2-.6.6-1.1.7,0,0-.1.1-.2.2-.2,0-.5.1-.7.2-.3.2-.7.3-1.1.4-.2,0-.5.2-.7.3-.4.1-.8.4-1.2.6-.3.2-.6.3-.8.6-.2.2-.5.4-.6.7-.3.5-.4,1-.4,1.5,0,.2,0,.5,0,.7.3.5.5,1,1,1.3.2.1.4.3.6.4.3.2.6.3,1,.5.3.1.5.3.8.4.1,0,.3,0,.4.1.1,0,.3.1.4.2,0,0,.2,0,.3.1.1,0,.2,0,.4.1.1,0,.3,0,.4.1.3.1.5.2.8.2.5.1,1,.2,1.5.2.2,0,.5-.1.7-.1.3,0,.6-.2.9-.3.3-.1.5-.4.8-.6.2-.2.4-.4.6-.7.1-.3.3-.7.4-1.1.1-.6,0-1.2-.1-1.8-.1-.3-.3-.6-.4-.9-.2-.4-.5-.7-.9-.9-.2-.1-.4-.3-.6-.4-.1,0-.2,0-.4,0-.5-.2-1-.2-1.5-.2-.2,0-.5,0-.7,0-.2,0-.5.1-.7.2-.2,0-.4.2-.5.3-.3.1-.5.3-.7.5,0,0,0,0,0,0,0,0,0,0,0,0,0-.2,0-.4.2-.5.1-.2.2-.4.4-.5.2-.2.5-.3.8-.4.2,0,.3-.1.5-.1.3,0,.5-.1.8,0,0,0,0-.1.1-.2,0-.2.2-.4.4-.3.2,0,.3.1.5.2,0,0,.1,0,.2,0,.3.2.7.4,1,.6.2.1.4.2.6.3.2.2.5.4.7.6.2.1.3.3.4.5.2.3.4.6.5.9.2.4.2.9.2,1.4,0,.2,0,.4.2.5.2.2.4.3.7.3.7.2,1.4,0,2.2,0,.7,0,1.3,0,2,0,.6,0,1.1,0,1.7,0,.6,0,1.1,0,1.7,0,.4,0,.8,0,1.1,0,0,0,0,0,0,0,0,0,0,0,0-.1,0-.1-.1-.5,0-.6,0,0,.2,0,.3,0,.1.1.2.3.3.5,0,.1.1.2.3.3.2.1.4.2.6.1.3,0,.5-.2.6-.5,0-.2.2-.4.1-.6,0-.4-.3-.7-.6-1-.1-.1-.3-.2-.5-.3-.3-.1-.5-.3-.8-.4-.3,0-.7-.1-1-.2-.2,0-.4,0-.6-.1-.1,0-.4,0-.5,0-.4,0-.7,0-1.1.1-.3,0-.6.2-.9.2-.2,0-.3.2-.5.2-.2,0-.5.2-.7.3-.3.1-.5.3-.7.5,0,0,0,0,0,0,0,0,0,0,0,0,.1-.5.4-.8.8-1,.3-.2.6-.4.9-.5.2-.1.5-.3.7-.4.3-.2.6-.5.9-.7.1,0,.2-.3.2-.4.4-.5.5-1.1.5-1.6,0-.4,0-.7,0-1.1,0-.2-.1-.4-.2-.5,0-.2-.2-.4-.3-.7,0,0-.1-.2-.2-.3,0-.1-.2-.2-.3-.3-.2-.2-.3-.5-.5-.7-.2-.3-.5-.6-.7-1-.2-.2-.3-.4-.5-.6,0,0,0,0,0,0ZM33.5,52.4c-.1,0-.3-.1-.4-.2-.3-.3-.6-.6-.8-.9-.1-.1-.1-.3-.2-.4-.1-.2-.3-.5-.4-.7,0,0,0-.2-.1-.3-.1-.2-.2-.4-.4-.6,0-.1-.2-.2-.2-.4-.1-.1-.2-.3-.3-.4-.2-.4-.6-.6-1-.8-.4-.2-.8-.3-1.3-.3,0,0-.1,0-.2,0-.2,0-.4.2-.5.3-.4.2-.7.6-.9,1,0,.2-.2.4-.2.5,0,.2-.2.3-.1.5,0,.4,0,.7,0,1.1,0,.2,0,.3,0,.5,0,.2.2.4.3.7.1.2.2.5.4.7.2.3.5.5.8.7.3.2.7.4,1.1.6.2,0,.4.1.6.2.1,0,.3,0,.4.1.2,0,.4,0,.5.1.1,0,.3,0,.4.1.2,0,.3,0,.5,0,0,0,.2,0,.3.1.1,0,.3,0,.4,0,.2,0,.5.1.7.1.2,0,.5,0,.7,0,.4,0,.7,0,1.1,0,.9,0,1.9,0,2.8-.1.2,0,.3,0,.5,0,.4-.1.8-.1,1.2-.2.2,0,.5,0,.7-.3.1-.1.3-.2.2-.4,0-.1,0-.3-.2-.4-.2-.1-.5-.2-.8-.2-.4,0-.9,0-1.3,0-.4,0-.7,0-1.1,0-.2,0-.5,0-.8,0-.3,0-.6,0-.9,0-.2,0-.4-.1-.6-.1-.3,0-.5-.2-.8-.3,0,0,0,0-.2-.1ZM35.8,67.5s0,0-.1,0c-.2,0-.3,0-.5,0-.5,0-.9-.1-1.4-.2-.7,0-1.4,0-2.1,0,0,0,0,0,0,0,0,0,0,.2.2.2.2.1.3.2.5.3.3.3.5.7.6,1.1,0,.1,0,.3,0,.5,0,0,0,.3.2.3.5,0,.9,0,1.4,0,0,0,.4,0,.3-.2,0,0-.1-.2-.1-.2,0,0,0-.2,0-.3,0-.2.3-.1.3,0,.1,0,.3.2.3.3,0,.2.2.3.4.4,0,0,.3,0,.3,0,0,0,0-.2,0-.3,0,0,0-.2-.1-.2,0-.1,0-.2,0-.3,0,0,.2,0,.3,0,0,0,.1,0,.2.1,0,0,0-.2,0-.2,0,0,0-.1,0-.2,0-.2-.2-.4-.5-.6-.1,0-.2-.2-.3-.2ZM32.4,48.6c0,0,0-.2,0-.2,0-.2,0-.2-.2-.2,0,0,0,0,0,0,0,.2,0,.4,0,.6,0,.4,0,.9.3,1.3.1.2.2.4.4.6,0,0,0,0,.1,0,0,0,0,0,0-.1,0-.2,0-.4,0-.6,0-.3-.1-.5-.2-.8,0-.2,0-.4-.1-.6ZM36.8,42c0,0,0,.2,0,.3,0,0,0,0,.1,0,0,0,.1,0,.2,0,0,0,.1-.2.2-.3,0,0,0,0,0,0-.1,0-.2,0-.3,0,0,0,0,0,0,.2Z"/>
      <path class="cls-3" d="M40.5,52s0,0,0,.1c0,.3,0,.5,0,.8,0,0,0,0,0,0-.2,0-.3-.2-.3-.5,0,0-.1-.1-.2-.1-.3,0-.6,0-.8,0-.5,0-.9,0-1.4,0-.2,0-.2,0-.1-.2.1-.2.2-.4.4-.5.4-.4,1-.6,1.6-.3.2.1.4.3.6.5,0,0,0,.1,0,.2ZM38.7,51.8c0,0,.1.1.2.1.1,0,.3,0,.4,0,.3,0,.5,0,.8,0,0,0,0,0,0,0,0,0,0,0,0,0-.2,0-.3-.2-.5-.2-.2,0-.4,0-.6,0,0,0-.2,0-.3,0Z"/>
      <path class="cls-4" d="M31,39.6c.5-.4,1-.4,1.3.1,0,.1,0,.3,0,.5,0,.4-.4.7-.9.6-.4,0-.6-.2-.7-.5,0-.3,0-.6.1-.8ZM31.7,40s-.1,0-.1,0c0,0,0,.1,0,.1,0,0,.1,0,.2,0,0,0,.1-.1.2-.2,0,0,0,0-.1,0,0,0,0,0,0,0Z"/>
      <path class="cls-3" d="M38.9,49.9c-.1-.3,0-.5.2-.6,0,0,.2,0,.3,0,0,0,0,.1,0,.2,0,.2,0,.5,0,.7,0,.3,0,.6,0,.9,0,0,0,0,0,0,0,0,0,0-.1,0-.2.1-.2,0-.2-.2,0,0,0-.2,0-.3-.1-.1,0-.3-.1-.4,0,0,0-.2,0-.3Z"/>
      <path class="cls-3" d="M32.6,38.2c0-.2,0-.3.1-.5.2-.2.6-.2.7.1,0,.1,0,.3,0,.4,0,0-.1.2-.3.2-.3,0-.4,0-.5-.3,0,0,0,0,0,0Z"/>
      <path class="cls-3" d="M32.1,70.1c-.1.1-.1.1-.2,0-.1-.1-.2-.3-.3-.4,0-.1,0-.3.2-.4.1-.1.2,0,.3,0,0,0,0,0,0,0,0,.2.2.5,0,.7Z"/>
      <path class="cls-3" d="M39.6,50.8c0-.1.1-.3,0-.4,0,0,0,0,0-.1,0,0,0,0,.1,0,0,.1.1.2.2.3,0,0,0,.2,0,.3,0,0,0,.2-.1.2,0,0-.2,0-.2,0,0,0,0-.1,0-.2Z"/>
      <path class="cls-3" d="M26,58.6s0,0,0,0c0,0,0-.1-.1-.2,0,0,.1,0,.2,0Z"/>
      <path class="cls-3" d="M84,74.2c-.2,0-.4,0-.6-.1-.4,0-.8-.1-1.1-.4-.1,0-.3,0-.5-.2-.2-.1-.4-.3-.7-.4-.3-.2-.6-.4-.9-.7-.2-.3-.5-.5-.6-.8,0-.2-.2-.3-.3-.5,0,0-.2,0-.3,0,0,0,0,0-.1,0-.5,0-1,.1-1.5.2-.3,0-.6,0-.9,0-.9,0-1.8,0-2.7,0-.6,0-1.2,0-1.8,0-.2,0-.4,0-.6,0-.2,0-.4,0-.6,0-.2,0-.4,0-.5,0-.4,0-.9,0-1.3-.1-.4-.1-.8-.2-1-.7,0,0-.1-.1-.2-.2,0,0-.1-.2-.1-.3,0-.2,0-.3,0-.5,0-.3,0-.6.2-.8.1-.2.2-.3.4-.5.2-.2.5-.3.7-.4.2,0,.4-.1.6-.2.2,0,.5-.1.7-.2,0,0,0,0,.1,0,0,0,0,0-.1,0-.2,0-.5,0-.7,0-.3.1-.6,0-.9,0-.6,0-1.2,0-1.9.1-.3,0-.6,0-1,0-.3,0-.5,0-.8.2-.3.1-.5.3-.6.6,0,0,0,0,0,0,.3,0,.3.2.5.4.2.2.3.5.4.7,0,0,.1,0,.2,0,0,0,.1,0,0-.2,0-.2,0-.4,0-.5,0-.1.2-.2.4-.1.1,0,.2.1.2.2,0,.6.5.9,1,.8.2,0,.1,0,.1.1,0,.2-.2.3-.4.3-.3,0-.7,0-1,0-.2,0-.3,0-.5,0-.2,0-.3-.2-.5-.2-.1,0-.3,0-.4-.2-.2-.2-.4-.4-.5-.7,0-.2-.2-.4-.2-.5,0-.4.1-.7.4-.9.2-.2.5-.4.8-.5.5-.1.9-.2,1.4-.2.2,0,.4,0,.6,0,0,0,0,0,0,0,.4,0,.8,0,1.1,0,.2,0,.5,0,.6,0,.1,0,.3,0,.4,0,0,0,0,0,0,0,0,0,0,0,0-.1-.1-.1-.3-.2-.4-.4-.2-.3-.4-.5-.6-.8-.1-.2-.3-.4-.3-.7,0-.3-.3-.5-.2-.8-.2-.2,0-.4-.2-.6,0,0,0-.1,0,0,0,0,0,0,0,0,.1,0,.2,0,.4,0,.2,0,0,.2,0,.3.2.6.4,1.1.7,1.6.2.3.5.7.8.9.3.2.6.4.9.6.1,0,.3,0,.4.1.1,0,.3.1.4.2.2.1.3.2.5.2.5,0,.9,0,1.4,0,.2,0,.3,0,.5,0,0,0,0,0,0,0,0,0,0,0,0,0-.4-.2-.7-.5-1-.8-.2-.3-.4-.5-.6-.9,0-.2-.2-.4-.3-.6,0-.2,0-.4,0-.5-.1-.3,0-.6,0-.8,0-.1,0-.3,0-.4,0,0,0,0,.1,0,.2,0,.3,0,.5,0,0,0,0,0,0,0,0,.3,0,.7,0,1,0,.2.2.4.2.6,0,.4.4.7.6,1,.1.2.3.3.5.5.3.2.5.4.8.5.3.1.6.1.8.2.2,0,.4,0,.7,0,0,0,.2.1.2.2,0,.1,0,.3-.2.3-.1,0-.3.1-.4.1-.3,0-.6,0-.9,0-.4,0-.9,0-1.3,0-.5,0-1,0-1.5,0-.3,0-.7,0-1,0-.6,0-1.2.1-1.8.3-.6.1-1,.5-1.1,1.1,0,.2,0,.5,0,.7,0,.3.3.4.5.6,0,0,0,0,.1,0,0,0,0,0,0,0-.1-.2-.3-.4-.2-.7,0-.2.2-.5.4-.5,0,0,0,0,0,0,0,.2,0,.5,0,.7,0,.3.3.5.5.6.1,0,.3,0,.4,0,.1,0,.2-.1,0-.2-.1-.2,0-.6.1-.7,0,0,.2,0,.3,0,.1,0,.1.2.1.3,0,.4,0,.6.3.7.1,0,.3,0,.5,0,.5,0,.9,0,1.4,0,1.1,0,2.2,0,3.3,0,.6,0,1.2,0,1.8-.1.1,0,.2,0,.3,0,.3,0,.6,0,.8-.2.2,0,.3-.2.3-.5,0-.2.1-.3.1-.5,0-.4.2-.7.4-1,.1-.3.4-.5.5-.7.2-.4.5-.6.9-.9.2-.2.5-.3.7-.5.3-.1.6-.3,1-.4.2,0,.5-.1.7-.2.3,0,.5-.2.7-.3.2,0,.3-.2.4-.3,0,0,0,0,.1,0,0,0,0,0,0,.1,0,.3,0,.5,0,.8,0,0,0,0,.1,0,.4,0,.7.1,1.1.2.5.2,1,.5,1.4.9.1.1.3.3.4.4.1.2,0,.2,0,.2-.2,0-.3,0-.5-.1-.2-.2-.4-.4-.7-.5-.2-.1-.5-.2-.7-.3-.2-.1-.5-.2-.8-.3-.5-.1-.9-.1-1.4-.1-.3,0-.5,0-.8,0-.3,0-.5.2-.8.4-.5.3-.9.6-1.3,1-.1.1-.2.3-.3.4,0,.1-.1.3-.2.4-.1.2-.3.5-.3.7,0,.2,0,.3,0,.5,0,.4,0,.8.1,1.2,0,.2.2.4.3.5.3.4.7.7,1.1.9.2,0,.3.2.5.3.1,0,.2.1.4.2.1,0,.2,0,.3.1.2,0,.4.1.6.2.2,0,.4,0,.5,0,.5,0,.9,0,1.4,0,.2,0,.4,0,.6,0,.2-.1.4,0,.6-.1.3,0,.6,0,.8-.1.3,0,.5-.2.7-.3.2,0,.5-.2.7-.3.2,0,.4-.2.5-.2.3-.2.7-.4,1-.6.2-.1.4-.2.5-.3.5-.4.9-.7,1.3-1.2.3-.3.4-.7.5-1.1,0-.1,0-.3,0-.4,0-.3,0-.7,0-1,0,0-.1-.2-.1-.3-.2-.7-.7-1.2-1.3-1.6-.1,0-.2-.2-.4-.2-.2,0-.3-.2-.5-.2-.2,0-.3-.1-.5-.2-.1,0-.3,0-.4,0-.1,0-.2,0-.3-.1,0,0-.2,0-.3,0-.3,0-.6,0-.9-.1-.2,0-.4,0-.6-.1-.2,0-.4,0-.6-.1-.2,0-.4,0-.6-.2-.2-.1-.5-.2-.7-.4-.3-.2-.6-.4-.8-.7-.4-.4-.7-.9-.6-1.6,0-.4,0-.7,0-1.1,0-.2,0-.4-.1-.5,0-.1-.1-.2-.2-.3,0,0,0,0,0,0,0,0,0,0,.1,0,.2,0,.4-.1.6-.1,0,0,0,0,0,0,0,.2,0,.5,0,.7,0,.2,0,.3.1.5,0,.3.1.6.2.9,0,.4.1.7.2,1.1,0,.2.2.3.4.5.2.1.4.3.6.4.1,0,.3,0,.4.1.3.1.7.2,1.1.3.3,0,.6.1,1,.2.3,0,.6.1.9.2.2,0,.4,0,.6.1.2,0,.4.1.6.2.3.1.5.3.8.4.6.2,1.1.7,1.6,1.2.2.2.3.5.4.7,0,.2.1.4.2.6,0,.3,0,.7,0,1,0,0,0,0,0,0,0,.1,0,.3,0,.4-.1.4-.3.7-.5,1.1-.1.2-.3.4-.5.6-.3.4-.7.7-1.1,1-.2.2-.4.3-.6.4-.1,0-.3.1-.4.2,0,0,0,0-.1,0-.2.1-.4.2-.7.4-.2,0-.4.1-.5.2-.1,0-.2.1-.3.2-.1,0-.3,0-.4.1-.2,0-.4.2-.6.2-.2,0-.4,0-.6.1-.3.1-.5.1-.8.2-.1,0-.3,0-.4,0h-1.6Z"/>
      <path class="cls-3" d="M72.9,31s0,0,0,0c.3,0,.6.1.8.2.3.2.6.3.8.6.3.3.5.6.7,1,.1.2.2.3.3.5.2.4.3.8.4,1.2,0,.2.1.4.2.6,0,.3.1.6.2,1,0,.1,0,.3.1.4,0,.3.1.6.2.9,0,.5.1.9.2,1.4,0,.5,0,1,0,1.5,0,.3,0,.7,0,1,0,.3,0,.6-.1.9,0,.3-.1.5-.2.8,0,.2,0,.4-.1.6,0,.2-.1.3-.2.4-.1.2-.4.2-.5,0,0,0,0-.2,0-.3,0-.2.1-.4.2-.6,0-.2,0-.3,0-.5,0-.4.1-.8.2-1.2,0-.4,0-.7,0-1.1,0-.3,0-.6,0-.9,0-.4,0-.7,0-1.1,0-.3-.2-.5,0-.8-.2-.4-.2-.9-.3-1.3,0-.2-.1-.4-.2-.7,0-.4-.3-.8-.4-1.3,0-.2-.2-.4-.3-.7-.1-.3-.3-.6-.5-1-.2-.3-.4-.6-.7-.8-.1-.2-.3-.3-.5-.3-.2,0-.4-.1-.6-.1-.4,0-.7,0-1.1.2,0,0-.1,0-.2.1-.5.6-.6,1.2-.4,1.9,0,.4.4.6.6.9.2.2.4.3.7.4.3.1.6.1.9.2.2,0,.2,0,.3.2,0,.2-.1.3-.3.3-.2,0-.5,0-.7,0-.3,0-.6-.2-.9-.4-.3-.2-.6-.5-.9-.8-.2-.2-.3-.4-.3-.7,0-.1-.1-.2,0-.4-.2-.1,0-.3,0-.4,0-.3,0-.5.2-.7.1-.4.3-.7.6-1,.1-.1.3-.2.4-.3.2,0,.4-.1.5-.2.3,0,.5,0,.8,0Z"/>
      <path class="cls-3" d="M76.1,45.3c0,0-.2.1-.2.2-.2,0-.4.2-.5.3-.2,0-.4.1-.6.2-.2,0-.3.2-.5.3-.3.1-.6.2-.9.3-.2,0-.5,0-.7.1-.2,0-.3.1-.5.2-.4,0-.9.2-1.3.2-.2,0-.5.2-.7.3-.4.2-.8.5-1,.9-.1.2-.3.4-.4.6,0,.1,0,.3-.1.4-.1.2,0,.5,0,.7,0,.4,0,.8.2,1.2,0,0,0,.1,0,.1-.2.1-.4.3-.6.4,0,0,0,0,0,0,0,0,0,0,0,0,.2-.3,0-.7.2-1.1-.2-.2-.1-.5-.1-.7,0-.4,0-.9.2-1.3.1-.2.2-.4.3-.6.2-.3.5-.6.8-.8.1-.1.3-.2.4-.2.2,0,.4-.2.6-.2.4-.1.7-.2,1.1-.3.2,0,.4,0,.6,0,.4-.2.8-.2,1.2-.3.3,0,.5-.2.7-.3.2-.1.5-.2.7-.3.3-.1.5-.3.8-.5.2-.1.4-.3.6-.5.1-.1.3-.1.4,0,0,.1.2.2.2.3,0,.3.1.7.2,1,0,.2.1.4.2.6,0,.2,0,.4.1.6,0,0,0,.1,0,.2,0,.1,0,.2.1.3,0,.2.2.5.2.7,0,.2,0,.4.2.6,0,.2.2.3.2.5,0,.2.2.4.3.7,0,.2.2.4.3.6.2.4.4.7.5,1,.3.8.8,1.5,1.1,2.3,0,.2.3.4.4.6.1.3.4.6.5.9.4.6.9,1.1,1.4,1.6.2.2.4.4.7.5.2.1.4.1.5.2.3.1.6.2.9.3.3,0,.5.3.6.5,0,.2,0,.5-.1.7-.2.2-.4.3-.6.3-.5,0-1.1.2-1.6.4-.2,0-.3.2-.5.4-.2.1-.3.3-.6.4-.2,0-.4.1-.6.2-.7.2-1.3,0-2,.1-.4,0-.7.1-1,.3-.3.2-.6.4-.9.6-.2.1-.3.2-.5.3-.2.1-.5.3-.7.4-.3.1-.6.3-.9.3-.2,0-.4,0-.6,0-.3.1-.5,0-.7,0-.2,0-.5,0-.8-.1,0,0-.2,0,0,0,0,0,0,0,0,0-.6,0-1.1-.3-1.7-.4-.1,0-.2,0-.4,0-.3,0-.6,0-.9,0,0,0-.1,0-.2,0-.4,0-.8.3-1.1.5-.3.2-.6.3-1,.3-.4,0-.8,0-1.1-.2-.5-.2-.7-.6-.6-1,0-.3.1-.5.4-.8.2-.2.3-.4.4-.6.2-.4.4-.8.6-1.1.1-.2.3-.4.3-.6,0-.2.1-.4.2-.6,0-.2.1-.4.2-.6,0-.4,0-.8.1-1.1,0-.2,0-.5.3-.7.1,0,.4-.1.5,0,0,0,0,0,0,.1,0,.2,0,.3,0,.5,0,.2,0,.3-.1.5,0,0,0,.2,0,.3,0,.2,0,.4-.1.6,0,.2-.1.5-.2.7,0,.2-.2.5-.3.7,0,.3-.1.5-.3.7,0,.1-.1.3-.2.5-.1.2-.2.4-.4.5-.2.2-.3.5-.5.7,0,.1-.2.2-.2.3,0,.1,0,.3,0,.4.1.3.4.5.7.5.2,0,.5,0,.7,0,.3,0,.5-.3.7-.4.6-.4,1.2-.6,1.9-.4.3,0,.5,0,.8.2.3,0,.5.2.8.3.2,0,.5,0,.7.1.5.2,1.1.1,1.6.1.2,0,.5,0,.7-.1.2,0,.4,0,.5-.1.3-.2.7-.4,1-.6.3-.2.6-.4.9-.6.2-.1.4-.3.7-.4.2,0,.4-.2.7-.1,0-.2.2,0,.3,0,.3,0,.6,0,.9,0,.3,0,.5,0,.8,0,.2,0,.5-.1.7-.2.2,0,.4-.2.6-.3.3-.2.6-.3.9-.5.3-.1.6-.3.8-.4.2,0,.3-.2.5-.2,0,0,0,0,0,0,0,0,0,0,0,0-.2,0-.4,0-.5-.1-.3-.1-.6-.3-.9-.5-.3-.1-.5-.3-.7-.5-.3-.3-.6-.6-.9-.9-.3-.4-.6-.7-.9-1.1-.2-.3-.3-.6-.5-.8-.7-1-1.1-2.1-1.6-3.1-.1-.3-.3-.5-.4-.8,0-.2-.3-.4-.3-.7,0-.1-.1-.2-.2-.3,0-.2-.1-.4-.2-.5,0,0,0-.2,0-.2-.1-.3-.3-.6-.4-.9,0-.2-.1-.5-.2-.7,0-.3-.2-.6-.3-.9,0-.2,0-.3,0-.5,0-.2-.2-.4-.2-.6Z"/>
      <path class="cls-3" d="M66.8,34.6c0-.2-.1-.5-.1-.7,0-.3,0-.6.2-.9.1-.2.3-.4.5-.6.3-.2.3-.2.7-.3.3-.1.6-.1.9,0,.4,0,.8.3,1.1.6,0,0,0,.1.1.2,0,0-.2.1-.2,0-.2,0-.4,0-.5-.1-.2-.1-.5-.2-.7-.2-.2,0-.3,0-.5,0-.2,0-.4,0-.5.2-.3.2-.5.5-.6.8,0,.3,0,.6.2.9,0,.1.2.2.3.3.4.2.7.1,1.1.1.3,0,.6-.2.8-.3,0,0,.2,0,.2,0,.1.1,0,.2,0,.3-.3.3-.7.4-1.1.5-.2,0-.5,0-.7.1,0,0,0,0-.1,0-.6.2-1,.6-1.4,1-.3.3-.7.6-1,.9-.3.3-.5.6-.8.9-.1.2-.3.3-.4.5-.1.2-.2.4-.3.6,0,.2-.2.4-.3.6,0,.4,0,.8-.1,1.2,0,0,0,.1.1.2,0,0,.2,0,.2,0,.2,0,.3-.2.5,0,.2.1.5.6.4.9,0,.2-.2.4-.4.4-.2,0-.4-.2-.3-.4,0,0,0,0,0-.1,0,0-.1,0-.2,0-.2.2-.2.5,0,.6.2.1.4.3.6.3.4,0,.8,0,1.2,0,.2,0,.4,0,.6-.1.1,0,.2-.1.4-.2.5-.3,1-.6,1.4-1,.1-.1.2-.3.3-.4,0,0,.1,0,.2,0,0,0,0,.1.1.2.2.1,0,.3,0,.4,0,.1-.1.3-.2.3-.2.2-.5.5-.8.7-.2.1-.3.3-.6.3,0,0-.1,0-.2.1,0,0,0,0,0,0,.1,0,.2,0,.4,0,.3,0,.5,0,.8-.1.2,0,.4,0,.6,0,.4,0,.7,0,.8.3.1.2.2.5.2.8,0,.3,0,.7,0,1,0,.3,0,.7-.2,1-.1.2-.1.4-.2.6,0,0,0,.1-.1,0,0,0-.2,0-.3-.2,0,0,0-.1,0-.2,0-.2,0-.3.1-.5.1-.5,0-1.1,0-1.6,0-.2,0-.3-.1-.4,0-.2-.2-.2-.4-.2-1,0-1.9,0-2.9,0-.4,0-.8,0-1.1,0-.3,0-.5-.1-.8-.3-.3-.2-.6-.5-.8-.9,0-.2,0-.4-.2-.6-.1-.3-.1-.7-.1-1,0-.1,0-.3.1-.4,0,0,0-.2,0-.2,0-.2,0-.5.2-.7.1-.2.1-.4.2-.6.1-.2.3-.4.4-.6.1-.3.3-.5.5-.7.2-.2.4-.5.6-.7.3-.3.6-.6,1-.9.3-.2.6-.5.9-.7,0,0,0,0,0-.1-.1-.2-.2-.4-.3-.6Z"/>
      <path class="cls-3" d="M75.1,52.3c-.3.6-.7,1-1.2,1.4-.2.2-.4.4-.7.5-.2.1-.5.3-.7.4-.2,0-.4.2-.5.2,0,0,0,0-.1,0,0,0,0,0,0-.1.2-.6.3-1.2.1-1.8-.1-.4-.4-.6-.7-.8-.2-.1-.3-.2-.5-.3-.2,0-.5-.1-.8-.2-.4,0-.8-.2-1.2-.1,0,0,0,0,0,0,.2-.3.4-.6.6-.9.1-.2.3-.4.4-.5.1-.2.2-.3.3-.5,0-.1.2-.2.2-.3.1-.2.2-.4.3-.6.2-.3.3-.5.6-.7,0,0,.2,0,.2,0,0,0,.1.1,0,.2-.2.2-.4.5-.5.8-.1.2-.2.4-.3.6-.1.2-.3.5-.4.7,0,.2-.2.4-.3.6,0,0,0,.1,0,.2,0,.1.1,0,.2,0,.4,0,.7.2,1,.4.2.1.3.2.5.4.1.1.2.2.3.4.1.2.2.3.3.5,0,.2.1.4.2.5.1.2,0,.5,0,.7,0,0,0,0,0,0,0,0,.2,0,.2-.2.4-.3.7-.7,1.1-1,.1-.1.2-.3.3-.5,0-.2.2-.4.3-.5.2-.3.2-.6.3-.9,0-.2.1-.5.2-.7,0,0,0,0,0,0,0-.2,0-.4,0-.6,0,0,0,0,0,0,0,.1.2.2.2.3.2.4.2.8,0,1.2,0,.2-.1.5-.2.7,0,.2-.2.4-.3.6,0,0,0,0,0,0Z"/>
      <path class="cls-3" d="M67.1,53.2c0,.5,0,.9,0,1.4,0,.3,0,.7-.3.9-.1.1-.3.2-.5.3-.2,0-.3.1-.5.2-.3,0-.7.2-1,0-.2,0-.3-.2-.4-.3-.2-.2-.2-.5.1-.7.1,0,.2-.2.2-.3,0-.4,0-.8,0-1.2,0-.4-.1-.8-.2-1.2,0-.2,0-.4.2-.6.2,0,.4,0,.6-.1.2,0,.3,0,.4,0,.3,0,.7,0,1,.3,0,0,.1,0,.2,0,.2.1.2.3.3.5,0,.3.1.5.2.8ZM66.6,53.1c0-.1,0-.3,0-.4,0-.2-.2-.4-.3-.6,0,0-.2,0-.3,0-.2,0-.3.1-.2.3,0,.3.1.5.2.8,0,.2.1.5,0,.7,0,0,0,.2,0,.3.1.3,0,.6-.1,1,0,.2-.1.4-.2.6,0,0,0,0,0,0,.2,0,.4,0,.5,0,.3-.2.5-.4.5-.8,0-.3,0-.6,0-.9,0-.3,0-.5,0-.8ZM65.5,53c0-.2,0-.3,0-.5,0-.2,0-.5-.4-.5-.1,0-.2,0-.2,0,0,0,0,.1,0,.2,0,.1,0,.2,0,.3,0,.6.1,1.1.1,1.7,0,.4,0,.8-.5,1,0,0,0,0,0,0,0,0,0,0,0,0,0,0,.2,0,.3,0,.2,0,.4-.2.5-.4,0-.2.2-.4.2-.7,0-.4,0-.9,0-1.3Z"/>
      <path class="cls-4" d="M70.8,37.6c0,0,0-.1,0-.1-.2-.3-.6-.3-.9-.3-.3,0-.6.1-.8.1-.5,0-.9-.4-.9-.9,0-.3.2-.6.5-.8.2,0,.4-.2.6-.3.3-.1.6-.2.9,0,0,0,.2.1.2.2.3.3.6.7.9,1,0,0,.1.1.3,0,.2-.1.3-.3.6-.3,0,0,.1,0,.2,0,.3,0,.5,0,.7.2.2.3.3.5.2.9,0,.2-.1.4-.2.6-.1.2-.4.4-.6.6-.2.2-.4.2-.6.2-.2,0-.4,0-.6-.2-.2-.2-.3-.4-.3-.7,0,0,0-.1,0-.2ZM71.4,38.1c.2.2.4.2.7,0,.3-.2.5-.4.6-.7.1-.2.2-.4.1-.7,0,0-.1-.2-.2-.2-.3,0-.6.2-.8.4,0,0,0,.2,0,.2,0,.2,0,.4-.3.3,0,0,0,0,0,0,0,.1,0,.3,0,.4ZM68.6,36.6c-.1,0,0,.2,0,.2,0,0,0,0,.1,0,.4,0,.7,0,1.1,0,0,0,.1,0,.2,0,0,0,0,0,0-.1,0,0,0-.2,0-.3,0,0,.1-.2.2-.2,0,0,.1-.2.1-.2,0-.1,0-.3,0-.3-.1,0-.3-.1-.5,0-.1,0-.3.1-.4.2-.1.1-.2.3-.4.5,0,0-.1.1,0,.3ZM70.9,36.6s0,0-.1,0c0,0-.2.1-.2.2,0,0,0,.1,0,.1,0,0,.2,0,.3,0,0,0,.2,0,0-.2ZM71.3,37.1s0,0-.1,0c0,0-.1,0-.2.1,0,0,0,0,0,.1,0,0,0,0,0,0,0,0,0,0,.1-.1Z"/>
      <path class="cls-3" d="M61.1,53.8c0-.6,0-.7.6-.9.1,0,.2-.1.3-.2.1,0,.3-.1.5-.1.2,0,.4,0,.5,0,.4,0,.8,0,1.2,0,0,0,.1,0,.2.2.1.3,0,.3-.3.4-.5,0-.9.1-1.4.2-.2,0-.4,0-.6,0-.1,0-.2.2-.3.3,0,0,0,.2,0,.3,0,.3.3.3.5.3.3,0,.5,0,.8.1.2,0,.4,0,.6,0,.2,0,.3,0,.5.1.1,0,.2,0,.2.2,0,0,0,.2-.1.2-.3,0-.5,0-.8,0-.3,0-.5,0-.8-.1-.2,0-.4-.2-.6-.2-.4,0-.5-.3-.7-.5,0,0,0-.2,0-.4Z"/>
      <path class="cls-3" d="M67.1,55.4s0,0,0,0c0-.2.1-.4.2-.6,0,0,.1-.1.2-.1.4,0,.8,0,1.1,0,.3,0,.6,0,.9,0,.3,0,.7-.1,1-.2.2,0,.4,0,.6,0,.2,0,.4-.1.5-.2.1,0,.1,0,0,0,0,.2-.2.4-.3.6,0,0-.1,0-.2,0-.3,0-.6.1-.9.2-.4,0-.8,0-1.1,0-.4,0-.7,0-1.1,0-.3,0-.7,0-1,.2Z"/>
      <path class="cls-3" d="M62.8,51.4c.2,0,.4.2.4.3,0,.2,0,.4.1.6,0,0,0,0,0,0-.2,0-.3,0-.5,0,0,0,0,0,0,0-.2-.3-.5-.2-.7-.2-.3,0-.6,0-.9,0-.2,0-.3,0-.2.3,0,.1.1.2.2.4,0,0,0,.2,0,.2,0,0,0,0,0,0,0,.3-.1.1-.2,0-.2-.3-.4-.5-.4-.9,0-.3.3-.6.6-.7.2-.1.5-.2.7-.2.2,0,.4,0,.6,0,.2,0,.3,0,.5.1ZM62.3,51.8s0,0,0,0c-.2-.1-.4,0-.6,0,0,0-.1,0-.2,0,0,0,.1,0,.2,0,.2,0,.4,0,.7,0Z"/>
      <path class="cls-4" d="M69.7,41.3c-.3-.2-.5-.5-.5-.8,0-.2,0-.5.3-.6.1,0,.2-.2.4-.2.2,0,.4,0,.6,0,.2.1.4.3.4.5,0,.2,0,.4,0,.6-.1.5-.8.8-1.2.5ZM69.7,40.6s0,.1.1.1c.1,0,.3,0,.4,0,0,0,.1,0,.1-.1,0,0,0-.2,0-.2-.2,0-.3,0-.5,0,0,0,0,0,0,.1Z"/>
      <path class="cls-3" d="M68.6,38.4c-.2.1-.3.3-.5.3-.2,0-.4.2-.6.2-.2,0-.3,0-.5,0-.2,0-.3-.1-.2-.3,0-.1.2-.2.4-.2,0,0,0,0,.1,0,.2,0,.4-.2.6-.2.2,0,.3-.2.5-.3.1,0,.2-.1.3-.1.1,0,.3,0,.3.1,0,0,0,.2,0,.3,0,0-.2.2-.3.3Z"/>
      <path class="cls-3" d="M61.8,49.9c0-.2,0-.4,0-.6,0,0,0-.2,0-.2,0-.1.2,0,.3.1.2.2,0,.5,0,.8,0,.2-.2.5-.2.7,0,.2-.1.3-.3.3-.1,0-.3,0-.4-.1-.2-.1-.2-.3,0-.5,0,0,.2-.2.3-.1,0,0,0,0,0,0,0,0,.1-.2.2-.3,0,0,0,0,0,0Z"/>
      <path class="cls-3" d="M69,52c-.2.1-.4.3-.6.4-.2,0-.3.2-.6.2-.2,0-.3,0-.5.1,0,0,0,0,0,0,0,0,0-.2,0-.3,0,0,0-.2.1-.2.4,0,.6-.2.9-.3.2,0,.4,0,.6,0,0,0,0,0,.1,0,0,0,0,0,.1,0,0,0,0,0,0,.1Z"/>
      <path class="cls-3" d="M52.5,50.3s0,0-.1,0c0,.2-.2.3-.2.4,0,.2-.1.4-.1.6,0,.2,0,.4,0,.5,0,.1,0,.3.1.4,0,.1.1.2.2.3.2.2.4.2.6.2.2,0,.4,0,.6,0,.4-.2.7-.1,1.1,0,.2,0,.5,0,.7.2.3.1.6.3.8.5.2.2.3.4.3.7,0,.3,0,.5,0,.8,0,.2-.2.3-.2.4,0,.2-.1.3-.2.5-.2.4-.5.7-.9,1-.4.3-.8.5-1.1.9,0,0-.1.2-.1.4,0,.1,0,.2-.1.3,0,0-.2.1-.4.1-.6,0-1.3,0-1.9,0-.2,0-.4,0-.6,0-.4-.1-.7-.2-.9-.6-.2-.3-.6-.6-.9-.8-.4-.3-.8-.5-1.1-.9-.1-.1-.2-.3-.3-.5,0-.2-.2-.4-.3-.6,0-.2,0-.4-.1-.5-.1-.2,0-.5-.1-.7,0-.3,0-.6.2-1,.1-.3.3-.6.5-.8.2-.2.5-.3.8-.3.2,0,.4-.1.5-.1.3,0,.7,0,1.1,0,.2,0,.4.1.5.3,0,0,0,.2,0,.3,0,0-.1,0-.2,0-.4,0-.9,0-1.3,0-.2,0-.4,0-.6.1-.1,0-.3.1-.4.2,0,0,0,0,0,0,0,0,0,0,0,0,.9.2,1.7.2,2.6.2.1,0,.3,0,.4,0,.1,0,.2-.2.1-.4,0-.2,0-.5,0-.8,0-.3.1-.7.2-1,0-.1.1-.3,0-.4-.2-.2-.4-.3-.7-.2,0,0-.1.1-.2.2,0,0,0,.1,0,.2,0,0,.2,0,.2,0,.2,0,.3,0,.5.1,0,0,0,.1,0,.2-.2.4-.9.4-1.2,0-.1-.2-.1-.4,0-.7,0-.3.2-.5.5-.6.1,0,.3-.2.5,0,.4,0,.6.2.8.4,0,0,.1,0,.1,0,.2-.1.3-.3.5-.4.2-.1.4-.3.7-.3.2-.2.3,0,.5,0,.3,0,.5.2.6.5,0,.2,0,.5-.2.7-.1.1-.3.3-.5.3-.2,0-.4,0-.6,0-.1,0-.3-.1-.4-.2,0,0,0-.2-.1-.2,0,0,.2,0,.2,0,.2,0,.4,0,.5-.1.1,0,.3-.1.4-.2,0,0,0-.1,0-.1,0,0-.2-.1-.2-.1-.2,0-.4,0-.6.1-.2.1-.4.2-.4.5ZM48.5,56.2c.1,0,.3.2.4.3.3.1.5.3.8.4.2,0,.4.1.6.2.6.2,1.3.2,1.9.2.3,0,.5,0,.8,0,.3,0,.6-.1.8-.2.3-.2.6-.3.9-.6.4-.4.7-.7.9-1.2,0-.2.2-.4.2-.6,0-.2,0-.5,0-.7,0-.3-.3-.4-.5-.5-.4-.1-.9-.1-1.4-.1-.4,0-.8,0-1.2,0-.3,0-.5,0-.8,0-.2,0-.4,0-.6,0-.3,0-.5,0-.8,0-.4,0-.8,0-1.1,0-.2,0-.5,0-.7-.1-.2,0-.5,0-.7-.1,0,0-.1,0-.1,0,0,0,0,.1,0,.2,0,.6,0,1.2.2,1.8,0,.2,0,.4.2.5.1.2.3.4.4.6ZM52.5,58.1s0,0,0,0c.3,0,.5,0,.8-.1.1,0,.1,0,.2-.2,0,0-.1,0-.2,0-.3,0-.5,0-.8,0s-.7,0-1.1,0c-.2,0-.4,0-.7,0-.1,0-.3,0-.4,0,0,0,0,0-.1.1,0,0,0,0,0,0,0,.1.2,0,.3,0,.1,0,.3.1.4.1.4,0,.8,0,1.2,0,0,0,.1,0,.2,0Z"/>
      <path class="cls-3" d="M50.8,65.5c0-.2,0-.3,0-.5,0-.1,0-.2,0-.3,0-.2-.1-.3-.2-.5,0,0,0-.1-.1-.2,0-.1,0-.2,0-.3.1,0,.2-.2.3,0,.1,0,.2.2.3.3.3.4.3.8.3,1.3,0,.2,0,.5-.1.7-.2.4-.2.6-.4.9-.2.3-.5.5-.7.7-.3.2-.6.4-.9.5-.2,0-.4.1-.6.2-.4.2-.7.4-1.1.6-.4.2-.7.4-.9.7,0,.1,0,.3-.1.5,0,.3.2.3.3.5,0,0,.2,0,.3.1.3.1.6.2.9.2.2,0,.4,0,.6.1.5,0,1,.2,1.5.2.5,0,1,0,1.5,0,.5,0,.9,0,1.4,0,.3,0,.6,0,.9,0,.4,0,.7-.1,1.1-.2.3,0,.6,0,.8-.1.4,0,.7-.2,1.1-.4.2-.1.2-.5,0-.7-.3-.2-.7-.3-1.1-.4-.2,0-.4,0-.6-.1-.2,0-.4-.2-.6-.2-.3,0-.6-.2-.9-.4-.3-.2-.6-.4-.7-.8,0-.1-.2-.7-.2-1.4,0-.7.2-1.6.2-1.8,0-.1.4-2.1.6-1.3,0,.2-.2,1.7-.2,2.7,0,.6.1,1,.1,1,0,.2.1.3.2.5,0,.3.3.5.6.7.2.1.4.2.6.3.2,0,.4,0,.6,0,.4,0,.8.1,1.1.2.3,0,.6.2.8.4.3.4.5.9.2,1.3-.1.2-.3.3-.5.4-.1,0-.3.2-.4.2-.3,0-.6.2-.9.2-.2,0-.4.1-.6.1,0,0-.2,0-.3,0-.1.1-.2,0-.3,0-.3.2-.6.1-.9.1-.5,0-1.1,0-1.7,0-.5,0-1,0-1.5,0-.3,0-.6,0-.9,0-.2,0-.5,0-.7,0-.2,0-.4,0-.6,0-.2,0-.4,0-.6-.1-.1,0-.3,0-.5,0-.2,0-.5-.2-.7-.3,0,0,0,0-.1,0-.3-.3-.5-.6-.6-1,0-.1,0-.3.1-.4,0-.2.1-.3.2-.5.2-.2.4-.4.7-.5.2,0,.3-.2.5-.3.2-.1.5-.2.7-.3.4-.2.7-.4,1.1-.5.5-.2.8-.6,1.2-.9.2-.2.3-.4.4-.6,0-.2,0-.3.1-.5Z"/>
      <path class="cls-3" d="M46.4,61.1c.6,0,1.1,0,1.7.1.2,0,.3,0,.5,0,.6,0,1.1,0,1.7,0,.2,0,.5,0,.7,0,1,0,2.1,0,3.1,0,.6,0,1.1,0,1.7,0,.3,0,.7,0,1,0,.5-.1,1,0,1.6-.1.3,0,.6,0,.8,0,.3,0,.6,0,.8,0,.3,0,.6,0,.9,0,.3,0,.6,0,.9-.1.2,0,.4,0,.6,0,.2,0,.4,0,.5,0,.2,0,.3,0,.3.2,0,.2-.1.3-.3.3-.2,0-.3.1-.5.1-.2,0-.5,0-.7,0-.4,0-.9.1-1.3.2-.3,0-.6,0-.8,0-.4,0-.8,0-1.3,0-.5,0-1,0-1.5.1,0,0,0,0,0,0-.5,0-1,0-1.6,0-1.2,0-2.4,0-3.6,0-.4,0-.9,0-1.3,0-.5,0-1,0-1.5,0-.2,0-.4,0-.6,0-.3,0-.7,0-1,0-.6,0-1.2,0-1.8-.2-.2,0-.3,0-.5,0-.5,0-1-.1-1.6-.2-.2,0-.4,0-.5,0-.2,0-.5,0-.7-.1-.3,0-.6,0-.8-.2-.2,0-.4-.2-.6-.2-.3,0-.6-.2-.8-.4-.2-.2-.4-.4-.6-.6,0-.2-.2-.3-.2-.5,0-.2,0-.4,0-.7,0-.1,0-.2,0-.3,0-.1.2-.1.3,0,0,0,.1.2.2.3,0,.1,0,.3,0,.4,0,.4.3.6.5.9,0,0,.2,0,.3.1.2,0,.3.2.5.3.2,0,.4,0,.6.1.2,0,.3.1.5.2.2,0,.4,0,.5,0,.2,0,.5,0,.7.2,0,0,.3,0,.4,0,.2,0,.4,0,.7,0,.2,0,.4,0,.6,0,.4,0,.7,0,1.1.1.2,0,.4,0,.6,0Z"/>
      <path class="cls-3" d="M57.3,59.5c-.3,0-.5,0-.8,0,0,0,0,0,0,0,0,0,0-.2,0-.2.1,0,.3-.2.4-.2.5,0,1.1,0,1.6,0,.6,0,1.3,0,1.9,0,.5,0,.9,0,1.4,0,.4,0,.8-.2,1.2-.2.2,0,.4,0,.6-.2.1,0,.2-.1.3-.2,0,0,0-.1,0-.1-.1-.1-.3-.2-.4-.3-.4-.2-.8-.3-1.3-.4-.5-.1-1-.2-1.5-.3-.2,0-.5,0-.7-.1-.4,0-.8-.1-1.2-.2-.2,0-.5,0-.7,0-.3,0-.7,0-1,0-.5,0-1,0-1.5,0-.1,0-.2,0-.4,0,0,0,0,0,0,0,0,0,0,0,0,0,.1,0,.2-.2.4-.3,0,0,0,0,0,0,.2-.5.6-.1.8-.2,0,0,.1,0,.2,0,.5,0,.9,0,1.4,0,.3,0,.6,0,.8,0,.5,0,1,.1,1.5.2.4,0,.7.1,1.1.2.2,0,.4,0,.6.1.2,0,.4.2.6.2.2,0,.4,0,.6.1.3,0,.5.1.8.2.3.1.5.3.5.6,0,.3,0,.6-.3.8-.4.4-.8.5-1.3.5-.3,0-.6,0-.9,0-.3,0-.6.1-.9.1-.7,0-1.3,0-2,0-.5,0-1.1,0-1.6,0-.1,0-.2,0-.4,0Z"/>
      <path class="cls-3" d="M46.4,55.9c.2,0,.3,0,.5,0,.1,0,.3,0,.4,0,0,0,0,0,.1.1,0,.1.2.2.2.4,0,0,0,.1,0,.1-.6,0-1.2,0-1.8,0-.7,0-1.4,0-2.1,0-.2,0-.5,0-.7,0-.2.1-.4,0-.6,0-.4,0-.9.1-1.3.2-.2,0-.3,0-.5,0-.2,0-.3,0-.5.1-.2,0-.4,0-.6.1,0,0,0,0,0,0,.1.2.2.5.4.6.3.1.5.3.8.3.2,0,.4,0,.6.1.2,0,.3,0,.5.1.2.1.4.3.6.4,0,0,0,0,0,.1,0,0,0,0-.1,0-.2,0-.4,0-.6,0-.5,0-.9-.1-1.4-.3-.3-.1-.7-.2-.9-.5-.1-.1-.3-.2-.4-.3-.3-.2-.2-.7,0-.9.2-.2.5-.3.8-.4.3,0,.6,0,.8-.1.2,0,.4-.1.6-.1.3,0,.6,0,.9,0,.2,0,.4,0,.5,0,0,0,0,0,0,0,.3,0,.5,0,.8,0,.6,0,1.2,0,1.9,0,.3,0,.7,0,1,0,0,0,0,0,0,0Z"/>
      <path class="cls-4" d="M43.8,56.7c.2.1.4,0,.6.1,0,0,.2,0,.3,0,.3,0,.4.5.2.7-.5.5-1.1.7-1.8.6-.2,0-.4-.2-.7-.2-.4,0-.6-.3-.9-.5-.2-.2,0-.4.2-.6.2,0,.3-.1.5-.2.2,0,.4,0,.6,0,.3,0,.6,0,.9,0ZM44.2,57.1c-.2,0-.4,0-.6,0-.4,0-.9,0-1.3,0-.1,0-.2,0-.3.1,0,0,0,.1.1.2,0,0,0,0,.1,0,.6.1,1.2.1,1.8,0,.2,0,.3,0,.5-.1,0,0,0,0,.1,0,0,0,0,0-.1,0-.1,0-.2,0-.3,0Z"/>
      <path class="cls-4" d="M60.4,57.1c.2.1.4,0,.6.1,0,0,.2,0,.3,0,.3,0,.4.5.2.7-.5.5-1.1.7-1.8.6-.2,0-.4-.2-.7-.2-.4,0-.6-.3-.9-.5-.2-.2,0-.4.2-.6.2,0,.3-.1.5-.2.2,0,.4,0,.6,0,.3,0,.6,0,.9,0ZM60.8,57.6c-.2,0-.4,0-.6,0-.4,0-.9,0-1.3,0-.1,0-.2,0-.3.1,0,0,0,.1.1.2,0,0,0,0,.1,0,.6.1,1.2.1,1.8,0,.2,0,.3,0,.5-.1,0,0,0,0,.1,0,0,0,0,0-.1,0-.1,0-.2,0-.3,0Z"/>
    </g>
  </g>
</svg>