<?xml version="1.0" encoding="UTF-8"?>
<svg xmlns="http://www.w3.org/2000/svg" version="1.1" viewBox="0 0 92 91">
  <defs>
    <style>
      .cls-1 {
        fill-rule: evenodd;
      }

      .cls-1, .cls-2 {
        fill: #5e1551;
      }

      .cls-3 {
        fill: #ea7578;
      }

      .cls-4 {
        fill: #fff;
      }

      .cls-5 {
        fill: #bcda5f;
      }

      .cls-6 {
        fill: #f4b3e8;
      }
    </style>
  </defs>
  <!-- Generator: Adobe Illustrator 28.7.10, SVG Export Plug-In . SVG Version: 1.2.0 Build 236)  -->
  <g>
    <g id="_图层_1" data-name="图层_1">
      <path class="cls-5" d="M35.6,69.4c17.4,3,26.4-3,26.5-3.2.5-.3,1-.6,1.4-.9.7-.5,1.5-1.1,2.2-1.6.4-.3.7-.5,1-.8.2-.2.4-.5.6-.7.5-.5,1.1-1,1.6-1.5.9-.9,1.8-1.9,2.7-2.8.7-.8,1.4-1.6,2.1-2.4.5-.6.9-1.1,1.4-1.7.4-.5.8-.9,1.1-1.4.4-.6.7-1.2,1.1-1.9.3-.7.7-1.3,1-2,.3-.8.8-1.6.8-2.5,0-.8.2-1.5.2-2.2,0-.9,0-1.8-.2-2.6-.1-.8-.3-1.5-.7-2.2-.4-.7-.8-1.4-1.3-2.1-.5-.8-1.2-1.5-2-2.1-.7-.5-1.6-.9-2.4-1.3-.8-.3-1.6-.6-2.4-.9-.5-.2-.9-.4-1.4-.6-.7-.3-1.5-.6-2.2-.9-1.1-.5-2.1-1.2-3-2.1-.5-.6-1.1-1.2-1.7-1.7-.6-.6-1.1-1.1-1.7-1.7-.2-.2-.4-.5-.7-.8-.4-.3-.7-.7-1.1-1-.4-.3-.7-.7-1.2-.9-.9-.5-1.9-1.1-2.9-1.4-.9-.3-1.8-.6-2.7-.7-1-.2-2-.3-2.9-.3-1.3,0-2.5,0-3.8,0-.3,0-.6,0-.9,0-.8.1-1.7.3-2.5.4-.7.1-1.3.3-2,.4h0c-.5.1-1,.2-1.4.3-.8.2-1.6.5-2.5.7-1.1.3-2.1,1-3.2,1.3-.6.2-1.2.4-1.8.6-1,.4-2,.8-3,1.3-.5.2-.9.5-1.4.6-.9.3-1.8.8-2.6,1.3-.7.4-1.3,1-2,1.4-.9.6-1.8,1.3-2.6,2.2-.5.6-1.1,1.3-1.5,1.9-.6,1-1.2,2-1.7,3-.5,1-.9,1.9-1.4,2.9-.3.6-.6,1.3-.8,2-.3.8-.4,1.6-.7,2.4-.2.6-.3,1.3-.3,1.9,0,.2,0,.3,0,.5,0,1.7,0,3.4,0,5.1,0,.3,0,.6.1.9,0,.5.2,1,.3,1.6,0,.4.1.9.3,1.3.4,1.2.9,2.4,1.5,3.5.4.7.9,1.4,1.3,2.2.1.2.3.4.5.6.3.4.6.8,1,1.2,4.9,5.5,12,6.1,17.7,7.1Z"/>
      <path class="cls-5" d="M11.1,54c-.4-.8-.6-1.6-.8-2.5-.1-.7-.3-1.4-.4-2.1,0-.4,0-.7-.1-1.1,0-.6-.2-1.3-.3-1.9,0-.3-.1-.6-.1-.9-.1-1.2-.2-2.3-.2-3.5,0-.6,0-1.2,0-1.8,0-.8.3-1.5.4-2.3,0-.5.1-1.1.2-1.6.2-.9.4-1.8.9-2.6.2-.4.4-.7.7-1,.2-.2.6-.4.8-.4.3,0,.4.3.4.5,0,.4-.1.9-.2,1.3-.2.9-.6,1.8-.8,2.6-.2.6-.2,1.3-.3,2-.1.8-.3,1.6-.4,2.5,0,.2,0,.4,0,.7,0,.5,0,1.1,0,1.6,0,.4,0,.7,0,1.1,0,.9,0,1.7.2,2.6,0,.6,0,1.1.2,1.7,0,.4.1.9.2,1.3,0,.5.1.9.2,1.3,0,.4.2.8.3,1.2.3,1,.7,2.1,1,3.1.3.8.5,1.5.8,2.3.1.3,0,.5-.2.5-.2,0-.4-.1-.5-.3,0-.2-.1-.3-.2-.5-.4-.8-.7-1.6-1.1-2.4-.2-.4-.3-.8-.5-1.3Z"/>
      <path class="cls-5" d="M74.8,25.8c-.7.2-1.4.4-2.2.5-.5.1-1,.2-1.6.2-.6,0-1.3.1-1.9-.2-.4-.2-.8-.5-1.1-.7-.7-.5-1.1-1.2-1.5-1.9-.4-.8-.6-1.6-.8-2.5,0-.3-.1-.7-.1-1,0-.5.1-1,.2-1.5.1-.6.3-1.2.6-1.7.4-.8,1-1.3,1.6-1.7.8-.5,1.6-1,2.5-1.2.5-.2,1.1-.2,1.7-.3,1.1-.1,2.1.1,3.2.4,1.5.4,2.3,1.4,2.7,2.8.2.8.3,1.5.5,2.3,0,.4.2.9.2,1.3,0,.4,0,.7-.1,1.1-.1.7-.4,1.3-.8,1.9-.3.5-.8.8-1.2,1.2-.6.5-1.3.8-2,1Z"/>
      <path class="cls-5" d="M77.5,31.1c-.2-.2-.4-.4-.5-.7,0-.1,0-.3,0-.5,0-.3.4-.2.6-.2.2,0,.4.2.6.3.9.8,1.6,1.7,2.2,2.6.5.8,1,1.7,1.1,2.7,0,.6.2,1.3.2,1.9,0,1.2.1,2.4.1,3.6,0,1-.2,2-.6,3-.1.3-.6.7-1,.7-.3,0-.6-.2-.6-.5,0-.4,0-.9.1-1.3,0-.5.2-1,.3-1.5,0-.4.2-.9.2-1.3,0-.7,0-1.4,0-2.2,0-.7-.2-1.3-.4-2-.2-.8-.4-1.6-.8-2.3-.5-.8-1-1.6-1.5-2.4Z"/>
      <path class="cls-5" d="M16.2,28.2c-.2.3-.4.5-.6.7-.5.6-1,1.2-1.5,1.8-.1.2-.3.3-.6.2-.2-.1-.2-.3-.2-.5,0-.5.3-.9.5-1.2.6-.8,1.1-1.5,1.8-2.1.7-.7,1.5-1.3,2.3-1.8.4-.3.9-.6,1.4-.7.1,0,.3,0,.4,0,0,.1,0,.3,0,.4-.2.2-.4.4-.6.6-.3.3-.7.6-1.1.9-.7.6-1.3,1.2-2,1.8Z"/>
      <path d="M74.5,64.2c-.2.8-.5,1.5-.7,2.2-.2,1.2-.8,2.2-1,3.4,0,0,0,.2,0,.3,0,0,0,.1.1.1,0,0,.2,0,.3,0,.7,0,1.4,0,2.1,0,.2,0,.4,0,.6.1,0,0,0,.1,0,.2,0,.3-.1.6-.2.9,0,0,0,.1,0,.1-.3,0-.3.4-.3.6-.1.6-.2,1.2-.3,1.9,0,.5-.2.9-.3,1.4,0,.3-.3.3-.5.3-1.1,0-2.2,0-3.3,0-.3,0-.5-.2-.5-.4-.1-.7-.2-1.4-.4-2.2,0-.4-.1-.8-.2-1.2,0-.1,0-.3-.3-.2-.3,0-.4,0-.5-.4,0-.2-.1-.4-.2-.7,0-.2,0-.4.3-.4.5,0,1,0,1.5,0,.4,0,.9,0,1.3,0,.1,0,.2,0,.2-.2,0-.1,0-.2,0-.3-.3-.6-.7-1.3-1-1.9-.1-.3-.3-.5-.5-.7-.5-.5-.9-1-1.4-1.5-.2-.2-.4-.3-.6-.5-.1-.1-.3,0-.4,0-.8.4-1.7.3-2.4-.1-.3-.2-.5-.5-.7-.7-.3-.4-.5-.9-.7-1.3-.3-.4-.5-.8-.9-1.2-.8-.8-1.8-1.3-2.9-1.6-.5-.1-1,0-1.5.1-.4.1-.9.1-1.4,0-.9-.1-1.6-.5-2.3-.9-.5-.3-.8-.8-.9-1.5,0-.5,0-.9.4-1.3.3-.4.6-.7,1.1-.8.4-.1.8-.3,1.2-.4,0,0,.2,0,.2,0,.6,0,1.1,0,1.7,0,1,0,1.9.1,2.8.6.3.2.6.2.8.4,0,0,0,.1.1.2,0,0-.2,0-.2,0-.4-.2-.9-.3-1.3-.5-.5-.3-1-.3-1.6-.3-.5,0-1.1,0-1.6,0-.8,0-1.6.2-2.4.5-.5.2-.9.6-1.1,1.2-.2.6,0,1.4.6,1.8.6.4,1.2.7,1.9.9.6.2,1.2.2,1.8,0,.8-.2,1.5,0,2.2.2.8.3,1.5.7,2,1.2.3.3.6.7.9,1.1.4.6.8,1.3,1.1,1.9.3.5.8.6,1.3.7.4.1.8,0,1.2-.2.1,0,.2-.2.3-.3.1-.2.2-.5.3-.8,0-.5,0-1.1-.1-1.6-.1-.4-.2-.8-.4-1.2-.4-.8-.8-1.5-1.5-2-.3-.2-.5-.5-.7-.7-.4-.4-.8-.8-1.1-1.1,0,0,0-.2,0-.3,0,0,.2,0,.2,0,0,0,0,0,.1.1.6.6,1.2,1.2,1.8,1.7.7.6,1.1,1.4,1.6,2.1.2.4.3.9.4,1.4,0,.4.1.8.1,1.1,0,.3-.1.6-.2.9,0,.2,0,.3,0,.4.6.6,1.2,1.2,1.8,1.8.2.2.4.4.5.6.4.5.7,1.1,1,1.6,0,0,0,0,0,.1,0,0,0,0,.1,0,0,0,0-.1,0-.2-.2-1-.4-2-.8-3-.1-.3-.2-.7-.3-1,0-.1-.2-.2-.3-.2-.3.1-.6,0-.8,0-.5-.2-.8-.6-1-1.1,0,0,0-.2,0-.3,0,0,.1.1.2.2.3.6.8,1.1,1.6,1,.1,0,.2,0,.2-.2-.3-.9-.5-1.7-1-2.5-.3-.7-.7-1.3-1-2,0,0,0,0,0-.1,0,0,0-.2,0-.3,0,0,.1.1.2.2.4.7.7,1.4,1.1,2.1.4.6.5,1.3.8,1.9,0,.2,0,.3.1.5,0,0,0,0,.1.1,0,0,0,0,0,0,.4-.6.4-1.1.3-1.8-.1-.8-.4-1.5-.8-2.2-.3-.7-.7-1.3-1.1-1.9-.3-.4-.5-.8-1-.9-.6-.2-1.2-.1-1.7.3-.4.3-.3.6,0,.9,0,.1.2.2.3.3,0,0,0,0,0,.1,0,0-.1,0-.2,0-.3-.2-.7-.4-.8-.8,0-.4.2-.7.6-.9.5-.2,1-.3,1.5-.2.7.2,1,.7,1.4,1.2.7,1,1.2,2.2,1.7,3.3.2.6.3,1.3.2,1.9,0,.3-.2.7-.4.9-.2.2-.2.4-.1.6.2.7.5,1.5.7,2.2,0,.2,0,.3,0,.5,0,0,0,0,0,.1,0,0,0,0,0-.1,0-.3,0-.6,0-.9,0-.3,0-.7.1-1,0,0,.1-.1.2-.2,0,0,.1.2.1.3,0,.3,0,.5,0,.8,0,.3,0,.6,0,.9,0,.4,0,.7,0,1.1,0,.2,0,.5,0,.7,0,0,0,.2,0,.2,0,0,0,.1,0,.2,0,0,.1,0,.2-.2,0-.2,0-.5.1-.7.2-.5.4-1,.5-1.6,0-.2.2-.4.2-.6,0-.2,0-.4-.1-.6-.3-.3-.5-.5-.7-.8,0-.1-.1-.3-.1-.4-.2-1.2-.1-2.3-.1-3.5,0-.2,0-.4,0-.7,0,0,0-.2,0-.3-.5-.5-.7-1.1-.9-1.8-.2-.6-.5-1.2-.7-1.9-.2-.7-.4-1.5-.5-2.2-.1-.6-.2-1.1-.3-1.7,0,0,0-.1,0-.2,0-.8,0-1.7-.1-2.5,0-1.1,0-2.2.4-3.2.2-.6.4-1.2.7-1.8.3-.6.7-1.1,1.3-1.3.3,0,.6,0,.8,0,.5,0,1,.2,1.3.6.3.4.5.8.6,1.2,0,.4.3.8.4,1.3.1.6.2,1.2.3,1.8.1.6.2,1.3.3,1.9.1.7.3,1.5.5,2.2,0,.1,0,.2.1,0,.2-.2.5-.3.8-.4.3,0,.5-.3.8-.3.4-.1.7-.2,1.1-.2.2,0,.3,0,.5,0,.6,0,1.1.2,1.6.5.4.3.8.6,1.2.9.6.5.9,1.2,1.3,1.9.2.4.3.9.4,1.4,0,.4-.3.8-.5,1.2-.2.3-.3.5-.7.7-.4.2-1,.1-1.3-.2-.4-.4-.7-.8-.9-1.3-.1-.3-.3-.5-.6-.7,0,0,0-.1,0-.2,0,0,.1,0,.2,0,.3,0,.5.3.6.5.2.4.4.7.7,1.1.5.6,1,.8,1.6.3.2-.2.4-.6.5-.9.4-.8,0-1.6-.3-2.3-.2-.3-.3-.6-.6-.9-.4-.5-.9-.9-1.5-1.3-.6-.4-1.3-.5-2-.5-.6,0-1.1.2-1.6.5,0,0-.1,0-.2,0-.7.2-1.1.7-1.6,1.2-.2.3-.5.5-.7.8-.3.5-.7,1-1,1.5-.5,1-.9,2-1.1,3-.1.6-.2,1.3-.3,1.9,0,.3-.1.5-.2.8,0,.1,0,.2,0,.3,0,.2,0,.4,0,.6,0,.3,0,.7,0,1,0,.4,0,.9.3,1.3.1.2.4.4.5.6.1,0,.2.1.2,0,.1-.6.3-1.2.5-1.7.3-1,.5-2,.8-3,0-.3.2-.5.3-.8.6-1.3,1.2-2.7,1.8-4,.2-.5.5-1.1.8-1.6,0-.1.1-.3.2-.4,0,0,.2,0,.3,0,0,0,0,.2,0,.2-.2.5-.5,1-.8,1.5-.4.9-.8,1.8-1.2,2.8-.2.4-.4.9-.6,1.3-.4.8-.7,1.6-.9,2.5,0,.5-.2.9-.4,1.4,0,0,0,.1,0,.2ZM70.2,52.5c.1.8.2,1.6.3,2.4.2.9.4,1.8.8,2.7.3.9.7,1.8,1.1,2.7,0,0,0,0,0,.1,0,0,0-.1,0-.2.1-.6.2-1.1.4-1.7.2-.6.5-1.2.7-1.9.3-.9.9-1.6,1.4-2.3.3-.3.6-.6.9-.9.1-.1.2-.2,0-.4,0,0,0-.2,0-.3-.1-.6-.3-1.3-.4-1.9,0-.4-.2-.8-.2-1.3,0-.4,0-.8-.2-1.1-.2-.9-.5-1.9-.7-2.8-.1-.5-.4-.9-.8-1.2-.2-.1-.6-.2-.9-.2-.1,0-.3,0-.4,0-.7.2-1.1.7-1.4,1.3-.3.5-.4,1.1-.6,1.7-.2.7-.4,1.4-.3,2.1,0,.7,0,1.4,0,2.1,0,.3,0,.6.1,1ZM74.7,72.7c-.8,0-1.6,0-2.3,0,0,0-.2,0-.2,0,0,0,.2-.1.3-.1.7,0,1.5,0,2.2,0,0,0,.2,0,.2,0,.2.2.2,0,.2-.1,0-.2,0-.4.1-.5,0-.2,0-.3-.2-.3-.9,0-1.9,0-2.8,0-.5,0-.9,0-1.4,0-.2,0-.4,0-.6,0,0,0-.2,0-.2.1,0,.4.1.8.2,1.2.1.6.2,1.3.4,1.9,0,.2,0,.5.3.5,1.1,0,2.2,0,3.3,0,0,0,.2,0,.2-.2,0-.2.1-.5.2-.8.1-.5.2-1.1.3-1.6,0,0,0-.1,0-.2,0,0-.1,0-.2,0ZM72.1,71.3c1,0,2.1,0,3.1,0,.2,0,.3-.1.3-.3,0-.1,0-.2,0-.4.1-.3,0-.2-.2-.2-.7,0-1.4,0-2,0-.3,0-.5,0-.8,0-.3,0-.6,0-.8,0-.8,0-1.6,0-2.4-.1-.2,0-.2,0-.2.2,0,.2.1.3.2.5,0,.2.1.2.3.2.2,0,.5,0,.7,0,.6,0,1.2,0,1.8,0Z"/>
      <path d="M76,65.4c.3-.3.6-.6.9-1,.4-.6.6-1.3.8-2,.2-.5.3-1,.4-1.5.2-.6.2-1.3.4-2,.1-.5.3-1.1.5-1.6,0-.2.2-.4.3-.6,0,0,.2,0,.2,0,0,0,0,.1,0,.2-.4.8-.6,1.6-.8,2.4-.3,1.2-.5,2.5-1,3.7-.3.8-.7,1.6-1.3,2.2-.6.7-1.4,1-2.2,1.3,0,0-.1,0-.2,0,0,0,0-.1.1-.2.4-.2.7-.3,1.1-.5.3-.1.5-.4.8-.5Z"/>
      <path d="M66.9,63c-.6-.7-1.2-1.4-1.8-2.1-.5-.6-1.2-1-1.9-1.4-.3-.2-.7-.4-1-.6,0,0-.1,0-.2-.2,0,0,0,0,0-.1,0,0,.1,0,.1,0,.2,0,.4.2.5.3.5.3,1,.6,1.5.9.3.2.6.4.8.6,1,.9,1.8,1.9,2.6,3,.2.3.3.5.5.8,0,0,0,.2,0,.3,0,0-.2,0-.2-.2-.3-.5-.6-.9-.9-1.4Z"/>
      <path d="M82.5,56.8c0,0,0-.3-.2,0,0,.3-.2.6-.3.8,0,0,0,0-.1.1,0,0-.1-.1,0-.2.1-.3.2-.7.3-1,0,0,0-.2,0-.2-.3-.6-.6-1.2-.9-1.8-.2-.4-.6-.7-1-1-.1,0-.2-.3-.2-.3.2-.2.3,0,.4.1.7.5,1.2,1.2,1.5,1.9,0,.1.1.2.3.3.3,0,.5.2.6.5,0,0,0,.1,0,.2,0,0,0,0-.1,0-.1-.1-.2-.2-.4-.3,0,0-.1,0-.2,0,0,0,0,.1,0,.2.2.5.4,1,.6,1.5,0,0,0,.1,0,.2,0,0-.2,0-.2-.1,0-.3-.2-.5-.3-.8Z"/>
      <path d="M61,58.7c-.1,0-.2,0-.3,0-.6-.3-1.2-.3-1.8-.4-.6,0-1.2,0-1.8-.1,0,0-.2,0-.3-.1,0,0,.2-.2.3-.2.9,0,1.7,0,2.6.2.3,0,.6,0,1,.2.2,0,.3.2.4.3Z"/>
      <path d="M74.7,65.8s0,0,0,0c0,0-.2,0-.2,0,0,0,0-.2.1-.2.4-.3.7-.6,1.1-.8.3-.2.6-.4.9-.5,0,0,.2,0,.3,0,0,0-.1.2-.2.2-.4.2-.8.4-1.1.7-.3.2-.5.4-.8.6Z"/>
      <path d="M76.8,62.8c-.6.3-1.2.7-1.8,1,0,0-.1,0-.2,0,0,0,0-.2,0-.2.1-.1.3-.3.4-.3.6-.3,1.2-.6,1.8-.8,0,0,.2,0,.3,0,0,0-.1.2-.2.2-.1,0-.3,0-.5.1Z"/>
      <path d="M62,60.1c-.2-.2,0-.2,0-.2.4,0,.8,0,1.2.2.4.1.8.3,1.1.4,0,0,.1.1.2.2,0,0-.2,0-.3,0-.5-.2-1-.3-1.6-.5-.2,0-.5,0-.7,0Z"/>
      <path d="M77.6,60.6c-.7.4-1.3.8-2,1.1,0,0-.1,0-.2,0,0,0,0-.1,0-.2,0,0,0-.1.1-.1.6-.3,1.2-.7,1.8-1,0,0,.1,0,.2,0,0,0,0,0,.1,0,0,0,0,0-.1.1Z"/>
      <path d="M73.1,61.6c0,0-.1,0-.1-.1,0,0,0-.2,0-.2,0,0,.1,0,.2.1.3.4.7.8,1,1.2.1.2.2.4.2.6,0,0,0,0,0,.1,0,0,0,0,0,0-.1-.6-.6-1-.9-1.5,0,0,0,0-.1-.2Z"/>
      <path d="M71,61.8c0,.4,0,.8,0,1.1,0,0,0,.1,0,.2,0,0-.1-.1-.1-.2,0-.3,0-.7,0-1,0-.1,0-.3,0-.4,0,0,0-.2,0-.2,0,0,.1-.2.2-.2,0,0,0,.2,0,.3,0,.2,0,.3,0,.5Z"/>
      <path d="M75.7,57.4c0,.4.1.7.2,1.1,0,0,0,0,0,.1,0,0,0,0-.1.1,0,0,0-.1,0-.2,0-.4-.1-.7-.2-1.1,0-.2-.2-.3-.3-.5,0,0,0-.1,0-.2,0,0,.2,0,.2,0,.1.2.2.3.4.5Z"/>
      <path d="M73.5,64.5c0,.1.1.3.2.4,0,0,0,.2,0,.3,0,0-.1-.1-.2-.2-.2-.5-.4-1-.6-1.5,0,0,0-.1,0-.2,0,0,.2,0,.2.1.1.3.3.6.4.8,0,0,0,.1,0,.2Z"/>
      <path d="M74.6,61.5c0-.2-.1-.4-.2-.6,0-.4-.3-.7-.6-1,0,0,0-.1,0-.2,0,0,.2,0,.2,0,.4.4.6.9.7,1.4,0,0,0,.2-.1.3Z"/>
      <path d="M65.6,59.1c0,0,.2.1.2.2,0,.4,0,.9,0,1.3,0,0-.1.1-.2.2,0,0,0-.2,0-.3,0-.4,0-.7,0-1.1,0-.1,0-.3,0-.4Z"/>
      <path d="M65.9,62.6c.3,0,.5,0,.6.2,0,0,0,0,0,.1,0,0-.1,0-.1,0-.3,0-.6-.1-1-.2-.1,0-.3,0-.4,0,0,0-.1,0-.2,0,0,0,0,0,.1-.1.3-.1.5-.2.9,0Z"/>
      <path d="M67.2,61.5c0,.3-.2.5-.3.7,0,0,0,0,0,.1,0,0,0,0,0-.1,0-.1,0-.3,0-.4.1-.3.2-.7.2-1,0,0,0-.1,0-.2,0,0,.1.1.1.2,0,.2,0,.4,0,.7Z"/>
      <path d="M77.1,59.1c-.2.1-.4.3-.6.4,0,0,0,0-.1,0,0,0,0-.1,0-.1.1-.1.3-.3.4-.4.2-.1.5-.3.8-.3,0,0,.1,0,.2.1,0,0-.1,0-.2,0-.2,0-.3,0-.5.1Z"/>
      <path d="M69.2,62.8c.3.1.6.3.8.4,0,0,.1.1.2.2,0,0,0,0,0,.1,0,0,0,0,0,0-.3-.1-.6-.2-.8-.4,0,0-.2,0-.2-.2,0,0,0-.2.1-.1Z"/>
      <path d="M70.1,60.5c0,.3,0,.5,0,.7,0,0,0,0,0,.1,0,0-.1,0-.2,0,0,0,0-.2,0-.3,0-.3,0-.5,0-.8,0,0,0,0,.1-.1,0,0,0,.1,0,.2,0,0,0,.1,0,.2Z"/>
      <path d="M81,55.2c0,0,0-.1,0-.2,0,0,0,0,.1,0,0,0,0,0,0,.1,0,.4,0,.7,0,1.1,0,0,0,0,0,.1,0,0,0,0,0,0,0-.2,0-.4,0-.6,0-.1,0-.2,0-.4Z"/>
      <path d="M69.3,61.2c0,.1,0,.2-.1.1-.1,0-.3-.1-.4-.2,0,0,0-.1,0-.2,0,0,.2,0,.2,0,.1,0,.2.2.4.3Z"/>
      <path d="M73.7,54.2c.1.3.2.6.3.9,0,0,0,0,0,0,0,.1,0,.2,0,.4,0,0-.2-.1-.2-.2,0-.3-.3-.4-.5-.6-.2-.1-.3-.3-.4-.5,0,0,0-.1,0-.2,0,0,.1,0,.2,0,0,.1.2.2.3.3,0,0,0,0,.1,0,0,0,0-.1,0-.1-.1-.4-.3-.8-.4-1.2-.1-.6-.2-1.1-.3-1.7-.1-.9-.3-1.9-.2-2.8,0,0,0-.2.1-.3,0,0,0,.2,0,.3,0,.7.2,1.4.2,2.1,0,.8.2,1.6.4,2.3.1.4.2.8.4,1.2Z"/>
      <path d="M74.2,53.1c0-.2.1-.4.2-.7,0,0,0-.1,0-.2,0,0,.1,0,.2-.1,0,0,0,.2,0,.2-.2.7-.3,1.3-.5,2,0,0,0,.1-.1.2,0,0-.1-.2-.1-.2,0-.4.2-.8.3-1.3Z"/>
      <path d="M72.4,51.9c.1.2.2.3.3.4,0,0,0,.1,0,.2,0,0-.1,0-.2,0-.1-.1-.2-.3-.3-.4-.2-.4-.4-.9-.6-1.3,0,0,0,0,0,0,0-.1,0-.2,0-.3,0,0,.1.2.2.2.2.4.4.9.7,1.3Z"/>
      <path d="M73.8,51.5c0,.3,0,.5-.1.8,0,0,0,.1-.1.2,0,0,0-.1,0-.2-.1-.4,0-.8.1-1.2,0-.2,0-.4.1-.5,0,0,.1-.1.2-.2,0,0,0,.2,0,.3,0,.3-.1.6-.2.9Z"/>
      <path d="M73.1,49.4c0-.2.2-.3.2-.5,0,0,.1,0,.2,0,0,0,0,.1,0,.2,0,.4-.2.7-.3,1,0,0,0,0-.1,0,0,0-.1,0,0-.1,0-.2,0-.4,0-.6Z"/>
      <path d="M72.1,74.5c.7,0,1.3,0,1.9,0,0,0,0,0,.1,0,0,0,.2,0,.2.1,0,0-.2.1-.2.1-.6,0-1.1,0-1.7,0s-.2,0-.4,0c0,0-.1,0-.2,0,0,0,.1,0,.2-.1Z"/>
      <path d="M71.7,73.3c0,0,0,.1-.1.1-.3,0-.6,0-.9,0,0,0-.2,0-.2-.1,0,0,.1,0,.2,0,.4,0,.7,0,1.1,0Z"/>
      <path class="cls-4" d="M25.9,43.9l4.7,7.3h11.6l.6-1.3h-3.8l-4.2-6h-8.8Z"/>
      <path class="cls-2" d="M42.8,54.7c-1.2,0-2.3,0-3.5,0-1.1,0-2.1,0-3.2,0-.8,0-1.6,0-2.3,0-.7,0-1.5,0-2.2,0-.8,0-1.5,0-2.3-.1-.7,0-1.3,0-2-.1-.7,0-1.4-.1-2.1-.2-.5,0-1,0-1.5-.1-.2,0-.2,0-.2.2,0,.7,0,1.5,0,2.2,0,1.6,0,3.2,0,4.8,0,.4,0,.8,0,1.1,0,.7,0,1.4,0,2.1,0,.4,0,.7,0,1.1,0,1.4,0,2.9,0,4.3,0,1.1,0,2.3,0,3.4,0,.4-.2.6-.6.6-.3,0-.5-.2-.5-.6,0-.8,0-1.6,0-2.4,0-.4,0-.8,0-1.2,0-.3,0-.6,0-.9,0-.4,0-.9,0-1.3,0-.5,0-.9,0-1.4,0-1.1,0-2.2,0-3.4,0-.4,0-.8,0-1.2,0-.8,0-1.5,0-2.3s0-.9,0-1.3c0-.4,0-.9,0-1.3,0-.8,0-1.6,0-2.3,0,0,0-.1,0-.2,0,0,0,0,0,0,0,0,0,.1,0,.2,0,.1,0,.2,0,.3,0,.5,0,1,0,1.5,0,.7,0,1.4,0,2.1,0,.4,0,.7,0,1.1,0,.4,0,.9,0,1.3,0,.3,0,.7,0,1,0,.3,0,.6,0,.9,0,.6,0,1.2,0,1.7,0,.4,0,.9,0,1.3,0,.5,0,1,0,1.4,0,.4,0,.7,0,1.1,0,.4,0,.9,0,1.3,0,.5,0,.9,0,1.4,0,.5,0,.9,0,1.4,0,.4,0,.8.1,1.1,0,0,.2.2.3.2,0,0,.2-.1.3-.2,0,0,0-.2,0-.3,0-2.3,0-4.6,0-6.9s0-3.1,0-4.7c0-1.6,0-3.1,0-4.7,0-.6,0-1.3,0-1.9,0-.2,0-.4,0-.5,0-.3,0-.4-.4-.4-.6,0-1.2,0-1.8-.2-1-.1-2-.2-2.9-.5-.4-.1-.8-.3-1.1-.5-.3-.2-.4-.5-.4-.8,0-.3.2-.5.5-.6.6-.2,1.3-.4,1.9-.6.3,0,.6,0,.9,0,.5,0,.9-.1,1.4-.2.3,0,.7,0,1.1-.1.4,0,.9,0,1.3,0,.7,0,1.4-.1,2.1-.2.2,0,.5,0,.7,0,.5,0,1,0,1.5,0,.5,0,1,0,1.5,0,0,0,.1,0,.2,0,0,0,0-.1,0-.2-.5-.8-1-1.5-1.5-2.3-.4-.7-.9-1.4-1.3-2-.3-.5-.6-1-.9-1.5-.1-.2,0-.3.2-.4.2,0,.3,0,.5,0,0,0,.1,0,.2,0,1.2,0,2.4,0,3.5,0,.8,0,1.5,0,2.3,0,.7,0,1.4,0,2.1-.1.1,0,.3,0,.4.2.7,1,1.3,2,2,2.9.6.9,1.3,1.9,1.9,2.8.1.1.2.3.5.3,1.9,0,3.8,0,5.6,0,.5,0,.9,0,1.4,0,.8,0,1.5,0,2.3,0,.5,0,1,0,1.5,0,.6,0,1.2,0,1.8,0,.8,0,1.5,0,2.3.1.7,0,1.4,0,2,.1.4,0,.8,0,1.2,0,.7,0,1.4.1,2.2.2.4,0,.9,0,1.3.1.7,0,1.3.2,2,.3.5,0,1.1.2,1.6.3.5.1,1,.2,1.5.4.4.2.4.3.3.7,0,.2-.2.3-.2.5,0,.5-.5.6-.9.7-.8.2-1.6.3-2.4.4-.4,0-.7,0-1.1.1-.8,0-1.5.1-2.3.2-.5,0-1,0-1.5.1-.7,0-1.5,0-2.2.1-.9,0-1.7,0-2.6.1-.7,0-1.4,0-2.1.1-.4,0-.8,0-1.3,0-2.3,0-4.6,0-6.9,0ZM65.2,51.6c-.2,0-.3-.1-.5-.1-.6-.1-1.1-.2-1.7-.3-.4,0-.8,0-1.2-.1-.7,0-1.5-.2-2.2-.3-.5,0-1,0-1.5-.1-.6,0-1.3-.1-1.9-.2-.9,0-1.8-.1-2.7-.2-.8,0-1.5,0-2.3-.1-.6,0-1.2,0-1.7,0-.8,0-1.5,0-2.3,0-.9,0-1.9,0-2.8,0-1.6,0-3.3,0-4.9,0,0,0-.1,0-.2,0,0,0,.1,0,.2,0,.7,0,1.4,0,2.1,0,0,0,.2,0,.2,0,0,0-.1,0-.2,0,0,0-.1,0-.2,0-.5,0-1,0-1.5,0-.2,0-.3,0-.5,0,0,.2.2.3.3.5,0,0,0,0,0,0,0,0,0,0,.1,0,.5,0,1,0,1.5,0,0,0,.2,0,.3.1,0,0-.2,0-.3,0-.8,0-1.5,0-2.3,0-1.2,0-2.3,0-3.5,0-1.2,0-2.4,0-3.6,0s-.6,0-.9,0c0,0-.2,0-.3-.1,0,0,.2,0,.3-.1,0,0,.1,0,.2,0,2.5,0,5,0,7.6,0,0,0,.1,0,.2,0,0,0,0-.1,0-.2-.5-.8-1.1-1.5-1.6-2.3-.4-.6-.9-1.2-1.3-1.9-.5-.7-1-1.5-1.5-2.2,0,0,0-.1,0-.2,0,0,.1,0,.2.1.5.7,1,1.5,1.5,2.2.8,1.2,1.6,2.4,2.5,3.5.2.3.4.6.7.9,0,0,0,0,.1,0,0,0,0-.1,0-.1-.2-.3-.3-.5-.5-.8-.9-1.2-1.7-2.5-2.6-3.7-.5-.8-1-1.5-1.6-2.3,0-.1-.2-.2-.4-.2-.2,0-.5,0-.7,0-.6,0-1.1,0-1.7,0-.8,0-1.5,0-2.3,0-1.1,0-2.2,0-3.4,0,0,0,0,0,0,0-.1,0-.3,0-.4,0,0,.1.1.2.2.4.6.9,1.1,1.7,1.7,2.6.9,1.4,1.8,2.7,2.7,4,0,0,0,.1,0,.2,0,0,0,0,0,.1,0,0,0,0,0,0-.1-.2-.2-.4-.4-.6,0-.1-.2-.2-.4-.2-.6,0-1.2.1-1.8.1-.5,0-1,0-1.5,0-.8,0-1.6,0-2.4.1-.5,0-.9,0-1.4.1-.7,0-1.4.1-2.1.2-.3,0-.6,0-.9.1-.5,0-1,.2-1.5.3-.3,0-.7.2-1,.3,0,0-.2.1-.3.2,0,0,.1.1.2.2.1,0,.3.1.4.2.4,0,.8.1,1.2.2.6.1,1.2.3,1.8.4.8.1,1.6.2,2.5.3.8,0,1.5.1,2.3.2.5,0,1,0,1.5.1.8,0,1.6.1,2.5.2.9,0,1.7,0,2.6,0,.4,0,.8,0,1.1,0,.7,0,1.4,0,2.1.1,1.3,0,2.6,0,3.9,0,.7,0,1.4,0,2.1,0,2,0,3.9,0,5.9,0,1,0,2,0,3-.1.4,0,.7,0,1.1,0,.6,0,1.2,0,1.9,0,.4,0,.8,0,1.2,0,.8,0,1.6-.1,2.5-.2.5,0,1,0,1.5-.1.7,0,1.3,0,2-.1.4,0,.9,0,1.3-.1.7,0,1.4-.2,2.1-.3.8-.1,1.5-.3,2.2-.6.3-.1.1-.2,0-.2-.2-.1-.5-.2-.8-.3ZM26.8,54c.6,0,1.1,0,1.7.1.7,0,1.5,0,2.2.1.9,0,1.9,0,2.8.1.5,0,.9,0,1.4,0,.8,0,1.7,0,2.5,0,3,0,6,0,9,0,.9,0,1.8,0,2.7,0,.6,0,1.3,0,1.9,0,1.2,0,2.5,0,3.7-.1.6,0,1.1,0,1.7,0,0,0,0,0,.1,0,.8,0,1.6-.1,2.3-.2.5,0,1,0,1.5-.1.9,0,1.7-.3,2.6-.3.8,0,1.5-.2,2.3-.4.2,0,.5,0,.7-.3,0,0,0-.1,0-.2,0,0-.1,0-.2,0-1,.4-2,.4-3,.6-.7.1-1.4.2-2.1.2-.7,0-1.5.2-2.2.2-.7,0-1.4,0-2.1.1-.5,0-.9,0-1.4,0-.6,0-1.2,0-1.8.1-.9,0-1.9,0-2.8.1-1.8,0-3.6,0-5.4,0-.2,0-.3,0-.5,0-2,0-4.1,0-6.1,0-.8,0-1.7,0-2.5,0-1.3,0-2.7,0-4.1,0-.8,0-1.5,0-2.3-.1-.5,0-1,0-1.4,0-.6,0-1.2,0-1.8-.1-.7,0-1.4-.1-2.2-.2-.5,0-1-.1-1.6-.2-.8,0-1.6-.2-2.4-.3-1,0-1.9-.3-2.8-.6,0,0,0,0,0,0,0,0,0,0,0,.1,0,0,0,.1.1.2.2.1.5.2.7.3.6.1,1.3.2,1.9.3.6.1,1.2.2,1.9.3.6,0,1.2.1,1.9.2.2,0,.5,0,.7,0,.8,0,1.6.1,2.5.2Z"/>
      <path class="cls-4" d="M24.7,50.3c0,.4-.6.8-1.3.8s-1.3-.4-1.3-.8-.2-1.6,1.4-1.3c1.5,0,1.3.8,1.3,1.3Z"/>
      <path d="M25.3,50c-.3.1-.4.4-.5.6-.2.4-.6.7-1.1.6-.5,0-1,0-1.4-.2-.2-.1-.4-.4-.4-.6,0-.4,0-.7.1-1.1,0-.3.4-.5.7-.5.6-.1,1.1,0,1.7.1.1,0,.2.2.3.2.1,0,.2.1.3,0,.2,0,.4-.2.6,0,.1.2,0,.5-.2.7,0,0,0,0,0,0ZM22,50.4c0,.1.2.3.3.4.5.3,1.1.3,1.7.2.5-.1.8-.7.6-1.1,0,0-.2-.2-.3-.2-.1,0-.3,0-.4,0-.5,0-.9-.1-1.4-.2-.1,0-.3,0-.3,0,0,.3-.2.5,0,.9ZM23.8,49.1c-.4,0-.8,0-1.2,0,0,0,0,0-.1,0,0,0,0,0,.1,0,.4,0,.9,0,1.3,0,.1,0,.3,0,.4,0-.1,0-.3-.1-.4-.2,0,0,0,0,0,0ZM25.2,49.5c-.1,0-.3.1-.4.2,0,.1,0,.3,0,.4,0,0,.1-.1.2-.2,0,0,.1-.1.2-.2,0,0,0-.2,0-.3Z"/>
      <path d="M22.7,52c-.3,0-.6,0-.8-.2-.1,0-.4,0-.2-.3,0-.2.3-.3.5-.2,0,0,0,0,.1.1,0,0,0,0-.1,0,0,0-.1,0-.2.1,0,0,0,0,.1,0,.5,0,1,.1,1.5,0,.3,0,.5,0,.8,0,.2,0,.3,0,.5,0,.1,0,.2,0,.3.1,0,0-.2.1-.3.1-.7,0-1.5,0-2.2.1Z"/>
      <path class="cls-2" d="M45.8,75.4c-.8,0-1.7-.1-2.5-.2-.4,0-.7,0-1.1,0-.6,0-1.1,0-1.7,0-.8,0-1.6,0-2.4-.1-.9,0-1.9,0-2.8,0-1.7,0-3.3,0-5,0-.5,0-1,0-1.5,0-.3,0-.7,0-1,0-.5,0-1,0-1.6,0-.9,0-1.8,0-2.7,0-.8,0-1.6,0-2.4,0-.6,0-1.3-.3-1.9-.4-.4,0-.6-.2-.8-.5-.3-.4,0-1,.4-1.2.4-.2.7-.3,1.2-.3.1,0,.2,0,.3,0,.4,0,.9,0,1.3,0,0,0,.2.1.2.2,0,.2,0,.1-.2.1-.3,0-.5,0-.8-.1-.2,0-.5,0-.7,0-.4,0-.7.2-1.1.3-.3,0-.4.3-.4.6,0,.3.2.4.4.5.6.2,1.1.3,1.7.5,0,0,0,0,0,0,1,0,1.9,0,2.9,0,.8,0,1.7-.1,2.5,0,1.6.1,3.1,0,4.7,0,.6,0,1.1,0,1.7,0,.3,0,.5,0,.8,0,1.8,0,3.6,0,5.4,0s1.4,0,2.2.1c.5,0,1.1,0,1.6.1.8,0,1.6.1,2.3.2.5,0,1.1,0,1.6.2.6,0,1.2.2,1.7.3.3,0,.6,0,.9.1.7,0,1.3.2,2,.2.4,0,.9,0,1.3,0,1.2,0,2.4.1,3.6.2.7,0,1.4,0,2.1-.1.6,0,1.2,0,1.7-.1.7,0,1.4-.2,2-.3.6,0,1.1-.2,1.7-.4.4-.1.8-.4,1.1-.6.6-.5.4-1.1-.1-1.4-.6-.4-1.3-.7-2.1-.8-.5,0-.9-.1-1.4-.2,0,0-.1,0,0-.1,0,0,0-.1.1-.1.4,0,.9,0,1.3.1.3,0,.7,0,1,.2.6.3,1.3.5,1.7,1.1.4.5.2,1-.1,1.3-.5.6-1.2.8-1.9,1-.7.2-1.5.3-2.2.4-.4,0-.8,0-1.2.1-.8,0-1.6,0-2.4.1-1,0-1.9.2-2.9,0-1,0-2-.1-2.9-.1-.6,0-1.2,0-1.9-.2-.6,0-1.1-.2-1.7-.3-.4,0-.7,0-1.1-.1-.4,0-.7-.1-1.1-.2Z"/>
      <path class="cls-2" d="M60.8,73c0,.2,0,.4,0,.5,0,.3-.2.4-.5.4-.3,0-.4-.2-.4-.4,0-.6,0-1.1,0-1.7,0-.5,0-.9,0-1.4,0-.6,0-1.1,0-1.7v-.2c0-.7,0-1.3,0-2,0-.4,0-.7,0-1.1,0-1.7,0-3.5,0-5.2v-5.7c0,0,0-.1,0-.2,0,0,.1,0,.2-.1,0,0,0,0,0,.1,0,.6,0,1.2,0,1.8,0,.4,0,.8,0,1.3,0,.6,0,1.2,0,1.9,0,.2,0,.5,0,.7,0,.2,0,.4,0,.5,0,3.2,0,6.3,0,9.5s0,2.2,0,3.3c0,.1,0,.2.2.3.2,0,.2,0,.3-.2,0,0,0-.1,0-.2,0-.4,0-.7,0-1.1,0-2.8,0-5.6,0-8.4,0-.3,0-.6,0-.9,0-.4,0-.8,0-1.2,0-.4,0-.7,0-1.1,0-1,0-1.9,0-2.9,0-.4,0-.8,0-1.2,0-.6,0-1.3,0-1.9,0-.1,0-.3.1-.3.1,0,.2,0,.1.3,0,0,0,.1,0,.2,0,.4,0,.9,0,1.3,0,.3,0,.7,0,1,0,.2,0,.5,0,.7,0,.1,0,.3,0,.4,0,1,0,2,0,3,0,.4,0,.7,0,1.1s0,.7,0,1.1c0,1.7,0,3.4,0,5.1,0,.5,0,1,0,1.5,0,1,0,1.9,0,2.9Z"/>
      <path class="cls-2" d="M38.5,72.4c-.7,0-1.4,0-2.1,0-.7,0-1.4,0-2.1.1-.8,0-1.7,0-2.5.1-.6,0-1.1,0-1.7,0-.9,0-1.7.2-2.6.3,0,0-.1,0-.2,0-.8,0-1.7,0-2.5,0-.4,0-.8,0-1.1-.2,0,0-.1-.1-.2-.2,0,0,.1-.1.2,0,.3,0,.5,0,.8.1,0,0,.2,0,.2,0,.6,0,1.1,0,1.7,0,1,0,2-.1,3-.2,0,0,0,0,.1,0,.6,0,1.1,0,1.7,0,.8,0,1.5,0,2.3-.1,1.4-.2,2.8-.2,4.2-.2,1.8,0,3.6,0,5.4,0,.8,0,1.6.1,2.4.1.9,0,1.7,0,2.6,0,.7,0,1.4,0,2-.1,1.1,0,2.2,0,3.3-.1.8,0,1.6-.1,2.3-.2.4,0,.8,0,1.2,0,.9,0,1.7-.1,2.6-.2.2,0,.2,0,.1.2,0,0,0,0-.1,0-.5,0-1,0-1.5,0-1,0-2,0-3,.1-.7,0-1.3.1-2,.1-.3,0-.5,0-.8,0-.9,0-1.7,0-2.6,0-.9,0-1.7,0-2.6.1-.3,0-.7,0-1,0-.6,0-1.3,0-1.9,0-1.9-.3-3.7,0-5.6-.2Z"/>
      <path class="cls-4" d="M40.3,25.7h1.9v12.9h-1.7l-.2-12.9Z"/>
      <path class="cls-2" d="M40.3,36.8c0-.1,0-.2,0-.4,0-2.1,0-4.2,0-6.3,0-.3,0-.7,0-1,0-1.1,0-2.2,0-3.3,0-.2,0-.3.3-.3.5,0,.9,0,1.4,0,.3,0,.4,0,.4.4,0,.5,0,1.1,0,1.6v5.5c0,.7,0,1.3,0,2,0,1.1,0,2.2,0,3.4,0,.3-.2.3-.3.3-.4,0-.8,0-1.2,0-.3,0-.5-.2-.4-.5,0-.3,0-.7,0-1,0-.1,0-.3,0-.4ZM40.5,27.9c0,.7,0,1.3,0,2,0,1.9,0,3.9,0,5.8,0,.3,0,.6,0,.9,0,.6,0,1.1,0,1.7,0,.2,0,.3.2.2.3,0,.5,0,.8,0,.5,0,.5,0,.5-.5v-6.9c0-1.5,0-3,0-4.5,0-.1,0-.3,0-.4,0-.3,0-.3-.3-.3-.4,0-.7,0-1.1,0-.2,0-.3,0-.3.3,0,.3,0,.5,0,.8,0,.3,0,.6,0,1Z"/>
      <path class="cls-4" d="M35.8,28.1h1.5l.2,10.4h-1.7v-10.4Z"/>
      <path class="cls-2" d="M35.8,28c.1,0,.2,0,.3,0,.4,0,.8,0,1.1,0,.2,0,.3,0,.3.3,0,.6,0,1.2,0,1.8,0,.4,0,.7,0,1.1,0,.1,0,.3,0,.4,0,1.4,0,2.8,0,4.3,0,.9,0,1.7,0,2.6,0,.3-.1.4-.4.4-.4,0-.8,0-1.2,0-.2,0-.2,0-.2-.2,0-2.6,0-5.1,0-7.7,0-.4,0-.8,0-1.2,0-.4,0-.9,0-1.3,0,0,0-.2.2-.2ZM35.9,30.9c0,.9,0,1.7,0,2.6,0,1.6,0,3.2,0,4.8,0,0,0,0,0,.1,0,0,0,.1.2.1.3,0,.7,0,1,0,.2,0,.3,0,.3-.3,0-.2,0-.4,0-.5,0-1.4,0-2.8,0-4.2,0-.6,0-1.2,0-1.7,0-.5,0-1,0-1.5,0-.6,0-1.3,0-1.9,0-.2,0-.2-.2-.2-.3,0-.6,0-.9,0-.2,0-.2,0-.2.2,0,.4,0,.8,0,1.2v1.3Z"/>
      <path class="cls-4" d="M31.3,31.2h1.5l.2,7.4h-1.7v-7.4Z"/>
      <path class="cls-2" d="M33,35c0,1,0,1.9,0,2.8,0,.2,0,.4,0,.6,0,.3-.2.3-.3.3-.4,0-.9,0-1.3,0-.2,0-.3,0-.3-.3,0-.5,0-1,0-1.4,0-1.9,0-3.8,0-5.7,0-.3,0-.4.4-.4.4,0,.8,0,1.2,0,.2,0,.3,0,.3.3,0,.3,0,.7,0,1,0,.9,0,1.8,0,2.7ZM32.8,33.5c0-.3,0-.6,0-.8,0-.4,0-.8,0-1.2,0-.2,0-.3-.3-.3-.3,0-.6,0-.8,0-.2,0-.3,0-.3.3,0,1.4,0,2.8,0,4.2,0,.8,0,1.6,0,2.5,0,.2,0,.3.2.3.3,0,.6,0,1,0,.2,0,.3,0,.3-.3,0-.8,0-1.5,0-2.3,0-.8,0-1.6,0-2.4Z"/>
      <path class="cls-4" d="M23.1,37.3c.5.2.9.3,1.2.7.5.5.6,1.2.5,1.9-.2,1-.7,1.9-1.2,2.9-.1.3-.3.6-.5.8-.2.3-.4.7-.4,1.1,0,.5-.1,1-.1,1.5,0,.5,0,1,.3,1.5,0,0,0,.1,0,.2,0,0-.1,0-.2-.1-.3-.4-.4-.9-.4-1.3,0-.7,0-1.4.2-2.1,0-.3.2-.5.4-.7.7-1.1,1.3-2.2,1.6-3.4,0-.4.2-.8,0-1.3-.2-.6-.7-1-1.3-1.1-.5-.1-.9-.2-1.4-.2-.8,0-1.7,0-2.5,0-.7,0-1.5,0-2.2-.3-.5-.2-.7-.5-.8-1,0,0,0-.1.1-.2,0,0,.2.2.2.2,0,.3.3.6.6.7.4.1.7.2,1.1.2,1.1,0,2.2,0,3.3,0,.5,0,1,.1,1.5.2Z"/>
      <path class="cls-4" d="M15.2,39.5c-.3-.1-.5-.3-.5-.6,0,0,0-.1,0-.2,0,0,.1,0,.2,0,0,0,0,.2.2.3.3.4.8.3,1.2.3.5,0,.9-.1,1.4-.2.8-.1,1.6-.3,2.3-.4.7-.1,1.3,0,1.9.4.5.3.7.8.7,1.3,0,1.2-.3,2.3-.7,3.4-.2.6-.3,1.1-.2,1.7,0,.8.2,1.7.8,2.4,0,0,0,0,0,.1,0,0,0,.1,0,.2,0,0-.1,0-.2,0-.4-.6-.7-1.3-.8-2,0-.3,0-.5-.1-.8,0-.8.2-1.5.5-2.2.2-.4.3-.9.4-1.3,0-.4.1-.9.1-1.3,0-.5,0-.9-.5-1.2-.2-.2-.5-.3-.8-.4-.7-.2-1.4,0-2,0-.8.1-1.6.3-2.3.4-.5,0-1,0-1.5,0Z"/>
      <rect class="cls-4" x="26.6" y="33.2" width="1.7" height="5.3"/>
      <path class="cls-2" d="M26.5,35.6c0-.7,0-1.3,0-2,0-.4.1-.5.6-.5s.8,0,1.2,0c.2,0,.3,0,.3.3,0,1.6,0,3.3,0,4.9,0,.3,0,.4-.4.4-.4,0-.9,0-1.3,0-.2,0-.3,0-.3-.3,0-.9,0-1.9,0-2.8ZM28.1,38.4c0,0,.1-.1.1-.2,0-.2,0-.3,0-.5,0-.3,0-.7,0-1,0-1.1,0-2.1,0-3.2,0-.2,0-.3-.3-.3-.4,0-.7,0-1.1,0,0,0-.1,0-.2.2,0,.4,0,.8,0,1.2,0,.4,0,.9,0,1.3,0,.7,0,1.4,0,2.1s0,.4.4.4c0,0,0,0,.1,0,.3,0,.5,0,.8,0Z"/>
      <path class="cls-3" d="M31.6,47.9c-.2,0-.3-.2-.2-.3.3-.4.6-.8.9-1.1,0,0,.1,0,.2,0,0,0,0,.2,0,.2-.1.3-.2.5-.4.8,0,.1,0,.1.1.1,0,0,.1,0,.2,0,0,0,.1,0,.2,0,0,0,0,0,0,.1-.3.4-.7.9-1,1.3,0,0,0,0-.1,0,0,0,0-.1,0-.1,0-.3.2-.5.2-.8,0-.1,0-.2,0-.3Z"/>
      <path class="cls-2" d="M32.7,44.8c0,0,.1,0,.2,0,0,0,0,.1,0,.1-.4.4-.7.8-1.1,1.2,0,0-.1,0-.2,0,0,0,0-.2,0-.2.1-.2.2-.3.3-.5.2-.3.5-.5.7-.8Z"/>
      <path class="cls-2" d="M30.2,49.5c-.2,0-.2,0-.1-.1.2-.2.3-.5.5-.7,0,0,.1,0,.2,0,0,0,0,.2,0,.2-.2.2-.3.5-.5.7Z"/>
      <path class="cls-4" d="M44.9,58.5l1,2.7,1.6-1-.5-2,1.5-1,.6-3h4.6l-1.1,6.6-.4,3.4-.2,3.2.7.7.9.4h1.2l.8-.2,1.5-3.1,1.2-3.2,1.7-6.2.9-.5s.9-2.6.9-3.9.6-5.3-.2-8.1c-.7-2.4-2.9-5.6-2.9-5.6l-1.5-1.6.2-5.2-4.8-.6-.8,2.2s.4,1.9,1.1,2.6c.4.5,1.3.4,1.3.4l.6,2.7-.6,1.1-1.4,3.6-.2,3.1-4.3,1.2,1.8,1-6.7,1s-1.5.7-1,3.6c.5,2.9,1.7,5.5,1.7,5.5l1,.3Z"/>
      <path class="cls-6" d="M59.3,56.1c.6-.3,1.1-.4,1.5-.9,1-1.3,1-11.8.6-11.6-.5.2-.4,2.2-.3,2.7.4,2.1-.7,7.1-.8,7.3,0,1.1-1.6,1.5-2.5,1.9-.5.2-1.2.3-1.2.5,0,.2.4.5.7.4.7,0,1.6,0,2.2-.4Z"/>
      <path class="cls-6" d="M54.4,67.3c-.1.4-.2.7-.2,1.1.2.1.5.2.7.1,0,0,.1,0,.2,0,0,0,.1,0,.2-.1.1-.1.2-.2.3-.4.3-.5.7-1.1.9-1.6,0-.2.2-.5.4-.7h0c0-.1,0-.3.2-.4,0-.1,0-.2.1-.4,0-.3.2-.5.3-.8,0-.2.2-.5.2-.7,0-.2.2-.5.2-.7,0-.1,0-.3,0-.4,0-.1-.2,0-.3,0-.3.2-.5.4-.6.7-.2.4-.4.8-.8,1.1-.3.3-.6.7-.9,1.1-.3.4-.6.8-.7,1.2,0,.1-.1.3-.2.4,0,.1,0,.3-.1.4Z"/>
      <path class="cls-4" d="M45.4,62.5c-1.1,1-2.9,2.5-2.1,3.8.6,1.1,2.7-.8,3.9-1.9,1.2-1,2.4-2.7,1.9-3.3-.7-.8-2.6.4-3.7,1.4Z"/>
      <path class="cls-1" d="M51.8,29.9c.2-.1.4-.3.6-.4.1,0,.2,0,0,.2-.4.2-.8.5-1,.9,0,0,0,.1,0,.2,0,0,0,0,0,0,0,0,0,0,0,0,0,0,.1,0,.2,0,0,0,.2-.1.3-.2,0,0,.1,0,.2-.1,0,0,0,0,.1,0,0,0,0,0,0,0,0,0,0,0,0,0-.1.2-.2.4-.3.6-.1.4-.3.7-.6,1-.2.2-.2.5,0,.7.1,0,.6,0,.7,0,0,0,0,0,0,0h0s0,0,0,0c0,0,0,0,0,0,0,0,0,0,0,0,0,0,0,0-.1,0,0,0-.1,0-.2,0,0,0-.1,0-.2,0,0,0,0,0,0,0,0,0,0,0,0,0h0c0,0,0-.1,0-.2,0,0,0,0,.1-.1,0,0,.1-.1.2-.2.2-.4.4-.9.5-1.3,0-.2.2-.3.4-.3,0,0,.1,0,.2,0,.2,0,.4,0,.6,0,1,.3,1.6.9,1.7,2.1,0,.1,0,.2,0,.3,0,0,0,.2,0,.2,0,0,0,0,0,.1h0s0,0,0,0c0,0,0,0,0,0,0,0,0,0,.1,0,0,0,0,0,0-.1h0s0,0,0,0c0,0,0,0,.1-.1,0-.1.2-.2.3-.3.1,0,.3-.1.5-.1.1,0,.2.2.2.4,0,.3-.1.5-.3.7h0c-.2.2-.4.5-.3.7,0,.4.2.8.4,1.2h0c0,.2.2.4.2.6,0,0,0,.3,0,.3-.5.5-.9,1-1.4,1.4h0c-.1.1-.2.2-.3.3,0,0,0,0,0,0,0,0,0,0,0,0,0,0,0,0,0,0,0,0,0,0,0,0-.1-.8-.3-1.7-.7-2.4,0,0,0-.2,0-.2.5-.1.9-.3,1.3-.6,0,0,0,0,0-.1,0,0,0,0,0,0,0,0,0,0,0,0,0,0,0,0-.1,0-.1,0-.2.1-.4.2-.2,0-.3.2-.5.2-.9.3-1.6.1-2.1-.7-.1-.3-.2-.6-.3-.9,0-.2,0-.3-.1-.4,0,0,0,0,0-.1,0,0,0,0,0,0,0,0,0,0,0,0,0,0,0,.1,0,.1,0,.4.2.7.3,1.1.2.6.6,1,1.1,1.2,0,0,.2,0,.2.2,0,.2,0,.4,0,.5-.2.7-.6,1.2-1,1.7h-.1c0,.1,0,.1,0,.1h0c-.3.3-.6.7-.8,1.1-.1.2-.2.4-.1.6.2.4.6.4,1,.3.6-.1,1.1-.5,1.5-.9,0,0,0,0,0,0,0,0,0,0,0,0,0,0,0,0,0,0,0,0,0,0,0,.1,0,.2,0,.4-.1.6,0,.1,0,.3-.1.4,0,0-.1.2-.2.2,0,.1-.2.3-.2.4-.2.7-.4,1.3-.6,2-.3.9-.5,1.9-.4,2.8,0,0,0,.2,0,.2,0,0-.1,0-.2,0h0c-.2,0-.4.2-.6.2-.3,0-.6,0-1,.1-.2,0-.4.1-.7.2,0,0,0,0-.1,0-.1,0-.3,0-.4,0-.2,0-.4,0-.6.1-.1,0-.3.2-.3.2,0,.1,0,.1-.1.1h0c-.1,0-.3,0-.4,0-.4,0-.8,0-1.2-.1-.3,0-.5,0-.8-.1-.3,0-.5,0-.8-.1-.2,0-.4,0-.7,0h0s0,0,0,0c-.2,0-.3,0-.5,0-.2,0-.3,0-.5,0-.3,0-.6,0-.9,0-.1,0-.3.1-.4.2,0,.2.1.3.3.3.5,0,1,.1,1.5.2.6,0,1.3.1,1.9.2.5,0,1,0,1.4,0h0c.4,0,.9,0,1.3,0,.2,0,.4,0,.6,0h0c.2,0,.3,0,.5,0,.1,0,.3,0,.4,0,0,0,0,0,.1,0,0,0,0,0,0,0,0,0,0,0,0,0,0,0-.1,0-.2,0-.3,0-.6,0-.9,0h0c-.2,0-.3,0-.5,0,0,0,0,0,0,0,0,0,0,0,0,0,0,0,0,0,0,0,0,0,0,0,0,0h0s0,0,0,0c.2,0,.5-.1.7-.2,0,0,.2,0,.3,0,.4,0,.7-.1,1-.3,0,0,0,0,0,0,0,0,.1,0,.2,0h0c.3,0,.6,0,.8,0,.1,0,.4.3.3.5,0,.2,0,.4-.1.6,0,0,0,.2-.1.2,0,0-.2,0-.3,0h0s0,0,0,0h0c-.4,0-.7.2-1.1.2-.3,0-.6,0-.9,0-.2,0-.3,0-.5,0,0,0-.1,0-.2,0,0,0,0,0,0,0,0,0,0,0,0,0,0,0,.1,0,.2,0,.2,0,.3,0,.5,0,.1,0,.3,0,.4,0,.4,0,.7,0,1,0,.4,0,.8-.1,1.2,0,.1,0,.3,0,.4,0,.2,0,.4,0,.6,0h0c.9.2,1.8.4,2.8.4.3,0,.4.1.4.4,0,.2,0,.4,0,.6h0c0,.7,0,1.3,0,2,0,.4,0,.8,0,1.2,0,.3,0,.6,0,.9,0,.8,0,1.6-.1,2.4,0,.1,0,.2.1.3.3.3.7.4,1.2.3h.1c.7-.2,1.3-.3,2-.7,0,0,.1,0,.2,0,0,0,0,0,0,0,0,0,0,0,0,0h0s0,0,0,.1c0,0,0,0,0,0,0,0,0,0,0,0,0,.3-.1.5-.2.8-.1.6-.2,1.1-.4,1.7-.3,1.1-.6,2.2-1,3.2,0,.3-.2.5-.3.8-.1.3-.2.6-.3.9-.4,1.5-1.1,2.8-1.9,4.1-.3.5-.7.6-1.2.6-.3,0-.5,0-.8,0,0,0-.1,0-.2,0-.6,0-1.3-.5-1.3-1.3,0-.4,0-.9,0-1.3h0c0-.3,0-.7,0-1,0,0,0,0,0,0,0,0,0,0,0,0,0-.1,0-.3,0-.4h0c0-.4.1-.9.2-1.3,0-.1,0-.3,0-.5,0-.2,0-.4,0-.6.1-.7.3-1.4.4-2.1h0c0-.3.1-.6.2-.9,0-.2,0-.4.1-.7.1-.6.2-1.3.4-1.9,0-.4.1-.8.2-1.2,0-.2,0-.3,0-.5,0,0,0-.1,0-.2h0c0-.1,0-.2,0-.4,0-.2.1-.4.2-.7,0-.1,0-.3.1-.4,0,0,0,0,0,0,0,0,0,0,0,0,0,0,0,0,0,0,0,0,0,0,0,0h0c0,0-.1.1-.1.2,0,.3-.2.5-.2.8,0,.2-.1.3-.3.3,0,0-.2,0-.2,0h0s0,0,0,0c-.4,0-.8.1-1.3,0-.4,0-.8,0-1.3,0-.2,0-.3,0-.5,0,0,0-.1,0-.2,0,0,0-.1,0-.2,0,0,0,0,0-.1,0-.2,0-.3,0-.5,0,0,0,0-.1,0-.2,0,0,0-.1,0-.2,0,0,0,0,0,0,0,0,0,0,0,0,0,0,0-.1-.1-.2h0s0,0,0,0c0,0,0,.1,0,.2,0,.2,0,.5,0,.7,0,.5,0,.9-.2,1.3,0,.1,0,.3-.1.4,0,.2-.2.3-.4.2-.5,0-1-.2-1.5,0-.2,0-.3,0-.5,0-.3,0-.5,0-.8.2-.5.2-.9.4-1.4.6-.2.1-.3.1-.4,0,0-.2-.2-.4-.2-.6-.2-.5-.4-1-.6-1.4,0-.2-.1-.5-.2-.8,0-.1,0-.3,0-.4,0,0,0-.2,0-.3h0c-.2-1-.4-1.9-.3-3,0-.7.5-1.2,1.1-1.4.9-.3,1.9-.5,2.8-.6h0c0,0,.1,0,.2,0,.4,0,.8-.1,1.3-.2h0s0,0,0,0c.3,0,.5,0,.8-.1,0,0,0,0,0,0,0,0,0,0,0,0,0,0,0,0,0,0,0,0,0,0,0,0,0,0,0,0,0,0-.2,0-.4,0-.7,0-.4,0-.8.1-1.2.2,0,0-.2,0-.3,0,0,0-.2,0-.3,0-.4,0-.8.1-1.2.2-.2,0-.5.1-.7.2h0c-.2,0-.3,0-.5.1-.7.1-1.2.5-1.5,1.1-.2.3-.2.6-.2,1,0,.4,0,.8,0,1.2,0,.3,0,.6.1.9,0,.3.1.5.2.8,0,.1,0,.3,0,.4,0,0,0,.2,0,.3,0,.2,0,.4.1.6.1.4.3.7.4,1.1,0,.2.2.4.3.6,0,0,0,.2.1.3.1.3.3.5.2.9,0,0,0,.1,0,.2,0,0,0,0,0,0,.2.3.5.3.8.3,0,0,0,0,0,0,.2,0,.3,0,.3.2,0,.2.2.4.2.7,0,.2.1.4.2.6,0,.2.1.3.2.5,0,.2.2.4.2.6,0,.2.2.2.3.1.2-.1.4-.3.6-.4h0c.3-.2.5-.3.8-.5,0,0,.1-.2.1-.2,0-.3-.2-.6-.2-.9h0s0,0,0,0c0-.1,0-.2-.1-.4,0,0,0-.1,0-.2,0-.2-.1-.3-.1-.5s.1-.2.3-.3c0,0,.2,0,.3-.1,0,0,0,0,.1,0,0,0,0,0,0,0,.4-.2.8-.5.9-1,0-.3.1-.6.2-.8.1-.4.2-.8.2-1.3,0,0,0-.1,0-.1.3,0,.6,0,.9,0,.2,0,.5,0,.7,0h0c.3,0,.6,0,.9,0,.2,0,.3,0,.5,0,.4,0,.7,0,1.1-.1,0,0,.3,0,.2.1,0,.2,0,.4,0,.6h0c0,.4-.1.8-.2,1.3,0,.4-.2.9-.2,1.3h0s0,0,0,0c0,.2,0,.4-.1.5,0,.1,0,.3,0,.4,0,.3-.1.5-.2.8h0c0,.5-.1.9-.2,1.2,0,.7-.2,1.3-.3,2,0,0,0,.2,0,.3,0,.1,0,.3,0,.4-.2.7-.2,1.3-.2,2,0,.3,0,.5,0,.8,0,.2,0,.4,0,.5,0,0,0,.2,0,.2,0,.2,0,.4,0,.6.2.6.7.9,1.3,1,.5.1,1,.2,1.5.1.4,0,.7-.2,1-.5.3-.5.6-1,.9-1.6.4-.9.8-1.8,1.1-2.7.2-.4.3-.8.4-1.2h0c0-.2.1-.4.2-.6,0-.2.1-.4.2-.6h0c.1-.4.2-.7.4-1.1.1-.5.3-.9.4-1.4.2-.7.3-1.3.5-2,0,0,0-.1,0-.2,0-.2.1-.4,0-.6,0-.2,0-.2.1-.3,0,0,0,0,.1,0,.3-.1.7-.3.8-.7,0,0,0,0,0-.1h0c0-.2.1-.4.2-.5,0,0,0-.2,0-.3,0-.3.2-.6.2-1,0-.6.1-1.2.2-1.8,0-.8,0-1.6,0-2.3,0-.2,0-.4,0-.6,0-.1,0-.3,0-.4,0-.3,0-.6,0-.9h0c0-.6,0-1.3,0-1.9,0-.6-.1-1.3-.2-1.9-.2-.9-.4-1.8-.8-2.6,0,0,0-.1-.1-.2-.4-.7-.8-1.4-1.2-2.1-.3-.5-.7-.9-1.1-1.2-.1-.1-.3-.2-.4-.3-.3-.2-.5-.4-.7-.7,0,0,0-.1,0-.2,0,0,0,0,.1,0,.5,0,.9-.3,1.3-.7.6-.6,1-1.4,1.2-2.2,0,0,0,0,0-.1h0c.1-.5.2-1,.1-1.6-.2-.9-.6-1.7-1.3-2.3-1-1-2.2-1.3-3.6-1,0,0-.1,0-.2,0,0,0-.1,0-.2,0,0,0-.2,0-.3,0-.3,0-.7,0-1,0-.3,0-.6.1-.8.2h0s0,0-.1,0c0,0,0,0-.1.1,0,0,0,0,0,0,0,0,0,0,0,0,0,0,.1,0,.2,0,.1,0,.3,0,.4,0,0,0,.2,0,.3,0,0,0,0,0,.1,0,0,0,0,0,0,0,0,0,0,0,0,0,0,0,0,0,0,.1,0,0-.2,0-.3.1-.2,0-.3.2-.5.2,0,0-.1,0-.2.1-.2.1-.5.3-.6.6,0,0,0,0,0,.1,0,0,0,0,0,0,0,0,0,0,0,0,0,0,0,0,.1,0ZM57.7,37.5c-.4.6-.8,1.1-1.1,1.8-.5,1-.7,2.1-.7,3.2,0,.4,0,.7.1,1.1h0c0,.2,0,.4,0,.5,0,.1,0,.2,0,.4h0c0,.2,0,.4,0,.6,0,0,0,0,0,.1,0,0,0,0,0,0,0,0,0,0,0,0,0,0,0-.1,0-.2,0-.2,0-.5,0-.7,0-.1,0-.3,0-.4,0-.2,0-.4,0-.6,0-.5,0-1,0-1.4,0-.8.2-1.5.5-2.1,0,0,0-.1,0-.2h0s0,0,0,0c.1-.3.2-.6.4-.8.2-.3.4-.6.6-.9.2-.2.3-.3.5,0,0,0,0,0,0,.1.3.4.7.9.9,1.4.2.4.4.8.6,1.2h0c.2.3.4.7.6,1.1.1.3.2.6.3.9,0,0,0,.1,0,.2.1.5.2.9.3,1.4,0,0,0,.2,0,.3h0c0,.3.1.7.1,1,0,.5,0,1,0,1.5h0c0,.3,0,.6,0,.9,0,.3,0,.6,0,.9h0c0,.6,0,1.1,0,1.7,0,.4,0,.8-.1,1.3,0,.4,0,.8,0,1.1,0,.6-.2,1.1-.3,1.6,0,.2-.1.4-.2.6,0,.3-.3.6-.7.7-.2,0-.5.2-.7.3h0c-.2.1-.5.2-.7.3-.3.1-.7.2-1,.2,0,0-.2,0-.3,0-.2,0-.3,0-.5,0-.4-.1-.5-.2-.5-.7,0-.9,0-1.8.1-2.8,0-.3,0-.6,0-.9,0-.2,0-.4,0-.7,0,0,0-.1,0-.2h0c0-.3,0-.7,0-1,0-.4,0-.7-.1-1,0-.3,0-.4.4-.4.8.1,1.5,0,2.2-.3.4-.3.6-.7.7-1.2,0-.2,0-.5,0-.7,0-.2,0-.4,0-.7.2-.9.2-1.9.2-2.8,0-.3,0-.5,0-.8,0,0,0,0,0-.1h0s0,0,0,0c0,0,0,0,0,0,0,0,0,0,0,.1,0,.1,0,.2,0,.4h0s0,0,0,0c0,0,0,0,0,0,0,.2,0,.4,0,.6,0,.4,0,.8,0,1.3,0,.3,0,.6-.1.9,0,.2,0,.4,0,.6,0,.2,0,.3,0,.5,0,.2,0,.3,0,.5,0,.5-.2.9-.7,1.2-.3.2-.6.2-1,.2-.4,0-.8,0-1.2,0-.2,0-.3,0-.5,0,0,0-.2,0-.3,0h0c-.2,0-.4,0-.6,0-.4,0-.8-.1-1.2-.2-.2,0-.4,0-.6,0,0,0-.2,0-.3,0h0c-.3,0-.5,0-.8-.1-.2,0-.2-.2-.2-.3,0,0,0-.2,0-.3,0-.1,0-.2,0-.3,0-.2,0-.5-.3-.6-.2-.1-.2-.1,0-.2.2,0,.4-.2.6-.2.8,0,1.6,0,2.4,0,.4,0,.9,0,1.3.2.1,0,.3,0,.4,0,0,0,0,0,.1,0,0,0,0,0,0,0,0,0,0,0,.1,0,0,0,0,0,0-.1,0-.3,0-.7,0-1,0,0,0-.2,0-.3,0-.1,0-.2,0-.3,0-.3,0-.6,0-.9h0c0-.2,0-.3,0-.5,0-.1,0-.2,0-.4,0-.3,0-.5,0-.8,0-.4,0-.7.1-1.1,0-.1,0-.3,0-.4,0,0,0-.1,0-.2h0c0-.2,0-.3,0-.5,0-.3.3-.6.6-.6.1,0,.2,0,.3,0,0,0,.1,0,.2,0,0,0,.1,0,.2,0,0,0,0,0,0,0,0,0,0,0,0-.1,0,0,0-.2-.2-.2-.5-.2-1.1-.2-1.4.5-.1.3-.3.7-.3,1.1,0,.1,0,.2,0,.3,0,.6-.2,1.2-.1,1.8,0,.4,0,.8,0,1.2,0,.4,0,.8,0,1.2,0,.1,0,.2,0,.4,0,0,0,.2,0,.2,0,0,0,0,0,0-.1,0-.2,0-.3,0-.2,0-.4-.1-.6-.1-.9,0-1.9,0-2.8,0-.3,0-.3,0-.3-.3,0-1.1.3-2,.6-3,0,0,0,0,0,0,0,0,0,0,0,0,0,0,0-.1,0-.2,0,0,0,0,0,0,0,0,0,0,0,0,0,0,0,0,0,.1,0,.1,0,.3-.1.4-.1.4-.3.7-.3,1.1,0,.4-.1.8-.2,1.2h0c0,.2,0,.4,0,.5,0,0,0,0,0,0,0,0,0,.2-.1.2,0,0-.1-.2-.1-.3,0-.1,0-.3,0-.4,0-.6.2-1.1.3-1.7.1-.6.3-1.2.5-1.8h0c0-.1,0-.3.1-.4,0-.1.1-.2.2-.3h0s0,0,0,0c0,0,0,0,0-.1.1-.2.2-.4.3-.5h0c0-.2,0-.2.1-.3,0,0,0,0,0,0,0,0,0,0,0,0,0,0,0,.1.1.2,0,0,0,.2,0,.3,0,.1,0,.2,0,.4,0,.1.1.3.2.3.1,0,.3,0,.4-.2.5-.6.9-1.2,1.4-1.9.1-.2.2-.3.4-.5,0,0,0,0,0-.1,0,0,0,0,0,0,0,0,0,0,0,0,0,0,0,0,0,0,0,0,0,0,0,0h0c-.2.3-.4.6-.6.9-.2.3-.5.6-.7.9-.1.2-.2.3-.4.5,0,0,0,0,0,0,0,0,0,0,0,0,0,0,0,0,0,.1,0,0,0,0,0,0,0,0,0,0,0,0,0,0,0-.1,0-.2,0-.3,0-.6-.2-.9,0,0,0,0,0,0,0,0-.1-.2-.3-.1,0,0,0,0,0-.1,0-.3,0-.5.3-.7.4-.3.8-.5,1.1-.9.3-.3.6-.6.8-.8.1-.1.2-.3.4-.4,0,0,0,0,0,0,0,0,0-.1.2,0,.1.2.3.3.4.4,0,0,.1.1.2.2h0c.1,0,.2.2,0,.3ZM46.1,56.7h0c0,0,.2,0,.2.1.2.6.4,1.2.6,1.8v.2c0,0,.1.1.1.2,0,.3.2.5.2.8,0,.2,0,.3-.2.5-.2.1-.4.3-.6.5-.1,0-.2.2-.3.3-.1.1-.2,0-.2,0,0,0,0,0,0,0-.1-.3-.2-.7-.3-1,0,0,0-.1,0-.2,0-.2-.1-.3,0-.4.1-.1.3-.2.5-.3,0,0,.1,0,.2-.1,0,0,0,0,0,0,0,0,0,0,0,0,0,0,0,0,.1-.1,0,0,0,0,0,0,0,0,0,0,0,0,0,0-.1,0-.2,0-.2.1-.5.2-.7.4-.2.1-.2.1-.3,0h0c-.2-.6-.4-1.1-.6-1.6,0,0,0,0,0,0,.4-.3.9-.4,1.4-.5ZM47,57.8c0,0,0-.1,0-.1,0-.2,0-.3-.1-.4,0,0,0-.2,0-.2,0-.3,0-.4.3-.4.3,0,.6,0,.8,0,.2,0,.4,0,.5,0,.2,0,.1,0,0,.2h0c-.3.4-.7.6-1.1.9,0,0-.1,0-.2,0-.1,0-.2,0-.2,0ZM43.9,58.2c-.1-.2-.2-.3,0-.5.2-.1.3-.2.5-.3,0,0,0,0,0,0,0,0,0,0,0,0,0,0,0,0,0,0,0,0,0,0,0,0,0,0,0,.1,0,.2,0,.2,0,.3,0,.5,0,.2,0,.2-.1.2,0,0,0,0,0,0-.2,0-.3,0-.5-.2Z"/>
      <path class="cls-2" d="M52.3,75c0,0,.1,0,.2,0,.2,0,.4,0,.6,0,.2,0,.4,0,.5-.3.2-.7.5-1.4.7-2.1,0,0,0,0,0,0,0,0,.1-.2,0-.3,0,0,0,0,0,.1,0,0-.1.1-.2.2-.2.4-.3.7-.4,1.1,0,.2-.2.3-.4.3-.3,0-.7,0-1,0-1.2,0-2.3,0-3.5-.1-.5,0-.8-.4-.7-.9,0-.1.2-.3.3-.3,0,0,.1,0,.2.1,0,0,0,0,0,0,0,0,0,0,0,0,0,0,0,0,0,0,0,0,.2,0,.2,0,0-.2-.3-.5-.5-.5-.5,0-.7.3-.8.7,0,.4.4,1,1,1,.3,0,.7,0,1,0,.9,0,1.7,0,2.6,0,.2,0,.4,0,.7,0h0s0,0,0,0c.1,0,.3,0,.4,0,0,0,0,0,0,0,0,0,0,0,0,0,0,0,0,0-.1.1,0,.1-.2.2-.3.3-.2,0-.5,0-.7,0,0,0-.1,0-.2,0-.5,0-.9,0-1.4,0,0,0-.1,0-.2,0-.4,0-.9,0-1.3-.1-.6-.1-1.2-.2-1.8-.4h0s0,0,0,0h0c-.2,0-.4-.1-.6-.2,0,0,0,0,0,0-.2,0-.5-.1-.5-.3,0-.2,0-.3.2-.4,0,0,0,0,.1-.1,0,0,0,0,0,0,0,0,0,0,0,0,0,0,.1,0,.2,0h0s0,0,0,0h0c.2,0,.4-.2.6-.3,0,0,0,0,.1,0,0,0,0,0,0,0,0,0,0,0,0,0,0,0,0,0-.1,0h0c-.4.2-.9.3-1.2.7-.3.4-.2.8.2,1,.3,0,.6.2.9.3h0s0,0,0,0h0c.2,0,.4.1.6.2.8.2,1.6.3,2.4.3.2,0,.5,0,.7,0,.3,0,.7,0,1,0Z"/>
      <path class="cls-2" d="M45.2,62.1c-.1.1-.3.3-.4.4-.3.3-.6.6-.9.9-.3.4-.6.8-.8,1.2,0,.1,0,.3-.1.4,0,0,0,.1,0,.2,0,0,0,0,0,0,0,0,0,0,0,0,0,0,0,0,0,0,0,0,0,0,0,0,0,0,0-.1,0-.2,0-.1,0-.2.1-.3,0,0,0-.1,0-.2.2-.3.3-.6.6-.8.6-.6,1.3-1.2,1.9-1.8h0s0,0,0,0h0s0,0,0,0c.2-.2.4-.3.5-.5,0,0,0,0,.1,0,0,0,0,0,0,0,0,0,0,0,0,0,0,0,0,.1,0,.2-.3.3-.6.6-.9.8-.6.5-1.3,1.1-1.8,1.8-.3.4-.5.8-.6,1.2,0,.3,0,.5,0,.8h0s0,0,0,0c0,0,0,0,0,0,0,.2.5.2.7.1.7-.2,1.3-.6,1.8-1.1.7-.6,1.4-1.3,2-2,.3-.3.5-.7.8-1.1,0-.1.1-.2.2-.3,0,0,0-.1,0-.2,0,0,0-.1,0-.2,0,0,0,0,0,0,0,0,0,0,0,0,0,0,0,0,0,0,0,0,0,0,0,0,0,.3,0,.6-.2.8-.5.7-1,1.4-1.7,1.9-.2.2-.4.4-.6.6-.1.2-.3.3-.4.5-.6.6-1.4,1.1-2.3,1.3-.4.1-.8-.1-.9-.5,0,0,0-.2-.1-.3,0,0,0-.2-.1-.3-.3-.6,0-1.2.3-1.7.6-.9,1.4-1.5,2.2-2.2h0c0,0,.1,0,.2-.1,0,0,.1,0,.1,0,0,0,0,.1,0,.1,0,0-.2.1-.3.2h0s0,0,0,0c0,0-.1,0-.2.1Z"/>
      <path class="cls-1" d="M54,72.2c.1-.5.3-1,.4-1.6.2-.4.3-.9.3-1.3,0,0,0,0,0,0,0,0,0-.1,0-.1,0,0-.2.1-.2.2,0,0,0,.1,0,.2,0,0,0,.2,0,.2,0,.1-.2.2-.3.3-.4.2-.8.1-1.2-.1,0,0-.1-.2-.1-.2,0-.1,0-.2,0-.3,0-.1,0-.2,0-.3,0,0,0-.1,0-.2,0,0,0,0,0,0,0,0,0,0,0,0,0,0,0,0-.1.1,0,.1,0,.2,0,.3,0,0,0,.2,0,.3,0,.1,0,.3-.1.4h0c-.1.5-.3,1-.3,1.6,0,.2-.3.4-.5.4,0,0-.1-.1,0-.2,0,0,.1-.1.2-.2,0,0,0,0,.1-.1,0,0,0,0,0-.2,0,0,0,0-.1,0-.3,0-.7.4-.6.7,0,.2,0,.3.1.5h0c0,0,0,.1,0,.2,0,0,0,0,0,0,0,0,0,0,0,0,0,0,0,0,0-.1.1-.3.6-.4.8-.3.3.3.8.3,1.2.3.2,0,.4-.1.5-.4ZM52.4,71.8s0,0,0,0c.1-.4.2-.8.2-1.2,0-.2.1-.2.3-.2.3.1.7.2,1.1.1,0,0,0,0,.1,0,0,0,0,0,0,0,0,0,0,0,0,0,0,0,0,0,0,.1,0,.1,0,.2-.1.4,0,.3-.1.5-.2.8,0,.3-.3.6-.6.6-.3,0-.8-.2-.9-.4,0,0,0-.1,0-.2Z"/>
      <path class="cls-2" d="M56.9,61.5h0s0,0,0,0c.1-.2.2-.5.3-.7,0,0,.1-.1.2-.2,0,0,0,0,0,0,0,0,0,0,.1,0,0,0,0,0,0,.1-.3.6-.6,1.2-.8,1.8,0,.2-.3.3-.5.3,0,0-.2,0-.3,0h0c-.3,0-.5,0-.8,0-.1,0-.2,0-.3-.1,0,0,0,0-.1-.1,0,0,0,0,0,0,0,0,0,0,0,0,0,0,.1,0,.2,0,.4.2.9.2,1.4.2,0,0,.2-.1.2-.2,0,0,0-.1.1-.2,0-.2.2-.4.3-.6Z"/>
      <path class="cls-2" d="M43,52.1c0,.4.1.7.2,1.1,0,.1,0,.2,0,.4,0,.2,0,.4.1.6.1.4.3.8.4,1.1,0,0,0,0,.1,0,0,0,0,0,0,0,0,0,0,0,0,0,0,0,0-.1,0-.2,0,0,0-.1,0-.2,0,0,0-.2-.1-.2-.1-.5-.2-1-.3-1.5,0-.4-.2-.9-.3-1.3,0,0,0-.1-.1-.2,0,0,0,0,0,0,0,0,0,0,0,0,0,0,0,.1,0,.2,0,0,0,0,0,.1,0,0,0,0,0,0Z"/>
      <path class="cls-2" d="M55.1,60.1c-.1,0-.2,0-.3-.1,0,0,0,0,0,0,0,0,.1,0,.2,0,.2,0,.3,0,.5,0h0c.2,0,.5,0,.7,0,.3,0,.6,0,.8,0h0c.2,0,.4,0,.5,0,0,0,.1,0,.2,0,0,0,0,0,0,0,0,0,0,0,0,0,0,0,0,0-.1,0h-.1s0,0,0,0c-.5,0-1,0-1.5,0-.2,0-.4,0-.6,0h0c-.1,0-.2,0-.4,0Z"/>
      <path class="cls-2" d="M50.2,49.6s0,0-.1,0c0,0,0,0,0,0,0,0,0,0,0,0-.1,0-.3,0-.4,0h0c-.4,0-.9,0-1.3,0,0,0-.1,0-.2,0,0,0,0,0,0,0,0,0,0,0,0,0,0,0,0,0,0,0,0,0,0,0,.1,0,.9,0,1.7,0,2.6,0,0,0,0,0,.1,0,0,0,0,0,0,0,0,0,0,0,0,0,0,0,0,0,0,0-.1,0-.3,0-.4,0Z"/>
      <path class="cls-2" d="M52.8,65.8h0c0-.5.1-.9.2-1.4,0,0,0-.1.1-.2,0,0,0,0,0,0,0,0,0,0,0,0,0,0,0,.1,0,.2-.2.9-.3,1.8-.3,2.6,0,0,0,0,0,.1,0,0,0,0,0,0,0,0,0,0,0,0,0,0,0-.1,0-.2,0-.2,0-.4,0-.7,0,0,0-.2,0-.3,0,0,0-.2,0-.3Z"/>
      <path class="cls-2" d="M58.7,57.5c0,0,0,.1,0,.2,0,0,0,0,0,.1,0,0,0,0,0,.1,0,.1,0,.3,0,.4h0c0,.3-.1.6-.1.8,0,0,0,0,0,0,0,.1,0,.3.1.3,0,0,.1-.2.2-.4,0-.4.1-.8.2-1.2,0-.3,0-.5.1-.8,0,0,0,0,0-.1,0,0,0,0,0,0,0,0,0,0,0,0,0,0,0,0,0,.1,0,0,0,.2,0,.3Z"/>
      <path class="cls-2" d="M47.3,60.9c.5-.3.9-.3,1.4-.1,0,0,.2,0,.2.2,0,0,0,0,.1,0,0,0,0,0-.1,0,0,0-.2,0-.3,0-.6-.1-1.1,0-1.5.3,0,0,0,0-.1,0,0,0,0,0,0,0,0,0,0,0,0,0,0,0,0-.1,0-.1,0,0,.2-.2.3-.2h0s0,0,0,0h0s0,0,0,0c0,0,0,0,.1-.1Z"/>
      <path class="cls-2" d="M53.7,33.6h0s0,0,0,0c-.1,0-.2,0-.4.1-.1,0-.3,0-.4.1,0,0-.1,0-.1.1,0,0,0,0,0,0,0,0,0,0,0,0,0,0,.1,0,.2,0,.4-.1.8-.3,1.2-.4h0s0-.1,0-.1c0,0,0,0,0,0h0s0,0-.1,0c-.1,0-.2,0-.3.1h0Z"/>
      <path class="cls-2" d="M50.7,72.4s0,0,0,0c0,0-.1-.2-.1-.2,0,0,0-.2,0-.2,0,0,.2,0,.3,0,.2,0,.4.9.3,1,0,0-.2,0-.2,0,0,0,0-.2,0-.2,0,0,0-.1,0-.2Z"/>
      <path class="cls-2" d="M49.8,72.4c0,0,0,.1.1.2,0,0,0,0,0,0,0,0,0,.1,0,.2,0,0,0,0,.1.1,0,0,0,0,0,0,0,0,0,0,0,0,0,0,0,0,0-.1,0-.2-.2-.7-.4-.9,0,0,0,0-.2,0,0,0,0,0,0,0,0,0,0,0,0,0,0,0,0,0,0,.1,0,0,0,.1,0,.2Z"/>
      <path class="cls-2" d="M49.6,72.8c0,.1,0,.3-.1.4,0,0,0,0,0,0,0,0,0-.1-.1-.2,0,0,0,0,0,0,0-.1-.2-.3-.3-.4h0c0,0-.1-.1,0-.2.2-.1.4,0,.5.2,0,0,0,.2.1.3h0s0,0,0,0Z"/>
      <path class="cls-2" d="M54.9,60.9h0c0-.2,0-.3,0-.5h0c-.2,0-.2.1-.2.3,0,.1,0,.3,0,.4,0,.1,0,.2,0,.3,0,0,0,.1.1.1,0,0,.1,0,.1,0,0-.2,0-.4.1-.6Z"/>
      <path class="cls-2" d="M53,31.2s0,0,0,0c0,0,0,0,0,0,0,0,0,0,0-.1,0,0,0,0,0,0,0,0,0,0,0,0,0,0,.1,0,.1,0,.2.2.4.4.6.6,0,0,0,0,0,.2,0,0,0,0,0,0,0,0,0,0,0,0,0,0,0,0-.1,0,0,0-.2-.2-.3-.3,0,0,0,0-.1-.1Z"/>
      <path class="cls-2" d="M52.5,31.6s0,0,0,.1c0,0,0,0,0,0,0,.1,0,.3,0,.3.2,0,.3-.1.3-.3,0,0,0,0,0,0,0,0,0,0,0,0,0-.1,0-.3-.1-.3,0,0-.1,0-.2.2Z"/>
      <path class="cls-2" d="M54.2,33h0c0,.1-.2.2-.3.1,0,0-.2-.1-.1-.2,0-.1.1-.2.2-.3,0,0,.2,0,.2,0,0,0,0,.2,0,.3,0,0,0,0,0,0,0,0,0,0,0,0Z"/>
      <path class="cls-2" d="M56,33.8c0,0,0-.1-.2-.2,0,0-.2.2-.2.2,0,0,0,0,0,0,0,0,0,0,0,0,0,0,.1,0,.2,0,0,0,0,0,0,0Z"/>
      <path class="cls-3" d="M52.7,22.8c.1-.1.3-.3.4-.4,0,0,0,0,0-.1,0,0-.1,0-.1,0-.3.3-.7.5-1.2.7-.2,0-.4.1-.6.1,0,0,0,0-.1,0,0,0,0,0,0-.1.2,0,.4-.2.7-.3.4-.1.7-.4,1.1-.6.4-.3.5-.8.6-1.2,0-.4-.2-.7-.4-1-.4-.6-1-.9-1.7-1-.8,0-1.5.2-2.1.8,0,0-.2,0-.2.1,0-.1,0-.3,0-.3.7-.8,1.9-1.2,3-.7.9.4,1.4,1,1.5,1.9.1.7,0,1.4-.5,1.9-.4.5-.9.8-1.5.9-.8.1-1.5,0-2.1-.4-.6-.4-1-1-1-1.7,0-.2,0-.4,0-.6,0,0,0-.1.1-.2,0,0,.1.1.1.2,0,.5.2,1.1.4,1.6.3.6.8.8,1.4.9.6.1,1.1,0,1.7-.2.1,0,.2-.2.4-.3Z"/>
      <path class="cls-3" d="M50.3,21.5c0,0,0-.1,0-.2,0,0,.1,0,.2,0,.3.2.2.2.4,0,.2-.3.1-.6,0-.9-.2-.3,0-.5.3-.6,0,0,0,0,0,0,.2.2.4-.4.5,0,.1.2.3.4.4.6,0,0,0,.1,0,.2,0,0-.1,0-.2,0-.4-.3-.4-.3-.6.2,0,0,0,.1,0,.2.1.3.4.5.2.8-.2.3-.7.5-1,.2-.2-.1-.3-.3-.4-.4ZM51.1,21.3c0,0,0,.2,0,.3,0,0,0,.1,0,.2.1,0,.3-.1.3-.2,0,0,0-.2,0-.3,0,0,0-.1-.1-.2,0,0,0,.1-.2.2ZM51.3,20.3c0,0,0-.1,0-.2,0,0-.2,0-.2.1,0,0,0,.1,0,.2,0,0,0,0,.1-.1Z"/>
      <path class="cls-3" d="M50.6,23c0,0,0-.1,0-.1,0,0,0,0,.1,0,0,0,0,0-.2,0Z"/>
      <path class="cls-3" d="M49.9,22.6c0,0,.1,0,.2,0,0,0,0,0,0,.1,0,0,0,0,0-.1Z"/>
      <path class="cls-3" d="M21.1,35.7c-.4-.3-.6-.7-.7-1.2,0,0,0-.1,0-.2,0,0,.1,0,.2,0,.1.1.2.3.3.4.4.4.9.5,1.5.4.5-.2.9-.6.9-1.2,0-.5-.4-1.4-1.1-1.5-.4,0-.8,0-1.1.3,0,0-.2,0-.2,0,0,0,0-.2.1-.2.9-.7,1.9-.3,2.4.5.2.3.2.6.3.9,0,.5,0,1-.4,1.5-.4.5-1.4.6-1.9.3,0,0-.1,0-.2,0ZM21.8,35.7c.6,0,1.1-.1,1.4-.7,0,0,0-.2.1-.3,0,0-.2.1-.2.2-.5.6-1.2.7-1.9.4,0,0,0,0-.1,0,0,0,0,.1,0,.1.2,0,.4.1.6.2Z"/>
      <path class="cls-3" d="M22.1,33.2c0,0,.1,0,.2.1,0,0,0,0-.1,0-.1,0-.2.3,0,.4,0,0,.1.2.2.2.3,0,.2.3.1.5,0,.2-.6.5-.8.4,0,0,0,0,0,0,0,0,0-.1.1-.1.3-.2.3-.5,0-.7-.2-.2-.2-.4,0-.6,0,0,0-.2.1-.3,0,0,0-.1.1-.2,0,0,.1.1.2.2,0,0,0,0,0,.1ZM22.1,34.2c0,0,0,.2,0,.3,0,0,0,0,0,0,0,0,0-.2,0-.3,0,0,0,0,0,0Z"/>
      <path class="cls-3" d="M20.4,33.8c0,0-.2,0-.1-.1,0-.2.1-.4.2-.7,0,0,.1,0,.2-.1,0,0,0,.2,0,.2,0,.2-.2.4-.3.7Z"/>
      <path class="cls-3" d="M65.2,31.3c.1-.4.3-.8,0-1.2,0,0,0-.1,0-.2,0,0,0,0,0-.1,0,0,0,0,.1.1.2.4.2.9,0,1.3-.4.9-1.1,1.2-2,1.1-.6,0-1.1-.5-1.3-1.1,0,0,0-.1,0-.2,0,0,.1,0,.2,0,.1.2.2.4.4.6.8.7,1.9.5,2.4-.5Z"/>
      <path class="cls-3" d="M63.9,30.9c0-.1-.2-.2-.3-.3,0,0,0-.1,0-.2.1-.2.3-.3.2-.6,0,0,.2,0,.2,0,0,.2.1.3.1.5,0,.2,0,.3.2.4.4.2.4.6,0,.9,0,0,0,.2,0,.2,0,0,0,.1,0,.2,0,0-.1,0-.2-.1-.2-.2-.1-.4-.1-.6,0-.1,0-.2,0-.4ZM64.3,30.9c0,0-.1,0-.2,0,0,.1.1.3.2.4,0-.1,0-.3,0-.4,0,0,0,0,0,0Z"/>
      <path class="cls-3" d="M63,29.4c-.4.3-.6.6-.7,1.1,0,0,0,.1,0,.2,0,0,0,0,0,0,0,0,0,0,0-.1,0-.4,0-.7.3-1,.3-.4.6-.6,1.1-.7,0,0,.1,0,.2,0,0,0,.1,0,.2.1,0,0-.1,0-.2,0-.2,0-.5.2-.7.3Z"/>
      <path class="cls-3" d="M64.2,29.1c0,0,.2-.1.3,0,.2.1.4.2.6.4,0,0,0,.1,0,.2,0,0-.1,0-.2,0-.3-.1-.5-.3-.8-.5Z"/>
      <path class="cls-3" d="M45.5,33.3c-.1-.2-.2-.4-.3-.7,0-.1,0-.2,0-.4,0,0,.2.2.2.3.2.3.3.6.5.9.4.6,1.1.6,1.7.3.8-.3,1.2-1,1.3-1.8,0-.6-.1-1.3-.7-1.7,0,0,0-.1,0-.2,0,0,.1,0,.2,0,.4.2.5.5.6.8.2.4.3.9.2,1.3,0,.4-.4.7-.6,1-.3.6-.9.8-1.5.9-.3,0-.6,0-.9-.2-.3-.2-.5-.4-.7-.7Z"/>
      <path class="cls-3" d="M48,30.5c0,.2-.3.5,0,.7,0,0,0,0,0,.1,0,0-.1,0-.1,0-.2-.2-.2,0-.2,0,0,.2,0,.3,0,.5.1.2.2.5,0,.7,0,0-.2.2-.2.2-.3,0-.4.1-.5.3,0,0-.1.1-.2.2,0,0,0-.2,0-.3,0-.1,0-.2,0-.3,0,0-.1-.1-.1-.2,0,0,0-.1,0-.2,0,0,.1,0,.2,0,.2.2.2.1.3-.1,0-.2,0-.4-.1-.5-.2-.1-.2-.4,0-.5,0-.1.3-.3.4-.3.3,0,.4-.1.5-.3.1-.2.1-.2.3,0ZM47.3,31.1c0,0-.2.2-.2.2,0,0,0,.1.1.2,0,0,0-.1.1-.2,0,0,0,0,0,0,0-.1,0-.2-.2-.1ZM47.5,32.2s0,0,0-.1c0,0-.1,0-.1,0,0,0,0,.1,0,.2,0,0,0,.1,0,.2,0,0,.1,0,.2-.1,0,0,0,0,0-.2Z"/>
      <path class="cls-3" d="M45.4,30.8c.4-.5,1-.7,1.6-.9,0,0,.1,0,.2,0,0,0,.1,0,.2,0,0,0,0,.1-.1.1-.4.2-.8.3-1.2.5-.4.2-.6.5-.7.9,0,0-.1.2-.2.2,0,0-.1-.2,0-.3,0-.2.2-.5.3-.7Z"/>
      <path class="cls-3" d="M46.4,34.4c-.3,0-.5-.2-.7-.4,0,0,0,0,0-.1,0,0,0,0,0,0,.2.1.4.3.6.4,0,0,0,0,0,0Z"/>
    </g>
  </g>
</svg>