<?xml version="1.0" encoding="UTF-8"?>
<svg xmlns="http://www.w3.org/2000/svg" version="1.1" viewBox="0 0 101 101">
  <defs>
    <style>
      .cls-1, .cls-2 {
        fill: #cabe20;
      }

      .cls-3 {
        fill: #fff;
      }

      .cls-3, .cls-4, .cls-5, .cls-2, .cls-6 {
        fill-rule: evenodd;
      }

      .cls-4 {
        fill: #00160a;
      }

      .cls-5 {
        fill: #a72247;
      }

      .cls-6 {
        fill: #237cf2;
      }
    </style>
  </defs>
  <!-- Generator: Adobe Illustrator 28.7.10, SVG Export Plug-In . SVG Version: 1.2.0 Build 236)  -->
  <g>
    <g id="_图层_1" data-name="图层_1">
      <path class="cls-5" d="M65,21.5c8.7-1.9,16.7.4,21.1,7,4.3,6.6,3.2,17.1,2.3,21.7-.9,4.6-3.3,8.8-6.3,12.5-5.5,6.8-12.9,12-21.2,14.9-8.3,2.8-17.3,3.4-25.9,2-4.8-.8-20-4.7-23.3-16.5-3.3-11.8-5.3-21.9,1.7-26,7.1-4.1,12-1,15.5.5,16.4,7.1,27.3-14,36-15.9Z"/>
      <path class="cls-3" d="M77.3,32.6c1.4-.1,2.9,0,4,.8,1.1.8,1.7,2.6.7,3.6,1.1-.4,2.3.3,2.8,1.3.5,1,.5,2.2.3,3.3-.4,2.8-1.5,5.4-3.2,7.7,0,.2-.2.5-.2.7,2,.5,10,3.6,7.8,11.2-2.1,7.6-11.5,10.5-12.5,11.4-1.7,1.6-4.2,1.7-6.5,1.6-5.7-.2-11.3-.9-16.9-2.1-.5-.1-1.1-.2-1.3.2-2,2.9-6.1,3.1-9.6,2.9-4.5-.3-8.9-1-13.3-2-2.5-.6-5.1-1.4-6.6-3.4-1.8-2.4-1.6-5.6-1.3-8.6-1.2.7-3.1,1-5.9,1.1-1.6-.3-2.6-.9-3-1.8-1.8-3.8-2.5-8.8-.2-12.6.3-.5.6-.9,1-1.2.5-.3,1-.4,1.6-.5,2.2-.2,4.5.3,6.4,1.5,0-6.2,0-12.4,0-18.6,0-.4,0-.7.2-1,.3-.4.8-.6,1.3-.7,4.6-.9,9.2-1.4,13.9-1.7,1.5,0,3.6.3,3.6,1.9,0,5.8,0,11.7,0,17.5,0,1.4,0,1.3.7.9-.4,0-.3-.7,0-.9,1.2-1,2.8-1,4.4-1,3.4,0,6.9,0,10.3.1,3.3,0,7.3.5,8.8,3.4,0-.9.8-1.7,1.6-1.7,1,0,1.8-.8,2.1-1.8s.2-1.9,0-2.9c-1.6-1.5-2-4.1-1-6,1-1.9,3.4-3,5.5-2.6,1.4.3,2.8,0,4.2,0ZM37.4,61.3c0,1.2,0,2.5-.5,3.7l.5-3.7ZM35.9,46.2c.3,0,.7.4.5.7,1.4.1,1,0,1-1.6,0-1.7,0-3.5-1-4.8-1-1.1-2.5-1.5-4-1.6-1.7-.1-3.4,0-5.1.2-.8.1-1.7.4-2.2,1.1-.3.4-.4.9-.4,1.3-.3,1.8-.4,3.7-.3,5.5,3.6-1.7,7.7-2,11.5-.9ZM66.9,58.4c0,0,.2-.1.3-.1.5,0,1-.1,1.5-.2-1.1-.5-1.8-1.7-2-2.9-.2-1.2,0-2.5.2-3.7-.7.8-.7,2-.6,3.1.2,2.3.5,3.9.6,3.9ZM57.6,70c0-.3.4-.5.7-.7.4-.4.6-1,.7-1.6.5-2,1-4,1-6,0-.4,0-.9.1-1.3s.5-.8.9-.8c.5,0,.6-.6.5-1.1-.1-1.6-.3-3.1-.4-4.7,0-.5,0-1-.2-1.5-.6-1.8-2.7-2.8-4.5-2.2-.2,0-.3.3-.3.6-.3,2.5-.5,5-.8,7.5,0,.4.5.7,1,.6.4-.1.8-.4,1.1-.7.4-.2.9-.4,1.2,0,.4.3,1,0,1.3-.4.3-.4.8-.8,1.3-.7-.6.5-1.1,1.1-1.7,1.6-.2.2-.4.5-.1.6.6-.2,1.2-.6,1.7-1.2.2,0,.2.3.1.5-.4.6-1.5.8-1.7,1.5-.6,1.7-2.5,2.8-4.3,2.6-.4,0-.6.4-.6.8-.2,1.5-.4,3-.5,4.4,0,.3,0,.7,0,1,.2.5.9.7,1.4.9.7.2,1.5.4,2.2.5.3,0,.3,0-.1-.2ZM28.5,67.3c1,.3,2.1.5,3.2.6.5,0,1,0,1.4-.1.5-.2.8-.8,1-1.3,1.2-2.8,1.8-5.9,2-8.9,0-.4-.5-.6-1-.7-3.5-.2-6.8,1.3-9.9,2.8-.2,0-.3.2-.4.3,0,.1,0,.2,0,.4,0,1.7.1,3.4.9,5,.2.4.5.8.8,1.1.2.2.5.3.7.4.4.2.9.4,1.3.5ZM51,61c.5-2.5.8-5,1-7.5,0-.9.1-1.7,0-2.6-.2-.8-.6-1.7-1.4-2.1-.5-.3-1-.4-1.5-.5-1-.2-1.9-.2-2.9-.2-.9,0-1.8.1-2.5.6-.2.2-.4.4-.5.6,0,.3,0,.6.2.8.6.4.8,1.2.9,1.9.1.7.1,1.5.5,2.1.2.3.4.6.7.9,1.4,1.5,3.1,2.6,5.1,3.1.3,0,.8.3.7.7,1.1.7-.2,2.4-.2,2.3ZM48,68.3c.4-.2.7-.6.9-1,1-1.7,1.6-3.6,1.9-5.5-3.6,0-7.1-1.4-9.8-3.7,0,.4,0,.8,0,1.1,0,2.4,0,4.8-.4,7.1,0,.6.2,1.1.7,1.5.5.3,1,.5,1.6.6,1.3.2,2.5.3,3.8.3.5,0,1,0,1.4-.3ZM70.6,47.8c-.2-.5-.4-1.1-.8-1.4-.4-.3-1.2-.2-1.3.4.4,0,.8.4.7.9,0,.4-.4.8-.6,1.1-.3.5-.6,1.1-.8,1.6-.6,1.3-.8,2.8-.6,4.2,0,.8.3,1.7.9,2.3.6.6,1.5.9,2.3.5.6-.3,1-1.1,1.1-1.8.1-.7.2-1.5.5-2.1.5-1.2,1.8-2,3-2.4-1.9-.3-3.6-1.6-4.3-3.3ZM65.4,49.2c0,.3.2.6.3.9,0-.4.2-.8.4-1.2-.2,0-.4,0-.6,0,0,0,0,0-.1,0,0,0,0,.2,0,.3ZM42.7,48.8c-.1,0-.2.3,0,.4.2-.2.4-.4.6-.6,0,0,0,0-.2,0,0,.1-.2.2-.4.3Z"/>
      <path class="cls-1" d="M75.9,47.5c.4,0,.7-.3.7-.7s-.3-.7-.7-.7-.7.3-.7.7.3.7.7.7Z"/>
      <path class="cls-1" d="M71.6,46.7c.2,0,.4-.2.4-.4s-.2-.4-.4-.4-.4.2-.4.4.2.4.4.4Z"/>
      <path class="cls-6" d="M33.4,36.1c1.2,0,2.4,0,3.6,0,0,0,.1,0,.2,0,0,0,0,.2,0,.3,0,0-.2,0-.3,0-1.1,0-2.1,0-3.2.2-.2,0-.3,0-.5,0-.2,0-.3-.2-.2-.4,0-.2.3-.2.4-.2ZM29.3,36c0,0,0,.2,0,.3,0,0-.2,0-.3,0-1.1.1-2.1.2-3.2.3-.1,0-.3,0-.4,0-.1,0-.2-.1-.2-.3,0-.1.1-.2.2-.3.1,0,.3,0,.4,0,1.1,0,2.2,0,3.3-.1,0,0,.2,0,.3,0ZM29.2,33.9c0,0,0,.2,0,.3,0,0-.2,0-.3,0l-3.5.3c-.1,0-.3,0-.4,0-.1,0-.2-.2-.2-.3,0-.1.1-.2.3-.3.1,0,.3,0,.4,0,1.2.2,2.4,0,3.5,0,0,0,.1,0,.2,0ZM34,33.2c.7,0,1.4.1,2.2,0,.3,0,.6,0,.8.2-.2.2-.5.2-.7.2-.8,0-1.6.1-2.5.2-.2,0-.4,0-.5-.2,0-.2,0-.3.2-.4.2,0,.3,0,.5,0ZM27.8,32.4c0,.1-.2.2-.3.2l-1.8.3c-.1,0-.3,0-.4,0-.1,0-.2-.1-.3-.3,0-.2.1-.3.3-.3.2,0,.3,0,.5,0,.5,0,1.1,0,1.7,0,.1,0,.3,0,.3.2ZM36.5,31.9c.1,0,.3,0,.3.2-.2.2-.6.2-.9.3-.5,0-1.1,0-1.6.1-.2,0-.4,0-.6,0-.1,0-.3,0-.4,0-.1,0-.2-.2-.2-.3,0-.2.3-.3.5-.3.8,0,1.6.1,2.4,0,.1,0,.3,0,.4,0ZM37.2,29.9c-3.9.5-8,.3-11.9,1.1-.2,0-.6,0-.6-.2,0-.3.4-.4.6-.4,3.8-.3,7.6-.5,11.4-.8.2,0,.5,0,.5.3Z"/>
      <path class="cls-4" d="M23.4,70.8c0,.5-.6.6-1.1.6-2.5,0-5,.5-7.3,1.4-.4.1-.7.3-.9.6-.2.4,0,1,.4,1.3.4.3.9.4,1.4.5,12.9,2.1,26,3,39.1,2.7h.2c1.5,0,3-.1,4.4-.7-1.1-.8-2.3-1.6-3.4-2.4,2-.4,4-.1,6,0,4.6.5,9.2.5,13.8,0-.3.5-1,.6-1.6.6-5.8.1-11.6,0-17.3-.6.8.5,1.5,1,2.3,1.5.3.2.6.4.6.7,0,.5-.6.7-1.1.8-1.6.3-3.2.3-4.9.3-12.7.2-25.4-.7-38-2.7-.6,0-1.2-.2-1.8-.6-.5-.4-.9-1-.6-1.6.2-.6.9-.8,1.4-1,2.7-.9,5.5-1.4,8.3-1.6ZM40.5,27.6c0,5.8,0,11.7,0,17.5,0,1.4.3,3.2,1.6,3.5,1.9-.9,4-1.2,6-1,1.2.1,2.4.5,3.2,1.4,1.1,1.2,1.1,3,1,4.6-.2,3.3-.7,6.5-1.4,9.7.5,0,1.1.2,1.5.6-.6.3-1.3.3-1.9,0,.4,2.2-1.4,4.3-3.5,5-2.1.6-4.5,0-6.5-.9-.2.7.8,1.2,1.5,1.3,1.9.3,3.8.6,5.7.8-2.3,0-4.7-.1-7-.6-.4.6.5,1.2,1.3,1.3,1.9.3,3.9.6,5.8.9-2.2,0-4.4-.2-6.5-.4,1.4,1.2,3.2,1.9,5.1,1.8-1,.3-2.2.3-3.2,0,1.3,1.7,3.9,2,5.8,1.1,1.9-1,3.2-2.9,3.8-5s.7-4.2.8-6.4c.2-4,.6-7.9,1.3-11.8.5-2.6,1.6-5.8,4.3-6.1-4.7-.2-9.4-.3-14.2-.4-1.4,0-3.2.2-3.7,1.6-.4,0-.3-.7,0-.9,1.2-1,2.8-1,4.4-1h10.3c3.3.1,7.3.6,8.8,3.5,0-.9.8-1.7,1.6-1.7,1,0,1.8-.8,2.1-1.8s.2-1.9,0-2.9c-1.6-1.5-2-4.1-1-6,.3-.5.7-1.8,3.1-2.7,1.6-.6,3.1-.5,4.7.2,2.9-.6,4.9-.4,6,.6,1.6,1.4,1.7,2.6.7,3.6,1.1-.4,2.3.3,2.8,1.3.5,1,.5,2.2.3,3.3-.4,2.8-1.5,5.4-3.2,7.7l-.2.7c4.2,1.1,7.5,4.8,8.2,9-1.4-3.1-3.3-6.4-6.5-7.5-.7.8-1.5,1.6-1.8,2.6-.3,1-.2,2.3.7,2.9-.5.1-1.1.3-1.6.4.2.3.4.6.5,1-2.1,1.6-2.3,4.5-2.3,7.1,0,2.6,0,5.5-1.9,7.3-1.7,1.6-4.2,1.7-6.5,1.6-5.7-.2-11.3-.9-16.9-2.1-.5-.1-1.1-.2-1.3.2-2,2.9-6.1,3.1-9.6,2.9-4.5-.3-8.9-1-13.3-2-2.5-.6-5.1-1.4-6.6-3.4-1.8-2.4-1.6-5.6-1.3-8.6-1.8,1-3.9,1.4-5.9,1.1,2.1-1.4,3.1-4,3.2-6.6,0-2.5-.8-5-1.8-7.3-2.1,1.2-3.2,3.7-3,6.1.2,2.4,1.4,4.6,3.1,6.3-2.1-1.3-3.5-3.7-3.6-6.2-.1-2.5,1-5,3-6.5-.3-1.1-1.9-1.2-2.8-.5-.8.7-1.1,1.9-1.3,3-.4,2-.8,4.1-.5,6.1.3,2,1.4,4.1,3.3,4.9-.9.6-2.1-.3-2.6-1.2-2.4-3.7-2.5-8.8-.2-12.6.3-.5.6-.9,1-1.2.5-.3,1-.4,1.6-.5,2.2-.2,4.5.3,6.4,1.5,0-6.2,0-12.4,0-18.6,0-.4,0-.7.2-1,.3-.4.8-.6,1.3-.7,4.6-.9,9.2-1.4,13.9-1.7,1.5,0,3.6.3,3.6,1.9ZM37.4,26.1c-4.9.2-9.9.8-14.7,1.8-.2,0-.4,0-.6.2-.2.2-.2.5-.2.8,0,6.2,0,12.3,0,18.5.6-.1,1.2-.3,1.8-.4-.2-1.3-.5-2.6-.4-3.8,0-1.3.6-2.6,1.5-3.4,1-.9,2.5-1.2,3.9-1.3,1.3,0,2.7,0,4,0,1.4.1,2.8.4,3.8,1.4,1.4,1.4,1.4,3.6,1.4,5.6-.2,5.2-.4,10.5-.6,15.7,0,1.2,0,2.5-.5,3.7s-1.1,2.3-2.2,2.9c-1.1.6-2.3.6-3.5.4-1.1-.1-2.3-.4-3.4-.7-.7-.2-1.3-.4-1.9-.8-1.9-1.3-2.1-4-2.2-6.3-.7-.1-1.4.4-1.7,1.1-.3.7-.3,1.4-.3,2.2,0,1.8.1,3.8,1.1,5.4,1.5,2.4,4.5,3.3,7.3,3.9,4.9,1,10,1.7,15,2-2.2-1.1-4.2-3.1-4.7-5.6-.1-.7-.1-1.4-.2-2-.3-13.4-.5-26.8-.8-40.2,0-.8-1.2-1.1-2-1ZM56.5,48.1c-.1.3-.2.6-.1,1,0,.3.4.6.7.5,1.5-.2,3,.5,3.8,1.7.6,1,.7,2.3.8,3.5l.7,11.1c0,1.2.1,2.5-.6,3.4-1,1.2-2.7,1.2-4.3,1.1-1.3-.1-2.6-.3-3.6-1.1,0,.5-.1.9-.4,1.3-.3.5.2,1.1.7,1.3.7.3,1.4.4,2.1.5,3.2.4,6.4.8,9.7,1.2,2.5.3,5,.6,7.5.2-1.6-.4-3.1-1.1-4.4-2-.7-.4-1.3-.9-1.8-1.6-.8-1.1-.9-2.5-1-3.8-.4-3.9-.7-7.8-.8-11.7-.1-2.9-1.1-5.7-2.7-8.2-.3-.4-.6-.9-1.1-1-2-.5-4.3.7-5,2.6ZM47.3,73.1c.2,0,.3,0,.5.2.1.1.2.3.2.4,0,.2-.3.3-.4.2-.2-.1-.4-.1-.5-.2-.2,0-.4-.2-.3-.4,0-.2.4-.3.6-.2ZM40.3,73.2c.2,0,.5.2.4.4,0,.2-.3.2-.5.3-.2,0-.4,0-.6,0-.2,0-.3-.4-.2-.5,0-.1.2-.1.4-.2.2,0,.3,0,.5,0ZM52.9,70.9c-.2.1-.3.4-.5.6-.6.9-1.5,1.7-2.4,2.3,0,0,.2,0,.3,0,1.1-.6,1.9-1.7,2.6-2.7,0,0,.1-.2,0-.3ZM62.6,46c.6.7,1.2,1.4,1.6,2.2.5.9.7,1.8.9,2.7,1.2,5.3.8,10.8,1.6,16.1.1,1,.3,2,.8,2.8.6,1,1.6,1.7,2.6,2.2.8.5,1.6.9,2.5,1.1,1.4.4,3.1.5,4.2-.5.6-.6.9-1.4,1.2-2.1,1.1-3.4,1.2-7,.3-10.5,0,2.1.3,4.1.2,6.2,0,2.1-.5,4.2-1.7,5.8-.2.3-.5.6-.9.8-.5.2-1,.2-1.6.2-.9-.1-1.8-.4-2.7-.8-.6-.3-1.2-.7-1.8-1.2-.7-.5-1.3-1-1.8-1.7-.5-.7-.7-1.5-.9-2.3-1.5-5.8-.4-12.1-2.2-17.8-.4-1.3-1.1-2.8-2.5-3.2ZM27.4,71.5c3.4.5,6.8,1.1,10.2,1.6,0,.2-.4.2-.6.2-2.9-.4-5.8-.8-8.7-1.2-.3,0-.7,0-1-.1-.2,0-.4,0-.4-.2,0-.2.3-.3.5-.2ZM66.9,51.5c-.7.8-.7,2-.6,3.1.2,2.3.4,4.7.6,7,0,.1,0,.2,0,.3.1.1.3.2.5.2,2.4.2,4.9.3,7.3.5-.2.3-.6.3-.9.3-2.3-.2-4.6-.2-6.9-.2,0,1.2.1,2.4.5,3.5.2.5.8.6,1.3.6,2,0,3.9.2,5.9.2,0,.2-.2.3-.4.3-2,0-4,0-6,0-.3,0-.4.4-.3.6.3.7,1.1.8,1.9.9l4.5.3c.1,0,.1.2,0,.2,0,0-.2,0-.3,0h-5.3c1.4,1.5,3.3,2.7,5.3,3.1.4,0,.9.2,1.4,0,.5-.2.9-.6,1.2-1.1,1.6-2.4,1.5-5.5,1.3-8.4l-.2-3.3c0,0,.2-.1.3,0,0-.2-.2-.3-.3-.3-3.6-.7-7.3-1.3-10.8-.7-.1,0-.1-.2,0-.3,0,0,.2-.1.3-.1.5,0,1-.1,1.5-.2-1.1-.5-1.8-1.7-2-2.9-.2-1.2,0-2.5.2-3.7ZM49.3,71.4c.3,0,.7.2.8.5-.4.2-.8.2-1.3.2-.1,0-.2,0-.3-.1-.1-.1,0-.4.2-.5.2,0,.4,0,.6,0ZM25,69.2c3.7,1.2,7.5,1.9,11.3,2.2.3,0,.7.2.6.5-4.1-.5-8.1-1.1-12.1-2-.3,0-.6-.2-.5-.5,0-.2.4-.2.6-.1ZM38.4,71c.2,0,.4,0,.5.1,0,0,.2,0,.2.2,0,.2-.2.3-.4.4-.1,0-.3,0-.4,0-.1,0-.2,0-.3,0-.2,0-.2-.3-.1-.5,0-.2.3-.2.5-.2ZM55.7,70.6c1.6.3,3.3.3,4.9.3.1,0,.2.2,0,.3,0,0-.2,0-.4,0-1.5,0-3.1-.2-4.6,0-.2,0-.3,0-.5,0s-.3-.2-.3-.4c0-.1.2-.2.3-.3.1,0,.3,0,.4,0ZM59.4,45.1c-1.8.3-3.4,1.9-3.5,3.8-.2,1.7-.6,3.4-1,5.1-1.1,5.5-.8,11.1-1.7,16.6.4-.6.4-1.4.5-2.1l2.3-19.1c0-.5.1-1,.3-1.5.5-1.3,1.8-2.1,3.1-2.7ZM51,69.9c.1,0,.2,0,.3.2,0,0,0,.2,0,.3,0,0-.1,0-.2,0-.3,0-.5,0-.8,0-.1,0-.3,0-.4,0-.1,0-.3-.2-.3-.3,0-.2.3-.4.5-.4.3,0,.6,0,.9.1ZM56.4,50.1c-.2,0-.3.3-.3.6l-.8,7.5c0,.4.5.7,1,.6.4-.1.8-.4,1.1-.7.4-.2.9-.4,1.2,0,.4.3,1,0,1.3-.4.3-.4.8-.8,1.3-.7-.6.5-1.1,1.1-1.7,1.6-.2.2-.4.5-.1.6.6-.2,1.2-.6,1.7-1.2.2,0,.2.3.1.5-.4.6-1.5.8-1.7,1.5-.6,1.7-2.5,2.8-4.3,2.6-.4,0-.6.4-.6.8-.2,1.5-.4,3-.5,4.4,0,.3,0,.7,0,1,.2.5.9.7,1.4.9,1,.3,2.1.5,3.2.5,1.1,0,2.2-.4,2.9-1.2-.2-.2-.6,0-.9,0-.3-.1-.1-.6.2-.7.3,0,.6,0,.9.2.2-.3.3-.7.3-1,0-.4-.4-.7-.7-.6-.2,0-.3-.4-.1-.5s.5-.1.7,0c0-.9,0-1.8,0-2.6,0-.2,0-.4,0-.5s-.3-.3-.5-.2c-.2.1-.4-.3-.3-.5.1-.2.4-.2.7-.2,0-.8,0-1.6-.2-2.3-.9.5-1.1,1.7-1.2,2.7-.2,2-.5,3.9-1.1,5.8-.1.4-.3.9-.5,1.2-.3.3-.7.6-1.2.5,0-.3.4-.5.7-.7.4-.4.6-1,.7-1.6.5-2,1-4,1-6h0c0-.5,0-.9.1-1.3.1-.4.5-.8.9-.8.5,0,.6-.6.5-1.1-.1-1.6-.3-3.1-.4-4.7,0-.5,0-1-.2-1.5-.6-1.8-2.7-2.8-4.5-2.2ZM63.3,69.2c.2,0,.4.3.3.5,0,.2-.4.2-.6.2-.1,0-.2,0-.3,0-.1-.1-.1-.4,0-.5.1-.1.3-.1.5,0ZM37.6,69c.1,0,.3,0,.4.2.1.1.1.3,0,.4,0,0-.2,0-.3,0-.2,0-.3,0-.5,0,0,0-.2,0-.3,0-.2-.1,0-.4,0-.5.2-.1.4,0,.6,0ZM24.5,67.4c.9.4,2,.6,3,.8,2.1.4,4.2.7,6.3,1,.3,0,.6,0,.8.3-.8,0-1.6,0-2.4-.2-2.6-.4-5.3-.9-7.9-1.3-.3,0-.6-.2-.6-.5,0-.3.6-.2.9-.1ZM41,58.1c0,.4,0,.8,0,1.1,0,2.4,0,4.8-.4,7.1,0,.6.2,1.1.7,1.5.5.3,1,.5,1.6.6,1.3.2,2.5.3,3.8.3.5,0,1,0,1.4-.3.4-.2.7-.6.9-1,1-1.7,1.6-3.6,1.9-5.5-3.6,0-7.1-1.4-9.8-3.7ZM50.3,67.5c.2,0,.5.2.7.2,0,0,.2,0,.2.1,0,.1,0,.3-.1.4-.1,0-.3,0-.4,0-.3,0-.6,0-.7-.2-.2-.2-.1-.6.1-.6,0,0,.1,0,.2,0ZM63.2,67.5c.1,0,.3,0,.4.1s.2.3,0,.4c0,0,0,0-.2,0-.2,0-.5.1-.7,0-.2,0-.4-.4-.2-.6.1-.2.4-.2.6-.1ZM25.2,59.6c-.2,0-.3.2-.4.3,0,.1,0,.2,0,.4,0,1.7.1,3.4.9,5,.2.4.5.8.8,1.1.2.2.5.3.7.4.4.2.9.4,1.3.5,1,.3,2.1.5,3.2.6.5,0,1,0,1.4-.1.5-.2.8-.8,1-1.3,1.2-2.8,1.8-5.9,2-8.9,0-.4-.5-.6-1-.7-3.5-.2-6.8,1.3-9.9,2.8ZM36.6,57.4c0,.1-.1.3-.1.4-.2,3.5-1.1,6.9-2.5,10,1.4-.7,2.4-2.1,2.7-3.6.1-.5.1-1.1.1-1.6,0-1.7.1-3.4.2-5.1,0,0,0-.2,0-.3,0-.1-.3,0-.4,0ZM37.2,65.8c.2,0,.3,0,.5.1.2,0,.2.3.1.4,0,.1-.3.2-.4.2-.2,0-.3,0-.5,0-.1,0-.2-.3-.2-.4,0-.2.3-.2.4-.2ZM63.3,65.3c.2,0,.3.1.4.2,0,0,.2.1.2.2,0,.1,0,.2-.1.3-.1,0-.2,0-.3,0-.2,0-.3,0-.5-.2-.1-.1-.2-.3-.1-.4,0-.1.3-.2.4-.2ZM24.1,60.1c0,0,0,.2,0,.3l.2,2.2c.1,1.2.3,2.4,1.1,3.3.1,0,0-.3,0-.4-.7-1-.8-2.2-.9-3.3,0-.7-.1-1.4-.2-2,0,0-.2,0-.2,0ZM67.7,64.5c2.2,0,4.5.1,6.7.2.3,0,.7,0,1,0,0,.2-.4.3-.6.3-2.3,0-4.5-.2-6.8,0-.2,0-.4,0-.6,0-.2,0-.2-.4,0-.5,0,0,.2,0,.3,0ZM61.5,64.1s0,0,.1,0c.1.1,0,.3,0,.4s-.3.1-.5.1c-.2,0-.4,0-.5-.2-.1-.2,0-.5.2-.5.2,0,.4,0,.7,0ZM63.1,63.6c.2,0,.4,0,.6.2.1,0,.1.3,0,.4-.1.1-.3.1-.5.1-.2,0-.3,0-.5-.1-.1,0-.2-.3-.1-.4,0-.2.3-.2.5-.2ZM40.5,58.5c-.1,1.8-.2,3.5-.2,5.3,0,0,0,.2.1.1.1-1.5.2-3,.2-4.5,0-.3,0-.7-.1-1ZM38.1,63c.2,0,.4.1.5.2,0,0,0,0,.1.1,0,.1,0,.3-.1.3-.1,0-.2,0-.4,0-.3,0-.6-.2-.6-.4,0-.2.2-.3.4-.3ZM63.6,61.8c.2,0,.4.3.3.5,0,.1-.2.1-.4.1-.2,0-.3,0-.5,0-.2,0-.3-.4,0-.5.2-.1.4-.1.6,0ZM85.5,58.4c0,.1,0,.3,0,.4,0,1.1,0,2.1,0,3.2,0,.1,0,.3-.1.3-.1,0-.2,0-.3-.1,0,0,0-.2,0-.3,0-1,0-1.9-.2-2.8,0-.3-.2-.6,0-.8.2-.1.5,0,.6.1ZM58,58.3c-.8.5-1.7,1-2.6,1.1-.2,0-.3.2-.3.4-.2.8-.2,1.5-.3,2.3,0,0,0,0,0,.1,0,0,.1,0,.2,0,.7,0,1.5-.1,2.2-.4.7-.3,1.3-.8,1.6-1.5.3-.7.1-1.6-.4-2-.1-.1-.3-.2-.4,0ZM51.8,61.3c.3,0,.5.1.8.2,0,0,.2,0,.3.1,0,.1,0,.2-.1.3,0,0-.2,0-.3,0-.2,0-.4,0-.6,0s-.3-.2-.4-.4c0-.2.2-.4.3-.3ZM15.8,47.1c1,.4,1.7,1.2,2.2,2.2.5.9.7,2,.8,3,.3,1.7.5,3.5.3,5.2s-.9,3.4-2.3,4.6c1,0,2.1,0,2.7-.8.2-.4.7-.5,1.2-.4-.3-.2,0-.6.1-.9.8-1.1,1.3-2.5,1.5-3.8.4-2.7-.6-5.3-1.9-7.6-.9-1.5-3-2.1-4.5-1.4ZM38.9,60.8c.2,0,.2.4,0,.5-.2.1-.4,0-.6,0,0,0-.2,0-.3-.1-.2-.2,0-.5.3-.5.2,0,.5,0,.7.1ZM46.1,48c-.9,0-1.8.1-2.5.6-.2.2-.4.4-.5.6,0,.3,0,.6.2.8.6.4.8,1.2.9,1.9s.1,1.5.5,2.1c.2.3.4.6.7.9,1.4,1.5,3.1,2.6,5.1,3.1.3,0,.8.3.7.7-2.8-.6-5.3-2.3-6.9-4.6-.5,1.5-1.5,2.9-2.7,3.8,2.5,2.1,5.7,3.4,9,3.5.1,0,.3,0,.4-.1,0,0,0-.2.1-.3.5-2.5.8-5,1-7.5,0-.9.1-1.7,0-2.6-.2-.8-.6-1.7-1.4-2.1-.5-.3-1-.4-1.5-.5-1-.2-1.9-.2-2.9-.2ZM63.1,60.1c.2,0,.5,0,.5.3,0,.2-.2.4-.4.4-.2,0-.3,0-.5-.1-.1-.1-.2-.3,0-.4,0-.1.3-.2.5-.2ZM79.8,55.7c-.4,1.6-.7,3.2-.9,4.9,0,0,0,.2,0,.2.6-.8,1.2-1.6,1.8-2.5,0,0,.1-.2,0-.3-.1-.2-.3-.4-.4-.6,0-.1-.2-.3-.1-.5,0-.1.2-.1.4-.2h1.1c0-.2,0-.2,0-.3-.3-.4-.6-.9-1.1-1-.3-.1-.7,0-.7.2ZM27.4,39.1c-.8.1-1.7.4-2.2,1.1-.3.4-.4.9-.4,1.3-.3,1.8-.4,3.7-.3,5.5,3.6-1.7,7.7-2,11.5-.9.3,0,.7.4.5.7-2.8-1-6-1.2-8.9-.4-.9.2-1.9.6-2.8.9-1.4.4-2.8.6-4.3.7,2.6,3.6,3,8.7.8,12.6,1.3-.3,2.6-.8,3.8-1.4,1.8-.9,3.7-1.8,5.6-2.3,1.9-.6,4.1-.7,6-.1.2,0,.4-.3.4-.5l.4-11c0-1.7,0-3.5-1-4.8-1-1.1-2.5-1.5-4-1.6-1.7-.1-3.4,0-5.1.2ZM52.9,59.5c0,0,.1,0,.1.1,0,.1-.1.2-.3.2-.2,0-.4.1-.6,0-.2,0-.4-.1-.4-.3,0-.2,0-.4.3-.4.3,0,.6,0,.9.3ZM79.8,52.6c-.7.4-1.5.5-2.3.4,0,.3.5.4.5.7,0,.2-.2.3-.3.5,0,.1-.1.3-.1.4-.3,1.3-.4,2.6-.5,3.9,0,.2,0,.5.3.5.5,0,.9.3,1.2.7.2-1.4.4-2.7.7-4.1,0-.3,0-.7,0-.9-.3-.4,0-.9.2-1.2l.4-.8ZM38.7,58.5c.2,0,.5.3.4.5,0,.1-.2.2-.4.2-.1,0-.3,0-.4,0-.2,0-.4,0-.4-.3,0-.2.1-.3.3-.4.2,0,.3,0,.5,0ZM63.1,58.3c.1,0,.3,0,.4.2.1.1.1.3,0,.4,0,0,0,0-.1,0-.2,0-.4.1-.6,0-.2,0-.4-.3-.3-.5,0-.2.4-.3.6-.2ZM76.6,55.5c-.2,0-.3.2-.4.3l-.6.7c-.1.1,0,.3.3.4.2,0,.4,0,.5.1.1.1,0,.4,0,.5-.1.2-.3.3-.3.5-.1.3,0,.6.4.7.2,0,.4,0,.4-.2,0-.9,0-1.9.2-2.8,0-.2-.2-.3-.3-.2ZM45,56c.1,0,.2.2.3.3.7,1,1.8,1.7,3.1,1.9.3,0,.6,0,.8.3-.3.3-.7.2-1.1.1-1.3-.3-2.5-1.1-3.3-2.1-.1-.2-.3-.4-.1-.6,0-.1.3,0,.4,0ZM76,51.4c-.9.2-1.8.5-2.6,1.1-.7.6-1.3,1.5-1.3,2.4,0,1.2-.6,2.4-1.5,3.1l1.6.2c.2,0,.4,0,.5,0,.2-.2.2-.5.1-.8,0-.3,0-.6.2-.7.3-.1.6.3.5.7,0,.3-.2.7-.2,1,.8.1,1.5.2,2.3.3-.2-.1-.2-.4,0-.5,0-.2.2-.3.4-.5.2-.1,0-.4-.3-.4-.2,0-.5,0-.6-.1-.2-.2,0-.5.1-.7.3-.4.7-.9.5-1.4-.5-1.1-.4-2.5.3-3.6ZM40.9,48.3c-.1,3.1-.1,6.3,0,9.4,1.2-.6,2.1-1.8,2.6-3,.3-.8.6-1.6.4-2.4,0-.6-.4-1.2-.7-1.7-.6-.9-1.4-1.7-2.4-2.2ZM68.5,46.8c.4,0,.8.4.7.9,0,.4-.4.8-.6,1.1-.3.5-.6,1.1-.8,1.6-.6,1.3-.8,2.8-.6,4.2,0,.8.3,1.7.9,2.3.6.6,1.5.9,2.3.5.6-.3,1-1.1,1.1-1.8.1-.7.2-1.5.5-2.1.5-1.2,1.8-2,3-2.4-1.9-.3-3.6-1.6-4.3-3.3-.2-.5-.4-1.1-.8-1.4-.4-.3-1.2-.2-1.3.4ZM52.6,56.9c.1,0,.3,0,.4.1.2,0,.4.3.3.5,0,0-.2.1-.3.1-.2,0-.5,0-.6-.1-.2-.1-.2-.4,0-.6.1,0,.2,0,.4,0ZM62.6,56.3c.2,0,.4,0,.5,0,0,0,.2,0,.2.1,0,.1,0,.3,0,.4-.1,0-.2.1-.4.1-.2,0-.4,0-.6,0-.2,0-.3-.3-.2-.5.1-.1.3-.2.5-.1ZM11.4,55.4c-.2,0-.2.2-.2.4,0,.4.1.9.3,1.3,0,0,0,0,0-.1v-1.5ZM40.6,56.5c0,0-.1.2,0,.3h0s0,0,0,0c0,0,0,0,0,0,0,0,0,.1,0,.1,0-.1,0-.3,0-.4ZM38.6,55.9c.2,0,.4.2.4.4,0,.1-.2.2-.3.2-.1,0-.3,0-.4,0-.2,0-.4,0-.4-.2,0-.2,0-.4.2-.4.2,0,.3,0,.5,0ZM39.8,27.1c0,9.4.2,18.8.6,28.2v1s0-.3,0-.3c0-.7,0-1.5,0-2.2-.1-8.6-.3-17.1-.4-25.7,0-.4,0-.8-.3-1ZM53.2,54.5c.1,0,.2,0,.3.2,0,0,0,.2,0,.3,0,0-.2.1-.3.1h-.5c0,0-.2,0-.2,0,0,0,0,0-.1-.2,0-.2,0-.4.3-.5s.4,0,.6,0ZM13.4,47.2c-.5.5-.8,1.2-1,1.9-.7,1.9-1.3,3.9-1,5.9.1,0,.2-.1.2-.2.1-1.9.5-3.8,1.1-5.6.2-.7.5-1.4,1-1.9,0-.1-.2,0-.3,0ZM76.6,51.3c0,0-.1.1-.2.2-.4.8-.7,1.6-.6,2.5,0,.4.1.8.5.9.3-.3.5-.5.8-.8,0,0,0,0,.1-.1,0-.1,0-.3-.1-.4-.4-.6-.7-1.4-.4-2.1,0,0,0-.2-.2-.2ZM82.3,50.5s0,0-.1,0c-.8.9-1.6,1.8-2.3,2.8-.2.2-.3.4-.3.7,0,.2.2.4.4.5.2.1.4.2.6.2,0,0,.1,0,.2,0,0,0,0,0,.1-.1.5-.7.9-1.5,1.1-2.3,0-.2.2-.3.3-.4.2-.3.4-.6.4-1,0-.1,0-.3,0-.4,0-.1-.2-.2-.3-.1ZM62.7,54.1c.1,0,.2,0,.3.2,0,.2-.1.4-.3.4-.1,0-.3,0-.5,0s-.3-.2-.2-.4c0-.3.4-.3.7-.2ZM38.8,53.7c0,0,.1.1.1.2,0,.1,0,.3-.2.3-.1,0-.3,0-.4,0-.1,0-.3-.2-.3-.3,0-.2.1-.3.3-.3.2,0,.3,0,.5.2ZM53.7,52.2c.1,0,.1.3,0,.4,0,.1-.2.1-.4.2-.1,0-.3,0-.4,0-.2,0-.4-.2-.4-.4,0-.2.3-.4.5-.4.2,0,.4,0,.6.2ZM62.4,51.9c.2,0,.4,0,.5.1,0,0,.1,0,.2.2,0,.2-.2.3-.3.3-.1,0-.3,0-.5,0-.2,0-.4,0-.5-.2,0-.1,0-.3.1-.4.1,0,.3-.1.4,0ZM74.7,39.7c-1.1.2-2.2.3-3.3.4-.8,0-1.6.5-2,1.2,0,.1-.2.4,0,.4.4-.5,1-.8,1.6-1,.2,0,.5,0,.7,0,.2,0,.3.3.3.5-.1.3-.6.2-.9.2-.9,0-1.8,1-1.5,1.9.2-.9,1.4-1.2,2.1-.7.7.6.6,1.8-.1,2.3-.2.2-.6.3-.7.5,0,.2,0,.5,0,.7.1.4.3.7.4,1.1.3.8.6,1.6,1.2,2.1.5.4,1.1.7,1.7.8,2.2.5,4.7-.3,6.1-2.1.1-.1.4,0,.4.2,0,.2-.1.3-.2.5-.6.7-1.4,1.2-2.3,1.6-.4.2-.9.3-1,.8-.1.4.1.7.4.9.3.2.7.2,1.1.2.7,0,1.4-.4,2-.8.2-.1.3-.3.4-.5,0-.2,0-.4,0-.6v-.2c0-.8-.2-1.6-.5-2.3-.2-.3-.4-.7-.5-1-.1-.4-.1-.9-.2-1.4s-.3-.9-.8-1.1c.1-.3.4-.5.6-.7.2-.3.2-.7,0-.8-.1,0-.3,0-.4,0-.6.3-.9,1-.7,1.6.1.4-.5.7-.8.4-.3-.2-.4-.7-.5-1.1-.3-1.6-.8-3.3-2.1-4.1-.1,0-.3-.1-.4-.1ZM38.6,50.9c.2,0,.4.2.3.4,0,.2-.2.3-.4.3-.2,0-.6,0-.6-.2,0-.2.2-.4.4-.5.1,0,.2,0,.3,0ZM67.1,47.6c-.2.2-.2.4-.3.6-.2.5-.3,1-.3,1.5,0,.3-.2.6-.3.9-.1.3-.2.7,0,.9.5-.4.6-1.2.7-1.8.1-.8.3-1.6.8-2.2-.2-.1-.5,0-.6,0ZM53.6,49.8c.1,0,.3.1.3.3,0,.2-.2.2-.4.3,0,0-.2,0-.2,0-.2,0-.4,0-.6,0-.2,0-.3-.4-.2-.5,0-.1.2-.1.4-.2.3,0,.5,0,.8,0ZM34.3,47.4c.2.1.5.3.4.6-2.4-.5-4.9-.3-7.2.7-1,.4-2,1-3,1.4-.4.1-.7.2-1.1.1-.4-.1-.7-.5-.6-.9,0-.3.5-.5.8-.6,1.6-.6,3.3-1,5-1.4,1.9-.4,3.9-.7,5.6,0ZM68.6,47.3c-.2,0-.3.1-.4.3-.3.3-.5.7-.6,1.1-.2.5-.3,1-.3,1.5.5-.8,1-1.7,1.6-2.5,0-.1,0-.3-.2-.3ZM65.6,48.9s0,0-.1,0c0,0,0,.2,0,.3,0,.3.2.6.3.9,0-.4.2-.8.4-1.2-.2,0-.4,0-.6,0ZM28.2,47.8c-1.4.4-2.8.9-4.2,1.3-.2,0-.4.1-.4.3.1.2.3.2.5.2.2,0,.4,0,.6-.2,1.4-.6,2.9-1.2,4.3-1.8-.3,0-.5,0-.8,0ZM43.1,48.6c0,.1-.2.2-.4.3-.1,0-.2.3,0,.4.2-.2.4-.4.6-.6,0,0,0,0-.2,0ZM58,48.5c1,.1,2.1.2,3.1,0,.3,0,.6,0,.7.2-.2.2-.5.2-.8.2-1.1,0-2.1,0-3.2.1-.2,0-.5,0-.5-.2,0-.2,0-.3.2-.4.2,0,.3,0,.5,0ZM73.9,47.3c.2.3.3.7.2,1.1,0,0,0,.2-.1.3-.2.2-.4.3-.7.2-.2,0-.5-.2-.6-.4-.2-.2-.4-.4-.5-.6,0-.2,0-.5,0-.7.1-.2.4-.2.6-.3.4,0,.8.1,1,.4ZM39.2,48c0,0,0,.2,0,.3,0,0-.2.1-.3.2-.1,0-.3,0-.4,0-.1,0-.3-.1-.3-.3,0-.2.2-.4.4-.4.2,0,.5,0,.7.2ZM72.7,47.4c-.1.1,0,.4.1.4.2,0,.4.2.3.4,0,.2.2.3.3.2.2,0,.2-.2.2-.4,0-.2,0-.3-.2-.4,0-.1-.2-.3-.4-.4-.2,0-.4,0-.5,0ZM72.2,32.9c-1.5.3-2.9.9-3.9,2.1-1,1.2-1.3,2.9-.5,4.2.3.5.7.9,1.2,1,.5.2,1.1,0,1.5-.4.4-.5,1.2,0,1.7-.2.8-.2,1.6-.4,2.5-.4.2,0,.4,0,.6,0,.2,0,.4.2.5.4.5.5,1.1,1.1,1.4,1.7.5,1.1.4,2.4,1,3.4,0-.6.1-1.3.2-1.9,0-.2,0-.5.2-.7.1-.2.4-.3.6-.3.4.1.8.3,1.1.6.3.3.4.8.1,1.1-.3.3,0,.7.2,1.1.2.7,0,1.4.1,2.1.2.6.6,1,1,1.3.1.1.3.2.4.2.1,0,.3-.1.3-.2.6-.6,1-1.4,1.1-2.2,0-.3,0-.8-.4-.8,0-.8.8-1.3,1.3-2,.5-.7.6-1.6.6-2.5,0-.9,0-1.8-.6-2.5-.7-.8-2.1-.8-2.8-.1-.2.2-.4.4-.7.3.2-.3.4-.6.5-1,.3-.5.6-1.1.6-1.6.1-1.2-.8-2.3-1.9-2.7s-2.3-.2-3.4.2c-.3.1-.6.3-.5.6,0,.2.2.3.3.4,0,0,0,.1,0,.2,0,0-.1.2-.2.1-.6-.7-1.3-1.5-2.2-1.8-.6-.2-1.3-.1-1.9,0ZM65.1,47.9c0,0-.2,0-.2,0,0,.2.2.4.5.4.2,0,.4,0,.7,0,0,0,.2,0,.2,0,0,0,0-.1.1-.2,0-.1.1-.2.2-.3-.4-.3-1,.3-1.4,0ZM53.1,47.1c.2,0,.3,0,.5,0,.1,0,.3.1.3.3,0,.2-.2.3-.4.3-.2,0-.4,0-.6,0-.1,0-.3,0-.4,0-.1-.1,0-.4,0-.5.2-.1.4-.1.6-.1ZM57.9,47.1c1,.1,1.9.2,2.9,0,.1,0,.2,0,.3,0,0,0,.1.2,0,.3,0,0,0,0-.1,0-1.2,0-2.4,0-3.5.1-.1,0-.2,0-.3,0-.1-.1,0-.4.1-.5.2,0,.4,0,.6,0ZM67.3,46.1c-.4,0-.8,0-1.1.2-.3.1-.7.4-.8.8,0,0,0,.2,0,.2,0,0,.1,0,.2,0,.6,0,1.2-.1,1.8-.3.3,0,.7-.3.6-.6,0-.2-.2-.3-.3-.3-.2,0-.3,0-.5,0ZM23.9,46.1c0,.3,0,.6,0,1,0,0,.2,0,.2-.2,0-.3,0-.5-.1-.8ZM44,45.7c2.2,0,4.3.2,6.5.3.2,0,.5,0,.5.3-.3.2-.6.1-.9,0-1.9-.2-3.9-.3-5.8,0-.2,0-.3,0-.5,0-.1,0-.2-.3-.1-.4,0-.1.3-.1.4-.1ZM38.8,45.4c0,0,.2,0,.3.1.2.2,0,.4-.1.6-.2.1-.4,0-.6,0-.2,0-.3-.4-.2-.6.2-.2.4-.2.7-.2ZM46.4,44.6c3.5.2,7,.4,10.6.5.2,0,.4,0,.4.3-.6.1-1.2,0-1.8,0l.5.4c-.2.2-.5.3-.8.3-.3,0-.6-.2-.6-.5.1,0,.3-.1.4-.2-2.8-.2-5.7-.3-8.6-.3-.2,0-.3,0-.5,0-.1,0-.2-.3,0-.4,0,0,.2,0,.3,0ZM69.2,45.1c-.1,0-.2,0-.3.2-.1,0-.2.2-.3.3-.1,0-.3.2-.3.4,0,0,0,.2.1.2,0,0,0,0,0,0,.3-.2.6-.4.8-.6,0,0,.1,0,.1-.2,0-.1-.1-.2-.2-.2ZM73.5,44.1c0,.3-.1.6-.2.8,0,.3,0,.6.3.7,0,0,.1.1,0,.2,0,0-.1.1-.2.1-.3,0-.6,0-.7-.3,0-.1,0-.3,0-.4,0-.4,0-.7,0-1.1,0-.2,0-.5.2-.6.3-.1.5.2.6.5ZM69.7,45.7c0,0,0,0,0,.1h0c0,0,.1,0,.2,0,0,0,0-.1,0-.2ZM69.2,43.9c-.1,0-.2,0-.3.1,0,.1,0,.2,0,.3,0,0,.2.2.3.2.4.3.8.7,1,1.2.1-.2.3-.4.4-.5.1-.1.2-.3.2-.5,0-.1,0-.2-.2-.3-.4-.4-.9-.6-1.4-.6ZM24.5,41c-.2,0-.2.2-.3.4,0,.2-.2.5-.2.7,0,.3-.2.5-.2.8,0,.2,0,.4,0,.5,0,.6,0,1.1.1,1.7,0,.1,0,.3.2.2,0-1.4.1-2.9.4-4.3ZM70.6,43.1c-.1,0-.3.2-.3.3,0,.2.2.3.3.2.1-.2.4,0,.5,0,0,.2,0,.4,0,.6,0,.2,0,.4.2.5,0-.3,0-.5,0-.8,0-.3,0-.7-.3-.9-.2,0-.4,0-.6,0ZM75.4,42.9c.2,0,.5,0,.6.3.1.2,0,.5-.2.6-.3,0-.6-.4-1-.3-.2,0-.3.4-.5.3-.1,0-.2-.2-.2-.3,0-.1.1-.2.2-.3.3-.2.6-.3,1-.3ZM38.6,42.7c.2,0,.5.3.3.5,0,0,0,0-.1.1-.1,0-.3.1-.5,0-.1,0-.3-.2-.2-.4,0-.2.3-.3.5-.3ZM75.7,41.4c.2.2.3.4.1.6-.2.1-.4,0-.6-.2-.2-.2-.5-.2-.7-.2-.2,0-.3,0-.5.1-.2,0-.4,0-.4-.2,0-.1,0-.4,0-.5s.3-.2.5-.2c.6,0,1.2.2,1.6.5ZM38.6,40.9c.1,0,.2.3.1.4-.1.2-.4.2-.6.1,0,0-.2,0-.2-.1-.1-.1,0-.4.2-.5.1,0,.3,0,.5,0Z"/>
      <path class="cls-2" d="M19.5,60.1c0,0,0,.1,0,.2,0,0-.2,0-.3,0-.7,0-1.4.6-1.4,1.3,0,0-.1.1-.2,0,0,0-.1-.1-.1-.2-.1-.4,0-.9.2-1.2.2-.4.5-.7.9-.9.1,0,.3-.2.5-.1.1,0,.2.1.2.2.1.2.2.4.3.6ZM19.1,60c0-.2-.3-.3-.5-.2-.2,0-.3.2-.5.4-.1.1-.3.3-.3.5.3-.4.8-.6,1.2-.7Z"/>
    </g>
  </g>
</svg>