<?xml version="1.0" encoding="UTF-8"?>
<svg xmlns="http://www.w3.org/2000/svg" version="1.1" viewBox="0 0 92 92">
  <defs>
    <style>
      .cls-1 {
        fill: #cabe20;
      }

      .cls-2 {
        fill: #fff;
      }

      .cls-2, .cls-3, .cls-4 {
        fill-rule: evenodd;
      }

      .cls-3 {
        fill: #ffa748;
      }

      .cls-4, .cls-5 {
        fill: #571a2b;
      }
    </style>
  </defs>
  <!-- Generator: Adobe Illustrator 28.7.10, SVG Export Plug-In . SVG Version: 1.2.0 Build 236)  -->
  <g>
    <g id="_图层_1" data-name="图层_1">
      <path class="cls-3" d="M78.2,69.1c14.1-12.6-4.1-19.7-.7-30.4,3.4-10.6,11.8-26.6-19.8-23.8C26,17.7-.3,49.7,11,64.8c11.3,15,53.1,16.9,67.2,4.3Z"/>
      <path class="cls-2" d="M52.1,43.3c.9.4,1.8.9,2.7,1.3,1.4.7,2.9,1.4,4.1,2.5s2,2.7,1.8,4.3c-.2,1.9-1.7,3.3-3.1,4.6-1.8,1.7-3.6,3.3-5.4,5-.8.7-1.7,1.8-1.2,2.7,1.1,2.6,2.1,5.5,1.1,8.1-.3.7-.9,1.5-1.7,1.5-.6,0-1.1-.5-1.4-.9-1.5-1.8-2.6-3.9-3.2-6.1-.8-2.9-.7-6.2,1.3-8.5,1.5-1.7,4.1-2.9,4.3-5.2-3-2.5-7.2-3.4-10.9-2.2-3.7,1.2-6.7,4.3-7.7,8.1-.5,2,.6,4.1,2.1,5.7,1.4,1.6,3.2,2.8,4.3,4.6,2.2,3.6,1.2,8.3.2,12.4-.4,1.4-2.5,1.7-3.6.7-1.1-1-1.3-2.6-1.2-4.1.1-1.5.5-3,.2-4.4-.7-3.7-5.1-5.4-7.3-8.6-1.6-2.4-1.8-5.5-1.2-8.3.6-2.8,1.9-5.4,3.3-8-2.5-3.8-3.5-8.5-2.9-12.9.3-2.3-2.6-4-2.3-6.2.2-1.8,2.4-2.6,4.2-3,3.4-.6,6.9-.9,10.4-.7.8,0,1.1-1.1.7-1.8-.4-.7-1.1-1-1.8-1.5-1.3-.9-2.1-2.4-2.5-3.9-.6-1.9-.6-4.1.5-5.8.3-.4.7-1.1,1.4-.4.2-1.1,2.4-2.1,3.8-1.5.8.3,1.7-.4,2.3-1.1.5-.7,1-1.6,1.9-1.8,1.6-.4,2.6,1.7,2.4,3.3-.2,1.6-.9,3.3-.2,4.7.3.6.7,1,.8,1.6,0,.5,0,.3-.4,1.5-.3,1.2-1,1.6-1.3,2.3-.5,1-.4,1.9-1.3,2.8-.2.2.2.5,0,.8,2.3,0,4.1,2,5.9,3.4,2.2,1.8,5,3.1,7.9,3.4,2.9.2,5.9-.6,8.1-2.5.8-.8,2.9.2,3-.9,0-.3,0-.4-.3-.5-.1,0-.5,0-.6,0-.3-.4,1.5-1.1,1.4-.5,0,.1-.1.2,0,.3,0,.3.2.3.4.4.5,0,1.2-.3,1.5-.7.2-.3.1-.4,0-.4-.2,0-.7.1-.5-.2.2-.4.8-.8,1.4-.4.1,0,0,.2,0,.4-.1.3-.3.5.4.3,1-.3,1.1-.3,1.3-.2.3,0,.6.5.9.9.5.9,1,1.8,1.1,2.8,0,1-.5,2.1-1.5,2.3,0,.3.1.6.4.8.2.2.8,0,.7.3-.3.6-1.1.8-1.8.6-.2,0,.2-.4.3-.6,0-.3,0-.7-.2-1-.6.2-1.1.5-1.7.7.2.2,0,.5.3.7.2.2.6.1.6.4,0,.3-.5.4-.8.5-.3,0-.9,0-1-.2-.2-.3.4-.3.4-.6,0-.3,0-.6-.3-.7-.5-.3-1.2.2-1.1.8.2,1.4-.3,2.9-1.5,3.8-1.1.9-2.7,1.1-4,.6-1.2-.5-2.5.1-3.7.5-2.8.8-5.9.3-8.3-1.4-.1,1.9-.5,4-1.7,5.4.2.1,0,.1.5.1Z"/>
      <circle class="cls-1" cx="39.7" cy="21.8" r=".7"/>
      <circle class="cls-1" cx="44.6" cy="20.4" r=".7"/>
      <path class="cls-5" d="M44.6,7.8c1.6-.4,2.6,1.7,2.4,3.3-.2,1.6-.9,3.3-.2,4.7.3.6.7,1,.8,1.6,0,.5,0,.7-.4,1.5-.2.6-.4,1.2-1,1.4-.6.2-.7,2.8-1.6,3.7-.2.2.2.5,0,.8,2.3,0,4.1,2,5.9,3.4,2.2,1.8,5,3.1,7.9,3.4,2.9.2,5.9-.6,8.1-2.5.8-.8,2.9.2,3-.9,0-.3,0-.4-.3-.5-.1,0-.5,0-.6,0-.3-.4,1.5-1.1,1.4-.5,0,.1-.1.2,0,.3,0,.3.2.3.4.4.5,0,1.2-.3,1.5-.7.2-.3.1-.4,0-.4-.2,0-.7.1-.5-.2.2-.4.8-.8,1.4-.4.1,0,0,.2,0,.4-.1.3-.3.5.4.3,1-.3,1.1-.3,1.3-.2.3,0,.6.5.9.9.5.9,1,1.8,1.1,2.8,0,1-.5,2.1-1.5,2.3,0,.3.1.6.4.8.2.2.8,0,.7.3-.3.6-1.1.8-1.8.6-.2,0,.2-.4.3-.6,0-.3,0-.7-.2-1-.6.2-1.1.5-1.7.7.2.2,0,.5.3.7.2.2.6.1.6.4,0,.3-.5.4-.8.5-.3,0-.9,0-1-.2-.2-.3.4-.3.4-.6,0-.3,0-.6-.3-.7-.5-.3-1.2.2-1.1.8.2,1.4-.3,2.9-1.5,3.8-1.1.9-2.7,1.1-4,.6-1.2-.5-2.5.1-3.7.5-2.8.8-5.9.3-8.3-1.4-.2,2.2-.6,4.7-2.4,6.1-1.6,1.3-3.9,1.2-6,1.7-2,.5-4.2,2-3.9,4.1,2.1-1.2,4.8-.5,7,.5,2.2,1,4.4,2.1,7,2-1.4.4-2.6.4-3.4,1.4-1.3,1.6-2.6,3.2-4,4.8-.5.6-1.1,1.4-1,2.2.1.9,1.2,1.5,2.1,1.5.9,0,1.8-.5,2.5-1.1,2.2-1.6,4.1-3.5,6-5.5,1.5-1.6,3.1-3.5,2.7-5.6-.4-1.7-2-2.9-3.5-3.6-1.6-.8-3.3-1.4-4.4-2.8.9.4,1.8.9,2.7,1.3,1.4.7,2.9,1.4,4.1,2.5,1.2,1.1,2,2.7,1.8,4.3-.2,1.9-1.7,3.3-3.1,4.6-1.8,1.7-3.6,3.3-5.4,5-.8.7-1.7,1.8-1.2,2.7,1.1,2.6,2.1,5.5,1.1,8.1-.3.7-.9,1.5-1.7,1.5-.6,0-1.1-.5-1.4-.9-1.5-1.8-2.6-3.9-3.2-6.1-.8-2.9-.7-6.2,1.2-8.5,1.5-1.7,4.1-2.9,4.3-5.2-3-2.5-7.2-3.4-10.9-2.2-3.7,1.2-6.7,4.3-7.7,8.1-.5,2,.6,4.1,2.1,5.7,1.4,1.6,3.2,2.8,4.3,4.6,2.2,3.6,1.2,8.3.2,12.4-.1.5-.5.9-.9,1.1.1.3.2.8.3,1.6,0,.2-.1.6-.4.5-.1,0-.2-.2-.2-.3-.1-.5,0-1,0-1.7-.8.2-1.8,0-2.4-.5-1.1-1-1.3-2.6-1.2-4.1.1-1.5.5-2.9.2-4.4-.7-3.7-5.1-5.4-7.3-8.6-1.6-2.4-1.8-5.5-1.2-8.3.6-2.8,1.9-5.4,3.3-8-2.5-3.8-3.5-8.5-2.9-12.9.3-2.3-2.7-4-2.3-6.2.2-1.8,2.4-2.6,4.2-3,3.4-.6,6.9-.9,10.4-.7.8,0,1.1-1.1.7-1.8-.4-.7-1.1-1-1.8-1.5-1.3-.9-2.1-2.4-2.5-3.9-.6-1.9-.6-4.1.5-5.8.3-.4.7-1.1,1.4-.4.2-1.1,2.4-2.1,3.8-1.5.8.3,1.7-.4,2.3-1.1.5-.7,1-1.6,1.9-1.8ZM47.2,70.8c.4,0,.5,1.3.5,2.1,0,2.8.2,5.8.2,5.8,0,1.1.2,4.5,0,5.2,0,.1,0,.2-.2.3-.2,0-.4-.2-.4-.5,0-3.9,0-9.1-.1-12.9ZM38.2,70.3c-.2,0-.4,0-.6.2-.8.4-1.5.8-2.3,1.2-.6.3-.9,1.2-.5,1.8.3-.4.6-.7,1.1-.9.4-.2,1-.2,1.3.1-.6.3-1.2.6-1.8.9-.3.1-.6.3-.8.5-.2.2-.2.6,0,.9.4-.1.6-.5,1-.7.3-.2.9-.2,1,.1-.6.5-1.4.8-2.1.7-.2.3-.2.6-.1.9.1,1,.3,2,.4,3.1,0,.7.2,1.4.6,2,.4.6,1.1,1,1.8.7.6-.2.9-.9,1-1.5.5-1.8.7-3.6.8-5.4.1-1.2.2-2.5-.1-3.7-.1-.4-.4-.9-.8-.9ZM45.7,60.5c-.4,1.2-.3,2.5-.2,3.7.5,2.9,1.6,5.6,3.4,7.9.2.3.5.6.8.7.6,0,1-.5,1.2-1,.9-2.2.4-4.7-.5-6.9-.3-.8-.7-1.7-1.1-2.5-1.5.5-3.4-.4-3.8-2ZM29.4,48.8c-1.9,2.7-2.6,6.1-3.4,9.3-.3,1.2-.5,2.4-.2,3.6.3.9.9,1.6,1.6,2.4,2,2.2,4,4.4,6.2,6.5.3.3.6.6,1.1.6.3,0,.6-.1.8-.3.9-.5,1.7-1.1,2.5-1.9-1.7-2.2-3.5-4.4-5.4-6.4-.3-.3-.7-.7-.9-1.1-.4-.8-.3-1.7-.1-2.5.5-2.4,1.5-4.7,3-6.7-2.1-.3-4.1-1.7-5.2-3.6ZM45.6,70c.2,0,.4,0,.6.1.2.1.2.3.2.5-1.8,0-3.5,0-5.3.1-.2,0-.4,0-.6,0-.2,0-.3-.3-.3-.5,1.8,0,3.6-.1,5.4-.2ZM49.8,52.6c.2-.1.4,0,.5,0-.1,1-1,1.8-2,1.8-.4,0-.6.6-.6,1,0,.4-.3,1-.7.8.1-.3.2-.7.2-1.1,0-.1,0-.3,0-.3,0,0-.2,0-.3,0-3.5,0-6.9.2-10.4.3,0,0-.1,0-.2,0,0,0,0,.1,0,.2.2,2.1.5,4.2.7,6.3,0,.1,0,.3.2.3,2,0,3.9,0,5.9,0,.3,0,.8.2.6.5,0,.1-.2.1-.4.1-2,0-4,0-6,0-.3,0-.3.3-.3.6,0,.9,0,1.7,0,2.6-.7-.5-.8-1.5-.8-2.4,0-2.6-.2-5.1-.7-7.7,0-.3-.1-.7-.4-.8-.3-.2-.8-.3-.6-.6,3.9.2,7.9.1,11.8-.1,1.1,0,2.4-.2,3-1.1.1-.2.2-.3.4-.4ZM46.9,25.9c-.2-.2-.7,0-.9.2-.2.3-.3.6-.4.9-.6,1.9-2.7,3.3-4.7,3-2-.3-3.7-2.1-3.8-4.1-3.2,0-6.5.3-9.7.9-1.3.3-2.9.8-3.2,2.1-.1.6,0,1.2.2,1.7,1.4,3.6,4.9,5.9,7.5,8.7.3.3.6.6.6,1-2.2-1.5-4.2-3.3-5.9-5.3-.3.7-.4,1.5-.4,2.2-.2,4.2,1.2,8.3,3.7,11.7.8,1.1,1.9,2.1,3.2,2.6,2.3.8,4.9-.6,6.3-2.5.7-1,1.2-2.1,2.1-2.9,2-1.7,5.2-1.1,7.6-2.3,1.9-1,3.1-3.2,2.9-5.4,0-.1,0-.2-.1-.3,0,0-.2,0-.3,0-1.3.4-2.6.7-3.9,1.1-.2,0-.4.1-.6.3-.2.2-.3.4-.3.7-.5,1.4-1.7,2.5-3.1,2.7-1.4.2-3-.6-3.5-2-1.4.9-3.3.8-4.6-.2,0,.5.6.8,1,.9.5.2,1,.3,1.2.7s.1,1.1-.4,1.1c-1.5,0-2.9-.7-3.8-1.9-.9-1.1-1.3-2.6-1.5-4,0-.7,0-1.6.4-2.1.3-.3.7-.5,1.1-.6.6-.2,1.1-.4,1.7-.7-3.1-.2-5.9-2.7-6.4-5.8.5.6,1,1.3,1.3,2,1.1-.7,2.6-.6,3.8-.2,1.3.4,2.4,1,3.7,1.4,1.3.3,2.8.3,3.7-.6,1.6-1.4,3.9-1.9,5.9-1.2,2,.7,3.6,2.5,3.9,4.6-.4-.2-.6-.6-.8-.9-1.1-2.1-3.4-3.9-5.8-3.4-2,.4-3.5,2.2-5.5,2.4-1.5.1-2.9-.6-4.2-1.2-1.4-.6-3-1-4.3-.2.5,1.2,1.7,2.1,3,2.4.5.1,1.1.1,1.5.4.3.3.5.7.8,1.1.5.7,1.4,1.1,2.3,1.3.4.1,1,.2,1.2-.2.6-1,1.7-1.7,2.9-1.8,1.2,0,2.4.4,3.2,1.4.2.3.6.2.9.1,4.3-1,8.5-2.2,12.7-3.8-2.4.1-4.8-.7-6.9-1.8-2.1-1.2-4-2.8-5.7-4.4ZM35.8,35.2c-.3-.4-.9-.1-1.4.1-.6.3-1.2.7-1.4,1.4,0,.3,0,.7,0,1,.2,1.3.5,2.6,1.3,3.7.8,1.1,2.1,1.8,3.4,1.7,0-.4-.4-.7-.8-.9-.4-.1-.9-.2-1.2-.5-.5-.4-.6-1-.7-1.6,0-.1,0-.2,0-.3,0-.1.2-.1.3,0,1,1.3,2.9,1.7,4.4,1-.8,0-1.7,0-2.3-.6.1-.3.6-.2.9,0,.8.3,1.7,0,2.3-.5-.9,0-1.9-.3-2.6-.8-.2-.1-.3-.3-.4-.5,0-.2,0-.5.2-.5.9.7,2.1.6,3.2.4.1,0,.2,0,.3-.1.3-.2.1-.6-.1-.8-.3-.2-.6-.2-.9-.2-1.6,0-3.2-.8-4.3-1.9ZM46.5,39.7c-.4,0-.8.1-1.3.3-1.3.4-2.5.7-3.8.9-.2,0-.2.3-.1.4.2.5.6.8,1.1.9.5.1,1,0,1.5,0,.6-.1,1.2-.4,1.7-.8.5-.4.9-1,.9-1.7ZM61.4,33.8c0,0-.2,0-.3,0-6.6,1.7-13.2,3.4-19.8,5.1-.4.1,0,1.1-.4,1.1,0,.4.6.4,1,.3,6.9-1.5,13.7-3.3,20.4-5.4-.6-.5-1.5-.3-2.2-.1-5.6,1.6-11.3,3.1-16.9,4.7-.3,0-.6.1-.8-.1,6.3-1.7,12.6-3.5,18.8-5.2.2,0,.4-.2.3-.4ZM40.4,38.8c0,0-.2,0-.3,0-.3,0-.5.1-.8.2.2.1.5.2.8.2.2,0,.4-.2.3-.3ZM62.7,35.5c-.2-.2-.6-.2-.8,0-2.7.8-5.4,1.5-8.1,2.3,1.4.6,2.7,1.1,4.2,1.3,1.5.2,3,0,4.2-.9.7-.5,1.6-.4,2.4-.2.8.2,1.6.5,2.4.4,1.1-.1,2.1-1,2.4-2.1-2,1.4-5,1.1-6.6-.7ZM60.9,32.6c-.3,0-.5,0-.8,0-5.5,1.7-11,3.4-16.7,4.6-.8.2-1.6.4-1.9,1.1,6.4-1.7,12.9-3.4,19.3-5,.1,0,.2,0,.3-.1.2-.2,0-.5-.2-.6ZM45.4,35.8c-.7-.6-1.6-.9-2.5-.8-.9,0-1.8.5-2.3,1.2-.1.1-.2.4,0,.5.7.4,1.6.4,2.4.3.8-.1,1.6-.4,2.4-.7,0,0,.2,0,.2-.1,0-.1,0-.3-.2-.4ZM67.1,29.4c-.3,0-.5.4-.4.6.5.9,1,1.7,1.6,2.6.1.2.2.5,0,.6-.7-.5-.9-1.4-1.4-2-.3-.4-1-.8-1.4-.5-.4.4-.1,1,.2,1.5.3.4.7,1,.4,1.5-.3-.6-.6-1.2-1-1.8-.2-.3-.5-.6-.8-.5-.2,0-.3.3-.3.6,0,.2.1.4.2.6.3.5.6,1,.8,1.5.1.2,0,.5-.3.5-.2,0-.5-.1-.7-.3-.6-.5-.8-1.4-1.4-1.9-.2-.2-.5-.3-.8-.2-.3.2-.3.6-.2,1,.8,2.3,3.3,3.8,5.7,3.3.4,0,.8-.2,1.1-.4,1.1-.6,1.7-2.1,1.5-3.3-.2-1.3-1.1-2.4-2.1-3.1-.2-.2-.5-.3-.7-.3ZM64.5,34c.1-.3-.2-.7-.6-.6.1.2.3.4.4.6h.2ZM74.2,27.1c-.2,0-.3,0-.5,0-.7.3-1.4.5-2.1.8-1.1.4-2.2.9-3,1.7.3.3.8,0,1.2-.2.8-.5,1.6-.8,2.5-1,.3,0,.6,0,.9,0,.3.2.4.6.2.8-.8.7-1.7,1.2-2.7,1.6-.1,0-.3.1-.4.2-.1.1-.1.3,0,.4.7-.4,1.4-.7,2.2-1.1.4-.2.8-.4,1.3-.4.3,0,.7,0,.8.4.2.4-.2.9-.6,1.1-1,.7-2.1,1.1-3.3,1.3,0,.1,0,.3.2.3.1,0,.3,0,.4,0,1.4-.4,2.9-.9,4.3-1.4.1,0,.3-.1.4-.3,0-.2,0-.3,0-.5-.2-1.2-.6-2.3-1.2-3.4,0-.2-.2-.4-.4-.5ZM63.8,32.7c0-.1-.3-.1-.4,0,0,.1,0,.3.2.3.1,0,.2-.2.2-.3ZM73.8,30.6c-.1,0-.2,0-.4,0-1.1.3-2.1.9-3,1.5,0,.3.4.3.7.2,1-.3,2.1-.7,2.8-1.5,0,0,0-.3-.1-.3ZM63.4,31.7c-.1,0-.3,0-.4.2-.1,0,0,.3.1.3.2,0,.3,0,.4-.2h0c0-.2,0-.3-.2-.3ZM72.6,28.9c-1.1.2-2.2.7-3.1,1.5,0,.2.3.4.5.4.2,0,.5,0,.7-.2.8-.4,1.6-.8,2.2-1.4,0,0,0,0,0-.1,0-.1-.2-.2-.3-.1ZM45.3,25.6c-.2,0-.2.2-.2.4-.3,1.4-1.4,2.7-2.9,3-1.5.3-3.1-.5-3.6-1.9-.1-.3-.2-.5-.3-.8-.2-.2-.4-.4-.7-.4.4.7.7,1.4,1.1,2,.4.6,1,1.2,1.7,1.4.6.2,1.3.1,1.9,0,1.5-.4,2.9-1.6,3.1-3.1,0-.2,0-.5-.1-.6ZM40.3,24.4c-.2-.1-.4,0-.5.1-.1.2-.1.4-.2.6,0,.4-.1.8-.5.9-.3.1-.3.6-.1.9.6,1,1.7,1.6,2.9,1.6,1.1,0,2.2-.9,2.6-2,.1-.4.2-.8,0-1.1-.1-.3-.6-.6-.9-.5-1.1.4-2.4.2-3.4-.5ZM45,15.2c-.1,0-.3,0-.4,0-1.2.4-2.3.8-3.5,1-1.2.1-2.5,0-3.5-.8-.9.7-.7,2-.4,3.1.4,1.3.9,2.5,1.5,3.7.2.4.4.8.7,1.1.4.4.8.6,1.3.8.9.4,1.9.7,2.8.4.7-.2,1.2-.8,1.5-1.5.3-.7.4-1.4.5-2.1.2-1.8,0-3.5-.3-5.3,0-.1,0-.2-.2-.3ZM43.5,21.5c.1-.1.3-.1.4,0,0,0,0,.1,0,.2,0,.9-.7,1.8-1.6,1.9-.2,0-.2-.2-.2-.3,0-.1.2-.2.4-.3.4-.2.7-.6.8-1.1,0-.1,0-.3.2-.4ZM37,19.9c-.1,0-.6.4-.6.8,0,.5.3.5.5.8.6.4.8.6,1.2.8,0-.5-.7-2-1.1-2.3ZM41.7,18.9c0-.1.2-.3.3-.2,0,0,0,0,0,.1.2.4.4.9.5,1.4,0,.5,0,1-.4,1.4,0,0-.2.1-.3.1-.2,0-.1-.3,0-.5.3-.6.1-1.3-.2-1.9,0-.1-.1-.3-.1-.4ZM39.6,18.8c0-.3.4-.7.7-.6.2.1.3.4.3.7,0,.2,0,.5,0,.7,0,.2,0,.5-.1.6-.3.2-.7,0-.8-.3-.2-.3-.2-.7-.1-1.1ZM36.2,12.7c-.2,0-.4,0-.5.2-.3.3-.5.8-.6,1.2,0,.2-1.1,2.5.5,5.2,0,.1.4.7.6.8.3.2.7-.1.7-.5,0-.3,0-.8,0-1-.4-.9-.5-2.9.3-3.5.2-.1,0-.5,0-.8-.1-.4-.4-1-.6-1.3,0-.1-.1-.3-.2-.3ZM47.3,17.5c0-.4-.5-.7-.8-.5-.4.1-.4.6-.4,1,0,.5-.2,1.5-.2,1.7,0,0,0,.2,0,.3,0,.1.3.2.5,0,.2,0,.3-.2.4-.4.2-.3.6-1.8.6-2.1ZM43,17.7c.2-.1.4,0,.5.2.3.3.4.8.3,1.3,0,.2-.2.4-.4.4-.2,0-.4-.2-.5-.5-.2-.4-.3-.9,0-1.3,0,0,0-.1.1-.1ZM38.9,17.2c.2-.3.6-.4,1-.3.2,0,.3.1.3.3,0,.2-.2.3-.4.4-.2,0-.4,0-.5.1-.2.1-.3.4-.5.6-.2-.3-.1-.8.1-1ZM42.3,16.4c.5-.3,1.3-.3,1.8.1-.1.2-.4.1-.6,0-.4,0-.8,0-1.1.3-.1.1-.3,0-.3-.2,0-.2.1-.3.3-.4ZM45.9,14.4c0,0-.2,0-.3,0-.2.2-.2.6,0,.9,0,.3.1.5.2.8,0,.2.2.4.4.3,0-.7,0-1.3-.2-1.9,0,0,0,0,0,0ZM46.1,9c-.3-.5-.9-.9-1.4-.8-.3,0-.5.2-.7.4-.8.8-.9,1.7-2,2.3-.6.3-1.5,0-2.3,0-.9,0-1.9.3-2.3,1.1-.5.9-.2,2,.4,2.7.7.7,1.7,1,2.7,1,1,0,1.9-.3,2.8-.7,1.2-.5,2.5-1.3,3.1-2.5.5-1.1.5-2.5-.2-3.5ZM43.7,13.9c.2,0,.5-.1.5,0-.8.5-1.6,1-2.5,1.2-.9.2-1.9.2-2.7-.4-.1,0-.2-.2-.2-.3,0-.1,0-.3.2-.3.9.7,2.3.8,3.3.3.5-.2.9-.4,1.4-.6Z"/>
      <path class="cls-4" d="M48.5,67c.2-.6.8-1,1.4-1,.2,0,.3,0,.4.1,0,.1,0,.4-.1.3-.4,0-.8.1-1,.4-.3.3-.4.6-.6,1-.2-.2-.2-.6,0-.9Z"/>
      <path class="cls-1" d="M19,10.7c.2,0,.4,0,.5,0,0,0,.1.2.2.3.1.4.2.8.2,1.2-.5.1-1,.2-1.5.4-.2,0-.4,0-.5-.1,0-.1,0-.2.1-.3.2-.1.4-.1.6-.2.2,0,.4-.1.5-.3.1-.2,0-.4-.2-.5-.7,0-1.3.1-2,.2.5,1.7,1,3.4,1.5,5.2,0,.2.1.5.1.7,0,.6-.3,1.3-.9,1.5-.6.3-1.3.1-1.7-.3,0,0-.2-.2-.2-.3,0-.2,0-.5,0-.7.2-.7.9-1.3,1.7-1.5.3,0,.3-.4.2-.7-.3-1.4-.7-2.7-1.3-4,0-.1.2-.3.3-.3.8-.1,1.6-.2,2.3-.3ZM76.8,6.4c.2,0,.3.3.3.4.2,1.1,0,2.3.3,3.3.1.4.3.7.3,1.1,0,.9-.7,1.5-1.4,2-.3.2-.5.4-.9.3-.4,0-.6-.4-.7-.7,0-.4,0-.7.2-1,.4-.8,1.1-1.3,2-1.5.2,0,.2-.3.2-.4,0-.4,0-.8-.1-1.2,0,0,0-.1,0-.2,0,0-.2,0-.3,0-1,.3-2,.6-3,.9-.3.1-.7.3-.7.6,0,.3,0,.6,0,.9,0,.5,0,1-.3,1.4-.4.6-1.2.9-1.8.6-.6-.3-.9-1.1-.7-1.8.3-.6,1.1-1,1.7-.8.2,0,.5.2.7.2,0-.6,0-1.1,0-1.7,0-.6.1-1.4.7-1.5,1-.3,2.1-.6,3.1-.9,0,0,.2,0,.3,0ZM72.4,10.9c-.4-.2-.9-.2-1.4,0-.2,0-.4.2-.5.3-.3.4,0,1,.3,1.3.3.2.8.3,1.2.1.5-.2.6-.8.6-1.4,0,0,0-.2,0-.2,0,0-.1,0-.2-.1ZM76.7,6.9c0,0-.2,0-.2,0-.7.2-1.4.4-2,.6-.3,0-.6.2-.8.3-.5.3-.7.9-.6,1.4,0,0,0,0,0,0,0,0,.2,0,.3,0,.5-.2.9-.4,1.4-.5.5-.2,1-.3,1.6-.4.2,0,.5-.1.6-.3,0-.1,0-.3,0-.4,0-.2,0-.4,0-.6,0,0,0-.1,0-.1Z"/>
      <path class="cls-4" d="M48.1,65.4c0,0-.2,0-.3,0s0-.2,0-.3c0-.2.2-.3.3-.4.3-.3.7-.5,1.1-.6.2,0,.4,0,.5,0,.1.1.1.4,0,.4-.6,0-1.2.4-1.6.9Z"/>
    </g>
  </g>
</svg>