<?xml version="1.0" encoding="UTF-8"?>
<svg xmlns="http://www.w3.org/2000/svg" version="1.1" viewBox="0 0 92 92">
  <defs>
    <style>
      .cls-1 {
        fill: #fff;
      }

      .cls-1, .cls-2, .cls-3, .cls-4 {
        fill-rule: evenodd;
      }

      .cls-2 {
        fill: #226e0a;
      }

      .cls-3 {
        fill: #ba5d55;
      }

      .cls-4 {
        fill: #f699b0;
      }
    </style>
  </defs>
  <!-- Generator: Adobe Illustrator 28.7.10, SVG Export Plug-In . SVG Version: 1.2.0 Build 236)  -->
  <g>
    <g id="_图层_1" data-name="图层_1">
      <path class="cls-4" d="M40.8,76.8c-3.6,1.8-7.8,1.9-11.7,1.4-7.7-1-15.5-4.7-19.3-11.5-1.6-2.9-2.5-6.2-3.1-9.5-.8-4.4-1.1-9.1.9-13.1,1.6-3.4,4.7-5.9,7.7-8.1,3.2-2.3,6.6-4.6,10.5-5.1,11.3-.2,10.2,4,22-2.7,3.4-2,13.6,1.4,17.1,2.5,3.4,1.1,10.2,4.5,14.9,8.5,1.9,1.7,3.7,3.6,4.8,5.9,1.6,3.5,1.5,7.5.8,11.3-.8,3.8-2.4,7.7-5.8,9.6-1.5.9-3.3,1.2-5,1.4-7.3.6-15-2.5-21.7.5-4.6,2-7.6,6.6-12,8.8Z"/>
      <path class="cls-1" d="M13.5,45.6c1.4-1.3,2.7-2.7,3.5-3.9,1.2-1.7,2.9-3.2,5-3.6,2.4-.4,4.6,1.3,6.4,3,2.4,2.3,4.6,4.9,6.5,7.7-.8,0-2.4,1.2-4.5,1.2-1.3,0-2.8-1.2-4.3-1.2-1,0-2.1,1-3.2.9-1.8-.1-3.5-1.5-5-1.7-.9-.1-2.1.8-2.8.6-1.9-.5-2.5-2.2-1.6-3Z"/>
      <path class="cls-1" d="M54.5,66.6c5.9-1.9,12.3.3,18.5.2,2.8,0,5.7-.6,7.6-2.6-4.2-2.4-7.3-6.3-9.6-10.6-2.3-4.2-3.8-8.9-5.3-13.4-2-1.1-4.5.8-6.7,0-1.1-.3-2.4-1.3-3.2-.5-.5.5-1.4.2-1.8-.3-.5-.5-.7-1.2-1.3-1.7-.5-.5-1.5-.5-1.8.1-.5,1.1-1,2.3-1.8,3.1s-2.3,1.2-3.3.6c-.8-.5-1.2-1.4-1.7-2.3-.5-.8-.7-1.6-1.6-1.4-3.2,6.7-5.5,13.3-9.5,19.6-1.7,2.7-11.1,13-16.5,11.7-5.5-1.3-5.1-2.4-6.9-4,1.9,3.9,5.3,7,9.2,9,3.9,2,8.2,2.9,12.5,3.3,1.7.1,3.4.2,5.1-.2,6.9-1.4,11.3-8.5,18-10.7Z"/>
      <path class="cls-1" d="M48.6,40.5c.6-.8,1-1.7,1.6-2.5s1.6-1.4,2.6-1.1c.9.3,1.4,1.2,1.8,2,.2.4.8.5,1.2.3.4-.2.8-.5,1.3-.5,1-.1,1.7.9,2.6,1.1,1.4.3,2.8-1.1,4.1-.7.6.2,1.1.7,1.7.6-1.2-2.8-2-5.7-3.2-8.4-1.2-2.7-2.8-5.4-5.1-7.3-.2-.2-.5-.4-.8-.4s-.7.1-.7.4c-.2.9-.3,1.8-.5,2.7,0,.4-.3,1-.7,1-.3,0-.5-.3-.6-.6,0-.3,0-.6.2-.9.3-.9.6-1.8.9-2.7-2.1.8-4,2.2-5.5,3.9-1.5,1.7-2.8,3.6-3.9,5.5-1,1.6-2,3.3-2.9,5,1.3-.2,2.4.9,3.1,1.9.4.6.9,1.4,1.7,1.4.5,0,1-.4,1.3-.8Z"/>
      <path class="cls-3" d="M56.9,21.2c-.1,0-.3,0-.4-.2-.1-.2-.1-.4-.1-.6.2-2.1.3-4.2.5-6.3,0-.2.3-.4.5-.5.2,0,.5,0,.7.1,1.5.5,3,.9,4.5,1.4.4.1.4.6.3,1,0,.4-.1.9.2,1.1,2.2,1.3,4.5,2.4,6.9,3.3.2,0,.2.3,0,.4-.1.1-.3.2-.4.2-2.5.5-4.9,1.3-7.2,2.3-.3.1-.7.3-1,0-.2-.2-.2-.5-.2-.7,0-.2-.1-.5-.4-.6-1.4-.2-2.8-.5-4.1-.9ZM62,16.9c.3-.5,0-1.3-.5-1.6-1.4-.6-2.8-1.1-4.2-1.4.2.4.2.9.2,1.3,0,1.7-.2,3.4-.6,5.1,0,.1.1.2.3.3,1.3.3,2.6.5,3.9.7-.1-1.3-.2-2.5-.3-3.8,0-.1,0-.3,0-.4,0-.2.3-.3.6-.3.2,0,.4,0,.7.2ZM61.7,17.9c.1,1.5.2,3,.3,4.5,0,.1,0,.3.1.4,2.1-.9,4.3-1.6,6.5-2.1-2.4-.7-4.4-2.6-6.9-2.8Z"/>
      <path class="cls-2" d="M40.8,76.8c-3.6,1.8-7.8,1.9-11.7,1.4-7.7-1-15.5-4.7-19.3-11.5-1.6-2.9-2.5-6.2-3.1-9.5-.3-1.8-.9-4.5.2-5.7.3-.3,7.4-6,10.1-9.9,1.2-1.7,2.9-3.2,5-3.6,2.4-.4,4.6,1.3,6.4,3,2.4,2.3,4.6,4.9,6.5,7.7-2.1-.9-3.6-2.7-4.9-4.5s-2.8-3.6-4.8-4.6-4.8-.8-6.1,1c-3.1,4.4-7.1,8.1-11.5,11-.3.2-.4.7-.4,1.1,0,4.6.6,9.9,4.3,12.7,3.1,2.3,7.6,2,11,.2,3.4-1.9,5.9-5,8-8.3,6.3-9.5,10.3-20.4,17.1-29.6,1.5-2.1,3.4-4.2,5.9-5,1.7-.5,2.1-2.7,2.1-4.4,0-1.7-.2-3.7,1-5-.3,2.9-.5,5.8-.8,8.7,3.7,1.8,5.9,5.8,7.5,9.6,2.4,5.7,4,11.7,6.5,17.4,2.5,5.7,6,11.1,11.3,14.4,2.4-3.2,3.8-8.2,3.8-11.1-1.4-1.5-3.3-3.9-5.6-4.9-2.7-1.3-5.7,1-7.9,3,1.2-1.9,2.7-3.8,4.8-4.3,1.7-.4,3.6.2,5,1.3,1.4,1.1,2.5,2.5,3.6,3.9,1.1.4,1.3,1.4.6,5.1-.8,3.8-2.4,7.7-5.8,9.6-1.5.9-3.3,1.2-5,1.4-7.3.6-15-2.5-21.7.5-4.6,2-7.6,6.6-12,8.8ZM54.5,66.6c5.9-1.9,12.3.3,18.5.2,2.8,0,5.7-.6,7.6-2.6-4.2-2.4-7.3-6.3-9.6-10.6-2.3-4.2-3.8-8.9-5.3-13.4-2-1.1-4.5.8-6.7,0-1.1-.3-2.4-1.3-3.2-.5-.5.5-1.4.2-1.8-.3-.5-.5-.7-1.2-1.3-1.7-.5-.5-1.5-.5-1.8.1-.5,1.1-1,2.3-1.8,3.1-.9.8-2.3,1.2-3.3.6-.8-.5-1.2-1.4-1.7-2.3-.5-.8-1.3-1.6-2.2-1.5-3.2,6.7-6.7,13.2-10.6,19.5-1.7,2.7-3.5,5.4-5.9,7.5-2.4,2.1-5.5,3.5-8.7,3.2-2.6-.2-4.9-1.5-7.1-2.9,1.9,3.9,5.3,7,9.2,9,3.9,2,8.2,2.9,12.5,3.3,1.7.1,3.4.2,5.1-.2,6.9-1.4,11.3-8.5,18-10.7ZM48.5,40c.6-.8,1-1.7,1.6-2.5.6-.8,1.6-1.4,2.6-1.1.9.3,1.4,1.2,1.8,2,.2.4.8.5,1.2.3.4-.2.8-.5,1.3-.5,1-.1,1.7.9,2.6,1.1,1.4.3,2.8-1.1,4.1-.7.6.2,1.1.7,1.7.6-1.2-2.8-2-5.5-3.2-8.2-1.2-2.7-3.8-7.6-6-7.9-2.1-.3-5.4,2.2-6.9,3.8-1.5,1.7-2.8,3.6-3.9,5.5-1,1.6-2,3.3-2.9,5,1.3-.2,2.4.9,3.1,1.9.4.6.9,1.4,1.7,1.4.5,0,1-.4,1.3-.8Z"/>
      <path class="cls-2" d="M39.1,17.7c-1.3.1-2.4,1.3-3,2.9-.1.4-.6.6-1.4.7h0c-1.8.2-3,.6-3.6,1.7h0c0,.1,0,.2-.1.4h0c-.1.4-.2.6-.3.7-.4.5-.9.6-2,.6h-.1c-2.7,0-4.5.5-6.1,1.5-.4.3-.7.6-.8,1,0,.4.2.9.6,1.2.3.2.7.3,1.2.3.6,0,1.2-.1,1.8-.3h0c0,0,.2,0,.3-.1h.3c.5-.3.8-.4,1.1-.4.5,0,.9.1,1.7.5h.2c.2.2.3.2.4.3h0c1.4.6,2.8.7,5.1.5h.5s1-.1,1-.1c.3,0,.4,0,.7,0h.2c.9,0,1.8,0,3.4,0h1.1c2.1,0,3.1,0,4.1,0,1.2-.1,2-1,2.3-2.2.3-1,.2-2.2-.2-2.7-.7-1.1-1.8-1.8-2.8-1.5-.3.1-.7-.1-.9-.5-.1-.2-.2-.4-.3-.8v-.2c0-.1,0-.2-.1-.3-.3-1.2-1.2-2.2-2.4-2.7-.5-.2-1-.3-1.5-.3ZM40.5,18.3c1,.4,1.9,1.3,2.2,2.4h0c0,.1,0,.2,0,.3v.3c.2.4.2.6.3.9.3.5.8.9,1.4.7h0c.8-.3,1.7.3,2.4,1.3.3.5.4,1.5.1,2.4-.3,1.1-.9,1.8-2,1.9h-.1c-.9.1-1.9.1-3.8,0h-1.4c-1.5,0-2.4,0-3.2,0h-.3c-.2,0-.5,0-.9,0h-1c-2.3.3-3.6.2-4.9-.4h0c-.1,0-.2-.1-.4-.2l-.3-.2c-.8-.4-1.3-.5-1.8-.5-.4,0-.7.1-1.3.4h-.3c-.1.2-.2.2-.3.2-.5.2-1.1.3-1.6.3-.4,0-.8,0-1-.2-.3-.2-.5-.5-.4-.8,0-.3.2-.5.6-.7,1.4-1,3.2-1.4,5.7-1.5h.1c1.3,0,2-.2,2.4-.8.1-.2.2-.3.3-.6v-.2c.1-.1.2-.2.2-.3.5-.9,1.6-1.3,3.2-1.5h.1c1-.1,1.6-.3,1.8-.9h0c.5-1.5,1.5-2.6,2.7-2.7.4,0,.8,0,1.3.2h0Z"/>
      <path class="cls-2" d="M79,25.4h0c0,0,0,.1-.1.2l-.2.2c-.2.2-.2.3-.4.4-.2.2-.5.2-.7.1,0,0-.1-.1-.3-.2h0c0-.2,0-.2-.1-.2-.5-.5-1.4-.5-2.1-.1-.5.3-.9.8-1.3,1.6-.2.3-.5.5-1,.6-.2,0-.4,0-.7,0h-.1s-.4,0-.4,0c-2.3-.2-4.8.1-6.9,1-.3.1-.5.3-.7.5-.2.3,0,.8.4.8,6.4.4,12.9.2,19.3-.4h.4s.3,0,.3,0c0,0,0,0,0,0h0c.6,0,.9-.3.9-.8s-.2-.6-.8-.7h-.1c-.2,0-.3,0-.5,0-.5-.2-1.1-.5-1.2-.6-.2-.2-.3-.5-.4-1v-.2c-.2-.5-.3-.8-.5-1.1-.7-.8-2.1-.7-2.9,0ZM81.6,25.5c.2.2.3.5.4,1v.2c.2.5.3.8.5,1.1.2.2.8.6,1.4.7h0c.1,0,.2,0,.4,0h.3c.3,0,.4.1.4.3s-.2.3-.6.4h-.1s-.3,0-.3,0c0,0,0,0,0,0h0c-6.5.6-13.1.8-19.6.4,0,0-.1-.2,0-.3,0-.1.2-.2.5-.3,2.1-.8,4.4-1.2,6.7-.9h.3s.2,0,.2,0c0,0,0,0,.1,0,.3,0,.6,0,.9,0,.6,0,1-.4,1.3-.8.4-.7.7-1.2,1.2-1.4.5-.3,1.2-.3,1.6,0h0s0,0,0,0h0c.2.3.2.4.4.4.3.2.8.1,1.1-.2.1,0,.2-.2.4-.4l.2-.2c0,0,0-.1.1-.2.7-.7,1.8-.7,2.3-.1Z"/>
      <path class="cls-3" d="M55.6,18.5c0-1.7-.2-3.7,1-5-.3,2.9-.5,5.8-.8,8.7.4.2-.2.6-.6.6-1.3,0,.4-2.5.3-4.3Z"/>
    </g>
  </g>
</svg>