<?xml version="1.0" encoding="UTF-8"?>
<svg xmlns="http://www.w3.org/2000/svg" version="1.1" viewBox="0 0 92 92">
  <defs>
    <style>
      .cls-1 {
        fill: #fff;
      }

      .cls-1, .cls-2, .cls-3, .cls-4 {
        fill-rule: evenodd;
      }

      .cls-2 {
        fill: #8ee4f1;
      }

      .cls-3 {
        fill: #00160a;
      }

      .cls-4 {
        fill: #a81f17;
      }
    </style>
  </defs>
  <!-- Generator: Adobe Illustrator 28.7.10, SVG Export Plug-In . SVG Version: 1.2.0 Build 236)  -->
  <g>
    <g id="_图层_1" data-name="图层_1">
      <path class="cls-2" d="M18,66.6c-11-7.6,2.2-17.8-1-29.9-3.2-12.1-11-30.1,19.8-23.7,31.2,6.5,51,14.9,46.3,40.9-4.7,26-54,20.3-65,12.7Z"/>
      <path class="cls-1" d="M65.8,77c-.7-.7-1-1.7-1.3-2.6-.8,1.2-2.6,1.2-3.8.5-1.2-.7-2.1-1.9-2.9-3-1.6-2-8.3-6.8-8.4-8.3,0-.8,2.2-2.2,2.2-2.2l-4.1-2.4s-2.1,1.6-3.3,1.8c-3.4.5-5.7.2-5.7.8,0,2.2,13.3,13.3,9,13.2-6.3-.1-17.9-12.5-21.7-13.5-1.6-.4-12.4.2-12.4-2.4s9.6-5.9,9.6-5.9c0,0-2.5-8.5.5-15.4.7-1.6,1.6-3.4,1.6-5,0-.4,12.2-11.9,13.7-12.5,3.6-1.3,7.5-2,11.4-2.1.5,0,15.3,2.1,21.9,13,1.2,2,6.6,16.7,1.1,25.9-.9,1.5-.8,3.3-.2,4.9.6,1.6,1.3,3.4.7,4.9-.4-2.5-1-5-1.9-7.3-1.3.9-.6,2.9.1,4.3,1,1.8,1.9,3.5,2.9,5.3.4.7.8,1.5.7,2.4-.2.9-1,1.6-1.8,2.1-1.8,1.3-3.5,2.5-5.3,3.8-.8.6-2,.3-2.7-.4Z"/>
      <path class="cls-4" d="M41.9,38.3c.1-.4.6-.5,1-.4.4.2.6.5.6.9,0,.4,0,.8-.1,1.2-.1.3-.2.7-.4,1,0,0,0,0,0,0,0,0,0,0,0,0-.6-.6-1-1.5-1-2.3,0-.1,0-.3,0-.4ZM43,38.4c-.1,0-.2-.1-.4-.1-.3,0-.5.3-.5.7,0,.3.2.6.3.9.1.2.2.4.3.6,0,0,.1.1.2,0,0,0,0,0,0,0,0-.2,0-.3.1-.5,0-.2.1-.5.1-.7,0-.3,0-.5-.3-.7h0Z"/>
      <path class="cls-4" d="M42.8,39.3c0,0-.2,0-.2,0-.1,0-.2-.2-.2-.4,0-.2.1-.3.3-.3.2,0,.5.1.5.4,0,.1-.1.3-.3.3Z"/>
      <path class="cls-3" d="M46.8,75.2c.3,0,.2.4,0,.6-1.6,1.9-3.6,3.3-5.9,4.2-.5.2-1,.4-1.6.4-1,0-2-.3-2.8-.9s-1.4-1.5-1.9-2.3c-1.4-2.4-1.9-5.3-1.6-8,0-.3.2-.6.4-.5,0,.9,0,1.8,0,2.8,0,.9.2,1.8.4,2.7.2.8.6,1.6,1,2.3.4.8.8,1.5,1.4,2.2.6.6,1.3,1.2,2.2,1.3,1.1.2,2.1-.2,3.1-.6,2-1,3.8-2.3,5.3-4.1Z"/>
      <path class="cls-3" d="M54.1,64.8c1.8-1.8,3.7-3.6,5.5-5.4.1-.1.3-.2.4-.1.2.1,0,.4-.1.5-2,2-4,3.9-5.9,5.9-.1,0-.2-.3-.1-.4,0-.2.2-.3.3-.4h0Z"/>
      <path class="cls-3" d="M40,54.3c-.1,0-.2,0-.3,0-.2-.3-.4-.7-.5-1.1,0-.4,0-.8.4-1,.4-.2.5-.7.4-1.2-.1-.4-.4-.8-.7-1.1-.3-.3-.8-.7-1.2-.4-.2.2-.6,0-.8-.1-.2-.2-.3-.5-.5-.7-.3-.5-.6-.9-1.1-1.2-.5-.3-1.1-.3-1.6,0-.5.2-.8.7-1.2,1.1-.4.4-1.1.5-1.5.1,0-.1-.2-.3-.1-.4,0-.1.3-.2.3,0,.2.3.6.3.9.1.3-.2.5-.5.7-.8.5-.5,1.2-.8,1.9-.7.7,0,1.3.5,1.7,1.1.2.3.3.6.5.9.2.3.6.4.9.2.3-.2.7,0,1,.3.4.4.7.7,1,1.2.2.5.2,1,0,1.5-.2.4-.7.7-.6,1.1,0,.4.5.7.5,1.1Z"/>
      <path class="cls-3" d="M44.9,36.4c.7.3,1.3.8,1.6,1.5.3.7.4,1.5.1,2.1-.6,1.4-2.7,1.9-2.9,3.5,0,.4,0,.8,0,1.2,0,.3-.2.5-.3.7-.2.5-.4,1.1-.3,1.7-.3.1-.6-.2-.6-.5,0-.3,0-.6,0-.9,0-.6-.4-1-.8-1.4-.5-.6-1-1.4-1.1-2.2,0-.3,0-.5,0-.8,0-.3-.2-.5-.3-.8-.3-.7-.6-1.5-.4-2.2.2-.7,1-1.4,1.8-1.2.2,0,.4.2.6.1.4,0,.5-.5.8-.8.5-.5,1.3-.4,1.9-.1M41.6,43.7c.4.6.9,1.1,1.3,1.7.5-.5.3-1.3.4-2,.2-.9,1-1.6,1.8-2.2.7-.6,1.5-1.5,1.3-2.4-.1-.8-.8-1.3-1.4-1.7-.4-.2-.8-.5-1.2-.4-.4,0-.7.5-1,.8-.3.3-.8.6-1.2.4-.6-.3-1.3.2-1.4.8-.2.6,0,1.2.3,1.8.2.6.5,1.2.5,1.8,0,.6.3,1.1.7,1.6Z"/>
      <path class="cls-3" d="M7.7,30.8c0,0,.1,0,.2,0,0,0-.1.1-.2,0h0Z"/>
      <path class="cls-3" d="M58.7,61.5c.1,0,.2.2.2.3,0,.1-.1.3-.2.4-.8.8-1.7,1.7-2.5,2.5,0,0-.1.1-.2.1-.1,0-.2-.1-.2-.3,0-.1,0-.2.2-.3.8-.9,1.6-1.8,2.5-2.6,0,0,.2-.2.3-.1h0Z"/>
      <path class="cls-4" d="M34.4,49.4c.5,0,.8.5.9.9,0,.5,0,.9-.3,1.3-.1.2-.2.5-.4.7,0,.2-.2.3-.4.3-.3,0-.5-.3-.6-.6-.2-.4-.3-.8-.4-1.2,0-.2-.1-.4,0-.6,0-.3.3-.6.6-.7.2-.1.5-.2.7-.2M33.9,51.7c0,0,0,.1.1.1,0,0,.1,0,.2,0,.1,0,.2-.1.3-.3.2-.3.4-.6.4-1,0-.4-.2-.8-.5-.8-.4,0-.8.3-.8.7,0,.4.2.8.4,1.2Z"/>
      <path class="cls-4" d="M34.3,50.2c.1,0,.2.1.3.2,0,0,0,.2,0,.3,0,.2-.3.4-.6.3-.2,0-.4-.3-.3-.6,0-.2.3-.4.6-.3ZM34.3,50.7c0,0,0-.2,0-.2,0,0-.1,0,0,.2,0,0,.1,0,.2,0h0Z"/>
      <path class="cls-3" d="M58.5,54.7c-.3-.3-.5-.6-.7-.9,0-.1,0-.2.2-.2.1,0,.2.1.3.2.3.3.5.6.8,1,0,.1-.2.2-.3.1-.1,0-.2-.1-.3-.2h0Z"/>
      <path class="cls-3" d="M67.2,69.7s0,0,0,.1c-.1.4-.4.7-.6.9-.4.4-1,.7-1.2,1.3,0,.1-.3.2-.4,0-.1,0-.1-.3,0-.4,0-.1.1-.2.2-.4.3-.4.6-.7.9-1.1.2-.3.5-.5.8-.7.1,0,.4,0,.4,0h0Z"/>
      <path class="cls-3" d="M58.8,53.2c.3.4.6.7.9,1.1,0,0,.1.1.1.2,0,.1-.2.2-.3.2s-.2-.1-.3-.2c-.3-.3-.5-.6-.7-1,0-.1-.1-.4,0-.4,0,0,.1,0,.2.1h0Z"/>
      <path class="cls-3" d="M55.3,55.2c0,0,0-.1,0-.2,0-.1.2,0,.3,0,.3.3.6.7.8,1.2-.2.1-.4-.1-.5-.3l-.5-.7Z"/>
      <path class="cls-3" d="M55.6,56.2c.1.1.2.3.1.5-.1.1-.3,0-.5-.2-.3-.3-.5-.7-.7-1.1.1-.1.3,0,.4.1.2.2.4.4.6.6Z"/>
      <path class="cls-3" d="M55.9,55c0,0-.1-.2,0-.3,0-.1.3,0,.4,0,.3.3.6.6.8.9,0,.1-.1.2-.2.2-.1,0-.2,0-.3-.2-.2-.2-.4-.5-.6-.7h0Z"/>
      <path class="cls-3" d="M57.7,54.3c.2.2.3.4.5.7,0,0,.1.2,0,.3,0,0-.2.1-.3,0,0,0-.2-.1-.2-.2-.2-.2-.4-.5-.5-.7,0,0,0-.1,0-.2,0-.1.2-.2.3-.1.1,0,.2.1.3.2h0Z"/>
      <path class="cls-3" d="M57.6,55.3s0,0,0,.1c0,0,0,.1-.2.1,0,0-.1,0-.2-.1-.3-.3-.6-.7-.9-1.1,0-.1.2,0,.3,0,.3.3.6.6.8.9Z"/>
      <path class="cls-3" d="M60.9,53.3s0,0,0,.1c0,0,0,.1-.1,0,0,0-.1,0-.2,0-.3-.3-.6-.6-.9-1,.1-.1.3,0,.5,0,.3.2.5.5.7.8h0Z"/>
      <path class="cls-3" d="M59.9,53.6c-.2-.3-.4-.5-.6-.8,0,0,0-.1,0-.2,0-.1.2,0,.3,0,.3.2.5.5.7.8,0,0,0,.1,0,.2,0,0-.1.1-.2,0,0,0-.1-.1-.2-.2h0Z"/>
      <path class="cls-3" d="M61.4,52.7c-.2-.2-.4-.4-.5-.6,0,0,0-.2.1-.2,0,0,.2,0,.3.1.1.1.3.2.4.3,0,0,.1.1.2.2,0,0,0,.2-.1.2-.1,0-.2,0-.3-.1h0Z"/>
      <path class="cls-3" d="M61,53.1c-.3-.3-.5-.5-.7-.8,0,0,0-.1,0-.2,0,0,.1,0,.2,0,0,0,.1,0,.2.1.2.2.4.5.6.7,0,0,.1.2,0,.2,0,0-.2,0-.2,0h0Z"/>
      <path class="cls-3" d="M73,69c.3,0,1-.3,1.3-.4.1,0,.3,0,.3,0,0,.1-.1.2-.2.2-.3,0-1,.3-1.3.3-.1,0-.3,0-.2-.1,0,0,0,0,.1-.1Z"/>
      <path class="cls-3" d="M41.3,57.2c.4,0,1,.1,1.2.5.2.4,0,.9-.5,1.1-.4.2-.8.2-1.2.2-5.8,0-11.5-.1-17.3-.4-.4,0-.4-.5-.3-.9,0-.2.1-.4.3-.6.2-.2.6-.2.9-.2,4.1,0,8.3,0,12.4.4.7,0,1.3.1,2,.1.9,0,1.8-.2,2.6-.1M41.9,58.2c0-.2,0-.4-.2-.5-.2,0-.4,0-.6,0-2.7.3-5.4,0-8.1-.2-2-.1-3.9-.2-5.9-.2-.8,0-1.6,0-2.5,0-.3,0-.5,0-.8.2-.2.2-.2.6,0,.6,0,0,0,0,.1,0,5.8.3,11.6.4,17.4.4.2,0,.5,0,.6-.2h0Z"/>
      <path class="cls-3" d="M37.6,61.8c.5,1.1,1.6,2,2.8,2.1.6,0,1,.6,1.3,1.1.3.5.6,1.3,0,1.6,2.2,2.4,4.4,4.8,6.5,7.2.3.3.5.7.2,1-.1,0-.3.1-.4.1-1.8,0-3.5-.8-5.1-1.7-2.2-1.3-4.4-2.8-6.4-4.4-1.5-1.2-3.6-1.5-5.4-.9-.9.3-2.1-.4-2.2-1.3-.1-1,.9-1.9,1.8-1.8-1.5-2.2-4.1-3.5-6.7-3.4-3.2,0-6.3-.2-9.4-1-.3,0-.6-.1-.7-.4-.3-.4,0-1.1.4-1.5,2.7-3,6.9-4.7,11-4.3.2,0,.3-.2.3-.4,1-4.3,2.1-8.6,3.1-12.9.1-.5.9-.6,1.3-.2.4.4.5.9.5,1.5.3,4-.3,8.2,1.7,11.7,0,.2.2.3.4.4.2,0,.3,0,.5,0,3.6,0,7.3.1,10.9.2.5,0,1,0,1.2-.5.5-1.1.9-2.1,1.4-3.2.1-.3.4-.7.7-.8.5,0,.9.6.8,1.1,0,.5-.2,1.1,0,1.6.9-.9,1.7-1.8,2.8-2.5,1.1-.6,2.4-1,3.6-.6-1.1,1.7-2.1,3.4-3.2,5.1.9.6,1,2.1.1,2.7-.4.3,0,.8.2,1.2.9,1.1,1.8,2.2,2.7,3.3-.8.4-1.7,0-2.5-.4-1.4-.7-2.7-1.5-4-2.3-.6-.4-1.3.3-1.9.8-.9.8-2.2.9-3.3,1-1.8.2-3.6.4-5.4.6ZM40.8,59.5c1.1,0,2.3.1,3.3-.1,1.1-.3,2.1-.9,2.8-1.8.2-.2.5-.3.7-.3.9-.2,1.9-.3,2.8,0,.4.1.9,0,1.1-.4.2-.4.2-.9-.1-1.2-.3,0-.4.4-.6.7-.2.4-.7.4-1.1.4-1.5,0-3.1.2-4.6.2-.4,0-.9,0-.9-.5,0-.2.1-.3.2-.4.4-.4.9-.8,1.4-1-6.3,0-12.6,0-18.9-.2-3.1,0-6.4-.2-9,1.5-.2.2-.4.6-.2.6.8.1,1.7.3,2.5.4.1,0,.2,0,.3.1.2.2,0,.6-.4.7-1.2.5-2.5.4-3.6-.2-.2-.1-.5-.3-.8-.2-.3.2-.3.6,0,.9.3.2.6.3,1,.3,3.1.2,6.2.4,9.2.6.9,0,1.7.1,2.6,0,4-.2,8-.3,12,0ZM45.3,71.4c-1.1-1.5-2.3-2.9-3.7-4.1-.4-.4-.8-.9-1.2-1.3-1.7-2-3.4-4-5.1-6-.2-.2-.5-.2-.7-.2-2.2,0-4.5,0-6.7.5-.2,0-.3,0-.4.2-.2.3,0,.7.4,1,2.9,2.5,5.9,4.8,9.1,7.1.6.4,1.2.8,1.8,1.1,1.2.5,2.4,1,3.7,1.6.9.4,2.1.8,2.9.3ZM30.7,49.3c0-.6,0-1.2-.2-1.7-.3-1-1.1-1.8-1.8-2.5,0,0-.1-.1-.2,0,0,0,0,.1-.1.2-.6,2.6-1.1,5.2-1.7,7.8-.1.5-.2,1-.2,1.5,2,0,4,0,6,0-1-1.6-1.6-3.4-1.7-5.2ZM54.2,50.2c-1.2-.1-2.5.4-3.4,1.2-1.6,1.6-3.4,3.1-5.2,4.4-.3.2-.5.4-.6.7,1.5,0,3.1-.1,4.6-.2.4,0,.9,0,1.1-.4,1.1-2,2.3-3.9,3.5-5.7ZM14.5,59.4c0,0,0,.2,0,.3,0,.2.2.2.4.3,3.5.8,7,.9,10.6,1.1.4,0,.7,0,1-.1.3-.1.6-.5.5-.8-2.3-.3-4.6-.5-7-.5-1.4,0-2.8,0-4.1-.4-.3-.1-.7-.4-.6-.7-.3.2-.6.6-.8.9ZM47.5,58.8c-.1-.3-.5-.4-.8-.3-.3,0-.5.2-.8.4-.6.4-1.2.7-1.8.9-.6.1-1.2.1-1.8.1-2.2,0-4.4,0-6.5-.1.5.7,1.1,1.5,2,1.4,1.7-.2,3.4-.1,5.1-.4,1.7-.2,3.4-.8,4.6-2.1ZM52.5,60.6c0,0,.2,0,.2-.1,0,0,0-.1,0-.2-.6-.9-1.4-1.8-2.2-2.6-.1-.1-.2-.3-.4-.3-.2,0-.4,0-.5,0-.7,0-1.5.2-2.1.4,0,0-.1,0-.1.1,0,0,0,0,0,.1.7.7,1.6,1.3,2.5,1.8.8.5,1.7,1,2.6.8ZM31.8,65.4c0,0-.1-.1-.2-.1,0,0-.1,0-.2,0-.2,0-.3,0-.5.1-.2,0-.3.2-.3.3.3.4.4.9.3,1.4,0,.2.2.2.4.2.8,0,1.6-.1,2.5-.2,0,0,.2,0,.2-.1-.7-.6-1.4-1.1-2.2-1.7ZM45.9,54.3c0,.2,0,.3.3.3s.3,0,.5-.1c.5-.3,1.1-.6,1.3-1.2,0-.2,0-.4.1-.6,0-.3,0-.6,0-1,0,0,0-.2,0-.2,0,0-.1,0-.2,0-.2.2-.4.4-.7.5-.1,0-.3,0-.4.1-.1,0-.2.2-.2.4-.2.6-.4,1.2-.7,1.7ZM40.9,64.7c-.2-.4-.8-.6-1.2-.3.5.4.8,1,1.2,1.4.1.2.3.3.5.3.2,0,.4-.3.2-.5-.3-.3-.5-.6-.7-1ZM30,65.8c-.3.3-.2.9,0,1.3,0,.1.2.3.3.2,0,0,0,0,0-.1,0-.3.1-.5,0-.8,0-.3-.2-.5-.4-.6Z"/>
      <path class="cls-3" d="M66.5,77.7c-.7-.7-1-1.7-1.3-2.6-.8,1.2-1.8,2-3.1,1.3-1.2-.7-2.8-2.7-3.7-3.8-1.6-2-3.4-3.7-5.5-5.1,1.1,1.2,1.8,2.8,1.8,4.5.8,0,1.7,0,2.5,0-2.8,1-5.9,1.3-8.9,1.1,1.6-1.4,2.9-3.1,3.7-5.1-.2-.5-1-.4-1.4-.1-.5.3-1.1.7-1.5.4-.6-.4-.5-1.7-1.2-1.5-1.7.5-3.8-.5-4.4-2.2-.4.3-.8.5-1.2.8-.2-.6.7-1.1,1.3-.9.6.2,1,.9,1.4,1.4.4.5,1.1.9,1.7.7,1.1-.5,2.6.4,2.7,1.6.9-.7,2.1-1,3.2-.7-.7-1-1.5-2-2.3-2.8.6-.9,1.4-1.6,2.3-2.2-.4.8-1.1,1.6-1.8,2.2,3.8,3.7,7.5,7.4,11.3,11.1.2.2.5.5.8.5.4,0,.7-.3.9-.5,1.8-1.9,3.5-3.8,5.3-5.7.5-.5.9-1,1-1.7,0-.8-.5-1.6-1.1-2.2-2.3-2.6-4.7-5-7.2-7.3-1.1-1-2.6-2-4-1.5-1.7.6-2.1,3.2-3.8,3.7.5-.7,1-1.4,1.6-2.1-1-.7-2.3-2.4-2.4-3.7.8-.8,1.8-1.3,2.7-1.8-.8-2-.7-2.4.4-2.7,1.1-.3,2.1-.5,3.1-.9,2.9-1,4.3-5.5,1.8-7.4-1.3-1-11.3-11.3-15.6-15.1.3,1.4-1.6,2.8-2.8,2,.2.8-.3,1.8-1.2,2-.9.1-1.7-.8-1.4-1.7.3-.7,1.1-1,1.6-1.6.5-.6,0-1.8-.6-1.5-.3,1.4-2.4,2-3.4,1-.4-.3-.8-.4-1.3-.4-.6.1-1.6.3-2.1.8-.7.7-.9,1.7-1.7,2.1-.1,0-.3.1-.4.2-1.1.4-2.6-.7-2-1.7-3,2.8-5.1,6.6-5.8,10.6,1.6.5,1.9,2.5,1.9,4.2-1.8.5-.1,3.9-1.6,4.9-1.8,1.1-1.3,3.8-.6,5.8-1.8-3.8-2-8.4-.6-12.3-.1,2.5-.3,5-.4,7.6,1.2-.2,1.7-1.6,1.8-2.8,0-1.2.2-2.6,1.2-3.3-.4-1-.5-2-.4-3-.4-.1-.9-.3-1.3-.4-.3,1.9-2.3,2.8-4,3.6-1.8.9-3.6,1.9-5.1,3.2-1.7,1.4-3.3,3.3-3.1,5.4.2,2.1,2,3.7,3.9,4.6-2,0-3.7-1.8-4.1-3.8-.3-2,.5-4,1.9-5.5,1.4-1.5,3.2-2.5,5-3.4,2.4-1.1,5.3-2.6,5.4-5.2,0-2.2,2.5-4.4,1.3-6.2-1.6-2.6-2.5-5.7-2.6-8.8,0-1.5.2-3.3,1.5-4.1.6-.4,1.4-.6,2.2-.7,2.8-.3,5.7.1,8.3,1.3,1.5.7,3.2,1.6,4.7,1.1,3.6-1.3,7.5-2,11.4-2.1.5,0,.9-.4,1.3-.8,1.4-1.5,2.6-3.2,4.1-4.5,1.5-1.3,3.6-2.3,5.6-1.9,2.1.4,3.6,2.3,4.3,4.3.7,2,.6,4.2.6,6.3,0,3.8,4.7,5.9,5.9,9.5.7,2.1,3.1,3.1,5.3,3.7,2.2.6,4.6,1.3,5.7,3.3,1,1.8.5,4.2-.7,5.9-1.2,1.7-3,2.9-4.8,4-2.9,1.8-2.1,6.5-4.4,9-1.2,1.3-.8,3.3-.2,4.9.6,1.6,1.3,3.4.7,4.9-.4-2.5-1-5-1.9-7.3-1.3.9-.6,2.9.1,4.3,1,1.8,1.9,3.5,2.9,5.3.4.7.8,1.5.7,2.4-.2.9-1,1.6-1.8,2.1-1.8,1.3-3.5,2.5-5.3,3.8-.8.6-2,.3-2.7-.4ZM70.3,61.5c-.2-.2-.4,0-.6,0-.2,0-.4.2-.6.3,0,0,0,0-.1,0,0,0-.1-.2,0-.2,0,0,.2-.1.2-.1.2,0,.4-.1.6-.2.1,0,.2-.1.2-.2,0-.1-.1-.3-.2-.2-.3.2-.6.3-.9.4-.1,0-.3,0-.2-.1,0,0,0,0,0,0,.3-.2.6-.3,1-.4.1,0,0-.2,0-.3-.1,0-.3,0-.4,0-.3.1-.6.2-.8.4,0,0-.1,0-.1.1,0,0,0,.1,0,.2.2.3.4.6.6,1,0,0,0,.1.1.1,0,0,.1,0,.2,0,.4-.2.8-.4,1.2-.6ZM51,26.6c-.7,0-1.2-.7-1-1.4.1-.7.7-1.1,1.3-1.3.9-.3,1.9-.1,2.6-.7.3-.3.5-.6.8-.9.6-.6,1.7-.8,2.4-.3.2-.4-.3-.9-.8-1-.5,0-1,0-1.4-.2-.8-.3-1.6,0-2.3.7-.6.6-1.1,1.3-1.8,1.7-.7.4-1.9.2-2.1-.6,0-.3,0-.6-.3-.7-.4-.1-.6-.6-.6-1,0-.4.2-.8.4-1.1-.8,0-1.5,0-2.3,0-.2,0-.4,0-.4.3,0,.4-.3.6-.7.9-.7.4-1.3.9-2,1.3,0,.4.7.5,1,.3.4-.2.6-.6,1.1-.8.2,0,.5,0,.7-.1.4,0,.8,0,1.2,0,.5,0,1.2.1,1.2.6,0,.4-.4.7-.7,1-.7.7-.7,2-1.6,2.3-.3.1-.4.6-.3.9.1.3.4.5.7.7,4.8,3.5,13.2,12.6,13.3,12.6.2,0,.4-.1.4-.3,0-.5,0-1,0-1.4.1-.5.4-.9.8-1.1.4-.2,1-.2,1.1-.6.2-1,1.2-1.7,2.1-1.7.5,0,1,.2,1.4,0-.3-.3-.8-.4-1.2-.6-.4-.2-.8-.7-.5-1.1.4-.6-.2-1.3,0-1.9,0-.3.2-.5.4-.7.6-.8,1.3-1.4,2.1-1.9.2-.1.2-.4.3-.6,0-.5.1-1.1.2-1.6,0-.4,0-.8-.2-1.1-.8-.9-2.2-.9-3.4-.9-1.2,0-2.6,0-3.4-.8-.3-.3-.7-.2-1,0-.3.2-.4.6-.6.9-.7,1-1.9,1.5-3.1,1.2-.6-.1-1.2-.5-1.8-.3-.8.2-1.3,1.3-2.1,1.3ZM74.1,50.5c0,.1,0,.3.2.3.1,0,.2,0,.3,0,.3-.2.7-.3,1-.5.2,0,.4-.2.4-.4.6-3.8.4-7.7-.5-11.5-.2-.9-.5-1.8-.9-2.6-.5-1.1-1.1-2.1-1.7-3.1-.9-1.4-1.8-2.8-2.8-4.2-.2.3-.2.6-.3.9,0,.3-.2.7-.5.8s-.7,0-.8-.3c-.1-.7-.9-1.2-1.6-1.1-.2,0-.2.2-.2.4-.2,1.4-.3,2.8-.5,4.2,0,.1,0,.2,0,.3,0,0,.2,0,.2,0,.5,0,.9.5.8,1,0,.5-.7.8-1.1.6-.2,0-.3.2-.4.4-.3,1.2-.6,2.4-.9,3.7,0,.4.2.7.6.9.3.2.7.2,1,.4.8.5.7,1.7,1.4,2.4.5.6,1.4.7,2.1.2.5-.4.8-1.1.8-1.8,0-.5.3-.9.7-1.1.4-.2.9-.1,1.3.2.3.3.5.7.6,1.2,0,.2.1.4,0,.6-.1.3-.5.4-.8.5-.6.2-1.1.6-1.4,1.1-.2.2-.3.6,0,.8.5.5.9,1.1,1.4,1.6.2.3.5.6.6.9.3,1.1.6,2.2.9,3.3ZM26.4,33c.7-1.4,1.5-2.7,2.5-3.9.9-1,1.9-1.9,3-2.8,1.4-1.1,2.8-2.3,4.2-3.4.6-.5,1.2-.9,1.9-1.2-2-.9-4.1-1.8-6.2-2.3-2.2-.5-4.5-.7-6.6,0-.2,0-.4.1-.6.3-.3.2-.5.5-.6.9-.6,1.3-.5,2.8-.3,4.2.4,3,1.4,5.8,2.9,8.4ZM72.3,73.6c0,.2-.2.4-.4.3,0,0-.1-.1-.2-.2-.7-1.3-1.4-2.5-2.2-3.8-.5.2-.7.7-.6,1.2,0,.5.3.9.6,1.4.4.6.8,1.3,1.2,1.9-.2.2-.5,0-.7-.3-.5-.9-1.1-1.8-1.6-2.7-1,1.1-2.1,2.1-3.1,3.2.7,1.1,1.4,2.1,2,3.2.2.2.5.3.8.3.3,0,.5-.2.8-.4,1.8-1.3,3.6-2.6,5.4-3.9.1,0,.3-.2.3-.4,0-.2,0-.3-.1-.5-4.1-7.5-8.5-14.8-13.1-21.9-.1-.2-.3-.4-.6-.5-.2,0-.3,0-.5.2-1.8,1.1-3.7,2.3-5.5,3.4-.3.2-.7.4-1,.6,0,0-.2.1-.2.2,0,.1,0,.2.1.3.7,1,1.4,2,2.1,3,.9-.9,1.9-2,3.2-1.9,1.1,0,2,.8,2.8,1.6.5.4.9.9,1.4,1.3-.7-1.4-1.6-2.7-2.6-4,0-.2.3-.2.5,0,1.4,1.6,2.2,3.7,3.7,5.2,1.5,1.5,3,3.1,4.5,4.6.6.7,1.3,1.4,1.4,2.3,0,.8-.4,1.6-.9,2.3.9,1,1.7,2.1,2.4,3.3.1.2.2.4.2.6ZM56.3,19.8c.6.1,1.3.3,1.9.4,1.6.5,3.1,1.2,4.6,2,1.3.7,2.6,1.4,3.8,2.2.1-3.2,0-6.3-1-9.3-.3-.9-1-1.8-1.7-2.4-.8-.7-2-.8-3.1-.6-1.8.3-3.5,1.3-4.9,2.5s-2.5,2.8-3.6,4.3c1.4.3,2.8.5,4.2.8ZM74.9,35.1c1.8,4.6,2.4,9.6,1.7,14.4,2.3-1.3,4.3-3,5.9-5,.8-1,1.6-2.2,1.5-3.5,0-1.1-.7-2.1-1.5-2.8-.8-.7-1.8-1.2-2.8-1.6-1.6-.6-3.2-1.2-4.9-1.6ZM71.4,42.9c.4-.3.9-.6,1.3-.8,0-.3,0-.6-.1-.9-.1-.3-.4-.5-.7-.5-.3,0-.6.3-.7.6,0,.3-.1.6-.2.9-.2.9-.9,1.5-1.8,1.7-.9.1-1.8-.3-2.2-1.1-.3-.6-.4-1.4-.9-1.9-.3-.3-.7-.3-1.1-.4,0,0-.2,0-.3,0-.1,0-.2.2-.3.3-.3.9-.6,1.8-1,2.8-.1.3-.2.8,0,1,2.5,2.2,3.5,5.7,6,7.9,0,0,.2.1.3.1,1.2-.3,2.4-.7,3.5-1.3,0,0,.2,0,.2-.2,0,0,0-.2,0-.3,0-.7-.2-1.4-.6-2-.2-.3-.4-.6-.4-.9,0-.3,0-.6,0-.8,0-.2-.2-.4-.4-.6-.4-.5-.9-.9-1.3-1.4-.2-.2-.4-.5-.5-.8-.1-.6.4-1.1.9-1.5ZM44.4,29c.5-.3.8-.9.8-1.5,0-.9-.8-1.5-1.5-2-1.1-.9-3.7-3-4.8-3.4-1.1-.5-6.1,4-7.8,5.7,0,0-.2.2-.2.3,0,.1-.6,1.4.5,1.7,1.1.3,1.2,0,1.6-.3.4-.4.7-.9.9-1.5.2-.5.7-.7,1.2-.8.5,0,1-.1,1.4-.4.4-.3,1-.3,1.5,0,.5.2.9.6,1.3.9.3.3.8,0,1-.4.2-.4.3-.9.6-1.1.5-.4,1.3,0,1.6.5.4.8.1,1.9-.6,2.3-.4.2-1.1.4-1.1.9,0,.3.2.5.4.6.4.3.9.4,1.2,0,.4-.5,0-1.5.5-1.8.5-.2,1.1.6,1.6.3ZM58,23.5c.2-.3.4-.6.7-.7.4-.2.8,0,1.2.2.4.2.7.5,1.1.6.4.1.8.1,1.3.1.7,0,1.4,0,2.1-.1-4.3-2.5-9.1-4.2-14.1-4.3-.4,0-.8,0-1.2.1-.4.1-.7.4-.8.9-.2.6.4,1.3,1,1.3-.3.2-.3.8,0,1.1.3.3.8.3,1.2.1.4-.2.7-.4,1-.7.6-.5,1.1-1.1,1.7-1.6.3-.3.9-.3,1.4-.3.5,0,.9.3,1.4.3,1,0,1.9,1,1.7,2-.5-.4-1.1-.6-1.7-.5-.6.1-1.2.5-1.5,1.1-.2.5-.7.7-1.2.8-.5,0-1,0-1.5.2-.5.1-1,.4-1.2.8-.2.5,0,1.1.6,1.2.6,0,.9-.6,1.4-1,.5-.3,1.1-.3,1.6-.1s1.1.3,1.7.3c1,0,1.7-.9,2.3-1.7ZM73.7,51.8c-1.1.4-2.2.9-3.4,1.3-.2,0-.3.2-.3.4,1.1,1.6,1.9,3.3,2.4,5.2,0,.2.3,0,.4-.1,1-1.4,1.8-3,2.3-4.6.1-.3.2-.6.1-.9-.1-.5-.6-.7-1-1-.1,0-.2-.2-.3-.2-.1,0-.2,0-.3,0ZM60.7,37.7c-.5.5,0,1.5-.3,2.2,0,.2-.2.3,0,.5,0,0,0,.1.1.2.2.2.4.4.6.6.1.1.4.3.5.2.6-.6,1.4-1,2.2-1.2.2,0,.5-.1.6-.3.1-.2.2-.4.2-.6.2-1.2.5-2.3.7-3.5,0,0,0-.2,0-.3,0,0-.1-.1-.2-.2-.9-.4-2.1,0-2.5.9-.1.3-.2.7-.4.9-.3.4-1,.3-1.3.7ZM42.7,22.7c-.2-.2-.4-.4-.3-.6,0-.3.3-.4.5-.6.7-.5,1.5-1,2.2-1.5,0-.1-.2-.2-.4-.1-1.9.4-3.8.9-5.6,1.7,2,1.2,4,2.6,5.8,4.1.2-.5.8-.8,1.1-1.2.4-.6.5-1.4,1-1.8.3-.2.6-.4.7-.7-.5,0-.9,0-1.4,0-.6,0-1.1,0-1.6.3-.4.3-.7.8-1.2.8-.3,0-.6-.2-.8-.4ZM65.3,52.9c.4.6.7,1.3,1.1,1.9-.6-2-1.4-4.1-2.3-6,0,0,0-.1-.1-.2,0,0-.2,0-.3,0-2.5.8-5,1.7-7.5,2.5,0,0-.2,0-.2.1,0,0,0,.2,0,.3.1.4.3.8.6,1.2,1.6-.9,3.1-1.8,4.7-2.7.2-.1.5-.3.8-.3.2,0,.5,0,.7.2,1.2.6,2,1.9,2.6,3.1ZM53.9,69.9c-.3-.7-.9-1.2-1.5-1.6-.8,1.4-1.6,2.8-2.6,4,0,0-.1.3,0,.3,1.2,0,2.4-.2,3.6-.3.2,0,.5,0,.6-.3.3-.7.2-1.5-.1-2.2ZM71.9,60c0-.1.2-.3.2-.5,0-.2,0-.5,0-.7-.5-1.7-1.2-3.4-2.1-4.9-.1-.2-.2-.4-.4-.5-.2-.1-.4-.1-.6,0-.2.2-.1.5,0,.8.7,2.1,1.5,4.2,2.2,6.2,0,.1.1.3.3.2,0,0,0,0,.1-.1.1-.2.3-.4.4-.6ZM64.5,33.5c.2.2.5.2.8.3.2,0,.3-.2.4-.5.3-1.5.4-3,.6-4.5-.1,0-.3,0-.4.1-.3.3-.7.7-1,1-.2.2-.5.5-.6.8-.1.6.4,1.3,0,1.9-.1.2,0,.6.2.7ZM63.7,45.4c0,0-.2-.2-.3-.2-.1,0-.3,0-.3.1-.4,1.1-.7,2.1-1.1,3.2,0,.1,0,.3,0,.2.6-.2,1.2-.5,1.8-.7.6-.2,1.4-.2,1.9.2-.6-1-1.3-2-2.1-2.9ZM69.1,29.9c.2-.5.4-1,.6-1.5,0,0,0-.2-.1-.3-.7-.8-1.3-1.6-2.2-2.3,0,0,0,0-.1,0,0,0-.1.1-.1.2-.1.7-.2,1.4-.3,2.1,0,.2.2.4.4.4.2,0,.4,0,.6,0,.4,0,.7.3.9.7,0,.2.2.5.4.6ZM63.1,43.6c.4-.9.7-1.8,1-2.8,0,0,0-.1,0-.2,0-.2-.3-.1-.5,0-.6.3-1.2.7-1.8,1.1,0,0-.1.1-.1.2,0,0,0,.1,0,.2.4.5.9,1.1,1.3,1.6ZM68.3,58.5c0,0-.2,0-.3,0-.2,0-.4,0-.6.1-.1,0-.2,0-.3,0-.1,0-.2,0-.3-.2.3-.2.6-.3,1-.3.2,0,.2-.3,0-.3-.1,0-.3,0-.5,0-.2,0-.5.2-.7.3,0,0-.1,0-.1-.1,0,0,0-.1.1-.2.2-.2.5-.3.8-.3.1,0,.2-.2,0-.3,0,0-.2,0-.4,0-.4,0-.8.1-1.1.2.3.5.6,1.1.9,1.6,0,.1.2.3.3.4.3-.3.6-.5,1-.6,0,0,.1-.2,0-.2ZM73.5,68.3c-.2,0-.5.1-.7.2,0,0-.1,0-.1.1,0,0,0,0,0,.1.1.3.3.5.4.8,0,.1.2.2.3.2.3-.2.7-.3,1.1-.4.1,0,.2-.1.2-.2,0-.1,0-.2,0-.3,0-.2-.2-.3-.3-.4-.2-.1-.5,0-.7,0ZM74.4,71.2c0,0-.2,0-.2.1,0,0,0,.1,0,.2.1.3.2.5.3.8,0,0,0,.2.2.2,0,0,.1,0,.2,0,.2,0,.4-.2.5-.3.1,0,.2-.1.3-.2,0,0,0-.2,0-.3,0,0-.1,0-.2,0-.2,0-.3.2-.5.2-.2,0-.4,0-.5-.1.4-.2.8-.4,1.2-.6,0-.2-.4-.3-.6-.2-.2,0-.5,0-.7.1ZM71,65.1c0,0,.2-.1.3-.1.3,0,.5-.2.8-.3.1,0,.1-.3,0-.3-.1,0-.3,0-.4,0-.3,0-.6.2-.9.3,0,0,0,0-.1,0,0,0,0,.2,0,.3.1.2.2.4.4.7,0,0,0,0,0,0,0,0,0,0,.1,0,.4-.1.7-.3,1.1-.4,0,0,.2,0,.2-.2,0-.1-.2-.1-.3,0-.4.1-.8.2-1.1.4,0,0,0-.2,0-.3ZM75.6,50.7c-.3.2-.6.4-1,.6,0,0,0,0-.1,0,0,.1,0,.2.2.3.2.1.4.3.6.4,0,0,0,0,.1,0,.1,0,.2-.1.2-.2,0-.3.2-.7.3-1,0,0,0,0,0-.1,0,0-.2,0-.3,0ZM71.4,65.9c0,0-.2,0-.2.1,0,0,0,.1,0,.2,0,.1.2.3.3.3.3-.1.7-.3,1-.4.1,0,.3-.1.3-.3,0-.1-.1-.2-.2-.2-.1,0-.2,0-.3,0-.3,0-.6.2-.9.2ZM66.4,53.6c.1.2.4.3.7.3.4,0,.8.1,1.2.2,0-.2-.2-.4-.4-.5-.4-.2-.8-.3-1.2-.4,0,0,0,0-.1,0-.1,0-.2.2-.1.3ZM64.9,53.4s0,0,0,0c.1,0,0-.3,0-.4-.1,0-.3,0-.4,0-.1,0-.3.1-.4.2-.2,0-.5,0-.5.2,0,.2,0,.3.3.4.2,0,.3,0,.5,0,.2,0,.4-.1.6-.2ZM65.7,54.9c.2-.1,0-.4,0-.5s-.4,0-.6,0c-.2,0-.4.1-.6.3-.1.2-.1.4,0,.5.3.1.5-.2.8-.3.1,0,.3,0,.4,0ZM71.5,64c0,0,.1,0,.2,0,0,0,0-.1,0-.2,0-.1-.2-.2-.4-.2-.2,0-.3,0-.4.1-.2,0-.4.2-.5.2,0,0-.2.1-.2.2,0,.1,0,.2.2.2.1,0,.2,0,.3,0,.3,0,.6-.2.9-.3ZM72.3,67.8c.4-.2.8-.3,1.1-.5,0,0,0,0,0,0,0,0,0-.2-.1-.3-.1,0-.2,0-.3,0-.3,0-.5.1-.8.2-.1,0-.3,0-.4.2,0,.2.1.4.3.3ZM74.9,70c.2,0,0-.3,0-.4-.2,0-.3,0-.5,0-.3.1-.6.2-.9.3-.1.1,0,.4.2.4.2,0,.4,0,.5,0,.2,0,.5-.2.7-.3ZM66.8,52.9c.3,0,.6.2.9.2.1,0,.3,0,.3-.1-.5-.4-1.1-.6-1.8-.7,0,0,0,0-.1,0-.1,0,0,.2,0,.3.2.2.4.2.7.3ZM67.9,51.8c.1.3.2.5.3.8,0,.2.1.3.3.4.1,0,.4,0,.4-.1,0-.1,0-.2-.1-.4-.3-.4-.6-.8-.9-1.1,0,.1,0,.3,0,.4ZM67.4,52.2c0,0,.1,0,.2,0,0,0,0-.1,0-.2-.1-.2-.4-.3-.7-.4-.3,0-.7-.2-1-.3-.1,0-.2.1-.1.2,0,0,.2.1.3.2.5.2.9.3,1.4.5ZM71.9,66.6c0,0-.2,0-.2.1,0,.1,0,.3.2.4.4-.3.8-.5,1.3-.5.2,0,.2-.3,0-.3-.1,0-.3,0-.5,0-.3,0-.5.2-.8.2ZM70.4,62.5c-.2,0-.4.1-.6.2-.2,0-.4.2-.4.4,0,.2.3.2.4.1.2,0,.3-.2.4-.3.3-.1.6,0,.8-.3-.1-.2-.4-.1-.6,0ZM62.3,51.1s0,0-.1,0c0,0,0,.2.1.3s.2,0,.3,0c.4,0,.8-.2,1.2-.2,0-.2-.2-.3-.5-.3-.4,0-.7,0-1,.2ZM68.6,59.4c.1-.1,0-.4-.1-.4-.4,0-.8.2-1.2.5,0,.2.2.4.3.3.2,0,.3-.2.5-.2.2,0,.3,0,.4-.2ZM68.9,55.6c0,0-.1,0-.2-.1-.4-.1-.7-.3-1.1-.4-.1,0-.2,0-.3,0,0,0-.1.2,0,.3.5.2,1,.4,1.5.5,0,0,.1,0,.2,0,0,0,0-.2,0-.2ZM67.1,51.2c0,0,.1,0,.1,0,0,0,0-.1,0-.2-.4-.4-1-.6-1.5-.8-.1,0-.3,0-.4,0,.6.3,1.3.6,1.9,1ZM75.4,70.5c0-.1-.2-.2-.3-.2-.1,0-.2,0-.4,0-.2,0-.4.1-.6.2-.1,0-.3.1-.3.3,0,.1.1.2.3.2.1,0,.2,0,.3-.1.2-.1.5-.2.8-.1.1,0,.2-.1.2-.2ZM62.7,52c0,.1,0,.2.2.2,0,0,.1,0,.2,0,.4-.1.8-.2,1.2-.3,0-.1,0-.2-.2-.2-.1,0-.2,0-.3,0-.3,0-.6,0-.9.1-.1,0-.2.1-.2.2ZM69.2,59.9c0-.1,0-.2-.2-.2-.1,0-.2,0-.3,0-.3.1-.6.3-.9.4,0,.1,0,.3.2.3.1,0,.3,0,.4,0,.2-.1.4-.2.6-.3,0,0,.2,0,.2-.2ZM64.8,49.4c0,0,.1,0,.2.1.5.2,1.1.5,1.6.7,0,0,.2,0,.3,0,0-.1,0-.2-.2-.2-.6-.2-1.2-.5-1.7-.7,0,0,0,0,0,0,0,0,0,.1,0,.2ZM67.6,56.4s0,0,0,0c0,0,0,0,0,0,0,.3.4.5.7.6l1.2.4c0-.1,0-.3-.2-.3-.6-.2-1.1-.5-1.7-.7ZM64.6,52.6c0,0,0-.2-.1-.2-.2,0-.3,0-.5,0-.2,0-.4.1-.6.2-.1,0-.3.1-.3.2,0,.1,0,.2.2.2s.2,0,.3,0c.3,0,.5-.2.8-.2,0,0,.1,0,.2-.1ZM73.8,67.6c-.1,0-.2,0-.4,0-.4.1-.8.2-1.2.4,0,.1,0,.3.2.3.2,0,.3,0,.4-.2.3-.1.5-.2.8-.3.1,0,.1-.2,0-.3ZM66.5,55.9c-.1,0-.3,0-.4,0-.2,0-.3,0-.5,0-.2,0-.4.1-.4.3,0,.1.1.2.2.2.1,0,.2,0,.3,0,.3,0,.6-.2.9-.3,0-.1-.1-.2-.2-.3ZM65.4,53.8c0,0-.2,0-.3,0-.1,0-.2.1-.3.1-.1,0-.3,0-.4.1-.1,0-.3.2-.3.3,0,.1.2.1.3,0,.3,0,.7-.2,1-.3.1,0,.1-.2,0-.3ZM64.9,55.4c-.1,0-.1.3,0,.3.1,0,.3,0,.4,0,.3,0,.6-.2.9-.3,0-.1-.1-.3-.3-.3-.1,0-.3,0-.4,0-.2,0-.4.1-.6.2ZM66.6,34.9c.2-.1.2-.4.2-.6-.2,0-.5,0-.7,0-.2.1-.3.5,0,.6,0,0,.2,0,.2,0,.1,0,.2,0,.3,0ZM67,54.3c-.1,0-.3,0-.3.2,0,0,0,0,.1,0,.5.2,1,.3,1.6.4,0,0,0-.1,0-.2,0,0-.1,0-.2-.1-.4-.2-.9-.3-1.3-.3ZM64.7,48.7c.4.2.9.4,1.3.6,0,0,.2,0,.3,0,0,0,.1-.2,0-.2-.5-.2-1-.5-1.6-.7,0,0-.2,0-.2,0,0,0,0,.2.1.2ZM69,56.3c0,0-.2,0-.3-.1l-1.2-.4c0,0-.1,0-.2,0,0,0,0,.1,0,.1.6.3,1.1.5,1.8.6,0,0,0-.2,0-.3ZM69.4,62.6c.3-.1.6-.2.9-.3.1,0,.3,0,.3-.2,0-.1-.1-.2-.2-.2-.1,0-.2,0-.3,0-.3.1-.5.2-.8.4,0,0-.2.1-.2.2,0,0,.2,0,.3,0ZM67,56.7c0,0,0-.2,0-.2,0,0-.2,0-.3,0-.3,0-.7.2-1,.3,0,0,0,.2,0,.2,0,0,.2,0,.3,0,.3,0,.6-.1.9-.2,0,0,0,0,.1,0ZM71.1,63c0,0-.1,0-.2,0-.4.1-.7.3-1.1.4-.1,0,0,.2,0,.3.1,0,.2,0,.3,0,.3-.1.6-.3.9-.4,0,0,0,0,0,0,0,0,0-.1,0-.2ZM68.5,57.3c-.1,0-.3,0-.4,0,.5.2,1,.4,1.5.6.1,0,0-.2-.1-.3-.3-.1-.7-.2-1-.4ZM61.9,50.7c0,.1,0,.3.1.3.3-.2.7-.3,1.1-.4-.1-.2-.3-.2-.5-.2-.2,0-.4,0-.6.2,0,0-.1,0-.1,0ZM69.7,58.5c.1,0,.3,0,.2-.1-.4-.2-.9-.3-1.4-.4,0,0,0,.2,0,.2,0,0,.2,0,.2.1.3,0,.6.1.8.2ZM69.3,59c.2,0,.5.1.8.1,0,0,0-.2,0-.2,0,0-.1,0-.2-.1-.3,0-.5-.1-.8-.2,0,.2.1.3.3.4ZM74.9,72.9c0,.1,0,.3.2.4.2-.2.4-.4.5-.6,0,0-.2,0-.3,0-.1,0-.3.1-.3.3ZM70.8,61c-.1-.1-.3-.2-.4-.2,0,.2.1.5.3.6,0,0,.1,0,.2,0,.1,0,0-.3,0-.4ZM70.2,59.6c0,0-.2,0-.3,0-.1,0-.3,0-.4,0,0,.2.1.3.3.3.2,0,.3,0,.5,0,0,0,0-.2,0-.3ZM71.2,62.4c0,0,.1,0,.2,0,0-.3-.2-.6-.5-.8,0,.3,0,.5.3.7ZM70.4,60.3c-.1,0-.3-.1-.5,0,0,.2.2.3.4.3,0,0,.2,0,.3,0,0,0,0-.2-.1-.2M62,50c-.1,0-.3,0-.4.2.2,0,.4,0,.5-.1,0,0,0,0-.1,0"/>
      <path class="cls-4" d="M59,64.1c1.4-1.4,3.5-1.2,4.9.3,1.2,1.3.9,3.1-.5,4.5-.5.5-1.6.9-2.4.8-.7,0-1.7-.5-2.3-1-.3-.2-.5-.6-.8-1.3h0c-.4-1.3-.1-2.5.8-3.3h0s0,0,0,0c0,0,0,0,0,0h0s0,0,0,0h0s0,0,0,0ZM61.5,68.9l-.4.5h0c.4,0,.9,0,1.3-.2h0s0,0,0,0c-.3,0-.6-.1-.9-.2h0ZM60.2,68h0s0,0,0,0c-.2.2-.3.3-.5.5l-.2.2c0,0,.1,0,.2.1.3.2.6.3.9.4h0s.3-.3.3-.3l.2-.3h0c-.3-.2-.6-.4-.9-.7ZM62.3,68l-.5.6h0c.4.2.8.2,1.1,0h0s0,0,0,0c-.2-.2-.3-.3-.5-.5h0ZM59.2,66.8h0c-.1.2-.3.3-.4.5l-.2.2h0c.1.4.3.7.6.9h0s0,0,0,0c.2-.2.4-.4.6-.6l.2-.2h0c-.2-.3-.4-.5-.6-.8h0ZM63.2,67.1l-.6.6h0c.2.2.4.4.6.6h0c0,0,0,0,0,0,.2-.3.2-.7,0-1.2h0ZM61.2,67h0c-.2.2-.4.4-.6.6h0c0,0,0,.1,0,.1.3.2.5.4.8.6h0s.4-.3.4-.3l.2-.3h0c-.1-.2-.3-.3-.5-.5l-.2-.2ZM64.2,66l-.8.8h0c0,.1,0,.2.1.3h0c0,.1,0,.3,0,.3,0,.1,0,.2.1.4h0s0,0,0,0c.3-.6.4-1.2.4-1.7h0ZM62.5,66h0c0,0-.1,0-.1,0l-.4.3h0c0,.1-.1.2-.2.2h0c0,0,0,.1,0,.1h.2c.2.3.3.4.5.6h.1c0,.1.5-.4.5-.4l.2-.2h0c-.1-.2-.3-.5-.5-.7ZM60,66h0s0,0,0,0c-.1.1-.3.3-.4.4h-.1c0,.1,0,.2,0,.2.2.2.4.5.6.7h0c0,0,0,0,0,0h0c.1-.1.3-.3.4-.4l.2-.2h0c-.3-.3-.5-.5-.8-.7ZM58.6,65.1h0c-.3.6-.4,1.2-.3,1.9h0c0,0,0,0,0,0h0c.1-.2.3-.3.4-.5h.1c0-.1,0-.2,0-.2-.2-.4-.4-.9-.4-1.3h0ZM61.2,64.7l-.2.2c-.2.2-.4.4-.6.6h-.1c0,.1,0,.2,0,.2.2.2.5.4.7.7h.1c0,0,.1,0,.1,0,0,0,.1-.1.2-.2h.1c0-.1.3-.4.3-.4,0,0,.1,0,.2-.1h0s0,0,0,0c-.1-.1-.2-.2-.3-.3h0c-.2-.2-.4-.3-.6-.5h0ZM63.5,64.7h0c-.2.3-.4.6-.8.9h0s0,0,0,0c.1.2.3.4.4.7h0c0,0,.4-.3.4-.3l.5-.5h0c-.1-.3-.3-.5-.5-.8h0ZM59,64.9h0c0,.4,0,.8.2,1.2h0s0,0,0,0c.1-.1.2-.2.3-.3h0c0,0,0-.1,0-.1-.2-.2-.4-.4-.6-.6h0ZM59.2,64.5h0s0,0,0,0c.3.3.5.6.8.9h0s.1,0,.1,0c.2-.2.4-.4.6-.7h0c0-.1,0-.1,0-.1,0,0,0,0-.1,0h0c-.5-.3-.8-.2-1.3,0h0ZM62,63.7l-.2.2c-.1.1-.2.3-.3.4h0c0,0,0,.1,0,.1.3.2.6.4.8.6h0c0,.1,0,.2.1.2h0c0,0,0,0,0,0,.3-.3.6-.6.7-.9h0s0,0,0,0c-.4-.3-.8-.5-1.1-.7h0ZM61.3,63.6c-.4,0-.8,0-1.2.2h0s0,0,0,0c0,0,.2,0,.2,0h0c.2.1.4.2.6.3h0s.1-.1.1-.1c.1-.1.2-.3.3-.4h0c0,0,0,0,0,0,0,0,0,0-.1,0h0Z"/>
      <path class="cls-4" d="M68.6,34.3c.1-.4.6-.5,1-.4.4.2.6.5.6.9,0,.4,0,.8-.1,1.2-.1.3-.2.7-.4,1,0,0,0,0,0,0,0,0,0,0,0,0-.6-.6-1-1.5-1-2.3,0-.1,0-.3,0-.4ZM69.7,34.4c-.1,0-.2-.1-.4-.1-.3,0-.5.3-.5.7,0,.3.2.6.3.9.1.2.2.4.3.6,0,0,.1.1.2,0,0,0,0,0,0,0,0-.2,0-.3.1-.5,0-.2.1-.5.1-.7,0-.3,0-.5-.3-.7h0Z"/>
      <path class="cls-4" d="M69.5,35.4c0,0-.2,0-.2,0-.1,0-.2-.2-.2-.4,0-.2.1-.3.3-.3.2,0,.5.1.5.4,0,.1-.1.3-.3.3Z"/>
    </g>
  </g>
</svg>