<svg width="93" height="80" viewBox="0 0 93 80" fill="none" xmlns="http://www.w3.org/2000/svg">
<path fill-rule="evenodd" clip-rule="evenodd" d="M26.9909 53.8215C14.4503 56.7448 7.27522 52.6632 5.46576 41.5764C2.75157 24.9463 11.946 7.47513 24.5617 5.80032C37.1774 4.1255 42.4809 8.90295 51.3477 14.9023C60.2146 20.9016 85.9141 35.0175 88.8339 37.4133C91.7536 39.809 98.0009 49.1707 85.5053 55.1005C77.1749 59.0537 66.8116 58.3092 54.4155 52.8669C50.0579 50.9617 46.0896 49.9534 42.5107 49.8422C38.9317 49.7309 33.7585 51.0574 26.9909 53.8215Z" fill="#B5CCF1"/>
<path d="M41.2859 32.7084C42.413 33.4441 42.8663 34.3958 42.6456 35.5635C41.5899 37.1459 41.062 38.5161 41.062 39.6743C41.062 40.8324 40.9826 42.3389 40.8237 44.1938L32.0498 44.3791L32.0312 44.368C31.7967 44.3725 31.5662 44.3762 31.3397 44.3791C29.3869 44.4045 27.6544 44.6631 27.5727 44.6758C26.9333 44.775 25.781 43.5888 25.4612 43.1869C24.9474 42.5411 24.7032 41.7769 24.5946 40.9451C24.4922 40.1605 24.6367 39.4311 24.9203 38.7318C25.2517 37.9148 25.7705 37.2076 26.4282 36.5849C27.1495 35.9237 27.9262 35.384 28.7969 34.9859C28.8307 34.9705 29.4556 34.6629 29.4855 34.6669C29.5056 34.6697 30.5046 34.9897 31.894 35.6387C33.471 34.5179 35.1766 33.3318 37.0111 32.0806C38.7338 31.7634 40.1588 31.9727 41.2859 32.7084Z" fill="white"/>
<path fill-rule="evenodd" clip-rule="evenodd" d="M29.9327 51.8034C31.3123 52.0875 32.144 51.5462 32.4278 50.1794C32.8535 48.1292 30.2815 48.4956 29.4944 47.4405C28.7072 46.3853 30.4531 46.1738 32.4278 46.8071C34.4042 46.7205 34.9747 46.8337 35.0882 46.2886C35.2017 45.7436 34.172 45.4002 31.4217 45.49C28.6713 45.5799 29.0759 45.5837 29.2851 47.8815C29.4246 49.4134 29.6405 50.7207 29.9327 51.8034Z" fill="white"/>
<path d="M64.2196 56.182C63.1593 55.3049 62.4124 54.7532 62.0122 54.4004C61.0562 53.5579 60.0771 52.742 59.1127 51.909C58.9144 51.7378 58.7218 51.5535 58.5587 51.3495C58.3539 51.0934 58.4006 50.9168 58.7239 50.7921C58.979 50.6937 59.2577 50.6485 59.53 50.605C60.3419 50.4752 61.1553 50.3539 61.9692 50.2373C62.3268 50.186 62.6873 50.156 63.046 50.1114C63.11 50.1035 63.1712 50.0715 63.2336 50.0506C63.2026 50.0001 63.1789 49.943 63.1394 49.9004C62.8254 49.5612 62.5084 49.2247 62.1921 48.8876C62.1643 48.858 62.1348 48.8299 62.106 48.8011C62.151 48.7902 62.1954 48.7758 62.241 48.769C63.0743 48.6461 63.9075 48.5223 64.7413 48.4024C65.2888 48.3236 65.836 48.2421 66.3853 48.1775C66.9473 48.1115 67.511 48.0579 68.0749 48.0113C68.5793 47.9697 69.0857 47.9521 69.59 47.9101C69.9131 47.8832 70.2332 47.8196 70.5563 47.7934C70.9602 47.7608 71.3663 47.7556 71.7708 47.7279C72.276 47.6933 72.7802 47.6425 73.2855 47.6088C73.7102 47.5804 74.1363 47.5727 74.5611 47.544C74.9037 47.5208 75.2445 47.4703 75.5872 47.4496C75.9221 47.4294 76.2582 47.4316 76.5938 47.4237C77.4627 47.4034 78.3314 47.3786 79.2004 47.3642C79.7321 47.3554 80.2683 47.3224 80.7941 47.3791C81.0682 47.4086 81.3815 47.5503 81.5769 47.7432C82.0707 48.2307 82.5084 48.7753 82.9674 49.2981C83.2488 49.6186 83.5306 49.9388 83.8076 50.2632C84.3913 50.9469 84.9706 51.6344 85.5547 52.3177C85.7362 52.5299 85.9303 52.7312 86.1125 52.9429C86.1647 53.0035 86.1953 53.0829 86.2359 53.1537C86.1784 53.1067 86.0072 52.9602 86.0641 53.012C91.6993 58.1385 67.9682 59.2285 64.2196 56.182Z" fill="white"/>
<path d="M0.0292386 37.239C0.0484491 36.7111 0.0647808 36.1832 0.0852764 35.6554C0.0918982 35.4848 0.111186 35.3149 0.121714 35.1444C0.209135 33.7293 0.377268 32.3231 0.739421 30.9512C1.02842 29.8564 1.41002 28.7915 1.87383 27.7513C2.40288 26.5649 3.0461 25.4492 3.78722 24.3883C4.16481 23.8478 4.57723 23.327 5.01604 22.8343C5.54401 22.2416 6.08646 21.6548 6.67814 21.1269C7.35364 20.5242 8.07955 19.9749 8.80854 19.4358C8.97085 19.3158 9.25777 19.2572 9.45146 19.3074C9.79157 19.3954 9.84076 19.691 9.58059 19.9168C8.98985 20.4295 8.70875 21.084 8.66546 21.8441C8.64155 22.264 8.68087 22.6873 8.65757 23.1073C8.58074 24.4915 8.98496 25.7657 9.58357 26.9812C10.1559 28.1432 10.9892 29.1002 12.1849 29.6593C12.871 29.9801 13.6048 30.2052 14.3273 30.4425C14.9549 30.6487 15.598 30.8078 16.2323 30.9943C16.8545 31.1773 17.4675 31.3432 18.1268 31.1233C18.465 31.0106 18.7188 31.3131 18.5893 31.6409C18.0995 32.8805 17.6822 34.1671 16.8218 35.2123C16.3057 35.8392 15.7086 36.4195 15.0699 36.9229C14.1322 37.6619 13.054 38.1888 11.977 38.7078C10.9265 39.2141 9.89966 39.7694 8.84453 40.2655C7.65588 40.8243 6.45132 41.3504 5.24595 41.8731C4.27351 42.2949 3.29181 42.6959 2.30912 43.0936C2.07415 43.1887 1.82245 43.2554 1.57203 43.2969C1.32111 43.3385 0.769881 42.9451 0.671406 42.685C0.421505 42.0251 0.251635 41.3465 0.181482 40.6432C0.13879 40.2151 0.081326 39.7886 0.0152488 39.3614C3.08807e-09 39.331 -4.11743e-09 39.3007 0.0152486 39.2552C0.0406629 38.6699 0.0513219 38.0996 0.0584027 37.5294C0.0585974 37.5137 0.0203313 37.4975 0 37.4816C0 37.4108 0 37.3401 0 37.2542C0.0101636 37.239 0.0292253 37.2394 0.0292386 37.239Z" fill="white"/>
<path fill-rule="evenodd" clip-rule="evenodd" d="M40.7186 44.1751L59.1834 43.7046H59.9408C61.045 44.5271 62.2564 44.8815 63.5751 44.7679C65.5531 44.5975 67.2997 42.4143 67.7076 39.3707C67.7677 39.1333 67.9135 39.0763 68.145 39.1995C68.3998 39.6964 68.852 39.9131 69.5016 39.8498C69.7836 39.8193 69.9405 39.8853 70.0997 40.1914C70.2589 40.4975 71.1007 40.8826 71.6283 40.5735C72.1559 40.2645 74.5883 36.3246 74.5883 35.6617C74.5883 34.9987 74.7248 33.5508 74.8321 33.4573C74.9395 33.3638 75.1414 33.4397 75.5335 33.3154C75.9255 33.1912 76.261 33.3148 77.5179 30.0154C78.7748 26.716 80.6979 21.7836 80.9028 18.3299C81.1076 14.8761 78.6681 16.0968 77.5179 17.538C76.3678 18.9793 73.1616 22.6902 70.1943 24.7054C69.8312 24.9766 69.5348 25.1041 69.3051 25.0878C69.1674 24.2302 68.6034 23.9106 67.6131 24.1291C67.2282 24.1983 66.9132 23.894 66.6681 23.2164C66.0333 19.6982 64.5859 17.1525 62.3262 15.5792C58.9365 13.2193 53.1607 11.8706 51.771 16.8049C50.8445 20.0945 51.4015 24.091 53.442 28.7945L52.5924 29.5298C49.2497 30.6862 46.5189 32.1137 44.4 33.8123C41.2218 36.3603 41.161 38.8457 40.9924 40.8957C40.88 42.2624 40.7887 43.3555 40.7186 44.1751Z" fill="white"/>
<path d="M33.8861 29.9685C33.9144 29.7012 33.9272 29.4322 33.9581 29.1653C33.9598 29.1509 34.0955 29.1202 34.1346 29.1471C34.498 29.3967 34.8575 29.6526 35.2097 29.9179C35.3051 29.9899 35.3126 30.0613 35.3559 29.8732C35.4236 29.5791 35.842 29.497 36.0926 29.706C36.6672 30.1852 36.9572 30.8297 37.1675 31.5304C37.3499 32.1382 37.2776 32.756 37.2954 33.3701C37.3068 33.7643 37.676 34.0616 38.0634 34.0775C38.3499 34.0892 38.6512 34.2149 38.9089 34.3571C39.5326 34.701 39.9335 35.2437 40.1306 35.9273C40.3428 36.6636 40.1453 37.319 39.7186 37.9306C39.3305 38.487 38.9771 39.0697 38.4139 39.4776C38.1023 39.7033 37.7433 39.8906 37.4994 40.1756C37.2375 40.4817 36.9368 40.6812 36.5801 40.8189C35.7015 41.1579 34.7414 40.7182 34.3112 39.9856C33.8567 39.019 32.2346 39.8066 31.6061 38.3808C31.289 37.9102 31.1654 37.5156 31.2339 37.4762C31.3174 37.428 31.2019 37.3062 31.0541 37.151C30.4086 36.473 29.8353 35.7387 29.4431 34.879C29.3811 34.7433 29.3173 34.6033 29.2902 34.4586C29.2736 34.3697 29.2984 34.2428 29.356 34.1814C29.3923 34.1428 29.5365 34.1705 29.6095 34.2104C29.7189 34.2702 29.8056 34.3702 29.9066 34.4469C30.0787 34.5778 30.1743 34.5221 30.1277 34.318C29.9951 33.7381 30.1169 33.1876 30.3209 32.6555C30.4309 32.3686 30.6099 32.1068 30.776 31.8453C30.7918 31.8204 30.9516 31.858 31.0211 31.903C31.1501 31.9864 31.2618 32.0966 31.3806 32.1956C31.3886 32.0371 31.3911 31.8781 31.4067 31.7203C31.4159 31.6266 31.439 31.5327 31.4674 31.4426C31.6098 30.9909 31.6862 30.9681 32.0632 31.2513C32.1137 31.2893 32.1743 31.314 32.2302 31.3449C32.2378 31.2874 32.2479 31.2301 32.2528 31.1724C32.2944 30.676 32.195 30.2256 31.8321 29.8571C31.8278 29.8527 31.9066 29.7231 31.9519 29.7196C32.4746 29.6785 32.9974 29.6568 33.4755 29.9361C33.5733 29.9932 33.6708 30.0507 33.7836 30.1232C33.829 30.0818 33.8799 30.0275 33.8861 29.9685Z" fill="white"/>
<path fill-rule="evenodd" clip-rule="evenodd" d="M41.6371 11.7095C40.0935 12.9889 39.3935 14.8411 39.5371 17.266C39.7525 20.9035 43.9842 23.495 46.031 22.3981C48.0779 21.3012 50.338 19.7033 50.6079 16.302C50.7225 19.5386 51.0618 21.1138 46.698 23.461C42.3343 25.8082 37.7723 22.1662 37.1125 20.665C36.4526 19.1638 34.8641 15.8499 38.0881 12.0053C38.5293 11.4968 39.7124 11.3982 41.6371 11.7095Z" fill="white"/>
<path fill-rule="evenodd" clip-rule="evenodd" d="M78.4163 54.269C78.7897 54.2281 79.1337 54.1953 79.4751 54.1446C80.2507 54.0295 81.0245 53.9029 81.7999 53.7862C82.2613 53.7168 82.7297 53.6831 83.1846 53.585C83.5037 53.5161 83.7928 53.5609 84.0868 53.6576C84.134 53.6732 84.1702 53.7224 84.2116 53.756C84.1619 53.7838 84.1146 53.8299 84.0623 53.8365C83.3807 53.9225 82.6971 53.9942 82.0164 54.0873C81.3319 54.1808 80.6509 54.2993 79.9669 54.3971C79.4904 54.4653 79.011 54.5136 78.5337 54.5773C78.285 54.6106 78.0389 54.6641 77.7901 54.6972C77.4379 54.7441 77.0836 54.7754 76.7314 54.8229C76.3183 54.8785 75.907 54.9476 75.4941 55.0047C75.1621 55.0507 74.8284 55.0841 74.4963 55.1294C74.0733 55.1871 73.6514 55.2529 73.2286 55.3121C72.9167 55.3558 72.6041 55.3954 72.2917 55.4352C71.9627 55.4772 71.6323 55.51 71.3046 55.561C71.1063 55.5918 70.9238 55.5903 70.8649 55.3622C70.8112 55.154 70.9175 54.991 71.1202 54.9461C71.3977 54.8846 71.6826 54.851 71.9661 54.8242C72.3026 54.7924 72.641 54.7788 72.9787 54.7606C73.3944 54.7382 73.8109 54.7267 74.226 54.6967C74.6678 54.6648 75.1082 54.6141 75.5496 54.5767C76.0687 54.5327 76.5889 54.5005 77.1074 54.4506C77.3769 54.4246 77.6437 54.3701 77.912 54.3309C78.0696 54.3078 78.2278 54.2895 78.4163 54.269Z" fill="#A81F17"/>
<path fill-rule="evenodd" clip-rule="evenodd" d="M70.3163 51.3935C70.6898 51.3733 71.0334 51.359 71.3758 51.3313C71.7396 51.3018 72.1018 51.2528 72.4656 51.2246C72.874 51.1929 73.2839 51.1801 73.6924 51.1497C74.1558 51.1152 74.6182 51.0666 75.0815 51.031C75.4241 51.0047 75.768 50.9952 76.1105 50.9678C76.5401 50.9334 76.9685 50.8838 77.3981 50.8494C77.7406 50.822 78.0846 50.8133 78.4271 50.786C78.8798 50.7498 79.3309 50.6824 79.784 50.6673C80.3009 50.65 80.8201 50.4891 81.3366 50.6673C81.3981 50.6886 81.454 50.726 81.5125 50.7559C81.4569 50.7664 81.4016 50.7808 81.3455 50.7868C80.9536 50.8283 80.561 50.8638 80.1697 50.9097C79.6942 50.9655 79.2207 51.0387 78.7447 51.0873C78.3965 51.1228 78.0445 51.1204 77.696 51.1536C77.2181 51.199 76.7425 51.2678 76.2648 51.3158C75.9181 51.3507 75.5694 51.3654 75.2221 51.3942C74.769 51.4318 74.3162 51.4729 73.8636 51.5151C73.4511 51.5536 73.0386 51.5921 72.6268 51.6368C72.1009 51.6939 71.5763 51.7639 71.05 51.8159C70.5506 51.8652 70.049 51.8927 69.5495 51.941C69.202 51.9747 68.8572 52.0385 68.5094 52.0657C68.3737 52.0764 68.2224 52.047 68.098 51.9917C68.009 51.9522 67.9529 51.8392 67.8821 51.759C67.9719 51.6978 68.0575 51.5918 68.1524 51.5827C68.7288 51.5276 69.3076 51.4965 69.8852 51.4526C70.0195 51.4424 70.1524 51.4137 70.3163 51.3935Z" fill="#A81F17"/>
<path fill-rule="evenodd" clip-rule="evenodd" d="M38.5484 59.0384C38.5171 59.0635 38.5008 59.0827 38.485 59.0822C38.3423 59.078 38.1998 59.0704 38.0572 59.0638C38.1934 58.9699 38.3178 58.8253 38.4679 58.791C39.0584 58.6557 39.5903 58.4173 40.0832 58.0656C40.727 57.6061 41.1245 57.0035 41.2691 56.2335C41.2914 56.1148 41.2581 56.0617 41.1149 56.0625C40.9106 56.0636 40.7058 56.0301 40.5017 56.007C40.1024 55.9618 39.7845 55.6795 39.7494 55.3428C39.7269 55.1269 40.0511 54.6748 40.2905 54.5581C40.8475 54.2867 41.4664 54.8225 41.6246 55.2865C41.6884 55.4734 41.7187 55.4056 41.8028 55.3287C42.2003 54.9654 42.3305 54.4989 42.2989 53.9865C42.2651 53.4389 42.0239 52.9985 41.5488 52.6903C41.3841 52.5835 41.321 52.4316 41.4486 52.2375C41.5878 52.0259 41.974 52.0115 42.1248 52.1987C42.3288 52.4517 42.5078 52.7432 42.6204 53.0464C42.8934 53.7816 42.8235 54.4964 42.3642 55.1542C42.3313 55.2013 42.3043 55.2556 42.262 55.2923C41.9014 55.6054 41.7071 55.9949 41.5606 56.4538C41.1259 57.8149 40.1282 58.6185 38.7758 59.0208C38.7106 59.0402 38.6346 59.0233 38.5484 59.0384ZM40.3879 54.9219C40.1269 55.0764 40.0557 55.5201 40.3028 55.5973C40.5882 55.6865 40.918 55.6373 41.2285 55.6403C41.2419 55.6404 41.2642 55.5623 41.2684 55.5193C41.309 55.102 40.9176 54.814 40.3879 54.9219Z" fill="#FFB61D"/>
<path fill-rule="evenodd" clip-rule="evenodd" d="M74.9815 52.7242C75.8432 52.6424 76.6738 52.5543 77.5058 52.4809C78.0953 52.429 78.687 52.4025 79.2769 52.3541C79.6409 52.3242 80.0035 52.2762 80.3664 52.233C80.8672 52.1734 81.3683 52.0624 81.8682 52.0681C82.1532 52.0713 82.4848 52.1639 82.6791 52.4527C82.6941 52.475 82.711 52.4961 82.7271 52.5178C82.6894 52.5253 82.6491 52.5456 82.6146 52.5383C81.9627 52.4002 81.3215 52.5338 80.6746 52.5935C80.2236 52.6351 79.7652 52.5855 79.3114 52.606C78.8558 52.6265 78.4019 52.6849 77.947 52.7237C77.4448 52.7666 76.9416 52.7997 76.4401 52.8494C76.1707 52.8761 75.9046 52.9359 75.6355 52.9679C75.2356 53.0153 74.8338 53.0457 74.434 53.0937C73.9768 53.1487 73.519 53.2037 73.0649 53.2792C72.525 53.369 71.99 53.4884 71.4505 53.5809C70.9161 53.6725 70.3807 53.7703 69.8416 53.8177C69.5959 53.8393 69.336 53.7629 69.0905 53.6998C68.9018 53.6512 68.9446 53.5182 69.0648 53.431C69.1619 53.3606 69.2809 53.2996 69.3974 53.2813C69.7482 53.2264 70.1024 53.1936 70.4555 53.1538C70.8287 53.1118 71.2015 53.0654 71.5755 53.0324C72.1079 52.9855 72.6418 52.9547 73.174 52.9061C73.4974 52.8766 73.8185 52.8212 74.1416 52.7871C74.4106 52.7588 74.6811 52.7446 74.9815 52.7242Z" fill="#A81F17"/>
<path fill-rule="evenodd" clip-rule="evenodd" d="M69.2668 50.1886C69.9777 50.1074 70.6576 50.0219 71.3386 49.9467C71.7812 49.8978 72.226 49.8698 72.6686 49.8212C72.9272 49.7928 73.1829 49.7395 73.4407 49.7027C73.6178 49.6774 73.7964 49.6632 73.9739 49.6405C74.5167 49.5709 75.0583 49.4915 75.6021 49.4312C76.1552 49.3699 76.7109 49.3323 77.2644 49.2741C77.7713 49.2208 78.2756 49.1379 78.7835 49.1018C78.9659 49.0888 79.1585 49.1641 79.3397 49.2206C79.4 49.2395 79.4393 49.3256 79.4882 49.381C79.4189 49.4039 79.3507 49.442 79.28 49.4471C78.8848 49.4755 78.4885 49.4897 78.0934 49.5209C77.6764 49.5538 77.26 49.5967 76.844 49.642C76.5252 49.6768 76.2079 49.7251 75.8893 49.7618C75.5072 49.8057 75.1233 49.8358 74.742 49.8862C74.1825 49.96 73.6249 50.0492 73.0659 50.127C72.4605 50.2113 71.8529 50.2812 71.2488 50.3738C70.727 50.4537 70.2094 50.5611 69.6887 50.6483C69.0042 50.7629 68.3179 50.8664 67.6335 50.9814C67.3835 51.0234 67.2317 50.8809 67.2091 50.6823C67.1887 50.5025 67.347 50.4369 67.5495 50.4234C68.0811 50.388 68.6099 50.3112 69.1394 50.2473C69.1736 50.2432 69.2041 50.2089 69.2668 50.1886Z" fill="#A81F17"/>
<path fill-rule="evenodd" clip-rule="evenodd" d="M77.2081 56.5647C76.5448 56.6475 75.912 56.7286 75.2797 56.8142C75.0104 56.8506 74.7426 56.9205 74.4734 56.9239C74.386 56.925 74.2122 56.7452 74.2257 56.6798C74.2533 56.5471 74.3671 56.349 74.4711 56.331C74.9141 56.254 75.3668 56.2345 75.8156 56.191C76.2206 56.1518 76.625 56.1068 77.0299 56.0676C77.4788 56.0241 77.9278 55.9822 78.377 55.9432C78.8801 55.8995 79.3833 55.857 79.8868 55.8193C80.2318 55.7935 80.5779 55.7835 80.9225 55.7544C81.3278 55.7203 81.7317 55.6684 82.137 55.6332C82.4613 55.605 82.7874 55.5981 83.1114 55.5674C83.4457 55.5357 83.7783 55.4861 84.1117 55.4458C84.152 55.441 84.1962 55.4354 84.2335 55.4469C84.3624 55.4865 84.489 55.5334 84.6165 55.5776C84.5041 55.6164 84.3944 55.6754 84.279 55.6906C83.5963 55.7803 82.9119 55.8572 82.2287 55.9436C81.7741 56.0011 81.3213 56.0732 80.8664 56.1275C80.4489 56.1774 80.029 56.2062 79.6116 56.2561C79.3918 56.2824 79.1763 56.3473 78.9564 56.3716C78.4885 56.4232 78.0187 56.4578 77.5501 56.504C77.4454 56.5143 77.3424 56.5439 77.2081 56.5647Z" fill="#A81F17"/>
<path fill-rule="evenodd" clip-rule="evenodd" d="M26.4282 36.5849C27.1495 35.9237 27.9262 35.3839 28.7969 34.9859C28.8307 34.9704 28.8653 34.9329 28.8952 34.937C29.0261 34.955 29.1553 34.9845 29.2851 35.0098C29.1912 35.074 29.1037 35.1522 29.0023 35.2003C27.9948 35.6777 27.0566 36.257 26.2933 37.0869C25.5514 37.8935 25.0196 38.7986 24.9023 39.9287C24.7944 40.9675 24.9262 41.9391 25.5139 42.8153C25.8292 43.2855 26.2551 43.6365 26.7725 43.8694C26.8136 43.8879 26.8523 43.9118 26.8921 43.9332C26.8459 43.9426 26.7999 43.9538 26.7534 43.961C26.114 44.0602 25.781 43.5887 25.4612 43.1869C24.9474 42.5411 24.7032 41.7769 24.5946 40.9451C24.4922 40.1605 24.6367 39.431 24.9203 38.7318C25.2517 37.9148 25.7705 37.2076 26.4282 36.5849Z" fill="#00160A"/>
<path fill-rule="evenodd" clip-rule="evenodd" d="M66.4325 50.0063C66.3239 49.7674 66.4812 49.5026 66.7312 49.505C67.1582 49.509 67.585 49.5376 68.0117 49.5591C68.3383 49.5756 68.6646 49.5971 68.9911 49.6163C69.0303 49.6186 69.0799 49.6064 69.1071 49.6247C69.1979 49.686 69.2807 49.7581 69.3666 49.8261C69.2838 49.8668 69.2034 49.9365 69.1178 49.9429C68.8532 49.9626 68.5844 49.9816 68.3214 49.9578C67.8559 49.9156 67.4159 50.0202 66.986 50.1518C66.752 50.2235 66.6044 50.1488 66.4325 50.0063Z" fill="#A81F17"/>
<path fill-rule="evenodd" clip-rule="evenodd" d="M4.77056 30.3139C4.70968 30.6835 4.64228 31.0217 4.59028 31.3623C4.55733 31.5781 4.54996 31.7977 4.52644 32.0151C4.48806 32.3699 4.42059 32.7235 4.41029 33.0789C4.38534 33.9396 4.39318 34.8011 4.37481 35.662C4.3571 36.4922 4.51711 37.2958 4.71065 38.0956C4.74825 38.251 4.75963 38.434 4.85178 38.5499C4.99321 38.7278 4.8619 38.814 4.76261 38.8412C4.66775 38.8673 4.48268 38.8208 4.44464 38.7493C4.34043 38.5534 4.26984 38.3321 4.22711 38.1128C4.11887 37.5574 3.98765 37.0007 3.94958 36.4389C3.89806 35.6786 3.93378 34.9129 3.91594 34.1499C3.89433 33.2251 4.03058 32.317 4.15763 31.4052C4.36735 29.9003 4.66721 28.4166 5.14277 26.9723C5.20018 26.7979 5.32909 26.6296 5.46632 26.5033C5.63397 26.349 5.89223 26.49 5.92918 26.7228C5.97289 26.9981 5.84739 27.209 5.69605 27.4172C5.24047 28.044 5.01271 28.7587 4.89237 29.5139C4.85151 29.7704 4.81115 30.027 4.77056 30.3139Z" fill="#A81F17"/>
<path fill-rule="evenodd" clip-rule="evenodd" d="M7.84258 36.8764C7.82112 37.0654 8.1612 37.2921 7.78204 37.3635C7.67951 37.3828 7.45516 37.1779 7.408 37.039C7.26511 36.6183 7.12679 36.1838 7.08839 35.7467C7.03534 35.1429 7.07508 34.5318 7.07508 33.9239C7.07508 33.8533 7.07508 33.7828 7.07508 33.7123C7.07508 32.7551 7.07944 31.7979 7.07215 30.8408C7.07022 30.5871 7.01087 30.3331 7.01828 30.0802C7.02373 29.8942 7.06232 29.6947 7.14791 29.5299C7.20908 29.4122 7.36712 29.2818 7.49241 29.2715C7.57851 29.2645 7.75124 29.4459 7.76527 29.5566C7.80201 29.8467 7.78722 30.1451 7.76554 30.4384C7.74869 30.6661 7.66873 30.8899 7.65499 31.1175C7.62067 31.6862 7.60569 32.256 7.58734 32.8254C7.56359 33.5626 7.49641 34.3022 7.53761 35.0363C7.57167 35.643 7.73598 36.2431 7.84258 36.8764Z" fill="#A81F17"/>
<path fill-rule="evenodd" clip-rule="evenodd" d="M10.7444 35.6483C10.1683 34.7575 9.73889 33.8168 9.47017 32.8069C9.41599 32.6033 9.46308 32.3451 9.53946 32.1423C9.57614 32.0449 9.83096 31.9355 9.91347 31.9789C10.0254 32.0378 10.1145 32.2328 10.1299 32.3787C10.1896 32.942 10.2279 33.4997 10.4137 34.0478C10.6395 34.7138 11.0267 35.2697 11.4017 35.8408C11.4798 35.9596 11.7133 36.077 11.5486 36.2278C11.3845 36.378 11.2177 36.2039 11.094 36.0659C10.9777 35.9362 10.8705 35.798 10.7444 35.6483Z" fill="#A81F17"/>
<path fill-rule="evenodd" clip-rule="evenodd" d="M13.3886 33.7397C13.0421 33.4025 12.6952 33.0952 12.3849 32.7526C12.2236 32.5744 12.2538 32.3479 12.4478 32.1778C12.6412 32.0083 12.7622 32.1665 12.8736 32.2956C13.2951 32.7838 13.7108 33.2776 14.1267 33.7709C14.1503 33.7989 14.1753 33.8693 14.1693 33.8734C14.1013 33.9205 14.0134 34.0074 13.9576 33.9903C13.7671 33.932 13.5873 33.8364 13.3886 33.7397Z" fill="#A81F17"/>
<path fill-rule="evenodd" clip-rule="evenodd" d="M31.6423 74.7261C32.4259 74.9222 33.1821 75.1077 33.9286 75.3242C34.0655 75.3639 34.1628 75.5293 34.2784 75.6367C34.1163 75.647 33.9438 75.6969 33.7936 75.6609C33.0182 75.4752 32.2417 75.2889 31.4789 75.0615C30.7305 74.8382 29.9981 74.5656 29.2592 74.3133C29.224 74.3013 29.1947 74.2741 29.1609 74.2572C28.98 74.1667 28.7872 74.0748 28.9297 73.8321C29.0612 73.6082 29.2657 73.6136 29.4682 73.728C29.765 73.8958 30.0384 74.1076 30.3476 74.2483C30.7559 74.434 31.1892 74.5692 31.6423 74.7261Z" fill="#A81F17"/>
<path fill-rule="evenodd" clip-rule="evenodd" d="M32.6658 72.4188C32.9842 72.6026 33.2896 72.7662 33.588 72.9422C33.6514 72.9796 33.6891 73.0622 33.7386 73.1239C33.6329 73.166 33.5042 73.2705 33.4252 73.2404C32.7918 72.9988 32.166 72.7362 31.5417 72.4708C31.1987 72.325 30.8597 72.1684 30.5254 72.0031C30.3384 71.9106 30.1253 71.8136 30.2872 71.5272C30.3883 71.3484 30.6281 71.3041 30.8511 71.4259C31.45 71.753 32.0504 72.0775 32.6658 72.4188Z" fill="#A81F17"/>
<path fill-rule="evenodd" clip-rule="evenodd" d="M30.905 69.0238C30.8926 68.5841 31.1744 68.3983 31.5404 68.6154C32.1627 68.9846 32.769 69.3811 33.377 69.7741C33.5582 69.8912 33.7295 70.0269 33.8909 70.1705C33.9513 70.2242 33.9705 70.3246 34.0085 70.4038C33.9032 70.4017 33.7833 70.4322 33.6949 70.3923C33.1744 70.1572 32.6594 69.9095 32.1461 69.6586C31.7349 69.4577 31.3288 69.2462 30.905 69.0238Z" fill="#A81F17"/>
<path fill-rule="evenodd" clip-rule="evenodd" d="M33.0146 65.9616C33.5493 65.9686 33.8327 66.3243 34.1381 66.639C34.2258 66.7294 34.2969 66.8424 34.3495 66.9566C34.4017 67.0698 34.4723 67.2245 34.3272 67.3012C34.2619 67.3357 34.1174 67.2673 34.03 67.2129C33.7793 67.0566 33.5431 66.8781 33.2934 66.7199C33.2038 66.6631 33.0784 66.6578 32.9939 66.5965C32.8706 66.5069 32.7695 66.3879 32.659 66.2814C32.7676 66.1748 32.8763 66.0682 33.0146 65.9616Z" fill="#A81F17"/>
<path fill-rule="evenodd" clip-rule="evenodd" d="M34.7242 57.2768C35.1653 58.1921 35.519 59.1362 35.6369 60.1543C35.7001 60.7003 35.7725 61.2458 35.8157 61.7935C35.855 62.2908 35.8852 62.7913 35.8741 63.2894C35.8609 63.8853 35.7966 64.4799 35.7599 65.0755C35.7345 65.4896 35.7304 65.9053 35.6953 66.3185C35.6458 66.8997 35.5668 67.4784 35.5189 68.0596C35.4826 68.4997 35.4584 68.9422 35.4593 69.3836C35.4604 69.8859 35.4965 70.388 35.5154 70.8904C35.5369 71.4636 35.4886 72.0495 35.5924 72.6072C35.7478 73.4417 35.9608 74.2733 36.2374 75.0757C36.6441 76.2555 37.3477 77.2809 38.1239 78.2463C38.6033 78.8427 39.1565 79.372 39.9356 79.5776C39.9457 79.5803 39.9545 79.6741 39.9345 79.6916C39.647 79.943 39.2895 79.8407 38.9863 79.8002C38.3086 79.7097 37.6382 79.5497 36.9724 79.3869C35.2807 78.9732 33.5913 78.5496 31.9047 78.1153C31.083 77.9038 30.2703 77.6573 29.452 77.4323C29.3316 77.3992 29.1763 77.3443 29.0818 77.3907C28.6047 77.6245 28.2361 77.3675 27.8854 77.1298C27.1168 76.6088 26.6808 75.8521 26.4547 74.9631C26.1429 73.7366 26.3935 72.566 26.8461 71.4315C27.1446 70.6835 27.5005 69.957 27.8579 69.2344C28.2206 68.501 28.6759 67.8231 29.2279 67.217C29.4144 67.0122 29.641 66.8445 29.8436 66.6538C30.1216 66.3922 30.1362 66.0334 30.1591 65.6915C30.1856 65.2953 30.1255 64.8897 30.1824 64.4998C30.3756 63.1748 30.9602 61.9852 31.5751 60.8205C31.8816 60.2398 32.271 59.6881 32.7033 59.1937C33.024 58.827 33.4458 58.5301 33.9426 58.3894C34.0949 58.3462 34.1379 58.3113 34.0244 58.1214C33.86 57.8463 33.6287 57.5268 33.9195 57.1586C34.2673 56.8104 34.5183 56.8496 34.7242 57.2768ZM35.1865 60.0398C35.1746 60.0517 35.1547 60.062 35.1521 60.0756C35.1296 60.1919 35.127 60.3149 35.0872 60.4246C34.9114 60.9092 34.7754 61.4173 34.5322 61.8665C34.0443 62.7673 33.4214 63.5786 32.6857 64.2968C32.0442 64.9229 31.3935 65.5396 30.7574 66.1711C30.3947 66.5311 30.0216 66.8878 29.7093 67.2897C29.2082 67.9342 28.6817 68.5763 28.2982 69.2906C27.8527 70.1203 27.5187 71.0154 27.1961 71.9038C26.9936 72.4619 26.8562 73.0535 26.7713 73.6419C26.6802 74.2741 26.802 74.9048 27.088 75.4811C27.2988 75.9059 27.5956 76.258 28.0817 76.4112C28.6632 76.5943 29.2341 76.8107 29.8141 76.9984C31.1013 77.4149 32.3841 77.8477 33.6827 78.2256C34.6549 78.5085 35.6466 78.7271 36.6345 78.9527C37.194 79.0805 37.7631 79.167 38.3292 79.2642C38.374 79.2719 38.4292 79.2182 38.4796 79.193C38.4543 79.1572 38.4323 79.1183 38.4031 79.0859C38.1963 78.8568 37.966 78.6451 37.7845 78.3975C37.2851 77.716 36.7379 77.057 36.3338 76.3208C35.6166 75.0143 35.1359 73.6136 35.0281 72.1069C34.9949 71.643 34.9481 71.1801 34.9076 70.6559C34.9076 70.0741 34.8841 69.4912 34.9148 68.9111C34.941 68.4137 35.0305 67.9198 35.0896 67.4241C35.1323 67.0659 35.1467 66.7024 35.2169 66.3498C35.3512 65.676 35.288 65.404 34.7149 65.0197C34.4485 64.841 34.1137 64.6688 34.1008 64.2946C34.0954 64.1363 34.2221 63.9485 34.3418 63.826C34.378 63.789 34.6336 63.8921 34.7168 63.9914C34.9055 64.2163 35.0481 64.4796 35.2131 64.7249C35.2397 64.7644 35.2854 64.791 35.3223 64.8236C35.3463 64.7828 35.3875 64.7435 35.3913 64.7009C35.4169 64.4157 35.4522 64.1296 35.4505 63.8441C35.4483 63.4771 35.4118 63.1104 35.3947 62.7434C35.3719 62.2515 35.3557 61.7593 35.3326 61.2674C35.3161 60.9171 35.2963 60.567 35.2691 60.2175C35.2643 60.1565 35.2152 60.099 35.1865 60.0398ZM33.9347 58.7868C33.283 59.0115 32.8346 59.4902 32.4819 60.0437C31.778 61.1485 31.2176 62.3299 30.8516 63.5892C30.6812 64.1759 30.6086 64.7926 30.8369 65.3952C30.8503 65.4305 30.9441 65.4747 30.9508 65.4677C31.8235 64.5454 32.7001 63.6266 33.5575 62.69C34.4323 61.7344 34.7627 60.5943 34.5993 59.3166C34.5251 58.7368 34.4842 58.7221 33.9347 58.7868ZM80.7941 47.3791C81.0682 47.4086 81.3815 47.5503 81.5769 47.7432C82.0707 48.2307 82.5084 48.7753 82.9674 49.2981C83.2488 49.6186 83.5306 49.9388 83.8076 50.2632C84.3913 50.9469 84.9706 51.6344 85.5547 52.3177C85.7362 52.53 85.9303 52.7312 86.1125 52.9429C86.1647 53.0036 86.1954 53.0829 86.2359 53.1537C86.1784 53.1067 86.1164 53.0643 86.0641 53.012C84.6839 51.63 83.3091 50.2426 81.9227 48.8668C81.4688 48.4163 80.953 48.0351 80.3303 47.8575C79.6741 47.6703 79.0053 47.6067 78.3177 47.7195C77.9714 47.7762 77.6076 47.7176 77.2526 47.7318C76.4624 47.7634 75.673 47.8154 74.8827 47.8445C74.4197 47.8615 73.9549 47.8345 73.4922 47.8559C72.9972 47.8788 72.5036 47.9348 72.0094 47.9772C71.5549 48.0163 71.1001 48.0529 70.6461 48.0973C70.2865 48.1324 69.9282 48.1818 69.5686 48.2173C69.1116 48.2624 68.6525 48.2896 68.1966 48.3438C67.8102 48.3897 67.4274 48.4655 67.0422 48.5233C66.6139 48.5875 66.1844 48.6435 65.7562 48.708C65.0968 48.8074 64.4379 48.9099 63.78 49.0179C63.7555 49.0219 63.7152 49.1171 63.7291 49.1371C63.8509 49.3127 63.9763 49.4869 64.1139 49.6503C64.8009 50.4661 65.4972 51.2742 66.1804 52.0933C66.9549 53.022 67.7049 53.9717 68.4927 54.8888C69.0456 55.5324 69.5905 56.1963 70.371 56.593C70.3959 56.6057 70.4182 56.6238 70.4417 56.6393C70.4132 56.6441 70.3816 56.6595 70.3566 56.6522C69.88 56.5124 69.3826 56.4549 69.0346 56.0042C68.392 55.172 67.7 54.3784 67.039 53.5602C66.2212 52.5479 65.4437 51.501 64.472 50.6244C64.3929 50.553 64.3102 50.479 64.2163 50.4321C64.0082 50.3283 63.8168 50.2935 63.6545 50.5397C63.3314 51.0297 62.9787 51.5003 62.656 51.9906C62.4407 52.3177 62.5106 52.4781 62.9 52.743C63.9252 53.4405 65.0388 53.9371 66.2303 54.2755C66.7264 54.4164 67.2184 54.5952 67.571 55.0128C67.5959 55.0424 67.6227 55.0705 67.6486 55.0993C67.6067 55.0953 67.5619 55.0996 67.5234 55.0859C65.9189 54.5186 64.3125 53.9564 62.7135 53.374C62.4507 53.2783 62.2088 53.1089 61.9793 52.9429C61.8329 52.8369 61.8398 52.6781 61.9354 52.5077C62.264 51.9224 62.5783 51.329 62.8949 50.737C62.9164 50.6968 62.9258 50.604 62.9183 50.6014C62.8376 50.5738 62.7485 50.5336 62.6691 50.5457C62.3372 50.5962 62.0027 50.6439 61.6784 50.7285C60.9465 50.9196 60.2197 51.1307 59.4925 51.3394C59.45 51.3516 59.4222 51.4153 59.3875 51.455C59.5715 51.5987 59.7554 51.7423 59.9546 51.9012C60.7252 52.5719 61.4813 53.2265 62.2358 53.8829C62.6399 54.2345 63.0414 54.5891 63.4442 54.9422C63.4607 54.9567 63.4779 54.9704 63.4948 54.9845C63.4567 54.9908 63.4154 55.0101 63.3811 55.0014C62.8919 54.8778 62.4124 54.7532 62.0122 54.4004C61.0563 53.5579 60.0771 52.742 59.1127 51.909C58.9144 51.7378 58.7218 51.5535 58.5587 51.3495C58.3539 51.0934 58.4006 50.9168 58.7239 50.7921C58.979 50.6937 59.2577 50.6486 59.53 50.605C60.3419 50.4752 61.1553 50.354 61.9692 50.2373C62.3268 50.1861 62.6874 50.156 63.046 50.1115C63.1101 50.1035 63.1712 50.0715 63.2337 50.0506C63.2026 50.0002 63.1789 49.943 63.1394 49.9004C62.8254 49.5612 62.5084 49.2247 62.1921 48.8877C62.1643 48.858 62.1348 48.8299 62.106 48.8011C62.151 48.7902 62.1954 48.7758 62.241 48.769C63.0743 48.6461 63.9075 48.5223 64.7413 48.4024C65.2887 48.3236 65.8361 48.2421 66.3853 48.1775C66.9473 48.1115 67.511 48.0579 68.0749 48.0113C68.5793 47.9697 69.0857 47.9522 69.59 47.9102C69.9131 47.8833 70.2332 47.8196 70.5563 47.7934C70.9602 47.7608 71.3663 47.7556 71.7708 47.7279C72.276 47.6933 72.7802 47.6425 73.2855 47.6088C73.7102 47.5804 74.1364 47.5727 74.5611 47.544C74.9037 47.5208 75.2445 47.4704 75.5872 47.4496C75.9221 47.4294 76.2582 47.4316 76.5938 47.4237C77.4627 47.4034 78.3315 47.3786 79.2004 47.3642C79.7321 47.3554 80.2683 47.3225 80.7941 47.3791ZM30.2553 45.3282C30.4871 45.3523 30.724 45.3209 30.9575 45.3347C31.5268 45.3685 32.095 45.4208 32.6644 45.4527C33.1944 45.4824 33.7268 45.4763 34.2552 45.5211C34.7963 45.567 35.1203 45.793 35.0856 46.4414C35.0543 47.0263 35.0436 47.6122 35.0228 48.1977C35.0035 48.7425 34.9823 49.2872 34.9634 49.832C34.9606 49.9125 34.9635 49.9936 34.9687 50.0741C34.9732 50.1438 34.9846 50.2131 34.9931 50.2827C34.973 50.2827 34.9378 50.2887 34.9352 50.2819C34.9066 50.2067 34.8695 50.1311 34.8605 50.0526C34.8288 49.7778 34.8082 49.5016 34.7818 49.2261C34.7424 48.8151 34.7025 48.4042 34.6611 47.9933C34.6401 47.7856 34.6162 47.5781 34.5918 47.3707C34.5767 47.2418 34.562 47.1126 34.5391 46.9851C34.5294 46.9307 34.4994 46.88 34.4786 46.8277C34.4361 46.8519 34.3849 46.8676 34.3522 46.9016C33.9527 47.3167 33.6797 47.8006 33.575 48.3766C33.5635 48.4397 33.5254 48.4978 33.4996 48.5583C33.4784 48.5048 33.4609 48.4495 33.4353 48.3982C32.9688 47.4647 32.2339 46.8444 31.2303 46.6324C30.7717 46.5355 30.2766 46.618 29.798 46.615C29.5571 46.6135 29.5172 46.7519 29.5382 46.9576C29.5838 47.4052 29.6181 47.854 29.6609 48.3019C29.7191 48.9114 29.7817 49.5205 29.8409 50.1299C29.8824 50.5576 29.9163 50.9861 29.965 51.413C29.9787 51.533 30.0333 51.648 30.0675 51.7658C30.0836 51.821 30.0958 51.8772 30.1098 51.933C30.0486 51.8904 29.9491 51.8594 29.9327 51.8034C29.8501 51.5209 29.7895 51.2317 29.7206 50.945C29.6406 50.6122 29.56 50.2795 29.4796 49.9161C29.3993 49.3493 29.2887 48.8154 29.2459 48.2761C29.1853 47.5137 29.0687 46.7429 29.2385 45.9839C29.3346 45.5542 29.8249 45.2834 30.2553 45.3282ZM28.6212 46.826C28.7466 46.8702 28.8411 47.0039 28.9492 47.0987C28.8746 47.1853 28.8126 47.2895 28.723 47.3549C28.5267 47.4982 28.2927 47.5956 28.1165 47.7587C27.6981 48.1463 27.896 48.9165 28.3303 49.12C28.5307 49.2138 28.7308 49.3094 28.9243 49.4166C28.9942 49.4554 29.0446 49.5305 29.1039 49.589C29.0317 49.5909 28.9596 49.5929 28.8874 49.5947C28.4238 49.6068 28.0761 49.3926 27.8163 49.0197C27.425 48.4581 27.6327 47.9089 28.0935 47.4695C28.1369 47.4281 28.1762 47.3823 28.2206 47.342C28.2778 47.2902 28.3381 47.2419 28.3971 47.192C28.2824 47.1774 28.156 47.1238 28.0552 47.1551C27.6791 47.2719 27.4656 47.5861 27.3513 47.93C26.9591 49.111 27.8863 50.0677 28.9382 49.9446C29.0493 49.9316 29.1693 49.9968 29.2851 50.0258C29.2572 50.0433 29.2315 50.0674 29.2012 50.0773C28.3205 50.3645 27.5702 50.039 27.1447 49.1882C27.1154 49.1295 27.0752 49.0763 27.0401 48.9903C26.8365 47.9471 27.2712 47.169 28.2251 46.858C28.3501 46.8172 28.506 46.7853 28.6212 46.826ZM29.6936 45.6419C29.5069 45.6847 29.4413 45.8863 29.5402 46.0654C29.6754 46.3104 29.8839 46.3195 30.1353 46.2947C30.5319 46.2555 30.936 46.2248 31.3312 46.2585C31.8325 46.3013 32.3256 46.4383 32.8268 46.4856C33.2442 46.525 33.6681 46.4936 34.1192 46.4631C34.2955 46.4529 34.4716 46.4397 34.648 46.4333C34.86 46.4256 34.9812 46.2558 34.867 46.0742C34.7969 45.9627 34.6524 45.8467 34.5293 45.8313C34.0141 45.767 33.4949 45.7292 32.9762 45.7028C32.6094 45.6841 32.2403 45.7139 31.8735 45.6957C31.3181 45.6681 30.7642 45.6101 30.2089 45.5814C30.0382 45.5726 29.8617 45.6033 29.6936 45.6419ZM57.1797 43.4359C57.7931 43.4481 58.4049 43.5473 59.0172 43.6108C59.0629 43.6156 59.1121 43.6299 59.1502 43.6548C59.2302 43.707 59.3038 43.7691 59.38 43.8272C59.2827 43.8368 59.1855 43.8489 59.0881 43.8556C58.4774 43.8975 57.8668 43.9419 57.2557 43.9756C57.1541 43.9812 57.0488 43.9158 56.9472 43.9213C56.3158 43.9551 55.6853 44.0051 55.0539 44.0368C54.9118 44.0439 54.766 43.9761 54.624 43.9834C54.0127 44.0148 53.4025 44.0656 52.7913 44.0987C52.6797 44.1048 52.5642 44.0387 52.4525 44.0446C51.8211 44.0779 51.1906 44.1279 50.5592 44.1601C50.4272 44.1669 50.2916 44.0996 50.1596 44.1065C49.5484 44.1385 48.9382 44.1893 48.327 44.2218C48.2052 44.2283 48.0797 44.1616 47.9578 44.168C47.3264 44.2007 46.6959 44.2503 46.0645 44.2836C45.9528 44.2895 45.8374 44.2236 45.7257 44.2295C45.0943 44.2628 44.4637 44.3115 43.8323 44.3453C43.7307 44.3508 43.6255 44.2855 43.5239 44.291C42.8925 44.3248 42.262 44.3748 41.6305 44.4065C41.4884 44.4136 41.3427 44.3458 41.2006 44.3531C40.5894 44.3845 39.9792 44.4353 39.368 44.4684C39.2563 44.4744 39.1409 44.4084 39.0292 44.4143C38.3978 44.4476 37.7672 44.4972 37.1358 44.53C37.014 44.5363 36.8885 44.4697 36.7667 44.4761C36.1454 44.5088 35.525 44.5589 34.9037 44.5915C34.7819 44.5979 34.6563 44.5313 34.5345 44.5377C33.9031 44.5704 33.2725 44.6204 32.6411 44.6532C32.5193 44.6595 32.3938 44.5928 32.272 44.5993C31.6608 44.6319 31.0505 44.6817 30.4393 44.7149C30.3277 44.7209 30.2122 44.6549 30.1005 44.6608C29.4691 44.6941 28.8385 44.7424 28.2072 44.7767C28.1157 44.7817 28.0204 44.7168 27.9291 44.7224C27.4084 44.7543 26.8887 44.803 26.368 44.8356C26.0136 44.8577 25.6569 44.8481 25.3034 44.8788C24.7984 44.9226 24.2923 44.9709 23.7925 45.0538C23.4015 45.1187 23.0227 45.2597 22.6315 45.3216C22.5213 45.3391 22.3588 45.2196 22.276 45.1168C22.241 45.0734 22.3199 44.8734 22.3984 44.8088C22.7202 44.544 23.1075 44.4991 23.5387 44.5338C23.8071 44.5133 24.0452 44.494 24.2831 44.4719C24.7152 44.4318 25.1464 44.3773 25.5793 44.3521C26.1506 44.3188 26.7232 44.2888 27.2951 44.2916C28.2553 44.2965 29.2152 44.3419 30.1754 44.3445C30.889 44.3465 31.6028 44.3091 32.3164 44.287C32.9188 44.2683 33.5211 44.2459 34.1235 44.2258C34.7562 44.2048 35.3889 44.185 36.0216 44.164C36.624 44.144 37.2266 44.1294 37.8286 44.1008C38.5444 44.0668 39.2593 44.0154 39.9752 43.9832C40.1275 43.9764 40.2829 44.0428 40.4355 44.0372C41.3435 44.0036 42.251 43.9576 43.1589 43.9187C43.324 43.9116 43.4902 43.927 43.6549 43.9159C44.1951 43.8794 44.7345 43.8302 45.275 43.7985C45.3966 43.7913 45.5224 43.859 45.6441 43.852C46.1946 43.8201 46.7441 43.7697 47.2946 43.7366C47.396 43.7305 47.5016 43.7968 47.603 43.7906C48.1433 43.7576 48.6827 43.7069 49.2231 43.6752C49.3447 43.6681 49.4706 43.7358 49.5922 43.7288C50.1427 43.6969 50.6922 43.6454 51.2427 43.6136C51.3644 43.6066 51.4902 43.6743 51.6118 43.6671C52.1421 43.6355 52.6713 43.5831 53.2016 43.5522C53.3333 43.5445 53.4694 43.613 53.6011 43.6053C54.1314 43.5744 54.6606 43.5235 55.1909 43.49C55.2821 43.4843 55.3776 43.5497 55.4689 43.5443C56.0396 43.5104 56.6104 43.4246 57.1797 43.4359ZM57.1694 13.2381C58.5067 13.3618 59.7665 13.7903 60.9264 14.4524C61.608 14.8414 62.2418 15.3226 62.8626 15.8063C63.8256 16.5567 64.582 17.4968 65.2351 18.5219C65.7222 19.2864 66.1481 20.0849 66.401 20.9542C66.6309 21.7446 66.8365 22.5481 66.9649 23.3596C67.0576 23.9457 67.0027 24.5546 67.02 25.1531C67.0376 25.7648 66.9735 26.368 66.9083 26.9765C66.7494 28.4618 66.4706 29.9168 66.0534 31.352C65.8723 31.9748 66.003 32.6192 66.1217 33.2498C66.2257 33.8022 66.4173 34.3184 66.7114 34.7985C66.7468 34.8563 66.744 34.9374 66.7589 35.0077C66.6835 35.0028 66.6042 35.0116 66.5335 34.9909C66.0235 34.8419 65.8582 34.4261 65.7366 33.9708C65.6493 33.6441 65.5705 33.3107 65.4373 33.0019C65.2849 32.6488 65.2258 32.6823 64.8914 32.8488C64.2029 33.1915 63.5032 33.517 62.7887 33.8012C61.8208 34.1862 60.8029 34.3857 59.7732 34.547C59.2143 34.6346 58.6499 34.805 58.229 35.2129C58.0333 35.4025 57.8817 35.6718 57.7983 35.9329C57.6939 36.2598 57.67 36.6044 57.8644 36.9428C57.9796 37.1434 58.1007 37.1773 58.2923 37.1246C59.2224 36.8689 60.1458 36.5849 61.0847 36.3667C61.8058 36.1992 62.5492 36.129 63.2776 35.9893C64.0334 35.8443 64.7946 35.8088 65.5603 35.8122C65.6179 35.8124 65.6754 35.8275 65.7329 35.8358C65.6808 35.8478 65.6289 35.8609 65.5765 35.8717C64.8648 36.0173 64.1525 36.1602 63.4413 36.3087C62.7969 36.4433 62.1542 36.5862 61.5098 36.7212C60.7896 36.8721 60.0668 37.0113 59.3483 37.1695C58.9977 37.2468 58.647 37.3359 58.309 37.4551C57.8373 37.6215 57.6891 37.914 57.6632 38.4488C57.634 39.0507 57.738 39.6143 57.8828 40.1729C58.1428 41.1758 58.5884 42.0902 59.3089 42.8636C59.9146 43.5136 60.5974 44.0401 61.4657 44.2644C61.9338 44.3853 62.4233 44.4615 62.9062 44.4798C63.5082 44.5027 64.0935 44.39 64.6645 44.15C65.3799 43.8492 65.9326 43.3766 66.3426 42.7442C66.7931 42.0495 67.0894 41.2812 67.1963 40.4583C67.285 39.7752 67.3774 39.0854 67.3721 38.3992C67.3644 37.4099 67.1595 36.4444 66.7768 35.5233C66.753 35.4661 66.6601 35.3853 66.8425 35.3801C67.3252 35.3661 67.8041 35.8058 67.8104 36.3073C67.8162 36.766 67.8316 37.2259 67.8073 37.6835C67.7633 38.5124 68.6489 39.5962 69.3787 39.7832C69.5383 39.824 69.5527 39.7676 69.5137 39.6851C69.0687 38.7438 69.3418 37.8235 69.606 36.9141C70.1163 35.1581 70.8158 33.4706 71.5161 31.7832C72.201 30.1331 72.8586 28.4716 73.5237 26.8133C74.0877 25.4068 74.6428 23.9966 75.2064 22.5898C75.7492 21.2353 76.2977 19.883 76.8444 18.53C76.862 18.4867 76.8907 18.4478 76.9078 18.4044C76.9403 18.322 76.9681 18.2379 76.9979 18.1545C76.9129 18.2119 76.8077 18.2531 76.746 18.3293C76.0155 19.2302 75.3355 20.1762 74.5539 21.0302C73.7185 21.943 72.8114 22.7949 71.8927 23.6263C71.2365 24.2202 70.5098 24.737 69.8131 25.2865C69.7479 25.3379 69.6726 25.3766 69.6019 25.4212C69.6087 25.339 69.6236 25.2566 69.6208 25.1747C69.5995 24.5467 70.1828 24.4903 70.5336 24.216C71.0618 23.8031 71.6109 23.415 72.1214 22.9818C73.0728 22.1745 73.83 21.1892 74.6014 20.2186C74.8099 19.9562 75.0333 19.7054 75.2651 19.4342C75.9413 18.7 76.5777 17.9564 77.2708 17.2695C77.8787 16.6672 78.5541 16.1406 79.4075 15.8928C79.7881 15.7823 80.4796 16.0359 80.7356 16.437C81.0026 16.8555 81.1089 17.3144 81.1076 17.8134C81.1048 18.8491 80.8938 19.8526 80.6749 20.8557C80.436 21.9502 80.2044 23.0466 79.9383 24.1346C79.7822 24.7728 79.5986 25.4087 79.3688 26.0238C78.8219 27.4872 78.2669 28.9487 77.6623 30.389C77.3183 31.2086 76.8929 31.9973 76.4603 32.7758C76.2205 33.2074 75.8661 33.5364 75.2961 33.5104C75.0627 33.4998 74.9125 33.7714 74.8804 34.103C74.8336 34.5852 74.7939 35.0716 74.6944 35.5443C74.493 36.5015 74.0637 37.3717 73.549 38.1963C73.1602 38.8193 72.7279 39.4153 72.3266 40.0308C72.0486 40.4571 71.6805 40.8011 71.1762 40.8276C70.8602 40.8443 70.5317 40.6441 70.2112 40.5343C70.159 40.5164 70.1131 40.4679 70.0749 40.4243C69.9178 40.2444 69.797 39.979 69.601 39.9029C69.4177 39.8316 69.1512 40.011 68.9305 39.9888C68.5534 39.9508 68.238 39.7554 68.0074 39.4403C67.9625 39.379 67.9114 39.236 67.8624 39.471C67.7296 40.1083 67.5613 40.7393 67.3818 41.3656C67.0548 42.507 66.4492 43.4884 65.5237 44.2356C64.9501 44.6988 64.2891 45.0055 63.5148 45.048C62.7295 45.0911 62.0254 44.8783 61.3227 44.5661C60.3281 44.1241 59.4541 43.5217 58.6374 42.8069C57.466 41.7814 56.5778 40.5528 55.9682 39.1428C55.6271 38.354 55.4271 37.502 55.1961 36.6695C54.9634 35.8306 54.6706 35.026 54.1892 34.2904C53.753 33.6238 53.4349 32.895 53.3142 32.1059C53.274 31.8428 53.3635 31.5503 53.4353 31.2822C53.5781 30.7487 53.6568 30.2102 53.5362 29.6701C53.4761 29.4009 53.3114 29.1567 53.216 28.8933C52.8332 27.8366 52.4306 26.7859 52.0915 25.7153C51.8576 24.977 51.6958 24.2139 51.5402 23.4541C51.4406 22.9675 51.4096 22.467 51.3506 21.9724C51.3075 21.6116 51.2548 21.2511 51.2315 20.8889C51.198 20.3685 51.2051 19.8452 51.1628 19.3258C51.1082 18.6557 51.2076 17.9922 51.3725 17.3624C51.5338 16.7465 51.8487 16.1625 52.1505 15.5931C52.5002 14.9333 52.9791 14.3669 53.6268 13.9658C54.2052 13.6077 54.8226 13.3416 55.5089 13.2912C56.0614 13.2507 56.622 13.1875 57.1694 13.2381ZM52.7672 29.4062C52.7288 29.4696 52.7056 29.5607 52.6494 29.5917C52.3206 29.7735 51.9916 29.9582 51.6485 30.1099C51.0664 30.3674 50.4738 30.6011 49.8552 30.8448C48.8885 31.2753 47.9328 31.6688 47.0212 32.1466C46.113 32.6225 45.2687 33.2064 44.4804 33.8747C43.3267 34.8529 42.3957 36.0008 41.7942 37.3866C41.5485 37.9529 41.3801 38.5732 41.298 39.1853C41.1895 39.9951 41.2027 40.8211 41.1589 41.6398C41.1221 42.327 41.0814 43.014 41.0366 43.7007C41.0197 43.9598 40.8182 43.7676 40.7124 43.8146C40.7041 43.8184 40.6162 43.7141 40.6215 43.6663C40.6724 43.2095 40.7639 42.7555 40.7876 42.2979C40.8175 41.7209 40.7902 41.1411 40.7958 40.5626C40.8065 39.4541 41.0179 38.3898 41.4791 37.3753C41.9085 36.4306 42.4877 35.5939 43.1752 34.8195C44.2129 33.6507 45.4551 32.7561 46.8095 32.0025C48.0906 31.2897 49.4186 30.6809 50.7933 30.1709C51.3897 29.9496 51.9704 29.6859 52.5598 29.4453C52.6236 29.4193 52.6978 29.4186 52.7672 29.4062ZM69.0306 42.8226C69.5572 42.8967 70.0815 42.9887 70.6076 43.0675C70.9285 43.1156 71.25 43.1758 71.5729 43.19C72.0462 43.2109 72.521 43.1875 72.9949 43.198C73.3421 43.2057 73.6891 43.2354 74.0359 43.2596C74.2816 43.2767 74.5266 43.3154 74.7723 43.3193C75.3408 43.3284 75.9096 43.3283 76.4782 43.3209C77.8102 43.3037 79.1422 43.2663 80.4742 43.2682C80.8146 43.2687 81.1548 43.3857 81.4952 43.4485C81.5149 43.4521 81.5437 43.4399 81.5548 43.4504C81.6326 43.5246 81.7069 43.6027 81.7824 43.6796C81.6839 43.6873 81.5854 43.7012 81.4869 43.7015C80.8132 43.7034 80.1395 43.7084 79.4659 43.6996C79.1999 43.6962 78.9346 43.6484 78.6685 43.6412C77.6921 43.6148 76.7154 43.5949 75.7388 43.5768C75.3902 43.5703 75.0414 43.5757 74.6621 43.5757C74.2255 43.5757 73.8191 43.5834 73.4132 43.574C72.7919 43.5596 72.1709 43.5233 71.5496 43.5149C70.7644 43.5043 69.9785 43.5273 69.1937 43.5058C68.8262 43.4957 68.459 43.4244 68.0945 43.3629C67.8908 43.3285 67.8433 43.1398 67.9109 42.9862C67.9576 42.8803 68.1137 42.7691 68.2257 42.7634C68.4926 42.7497 68.7639 42.785 69.0306 42.8226ZM53.442 30.105C53.4203 30.117 53.3922 30.1238 53.378 30.1417C52.9346 30.702 52.4413 31.2312 52.0627 31.8323C51.5541 32.64 51.1341 33.5049 50.8828 34.4346C50.7469 34.9373 50.6488 35.4501 50.5307 35.9576C50.4532 36.2904 50.2776 36.5653 49.9901 36.7497C49.6081 36.9947 49.2035 37.2051 48.8272 37.4579C47.8902 38.0872 47.2967 38.9783 46.9508 40.0354C46.7573 40.6268 46.6353 41.2322 46.7473 41.8657C46.8154 42.2508 46.8438 42.6429 46.8862 43.0323C46.893 43.0943 46.8802 43.1584 46.8764 43.2215C46.7942 43.214 46.6725 43.2377 46.6373 43.1932C46.5408 43.0712 46.4363 42.9272 46.4143 42.7801C46.3485 42.341 46.3225 41.8961 46.2768 41.454C46.2672 41.3618 46.2396 41.2714 46.2203 41.1802C46.1383 41.2713 46.0445 41.3543 45.9763 41.4547C45.5215 42.1249 45.0736 42.7998 44.6178 43.4694C44.5845 43.5184 44.5064 43.537 44.4491 43.5697C44.4343 43.4674 44.374 43.3414 44.4129 43.267C44.5572 42.9909 44.715 42.7174 44.9026 42.4692C45.3417 41.8885 45.8395 41.3483 46.2385 40.7424C46.5015 40.343 46.6439 39.8618 46.8223 39.4102C47.0049 38.9478 47.2931 38.5694 47.6659 38.2475C48.1361 37.8415 48.6041 37.4328 49.0882 37.0102C49.4173 36.6615 49.7693 36.3555 50.0355 35.9877C50.3866 35.5025 50.5115 34.9112 50.6536 34.3354C50.9542 33.1174 51.4894 32.0131 52.2795 31.0352C52.4763 30.7916 52.6628 30.5358 52.8872 30.3201C53.0092 30.2028 53.2 30.1561 53.3621 30.0826C53.3814 30.0739 53.415 30.0968 53.442 30.105ZM9.45145 19.3074C9.79157 19.3954 9.84076 19.691 9.58059 19.9168C8.98985 20.4295 8.70875 21.084 8.66546 21.8441C8.64155 22.264 8.68087 22.6873 8.65757 23.1073C8.58074 24.4915 8.98496 25.7657 9.58357 26.9812C10.1559 28.1432 10.9892 29.1002 12.1849 29.6593C12.871 29.9801 13.6048 30.2052 14.3273 30.4425C14.9549 30.6487 15.598 30.8078 16.2323 30.9943C16.8545 31.1773 17.4675 31.3432 18.1268 31.1233C18.465 31.0105 18.7188 31.3131 18.5893 31.6409C18.0995 32.8805 17.6822 34.1671 16.8218 35.2123C16.3057 35.8392 15.7086 36.4195 15.0699 36.9229C14.1322 37.6619 13.054 38.1888 11.977 38.7078C10.9265 39.2141 9.89966 39.7694 8.84453 40.2654C7.65588 40.8243 6.45132 41.3504 5.24595 41.8731C4.27351 42.2949 3.29181 42.6959 2.30912 43.0936C2.07415 43.1887 1.82245 43.2554 1.57203 43.2969C1.32111 43.3385 0.769881 42.9451 0.671406 42.685C0.421505 42.0251 0.251635 41.3465 0.181482 40.6432C0.13879 40.2151 0.081326 39.7886 0.0152488 39.3614C3.08807e-09 39.331 -4.11743e-09 39.3007 0.0152486 39.2552C0.0406629 38.6698 0.0513219 38.0996 0.0584027 37.5294C0.0585974 37.5137 0.0203313 37.4975 0 37.4816V37.2542C0.0101636 37.239 0.0292253 37.2393 0.0292386 37.239C0.0484491 36.7111 0.0647808 36.1832 0.0852764 35.6554C0.0918982 35.4848 0.111185 35.3148 0.121714 35.1444C0.209135 33.7293 0.377268 32.3231 0.739421 30.9512C1.02842 29.8564 1.41002 28.7915 1.87383 27.7513C2.40288 26.5649 3.0461 25.4492 3.78722 24.3883C4.16481 23.8478 4.57723 23.327 5.01604 22.8343C5.544 22.2416 6.08646 21.6548 6.67814 21.1269C7.35364 20.5242 8.07955 19.9749 8.80854 19.4358C8.97084 19.3158 9.25776 19.2572 9.45145 19.3074ZM8.56503 20.1391C8.53078 20.1545 8.49205 20.164 8.46294 20.1861C7.54639 20.8809 6.63537 21.5826 5.87641 22.4543C5.40493 22.9959 4.92297 23.5298 4.47783 24.0923C3.39596 25.4593 2.55876 26.9659 1.92132 28.6284C1.89968 28.6904 1.87456 28.7513 1.85692 28.8144C1.58301 29.793 1.29319 30.7676 1.04463 31.7526C0.934363 32.1895 0.902707 32.6467 0.844857 33.0959C0.781196 33.5902 0.710292 34.0847 0.676587 34.5815C0.648818 34.9907 0.686229 35.4039 0.666749 35.8141C0.642551 36.3236 0.572099 36.8312 0.555025 37.3407C0.543489 37.6849 0.599046 38.0308 0.607517 38.3764C0.617752 38.7939 0.602145 39.212 0.612376 39.6295C0.620766 39.9719 0.62898 40.3168 0.67646 40.6551C0.734602 41.0695 0.83818 41.4773 0.91382 41.8894C1.02304 42.4845 1.26753 42.7149 1.85022 42.7571C2.25861 42.7866 2.56899 42.5452 2.62616 42.1627C2.63311 42.1162 2.70633 42.0353 2.71585 42.0397C3.23069 42.2814 3.67758 42.038 4.12878 41.8465C5.08752 41.4397 6.05056 41.042 6.9997 40.614C8.41192 39.9771 9.81829 39.3269 11.2177 38.6628C11.8725 38.3521 12.5155 38.0134 13.1458 37.656C14.3758 36.9584 15.5003 36.1312 16.411 35.031C17.1168 34.1784 17.553 33.2092 17.8059 32.1485C17.8539 31.9471 17.7832 31.7722 17.5424 31.7205C16.8895 31.5804 16.2383 31.4329 15.5845 31.2976C14.2556 31.0225 12.9711 30.6392 11.7768 29.9684C10.2434 29.107 9.26109 27.8062 8.67118 26.1992C8.39133 25.4369 8.16656 24.6469 8.17236 23.8167C8.17672 23.1934 8.12184 22.5646 8.18827 21.9484C8.24965 21.3789 8.43788 20.8229 8.56796 20.2605C8.5768 20.2223 8.56645 20.1797 8.56503 20.1391ZM34.1346 29.1471C34.498 29.3967 34.8575 29.6526 35.2097 29.9179C35.3051 29.9898 35.3126 30.0613 35.3559 29.8732C35.4236 29.5791 35.842 29.497 36.0926 29.706C36.6672 30.1852 36.9572 30.8297 37.1675 31.5304C37.3499 32.1382 37.2776 32.756 37.2954 33.3701C37.3068 33.7643 37.6759 34.0616 38.0634 34.0774C38.3499 34.0892 38.6512 34.2149 38.9089 34.357C39.5326 34.701 39.9335 35.2437 40.1306 35.9273C40.3427 36.6635 40.1453 37.3189 39.7186 37.9306C39.3305 38.487 38.9771 39.0697 38.4139 39.4776C38.1023 39.7033 37.7433 39.8906 37.4994 40.1756C37.2375 40.4816 36.9368 40.6812 36.5801 40.8188C35.7015 41.1579 34.7414 40.7182 34.3112 39.9855C33.9235 39.3254 32.9902 39.4705 32.6284 40.0055C32.4707 40.2388 32.4273 40.547 32.3094 40.8111C32.2371 40.9731 32.3072 40.9485 32.4156 40.9324C32.9526 40.8526 33.4901 40.7763 34.0277 40.7003C34.0552 40.6964 34.0849 40.7071 34.1135 40.7111C34.0922 40.7274 34.0725 40.7465 34.0494 40.7596C33.5164 41.0608 32.9394 41.2309 32.3361 41.3029C31.8789 41.3574 31.4117 41.4446 30.961 41.3985C30.6059 41.3621 30.2446 41.1858 29.9309 40.9969C29.561 40.7741 29.4499 40.396 29.457 39.954C29.4709 39.0959 29.8001 38.3717 30.3436 37.744C30.5002 37.5632 30.7766 37.4871 30.9966 37.3604C31.0801 37.3123 31.2019 37.3062 31.0541 37.1509C30.4086 36.473 29.8353 35.7387 29.4431 34.879C29.3811 34.7432 29.3173 34.6033 29.2902 34.4586C29.2736 34.3697 29.2983 34.2428 29.356 34.1814C29.3922 34.1428 29.5365 34.1705 29.6095 34.2104C29.7189 34.2702 29.8056 34.3702 29.9066 34.4469C30.0787 34.5778 30.1743 34.5221 30.1276 34.318C29.9951 33.7381 30.1169 33.1875 30.3209 32.6555C30.4309 32.3686 30.6099 32.1068 30.776 31.8453C30.7918 31.8204 30.9516 31.858 31.0211 31.903C31.1501 31.9863 31.2618 32.0966 31.3806 32.1956C31.3886 32.0371 31.3911 31.8781 31.4067 31.7203C31.4159 31.6266 31.4389 31.5327 31.4674 31.4426C31.6098 30.9909 31.6862 30.9681 32.0632 31.2513C32.1137 31.2893 32.1742 31.314 32.2302 31.3449L32.2465 31.23C32.249 31.2108 32.2512 31.1916 32.2528 31.1724C32.2944 30.676 32.195 30.2256 31.8321 29.857C31.8278 29.8527 31.9066 29.7231 31.9519 29.7196C32.4746 29.6785 32.9974 29.6568 33.4755 29.9361C33.5733 29.9932 33.6708 30.0507 33.7836 30.1231C33.829 30.0818 33.8799 30.0275 33.8861 29.9685C33.9144 29.7012 33.9272 29.4322 33.9581 29.1653C33.9598 29.1509 34.0955 29.1202 34.1346 29.1471ZM30.652 37.7909C30.6402 37.8131 30.6327 37.8392 30.6161 37.8567C30.0214 38.4845 29.744 39.2303 29.766 40.0952C29.7779 40.5648 30.0283 40.9107 30.498 40.9964C30.7966 41.0508 31.1063 41.0484 31.4113 41.0567C31.4482 41.0577 31.5084 40.9717 31.5224 40.9169C31.6124 40.5676 31.606 40.1781 31.9804 39.9103C32.0849 39.8698 32.1895 39.8297 32.2938 39.7887C32.3412 39.7701 32.4252 39.7531 32.4273 39.7297C32.4316 39.6799 32.4078 39.6026 32.3694 39.5789C32.2671 39.5156 32.1549 39.4457 32.0395 39.4296C31.5075 39.3557 31.13 39.0753 30.9135 38.5927C30.8105 38.3632 30.7545 38.1125 30.6773 37.8715C30.6687 37.8447 30.6604 37.8178 30.652 37.7909ZM32.0713 40.1227C32.0309 40.2757 31.9846 40.4275 31.9559 40.5826C31.951 40.6086 32.0326 40.6833 32.0563 40.6761C32.1529 40.6467 32.1839 40.1827 32.0713 40.1227ZM34.2769 29.4774C34.3094 29.5888 34.3554 29.6983 34.3718 29.8121C34.4089 30.0703 34.3867 30.3171 34.1331 30.4692C33.9304 30.5907 33.7787 30.4447 33.6408 30.338C33.3278 30.0959 32.958 30.0643 32.5906 30.0182C32.39 29.9931 32.3808 30.0756 32.4463 30.2483C32.5428 30.5023 32.6628 30.7721 32.6553 31.0318C32.6506 31.1947 32.4423 31.3627 32.3035 31.5074C32.174 31.6423 32.05 31.5785 31.9475 31.4453C31.9318 31.4249 31.8812 31.4314 31.8467 31.4254C31.8491 31.4802 31.842 31.5374 31.8555 31.5893C31.9358 31.8978 31.8206 32.196 31.4972 32.3733C31.2732 32.4961 31.1154 32.3088 30.9793 32.1638C30.8769 32.0546 30.8675 32.1209 30.8241 32.204C30.4461 32.9272 30.4028 33.6837 30.6035 34.461C30.6533 34.6543 30.5645 34.7505 30.405 34.7431C30.2191 34.7346 30.0369 34.6615 29.8515 34.6243C29.7657 34.6071 29.6761 34.6084 29.5882 34.6014C29.6121 34.6859 29.6231 34.777 29.6618 34.8541C29.9825 35.4921 30.3949 36.0693 30.93 36.5384C31.2458 36.8151 31.4395 37.0577 31.4301 37.5351C31.4177 38.1586 31.7495 38.6684 32.325 39.0074C32.7834 39.2774 33.2708 39.2211 33.7544 39.2377C34.0019 39.2462 34.1818 39.3317 34.3291 39.5279L34.3876 39.6062C34.6896 40.0114 34.9882 40.4148 35.5288 40.5564C36.1382 40.7161 36.6954 40.6523 37.1653 40.2227C37.2632 40.1332 37.2641 39.9194 37.2684 39.7618C37.2692 39.7332 37.0709 39.6826 36.9613 39.6704C36.5236 39.6215 36.0836 39.7325 35.6416 39.6129C35.0173 39.444 34.4436 39.1952 33.9705 38.7448C33.8813 38.6598 33.8063 38.56 33.7247 38.467C33.8685 38.5009 34.0126 38.5337 34.156 38.5696C34.1918 38.5785 34.2328 38.5891 34.2585 38.6129C34.9275 39.2292 35.7125 39.4979 36.6199 39.4263C37.5407 39.3536 38.015 38.8702 38.0625 38.062C38.1116 37.2274 37.9504 36.4191 37.5663 35.6625C37.5108 35.5531 37.5114 35.4012 37.5248 35.273C37.5768 34.7753 37.7018 34.2729 37.1675 33.9189C37.0778 33.8594 37.0528 33.6604 37.0467 33.5236C37.0285 33.1181 36.9007 32.9667 36.5049 32.93C36.2634 32.9075 36.1281 32.763 36.073 32.5363C36.057 32.4706 36.0578 32.4008 36.0509 32.3329C35.9866 32.3909 35.9051 32.4381 35.861 32.5087C35.637 32.8671 35.303 33.0888 34.9518 33.3033C34.7739 33.4119 34.7164 33.3995 34.6723 33.1982C34.6516 33.1035 34.5746 33.0212 34.5232 32.9332C34.4736 33.0037 34.4223 33.0729 34.375 33.1449C34.3125 33.2399 34.2685 33.3524 34.19 33.4305C33.9097 33.7093 33.6265 33.9867 33.3243 34.2407C33.2585 34.296 33.0611 34.297 33.0111 34.2428C32.9451 34.1713 32.9539 34.0208 32.9508 33.9038C32.9477 33.7873 32.9764 33.6702 32.977 33.5534C32.9773 33.5076 32.9412 33.4248 32.9178 33.4235C32.8677 33.4205 32.7904 33.4449 32.7676 33.4837L32.6487 33.6839C32.5299 33.8844 32.4132 34.0864 32.3177 34.2977C32.0616 34.8639 31.9567 35.4653 31.9426 36.0867C31.9407 36.1742 31.8473 36.2683 31.7771 36.3408C31.7531 36.3655 31.6291 36.347 31.6216 36.3245C31.5887 36.2265 31.5631 36.1185 31.57 36.0165C31.581 35.8547 31.6228 35.6952 31.6466 35.534C31.7902 34.5609 32.2115 33.7334 32.9386 33.0676C32.9652 33.0432 33.0583 33.0414 33.0598 33.0468C33.1259 33.2725 33.1875 33.4995 33.2431 33.728C33.2557 33.7796 33.2441 33.8371 33.2436 33.8918C33.2924 33.8696 33.3469 33.8552 33.389 33.824C33.8489 33.4837 34.2169 33.0646 34.4808 32.5538C34.5444 32.4307 34.6334 32.3208 34.7107 32.2048L34.8464 32.4519C34.8914 32.5343 34.9358 32.6171 34.9783 32.7008C34.9946 32.733 34.9688 32.7862 34.9845 32.8192C34.9962 32.8437 35.0642 32.8713 35.0718 32.8634C35.3068 32.6207 35.5325 32.369 35.771 32.1302C35.8624 32.0386 36.0347 31.8878 36.0783 31.9145C36.2201 32.0013 36.3243 32.1539 36.4317 32.2901C36.4562 32.3212 36.4166 32.4001 36.4394 32.4364C36.4808 32.5027 36.5695 32.6125 36.5987 32.6011C36.7462 32.5441 36.8944 32.4695 37.0134 32.3673C37.0609 32.3265 37.0343 32.199 37.0111 32.0806C36.8887 31.3067 36.5832 30.6226 36.0255 30.0619C35.9904 30.0267 35.9542 29.9925 35.9185 29.9578C35.9089 30.0044 35.8994 30.0511 35.8898 30.0976C35.8366 30.3545 35.5602 30.5092 35.3607 30.3537C35.109 30.1574 34.9093 29.8957 34.6688 29.6831C34.5613 29.5882 34.4089 29.5444 34.2769 29.4774ZM55.5826 35.816C55.561 35.8374 55.5245 35.8565 55.5206 35.8808C55.5064 35.9677 55.4852 36.0593 55.4989 36.144C55.5739 36.6073 55.6682 37.0675 55.7377 37.5316C55.8588 38.3409 56.0615 39.1267 56.4796 39.8351C56.6278 40.0863 56.8686 40.2838 57.0705 40.5026C57.0934 40.5275 57.1383 40.5322 57.173 40.5462C57.1715 40.5248 57.1722 40.5029 57.1682 40.4819C57.1192 40.229 57.1 39.9655 57.0141 39.7256C56.8093 39.1535 56.5731 38.5926 56.319 37.9967C56.1666 37.5841 56.0055 37.1743 55.8648 36.7577C55.7679 36.471 55.6995 36.1747 55.6172 35.883C55.6105 35.8593 55.5943 35.8382 55.5826 35.816ZM71.8926 34.4565C71.8914 34.4842 71.8336 34.5072 71.8068 34.5367C71.7337 34.6167 71.6485 34.6904 71.5939 34.7819C70.9936 35.7894 70.6781 36.8987 70.4339 38.0326C70.369 38.3336 70.3113 38.636 70.2504 38.9985C70.2301 39.172 70.1891 39.3463 70.1948 39.519C70.2014 39.7198 70.1994 39.9447 70.2879 40.1144C70.5356 40.5899 71.2003 40.5764 71.6081 40.3259C71.9855 40.0942 72.1669 39.7205 72.3712 39.3678C72.7196 38.7665 73.0105 38.1313 73.3724 37.5389C73.8647 36.7331 74.3502 35.9305 74.5721 35C74.6389 34.72 74.4963 34.5291 74.1975 34.5378C73.4943 34.558 72.8109 34.4194 72.1264 34.2911C71.8963 34.2479 71.9018 34.236 71.8926 34.4565ZM37.8816 34.3305C37.76 34.8538 37.8379 35.3535 37.9885 35.8472C38.2079 36.5667 38.4472 37.2808 38.3738 38.0496C38.3224 38.5876 38.0808 39.0125 37.6186 39.3094C37.5475 39.3551 37.5157 39.4619 37.4657 39.5404C37.5593 39.5598 37.6535 39.596 37.7463 39.5925C37.8034 39.5903 37.8651 39.5348 37.9129 39.4904C38.2548 39.1726 38.638 38.8861 38.921 38.5218C39.2056 38.1555 39.3894 37.7107 39.6477 37.27C39.7068 36.9882 39.7768 36.7081 39.8231 36.4242C39.9269 35.7871 39.6079 35.1741 39.0267 34.9576C38.6461 34.8159 38.2293 34.7631 38.0676 34.3009C38.0413 34.2255 37.9428 34.0669 37.8816 34.3305ZM19.4711 20.5117C20.2139 20.5999 20.962 20.7376 21.6748 20.9608C22.4386 21.1999 23.1079 21.6551 23.6495 22.2547C24.388 23.0721 24.8697 24.022 25.0838 25.1131C25.1745 25.5751 25.203 26.0337 25.1942 26.4981C25.1887 26.7928 25.1583 27.0872 25.136 27.3815C25.0884 28.0108 25.2463 28.6096 25.4025 29.2093C25.5625 29.8236 25.5042 30.4393 25.4479 31.063C25.3646 31.9847 25.0179 32.8186 24.6418 33.6385C24.3996 34.1664 24.0717 34.6564 23.7662 35.1535C23.5077 35.574 23.226 35.9803 22.9394 36.408C22.5529 37.0163 22.1757 37.606 21.8129 38.2044C21.653 38.4683 21.5229 38.7501 21.3785 39.0234C21.3609 39.0567 21.3433 39.0923 21.3174 39.1187C21.2278 39.2105 21.1345 39.2986 21.0426 39.3881C21.0339 39.2574 20.9823 39.111 21.0234 38.9985C21.3521 38.0976 21.8587 37.2936 22.4081 36.5132C23.0732 35.5683 23.7799 34.6489 24.2515 33.5822C24.5614 32.8814 24.8059 32.1605 24.8922 31.3951C24.9422 30.9518 24.9983 30.507 25.0085 30.0619C25.0187 29.6199 24.9754 29.1766 24.9528 28.734C24.9517 28.7121 24.9134 28.6719 24.9113 28.6731C24.8619 28.7013 24.8049 28.7256 24.7693 28.7676C24.5801 28.9905 24.3995 29.2207 24.21 29.4435C23.7285 30.0094 23.1423 30.3902 22.4024 30.555C21.6716 30.7178 21.0571 30.505 20.5379 30.0287C19.8799 29.4251 19.8898 28.6869 20.3425 27.9881C20.7567 27.3488 21.3568 27.0098 22.1287 26.9013C22.8834 26.7952 23.5685 27.0048 24.2536 27.2284C24.5068 27.311 24.6627 27.3998 24.6747 27.0416C24.6884 26.6361 24.6633 26.2252 24.7213 25.8263C24.7958 25.3133 24.617 24.8655 24.4724 24.3999C24.1862 23.4786 23.6333 22.7575 22.8936 22.1474C22.326 21.6794 21.6894 21.3576 20.9951 21.169C20.2784 20.9743 19.551 20.8851 18.7885 20.9625C17.5533 21.0878 16.48 21.5606 15.5047 22.2837C14.8139 22.796 14.2762 23.4592 13.7998 24.1729C13.7288 24.2792 13.6115 24.3547 13.5161 24.4448C13.3968 24.5575 13.2378 24.5899 13.1527 24.4582C13.088 24.3582 13.0645 24.1448 13.1278 24.0634L13.2748 23.8739C13.5694 23.4943 13.8698 23.1151 14.2198 22.7921C14.6485 22.3964 15.1398 22.0634 15.6266 21.7369C16.4402 21.1912 17.3317 20.824 18.3062 20.6748C18.6954 20.6153 19.0946 20.467 19.4711 20.5117ZM31.1763 38.227C31.1716 38.2655 31.159 38.3049 31.1634 38.3423C31.2046 38.6903 31.4326 38.9209 31.6906 39.1138C31.777 39.1783 31.9282 39.1558 32.0498 39.1731C31.9857 39.0743 31.9257 38.9725 31.8559 38.8779C31.8144 38.8216 31.7576 38.7767 31.7077 38.666C31.5591 38.5374 31.4109 38.4083 31.2614 38.2808C31.2361 38.2593 31.2048 38.2448 31.1763 38.227ZM79.0961 16.6537C78.7707 16.9245 78.4472 17.1987 78.1383 17.4878C77.6316 17.962 77.3107 18.5689 77.0453 19.1906C76.4874 20.4979 75.9716 21.823 75.4435 23.1429C74.6653 25.088 73.8916 27.0349 73.1159 29.0418C73.0753 29.1061 73.023 29.1658 72.9957 29.2353C72.5024 30.4887 72.0139 31.7439 71.5207 32.9973C71.1405 33.9633 70.7371 34.9208 70.3776 35.8943C70.0452 36.7947 69.8301 37.729 69.7047 38.6814C69.6927 38.7732 69.7238 38.8706 69.7349 38.9654C69.7441 38.8848 69.7408 38.7999 69.767 38.7252C69.7846 38.675 69.8652 38.6461 69.8814 38.5961C70.1905 37.6407 70.4743 36.6767 70.806 35.7293C71.0343 35.0772 71.3212 34.4449 71.5945 33.8092C71.7222 33.5123 71.8361 33.4835 72.1229 33.6255C72.3167 33.7214 72.5139 33.8112 72.7033 33.915C73.0026 34.0792 73.3198 34.1415 73.6581 34.1115C73.8993 34.0901 74.2009 33.8118 74.2068 33.5526C74.2125 33.2994 74.1 33.0962 73.8064 33.0694C73.6227 33.0527 73.4349 33.0617 73.2553 33.0268C73.1227 33.001 73.0005 32.923 72.8736 32.8682C72.9563 32.805 73.0331 32.731 73.1238 32.6828C73.1799 32.6529 73.257 32.662 73.3248 32.6542C73.7789 32.6017 74.1641 32.8189 74.5631 32.9743C75.2817 33.2543 75.6868 33.201 76.052 32.7215C76.2482 32.4639 76.3797 32.1516 76.5095 31.8507C77.0983 30.4852 77.7232 29.1325 78.2448 27.7415C78.7843 26.3026 79.2871 24.8427 79.6822 23.3594C80.1073 21.7635 80.5731 20.1654 80.6553 18.4975C80.678 18.0383 80.6385 17.5937 80.5072 17.1401C80.2957 16.41 79.6065 16.229 79.0961 16.6537ZM54.1106 31.2712C54.0846 31.3212 54.0516 31.3688 54.0338 31.4214C53.8055 32.0978 53.8412 32.7751 54.1572 33.4014C54.488 34.0571 54.8931 34.6757 55.2695 35.3084C55.2854 35.3352 55.3387 35.3401 55.3746 35.3552C55.3862 35.3064 55.4183 35.2516 55.4061 35.2097C55.2982 34.8404 55.1757 34.4753 55.0748 34.1042C55.054 34.0277 55.0766 33.8999 55.1301 33.8523C55.2092 33.7818 55.3419 33.7137 55.4374 33.7297C55.7134 33.7758 55.9426 34.1038 55.9698 34.4312C56.0148 34.972 56.0307 35.5172 56.1124 36.0524C56.2439 36.9132 56.5834 37.7104 56.9605 38.4906C56.9809 38.5328 57.0208 38.5657 57.0516 38.6029C57.0818 38.5547 57.1261 38.5101 57.1395 38.4577C57.1868 38.274 57.1955 38.0757 57.2691 37.9043C57.5283 37.3005 57.5241 36.7201 57.2069 36.1353C57.0333 35.8154 56.8982 35.4747 56.7153 35.1129C56.5863 34.7416 56.5251 34.3249 56.3125 34.0094C55.9846 33.5229 55.5429 33.1139 55.1686 32.6565C54.8382 32.2527 54.534 31.8277 54.2182 31.4121L54.1106 31.2712ZM36.8051 37.0341C36.8746 37.153 36.9282 37.2631 37.0164 37.3275C37.3474 37.5695 37.3103 38.2211 36.9845 38.4219C36.9115 38.4668 36.7856 38.429 36.6841 38.4292C36.6841 38.3469 36.6589 38.2544 36.6882 38.1838C36.8945 37.6875 36.6803 37.2809 36.1399 37.1506C36.0552 37.1302 35.9784 37.0788 35.8979 37.0417C35.9718 36.9962 36.0443 36.9481 36.1202 36.906C36.2012 36.861 36.2854 36.8213 36.3685 36.7799C36.6812 36.6239 36.7312 36.6497 36.8051 37.0341ZM37.3524 34.439C37.4015 34.7214 37.3863 35.0266 37.3356 35.3106C37.2961 35.5322 36.7148 35.654 36.3988 35.613C36.065 35.5696 35.8595 35.3704 35.652 35.1579C35.4712 34.9728 35.2652 34.8273 35.0101 34.9302C34.7512 35.0347 34.7414 35.2919 34.7535 35.5656C34.6809 36.0471 34.541 36.4367 34.1206 36.7218C33.564 37.0992 32.9228 36.8227 32.6727 36.3652C32.6444 36.3136 32.5943 36.2737 32.5543 36.2283C32.524 36.2727 32.4843 36.3134 32.465 36.3621C32.3148 36.7418 32.1516 37.1178 32.0271 37.5058C31.9496 37.7477 32.0601 37.8576 32.3073 37.8551C32.4725 37.8535 32.6379 37.8521 32.803 37.8567C32.8462 37.8579 32.8889 37.8817 32.9318 37.8952C32.9079 37.9355 32.8934 37.9981 32.8586 38.0124C32.7027 38.0766 32.518 38.2054 32.386 38.1671C32.0396 38.0668 31.736 37.8771 31.7162 37.4477C31.684 36.7485 32.0594 36.2208 32.4587 35.7064C32.9133 35.1207 33.5845 34.9139 34.2612 34.7222C35.1111 34.4815 35.9608 34.2397 36.811 33.9999C36.9881 33.9499 37.304 34.1601 37.3524 34.439ZM34.1019 34.9829C33.7987 35.1032 33.499 35.2357 33.2092 35.3848C32.709 35.6423 32.6565 36.0977 33.073 36.4587C33.5061 36.8341 34.0622 36.7069 34.2257 36.1704C34.3174 35.8695 34.337 35.5471 34.3891 35.1741C34.4032 34.9482 34.2609 34.9198 34.1019 34.9829ZM35.3581 35.2065C35.3847 35.2171 35.4105 35.2309 35.438 35.2379C35.8495 35.3428 36.1694 36.0128 35.9739 36.3755C35.9353 36.4472 35.8562 36.496 35.7958 36.5554C35.7807 36.4963 35.7639 36.4376 35.7509 36.378C35.7122 36.2016 35.675 36.0248 35.6231 35.8337C35.5293 35.6411 35.449 35.4632 35.3709 35.2844C35.3607 35.2611 35.3621 35.2326 35.3581 35.2065ZM36.6368 34.186C36.2956 34.3051 35.9675 34.4612 35.5732 34.6018C35.5631 34.6475 35.5307 34.7032 35.5463 34.7374C35.7428 35.1686 36.4813 35.4726 36.9237 35.3102C37.1847 35.2144 37.3291 34.8836 37.2431 34.5787C37.1835 34.3674 36.8335 34.1174 36.6368 34.186ZM67.9884 23.7438C68.576 23.8011 69.0451 24.0578 69.4027 24.5636C69.5992 24.8415 69.4499 25.0718 69.4037 25.3052C69.2371 26.1466 69.0359 26.981 68.8449 27.8173C68.6876 28.506 68.5274 29.1939 68.3664 29.8817C68.1519 30.7982 67.9364 31.7145 67.7194 32.6303C67.5632 33.2893 67.405 33.9478 67.2439 34.6056C67.2271 34.6744 67.1843 34.7366 67.1535 34.8018C67.125 34.7333 67.0671 34.6621 67.0727 34.5966C67.1173 34.0774 67.1624 33.5577 67.23 33.0412C67.3012 32.4977 67.3881 31.9558 67.4852 31.4165C67.6011 30.7728 67.7228 30.1296 67.8637 29.4912C68.1827 28.0457 68.5946 26.6278 69.0657 25.2255C69.2529 24.6684 68.7212 24.3006 68.291 24.3103C68.0161 24.3164 67.7789 24.3792 67.5264 24.4409C67.4847 24.4511 67.4189 24.3587 67.3643 24.2834C67.3643 24.233 67.3579 24.21 67.3653 24.1932C67.4238 24.0601 67.2114 23.8162 67.5245 23.787C67.6794 23.7726 67.8365 23.729 67.9884 23.7438ZM37.8437 31.8344C38.2125 31.8399 38.581 31.889 38.9494 31.8854C39.4763 31.8804 39.979 31.9926 40.4497 32.2C40.8635 32.3823 41.2458 32.6345 41.6573 32.871C42.1373 33.2984 42.5026 33.7765 42.6431 34.3889C42.6616 34.4693 42.573 34.5737 42.534 34.667C42.4711 34.6108 42.3685 34.5646 42.3511 34.497C42.0166 33.2005 41.0747 32.5696 39.8449 32.2531C39.1729 32.0802 38.4931 32.1228 37.8111 32.1836C37.7228 32.1915 37.5249 32.3083 37.5175 32.0755C37.5107 31.8616 37.6916 31.8321 37.8437 31.8344ZM55.3743 13.6671C54.1765 13.8371 53.2904 14.5246 52.619 15.5116C51.8872 16.5873 51.6424 17.8099 51.6102 19.0662C51.5873 19.9632 51.6946 20.8661 51.7839 21.7624C51.8505 22.4321 51.9453 23.1034 52.0925 23.7595C52.2779 24.5866 52.5333 25.3979 52.7515 26.2178C53.1163 27.5888 53.5756 28.9277 54.1579 30.2214C54.7785 31.6003 55.5945 32.8496 56.7411 33.8599C57.1111 34.186 57.5402 34.4216 58.0392 34.4712C58.6607 34.5329 59.2643 34.4158 59.8587 34.234C61.1301 33.845 62.4147 33.4956 63.6734 33.0697C64.8228 32.6807 65.5387 31.8466 65.794 30.6624C65.9854 29.7744 66.1468 28.8785 66.2807 27.98C66.3946 27.2155 66.487 26.444 66.5193 25.6726C66.5439 25.0828 66.4668 24.4879 66.4219 23.8962C66.3876 23.4452 66.333 22.9958 66.2874 22.4849C66.1392 21.5873 65.8705 20.7283 65.5165 19.8883C64.9786 18.6121 64.2376 17.4892 63.2359 16.5201C62.1439 15.4638 60.8388 14.7919 59.4196 14.3297C58.6186 14.0689 57.7895 13.877 56.96 13.7258C56.4434 13.6317 55.8911 13.5937 55.3743 13.6671ZM19.7034 21.8809C19.6677 21.9366 19.636 21.9953 19.5959 22.0475C18.8505 23.0168 18.0614 23.9558 17.3692 24.9616C16.5525 26.1484 15.87 27.4196 15.3402 28.788C15.1339 29.217 14.9451 29.6319 14.7505 30.0441C14.6474 30.2624 14.4332 30.235 14.2872 30.1647C14.1291 30.0886 14.1486 29.9274 14.2433 29.7579C15.0234 28.3618 15.7721 26.9477 16.5702 25.5621C17.0598 24.7122 17.5887 23.8807 18.16 23.0841C18.4657 22.658 18.8967 22.3214 19.2764 21.9498C19.3268 21.9004 19.4055 21.8655 19.4758 21.8549C19.5487 21.8439 19.6273 21.8707 19.7034 21.8809ZM21.7032 27.4538C20.8674 27.6755 20.452 28.2873 20.5244 29.0918C20.57 29.5989 20.7707 29.9235 21.2514 30.0602C21.8024 30.217 22.3525 30.1451 22.8713 29.9365C23.6156 29.6372 24.2244 29.1847 24.4091 28.2765C24.4284 28.0319 24.358 27.853 24.14 27.6936C23.3675 27.1289 22.5521 27.2286 21.7032 27.4538ZM39.1252 11.5251C39.1049 11.5504 39.0845 11.5605 39.0642 11.5858C38.9989 11.6152 38.9179 11.6097 38.8706 11.6467C37.6889 12.5699 36.9478 13.7759 36.5584 15.2089C36.3735 15.8893 36.2896 16.5833 36.3203 17.2834C36.3743 18.5153 36.7609 19.6412 37.4616 20.6658C38.227 21.7852 39.2441 22.609 40.4584 23.187C41.1543 23.5182 41.893 23.7566 42.6753 23.7983C43.0273 23.817 43.3875 23.7591 43.7328 23.8105C44.3962 23.9092 45.0136 23.7307 45.6264 23.5524C46.8604 23.1934 47.9464 22.5733 48.8767 21.677C49.563 21.0158 50.1566 20.2969 50.5486 19.4248C50.5563 19.4078 50.5659 19.3915 50.5746 19.3748C50.5862 19.3974 50.6104 19.4217 50.6077 19.4424C50.5492 19.8851 50.5776 20.3333 50.2628 20.7284C49.2884 21.9513 48.1582 22.9815 46.694 23.5798C46.0677 23.8357 45.3989 24.0001 44.7374 24.1559C44.3395 24.2496 43.9174 24.2894 43.5081 24.2786C42.4727 24.2514 41.4738 24.0329 40.518 23.6216C39.4976 23.1825 38.604 22.5658 37.8427 21.7649C36.9572 20.8334 36.3391 19.7492 36.078 18.4887C35.9739 17.9865 35.8913 17.4676 35.8983 16.9576C35.9203 15.3645 36.3887 13.8958 37.3163 12.5917C37.5691 12.2364 37.9091 11.9411 38.2175 11.6265C38.3629 11.4782 39.0085 11.4067 39.1252 11.5251ZM40.4272 11.5405C40.4425 11.5422 40.4559 11.561 40.4702 11.5718C40.4438 11.5812 40.4177 11.5917 40.3909 11.5999C39.3512 11.9173 38.6106 12.5999 38.1158 13.545C37.8126 14.1242 37.6483 14.7536 37.5557 15.4101C37.3676 16.7446 37.6756 17.9733 38.3163 19.1183C39.1078 20.533 40.2271 21.6096 41.7765 22.167C42.2706 22.3448 42.7813 22.5356 43.2968 22.5822C44.5346 22.694 45.7237 22.4722 46.8257 21.8519C47.6472 21.3895 48.3224 20.7707 48.9279 20.0523C49.6301 19.2192 50.0295 18.2481 50.2778 17.2102C50.3649 16.8464 50.3276 16.4529 50.3503 16.0731C50.3546 16.0019 50.3744 15.9317 50.387 15.8611C50.4703 15.904 50.5987 15.9267 50.6286 15.9936C50.7353 16.2321 50.8999 16.4953 50.8754 16.7316C50.8249 17.2174 50.703 17.7046 50.5452 18.1688C50.1355 19.3737 49.4117 20.3788 48.4724 21.2251C47.5984 22.0124 46.5907 22.5625 45.4441 22.8386C45.0559 22.932 44.6632 23.0394 44.2681 23.0622C43.9022 23.0833 43.5272 23.0193 43.162 22.9578C42.6755 22.8758 42.1785 22.8075 41.7144 22.6496C40.4324 22.2136 39.357 21.4727 38.49 20.4103C37.7973 19.5615 37.3971 18.5971 37.2052 17.5396C36.9794 16.2952 37.1817 15.0896 37.6421 13.9255C37.9537 13.1379 38.4079 12.4399 39.0303 11.8581C39.0774 11.8141 39.1034 11.7474 39.1393 11.6608C39.1594 11.6203 39.1796 11.6102 39.1998 11.6001C39.5988 11.3724 40.0149 11.4925 40.4272 11.5405ZM86.1194 22.3919C86.5364 22.3963 86.9525 22.453 87.3694 22.4857C87.8766 22.5255 88.3836 22.5755 88.8918 22.595C89.378 22.6137 89.8661 22.5871 90.3524 22.6041C90.592 22.6125 90.8362 22.6549 91.064 22.7226C91.1416 22.7457 91.1754 22.8936 91.2292 22.9844C91.1552 23.0064 91.0826 23.0346 91.0068 23.0488C90.9189 23.0652 90.8283 23.0692 90.7236 23.0645C89.7124 23.0316 88.7165 23.0054 87.7205 22.9976C87.3172 22.9945 86.9134 23.0464 86.51 23.0441C86.3122 23.043 86.114 22.9784 85.9175 22.9367C85.7126 22.8932 85.6514 22.7232 85.7277 22.5991C85.7933 22.4924 85.9848 22.3905 86.1194 22.3919ZM43.4293 12.3814C43.6573 13.4683 43.8683 14.559 44.0918 15.6469C44.2066 16.2055 44.0703 16.4373 43.59 16.7085C42.9554 17.0668 42.3414 17.466 41.7348 17.873C41.431 18.0769 41.1818 18.1479 41.0154 17.9868C40.8582 17.8347 40.8325 17.7007 41.0421 17.558C41.6982 17.1114 42.3572 16.6679 42.9915 16.1903C43.1296 16.0863 43.2539 15.838 43.2397 15.669C43.1877 15.0519 43.0777 14.4396 42.9827 13.8266C42.943 13.5708 42.8861 13.3179 42.837 13.033C42.8135 12.7818 42.7462 12.5531 42.7826 12.3433C42.8055 12.2118 42.9711 12.0323 43.096 12.0098C43.3174 11.9698 43.3922 12.2044 43.4293 12.3814ZM85.2482 9.84172C85.2852 9.88038 85.3055 9.9857 85.2795 10.0241C85.1545 10.2085 85.011 10.3805 84.8587 10.572C84.3677 11.2414 83.8981 11.9001 83.4091 12.5443C83.345 12.6287 83.1378 12.7091 83.0725 12.6692C82.9064 12.568 83.056 12.46 83.1249 12.3452C83.5819 11.5836 84.0243 10.8134 84.4773 10.0495C84.6859 9.69767 85.025 9.60836 85.2482 9.84172ZM71.3197 0.00024092C71.3998 0.00693955 71.4896 0.103508 71.5436 0.183167C71.7416 0.475426 71.6375 0.803946 71.5981 1.10757C71.5294 1.63734 71.4048 2.15954 71.3079 2.6857C71.2626 2.93143 71.227 3.17901 71.187 3.45619C71.107 3.86859 71.0201 4.2492 70.9486 4.6328C70.8189 5.32958 70.7031 6.02901 70.5728 6.72567C70.4641 7.30684 70.3466 7.88638 70.2266 8.46529C70.0297 9.41576 69.8341 10.3666 69.6235 11.314C69.5657 11.5739 69.3632 11.6713 69.1972 11.5469C69.1412 11.505 69.0853 11.3975 69.0987 11.3352C69.4092 9.88611 69.742 8.44181 70.0433 6.99076C70.2648 5.92391 70.4232 4.84333 70.6542 3.77882C70.8743 2.76469 70.9876 1.74799 70.9551 0.710211C70.9495 0.530707 71.0336 0.341124 71.1067 0.169513C71.1397 0.0917696 71.2514 -0.00547802 71.3197 0.00024092ZM54.8709 7.19689C54.9293 7.29561 54.9893 7.39335 55.0486 7.52255C55.1473 8.04756 55.2492 8.5409 55.3436 9.03581C55.3911 9.28527 55.4278 9.53715 55.4634 9.78885C55.4723 9.85138 55.4581 9.91747 55.4546 9.98192C55.3675 9.96731 55.2269 9.98215 55.2023 9.93314C55.0754 9.68071 54.9612 9.41784 54.8753 9.14724C54.7768 8.83725 54.7356 8.50616 54.6246 8.20224C54.5638 8.03593 54.3983 7.91479 54.302 7.75846C54.2187 7.62326 54.1207 7.46849 54.1168 7.3198C54.1142 7.22437 54.257 7.06406 54.3582 7.03963C54.5352 6.99688 54.7455 6.98506 54.8709 7.19689Z" fill="#00160A"/>
<path d="M34.6857 37.4905C35.0456 37.394 35.3062 37.1992 35.2676 37.0552C35.229 36.9113 34.906 36.8728 34.546 36.9693C34.186 37.0657 33.9255 37.2606 33.9641 37.4045C34.0026 37.5484 34.3257 37.5869 34.6857 37.4905Z" fill="#FFB61D"/>
<path fill-rule="evenodd" clip-rule="evenodd" d="M37.1632 36.3204C37.4202 36.224 37.5683 36.0291 37.5153 35.8852C37.4656 35.7413 37.2755 35.7028 37.0694 35.7992C36.843 35.8956 36.6413 36.0904 36.6401 36.2343C36.6422 36.3783 36.8859 36.4168 37.1632 36.3204Z" fill="#FFB61D"/>
</svg>
