<svg xmlns="http://www.w3.org/2000/svg" viewBox="0 0 96 96" fill="none" role="img" aria-labelledby="title desc">
  <title id="title">Twin watcher role icon</title>
  <desc id="desc">An original two-star watcher role icon.</desc>
  <rect x="12" y="12" width="72" height="72" rx="24" fill="#FEFFF9" stroke="#8AB68E" stroke-width="4"/>
  <circle cx="36" cy="46" r="14" fill="#EAF7EF" stroke="#156240" stroke-width="4"/>
  <circle cx="60" cy="46" r="14" fill="#FFF5E6" stroke="#156240" stroke-width="4"/>
  <path d="m36 38 2 5 5 1-4 3 1 5-4-3-4 3 1-5-4-3 5-1 2-5Zm24 0 2 5 5 1-4 3 1 5-4-3-4 3 1-5-4-3 5-1 2-5Z" fill="#F09182"/>
  <path d="M30 66c10 6 26 6 36 0" stroke="#156240" stroke-width="5" stroke-linecap="round"/>
</svg>
