<svg xmlns="http://www.w3.org/2000/svg" width="1600" height="1050" viewBox="0 0 1600 1050" role="img" aria-labelledby="title desc">
  <title id="title">Friemi v2.1 activity and team card style board</title>
  <desc id="desc">A visual style board for Friemi activity cards and team cards using the v2.1 forest, cream, ink and coral brand palette.</desc>
  <defs>
    <linearGradient id="pageBg" x1="0" x2="1" y1="0" y2="1">
      <stop offset="0%" stop-color="#F1F2E3"/>
      <stop offset="48%" stop-color="#FFF5E6"/>
      <stop offset="100%" stop-color="#DEEBFF"/>
    </linearGradient>
    <linearGradient id="mediaEvent" x1="0" x2="1" y1="0" y2="1">
      <stop offset="0%" stop-color="#8AB68E"/>
      <stop offset="48%" stop-color="#D6D5B2"/>
      <stop offset="100%" stop-color="#369758"/>
    </linearGradient>
    <linearGradient id="mediaTeam" x1="0" x2="1" y1="0" y2="1">
      <stop offset="0%" stop-color="#1D1D1B"/>
      <stop offset="48%" stop-color="#F09182"/>
      <stop offset="100%" stop-color="#369758"/>
    </linearGradient>
    <linearGradient id="mobileFrame" x1="0" x2="1" y1="0" y2="1">
      <stop offset="0%" stop-color="#FEFFF9"/>
      <stop offset="55%" stop-color="#FFF5E6"/>
      <stop offset="100%" stop-color="#DEAAB3"/>
    </linearGradient>
    <filter id="softShadow" x="-20%" y="-20%" width="140%" height="145%">
      <feDropShadow dx="0" dy="20" stdDeviation="24" flood-color="#156240" flood-opacity="0.13"/>
    </filter>
    <filter id="coralShadow" x="-20%" y="-20%" width="140%" height="145%">
      <feDropShadow dx="0" dy="18" stdDeviation="22" flood-color="#F09182" flood-opacity="0.20"/>
    </filter>
    <pattern id="dotGrid" width="28" height="28" patternUnits="userSpaceOnUse">
      <circle cx="2" cy="2" r="1.4" fill="#156240" opacity="0.18"/>
    </pattern>
    <style>
      text { font-family: "Noto Sans SC", "Segoe UI", system-ui, sans-serif; }
      .label { font-size: 13px; font-weight: 700; letter-spacing: .18em; text-transform: uppercase; }
      .board-title { font-size: 38px; font-weight: 750; letter-spacing: 0; }
      .section { font-size: 24px; font-weight: 750; letter-spacing: 0; }
      .h3 { font-size: 22px; font-weight: 760; letter-spacing: 0; }
      .body { font-size: 16px; font-weight: 500; letter-spacing: 0; }
      .small { font-size: 13px; font-weight: 650; letter-spacing: 0; }
      .tiny { font-size: 11px; font-weight: 700; letter-spacing: 0; }
      .cn-title { font-size: 20px; font-weight: 800; letter-spacing: 0; }
      .cn-mobile { font-size: 14px; font-weight: 800; letter-spacing: 0; }
      .meta { font-size: 14px; font-weight: 600; letter-spacing: 0; }
      .mobile-meta { font-size: 11px; font-weight: 600; letter-spacing: 0; }
    </style>
  </defs>

  <rect width="1600" height="1050" fill="url(#pageBg)"/>
  <rect x="0" y="0" width="1600" height="1050" fill="url(#dotGrid)" opacity="0.6"/>
  <circle cx="1450" cy="120" r="230" fill="#F09182" opacity="0.10"/>
  <circle cx="90" cy="920" r="280" fill="#369758" opacity="0.10"/>

  <g transform="translate(80 64)">
    <rect x="0" y="0" width="64" height="64" rx="18" fill="#369758"/>
    <circle cx="24" cy="34" r="9" fill="#F09182"/>
    <circle cx="43" cy="26" r="9" fill="#FFF5E6"/>
    <path d="M24 42 C32 54 47 48 47 35" fill="none" stroke="#FFF5E6" stroke-width="8" stroke-linecap="round"/>
    <text class="label" x="84" y="22" fill="#156240">Friemi v2.1 card materials</text>
    <text class="board-title" x="84" y="64" fill="#1D1D1B">活动卡片轻一点，组局卡片更有人的温度。</text>
  </g>

  <g transform="translate(84 158)">
    <rect x="0" y="0" width="1432" height="800" rx="42" fill="#FEFFF9" opacity="0.78" stroke="#D6D5B2"/>
    <path d="M40 96 C220 20 350 44 470 100 C610 165 730 124 880 56 C1030 -12 1220 4 1392 80 L1392 0 L40 0 Z" fill="#F1F2E3" opacity="0.55"/>
  </g>

  <g transform="translate(134 204)">
    <text class="label" x="0" y="0" fill="#156240">desktop cards</text>
    <text class="body" x="0" y="34" fill="#156240">1280px 优先 4 列，超宽屏再进 5 列。卡片要有品牌感，但内容仍然是主角。</text>
  </g>

  <g transform="translate(134 286)" filter="url(#softShadow)">
    <rect x="0" y="0" width="330" height="522" rx="24" fill="#FEFFF9" stroke="#8AB68E"/>
    <rect x="0" y="0" width="330" height="6" rx="3" fill="#8AB68E"/>
    <clipPath id="eventMediaClip">
      <rect x="14" y="14" width="302" height="184" rx="20"/>
    </clipPath>
    <g clip-path="url(#eventMediaClip)">
      <rect x="14" y="14" width="302" height="184" fill="url(#mediaEvent)"/>
      <circle cx="86" cy="58" r="54" fill="#FFF5E6" opacity="0.28"/>
      <path d="M30 160 C84 94 124 106 172 132 C230 164 262 98 318 68 L318 198 L30 198 Z" fill="#1D1D1B" opacity="0.34"/>
      <path d="M14 14 L316 198" stroke="#FFF5E6" stroke-width="3" opacity="0.28"/>
    </g>
    <rect x="28" y="28" width="78" height="28" rx="14" fill="#DEEBFF" stroke="#8AB68E"/>
    <circle cx="43" cy="42" r="4" fill="#8AB68E"/>
    <text class="tiny" x="54" y="46" fill="#1D1D1B">活动</text>
    <rect x="236" y="162" width="66" height="28" rx="14" fill="#F1F2E3"/>
    <text class="tiny" x="254" y="181" fill="#156240">进行中</text>
    <circle cx="282" cy="42" r="22" fill="#FEFFF9" stroke="#D6D5B2"/>
    <path d="M274 39 C274 33 282 32 286 37 C290 32 298 33 298 39 C298 49 286 55 286 55 C286 55 274 49 274 39 Z" fill="none" stroke="#1D1D1B" stroke-width="2.4" stroke-linejoin="round"/>
    <text class="cn-title" x="24" y="250" fill="#1D1D1B">周末艺术市集与夜间展览</text>
    <text class="cn-title" x="24" y="280" fill="#1D1D1B">沿河散步路线</text>
    <g transform="translate(24 314)">
      <rect x="0" y="-13" width="22" height="22" rx="7" fill="#F1F2E3" stroke="#D6D5B2"/>
      <path d="M6 -5 L16 -5 M8 -9 L8 -1 M14 -9 L14 -1 M6 1 L16 1" stroke="#156240" stroke-width="1.5" stroke-linecap="round"/>
      <text class="meta" x="32" y="3" fill="#156240">6月28日 17:00-19:00</text>
    </g>
    <g transform="translate(24 350)">
      <circle cx="11" cy="-3" r="10" fill="#F1F2E3" stroke="#D6D5B2"/>
      <path d="M11 -9 C15 -9 18 -6 18 -2 C18 4 11 10 11 10 C11 10 4 4 4 -2 C4 -6 7 -9 11 -9 Z" fill="none" stroke="#156240" stroke-width="1.5"/>
      <circle cx="11" cy="-2" r="2" fill="#156240"/>
      <text class="meta" x="32" y="3" fill="#156240">Paris · Le Marais</text>
    </g>
    <line x1="24" y1="386" x2="306" y2="386" stroke="#D6D5B2"/>
    <text class="small" x="24" y="426" fill="#8AB68E">整卡进入详情</text>
    <path d="M128 421 L144 421 M139 416 L144 421 L139 426" stroke="#8AB68E" stroke-width="2" stroke-linecap="round" stroke-linejoin="round"/>
    <text class="tiny" x="24" y="478" fill="#156240">轻发现 · 少按钮 · 信息清楚</text>
  </g>

  <g transform="translate(508 286)" filter="url(#coralShadow)">
    <rect x="0" y="0" width="330" height="522" rx="24" fill="#FFF5E6" stroke="#DEAAB3"/>
    <rect x="0" y="0" width="330" height="6" rx="3" fill="#F09182"/>
    <clipPath id="teamMediaClip">
      <rect x="14" y="14" width="302" height="184" rx="20"/>
    </clipPath>
    <g clip-path="url(#teamMediaClip)">
      <rect x="14" y="14" width="302" height="184" fill="url(#mediaTeam)"/>
      <circle cx="262" cy="48" r="62" fill="#FFF5E6" opacity="0.23"/>
      <path d="M14 158 C58 116 98 115 138 136 C184 160 224 142 268 100 C290 80 306 70 316 66 L316 198 L14 198 Z" fill="#156240" opacity="0.38"/>
      <circle cx="80" cy="76" r="34" fill="#F09182" opacity="0.36"/>
    </g>
    <rect x="28" y="28" width="82" height="28" rx="14" fill="#DEAAB3" stroke="#DEAAB3"/>
    <circle cx="43" cy="42" r="4" fill="#369758"/>
    <text class="tiny" x="54" y="46" fill="#1D1D1B">组局</text>
    <rect x="218" y="162" width="84" height="28" rx="14" fill="#F1F2E3"/>
    <text class="tiny" x="239" y="181" fill="#156240">开放局</text>
    <circle cx="282" cy="42" r="22" fill="#FEFFF9" stroke="#DEAAB3"/>
    <path d="M274 39 C274 33 282 32 286 37 C290 32 298 33 298 39 C298 49 286 55 286 55 C286 55 274 49 274 39 Z" fill="none" stroke="#1D1D1B" stroke-width="2.4" stroke-linejoin="round"/>
    <text class="cn-title" x="24" y="250" fill="#1D1D1B">一起去看河岸夏日晚场</text>
    <text class="cn-title" x="24" y="280" fill="#1D1D1B">结束后附近小聚</text>
    <g transform="translate(24 314)">
      <rect x="0" y="-13" width="22" height="22" rx="7" fill="#DEAAB3" stroke="#DEAAB3"/>
      <path d="M6 -5 L16 -5 M8 -9 L8 -1 M14 -9 L14 -1 M6 1 L16 1" stroke="#B5301F" stroke-width="1.5" stroke-linecap="round"/>
      <text class="meta" x="32" y="3" fill="#156240">6月28日 17:00-19:00</text>
    </g>
    <g transform="translate(24 350)">
      <circle cx="11" cy="-3" r="10" fill="#DEAAB3" stroke="#DEAAB3"/>
      <path d="M11 -9 C15 -9 18 -6 18 -2 C18 4 11 10 11 10 C11 10 4 4 4 -2 C4 -6 7 -9 11 -9 Z" fill="none" stroke="#B5301F" stroke-width="1.5"/>
      <circle cx="11" cy="-2" r="2" fill="#B5301F"/>
      <text class="meta" x="32" y="3" fill="#156240">Paris · Canal Saint-Martin</text>
    </g>
    <g transform="translate(24 390)">
      <circle cx="12" cy="0" r="12" fill="#F09182"/>
      <text class="tiny" x="8" y="4" fill="#FFF5E6">L</text>
      <circle cx="31" cy="0" r="12" fill="#369758" stroke="#FFF5E6" stroke-width="2"/>
      <text class="tiny" x="26" y="4" fill="#FFF5E6">J</text>
      <circle cx="50" cy="0" r="12" fill="#1D1D1B" stroke="#FFF5E6" stroke-width="2"/>
      <text class="tiny" x="45" y="4" fill="#FFF5E6">M</text>
      <rect x="78" y="-14" width="92" height="28" rx="14" fill="#FEFFF9" stroke="#8AB68E"/>
      <text class="small" x="93" y="5" fill="#156240">3/6 已报名</text>
    </g>
    <g transform="translate(24 438)">
      <rect x="0" y="0" width="282" height="48" rx="24" fill="#FFF5E6" stroke="#DEAAB3"/>
      <rect x="4" y="4" width="137" height="40" rx="20" fill="#F09182"/>
      <circle cx="31" cy="24" r="12" fill="#FFF5E6" opacity="0.95"/>
      <path d="M31 18 L31 30 M25 24 L37 24" stroke="#F09182" stroke-width="2.2" stroke-linecap="round"/>
      <text class="small" x="55" y="29" fill="#FFF5E6">报名加入</text>
      <circle cx="232" cy="24" r="17" fill="#FFF5E6" stroke="#D6D5B2"/>
      <path d="M226 20 L237 20 L237 31 L226 31 Z M222 16 L233 16 L233 27" fill="none" stroke="#1D1D1B" stroke-width="1.8" stroke-linejoin="round"/>
    </g>
    <text class="tiny" x="24" y="504" fill="#156240">有人气 · 有动作 · 但移动端不塞长按钮</text>
  </g>

  <g transform="translate(920 204)">
    <text class="label" x="0" y="0" fill="#156240">mobile two-column</text>
    <text class="body" x="0" y="34" fill="#156240">390px 下保持双列，长文案进弹层，不让卡片被按钮撑高。</text>
  </g>

  <g transform="translate(920 286)">
    <rect x="-30" y="-34" width="514" height="482" rx="38" fill="url(#mobileFrame)" stroke="#D6D5B2"/>
    <rect x="-8" y="-12" width="220" height="396" rx="28" fill="#1D1D1B" opacity="0.08"/>
    <rect x="0" y="0" width="190" height="330" rx="20" fill="#FEFFF9" stroke="#8AB68E" filter="url(#softShadow)"/>
    <rect x="9" y="9" width="172" height="105" rx="16" fill="url(#mediaEvent)"/>
    <rect x="19" y="19" width="58" height="22" rx="11" fill="#DEEBFF" stroke="#8AB68E"/>
    <circle cx="31" cy="30" r="3" fill="#8AB68E"/>
    <text class="tiny" x="40" y="34" fill="#1D1D1B">展览</text>
    <circle cx="160" cy="30" r="17" fill="#FEFFF9" stroke="#D6D5B2"/>
    <path d="M153 28 C153 24 158 23 160 26 C163 23 168 24 168 28 C168 35 160 39 160 39 C160 39 153 35 153 28 Z" fill="none" stroke="#1D1D1B" stroke-width="1.8"/>
    <rect x="116" y="91" width="56" height="20" rx="10" fill="#F1F2E3"/>
    <text class="tiny" x="128" y="106" fill="#156240">进行中</text>
    <text class="cn-mobile" x="14" y="146" fill="#1D1D1B">市集夜场与沿河</text>
    <text class="cn-mobile" x="14" y="168" fill="#1D1D1B">散步路线</text>
    <text class="mobile-meta" x="34" y="200" fill="#156240">6月28日 17:00-19:00</text>
    <path d="M17 188 L29 188 M19 184 L19 192 M27 184 L27 192 M17 196 L29 196" stroke="#8AB68E" stroke-width="1.4" stroke-linecap="round"/>
    <text class="mobile-meta" x="34" y="226" fill="#156240">Paris</text>
    <path d="M23 211 C28 211 31 215 31 219 C31 226 23 232 23 232 C23 232 15 226 15 219 C15 215 18 211 23 211 Z" fill="none" stroke="#8AB68E" stroke-width="1.4"/>
    <rect x="14" y="272" width="106" height="34" rx="17" fill="#F1F2E3" stroke="#D6D5B2"/>
    <text class="small" x="35" y="294" fill="#156240">查看</text>
    <path d="M83 288 L97 288 M92 283 L97 288 L92 293" stroke="#156240" stroke-width="1.8" stroke-linecap="round"/>
  </g>

  <g transform="translate(1140 286)">
    <rect x="0" y="0" width="190" height="330" rx="20" fill="#FFF5E6" stroke="#DEAAB3" filter="url(#coralShadow)"/>
    <rect x="9" y="9" width="172" height="105" rx="16" fill="url(#mediaTeam)"/>
    <rect x="19" y="19" width="56" height="22" rx="11" fill="#DEAAB3" stroke="#DEAAB3"/>
    <circle cx="31" cy="30" r="3" fill="#369758"/>
    <text class="tiny" x="40" y="34" fill="#1D1D1B">组局</text>
    <circle cx="160" cy="30" r="17" fill="#FEFFF9" stroke="#DEAAB3"/>
    <path d="M153 28 C153 24 158 23 160 26 C163 23 168 24 168 28 C168 35 160 39 160 39 C160 39 153 35 153 28 Z" fill="none" stroke="#1D1D1B" stroke-width="1.8"/>
    <rect x="114" y="91" width="58" height="20" rx="10" fill="#F1F2E3"/>
    <text class="tiny" x="126" y="106" fill="#156240">开放局</text>
    <text class="cn-mobile" x="14" y="146" fill="#1D1D1B">看展后附近</text>
    <text class="cn-mobile" x="14" y="168" fill="#1D1D1B">一起小聚</text>
    <text class="mobile-meta" x="34" y="200" fill="#156240">6月28日 17:00</text>
    <path d="M17 188 L29 188 M19 184 L19 192 M27 184 L27 192 M17 196 L29 196" stroke="#F09182" stroke-width="1.4" stroke-linecap="round"/>
    <g transform="translate(14 225)">
      <circle cx="10" cy="0" r="10" fill="#F09182"/>
      <text class="tiny" x="7" y="4" fill="#FFF5E6">L</text>
      <circle cx="26" cy="0" r="10" fill="#369758" stroke="#FFF5E6" stroke-width="2"/>
      <text class="tiny" x="23" y="4" fill="#FFF5E6">J</text>
      <circle cx="42" cy="0" r="10" fill="#1D1D1B" stroke="#FFF5E6" stroke-width="2"/>
      <text class="tiny" x="39" y="4" fill="#FFF5E6">M</text>
      <text class="mobile-meta" x="62" y="4" fill="#156240">3/6</text>
    </g>
    <rect x="14" y="270" width="162" height="36" rx="18" fill="#DEAAB3" stroke="#DEAAB3"/>
    <circle cx="36" cy="288" r="12" fill="#F09182"/>
    <path d="M36 282 L36 294 M30 288 L42 288" stroke="#FFF5E6" stroke-width="1.8" stroke-linecap="round"/>
    <circle cx="66" cy="288" r="12" fill="#FFF5E6" stroke="#DEAAB3"/>
    <path d="M61 284 L70 284 L70 293 L61 293 Z M58 281 L67 281 L67 290" fill="none" stroke="#1D1D1B" stroke-width="1.4"/>
    <text class="small" x="91" y="293" fill="#1D1D1B">操作</text>
  </g>

  <g transform="translate(920 706)">
    <rect x="0" y="0" width="418" height="148" rx="28" fill="#FEFFF9" stroke="#D6D5B2"/>
    <text class="label" x="28" y="38" fill="#156240">mobile action sheet</text>
    <text class="body" x="28" y="72" fill="#1D1D1B">点击组局卡片里的一个动作入口后，再展示完整文案。</text>
    <rect x="28" y="96" width="170" height="34" rx="17" fill="#F09182"/>
    <circle cx="48" cy="113" r="9" fill="#FFF5E6"/>
    <path d="M48 108 L48 118 M43 113 L53 113" stroke="#F09182" stroke-width="1.6" stroke-linecap="round"/>
    <text class="small" x="66" y="118" fill="#FFF5E6">报名加入</text>
    <rect x="214" y="96" width="170" height="34" rx="17" fill="#FEFFF9" stroke="#8AB68E"/>
    <path d="M239 108 L249 108 L249 118 L239 118 Z M234 103 L244 103 L244 113" fill="none" stroke="#156240" stroke-width="1.6"/>
    <text class="small" x="264" y="118" fill="#156240">再来一局</text>
  </g>

  <g transform="translate(134 868)">
    <text class="label" x="0" y="0" fill="#156240">rules</text>
    <text class="body" x="0" y="38" fill="#156240">活动卡片少操作，负责“发现”。组局卡片强调人和行动，负责“加入”。</text>
    <text class="body" x="0" y="72" fill="#156240">移动端双列优先：标题 2 行、地点 1 行、按钮短文案；英文/法语长文案进弹层。</text>
    <text class="body" x="0" y="106" fill="#156240">桌面端保持密度：1280px 4 列更稳，5 列只给超宽屏。</text>
  </g>
</svg>
