<svg xmlns="http://www.w3.org/2000/svg" width="64" height="64" viewBox="0 0 64 64" fill="none">
  <circle cx="32" cy="32" r="29" fill="#0B2A5B"/>
  <path
    d="M13.75 54.25v-6.1c0-8.7 6.68-15.28 15.15-15.28 3.12 0 5.98.86 8.2 2.44V14.15c0-2.88 2.28-5.22 5.12-5.22 2.85 0 5.13 2.34 5.13 5.22v23.68c0 9.1-7.28 16.42-16.38 16.42H13.75Z"
    fill="#FFF8ED"
  />
  <circle cx="25.45" cy="23.35" r="7.18" fill="#FFF8ED"/>
  <path
    d="M37.25 35.2c-2.15-1.48-4.88-2.32-7.98-2.32"
    stroke="#F09182"
    stroke-linecap="round"
    stroke-width="3.15"
  />
  <path
    d="M46.65 39.2c2.58-2.35 4.02-6.15 4.02-10.88"
    stroke="#FFF8ED"
    stroke-linecap="round"
    stroke-width="3.6"
  />
</svg>
