<svg xmlns="http://www.w3.org/2000/svg" viewBox="0 0 240 360" preserveAspectRatio="none" role="img" aria-label="blood drip effect">
  <defs>
    <linearGradient id="sheet" x1="0" x2="0" y1="0" y2="122" gradientUnits="userSpaceOnUse">
      <stop stop-color="#4B0005"/>
      <stop offset=".22" stop-color="#8D050C"/>
      <stop offset=".62" stop-color="#B10B12"/>
      <stop offset="1" stop-color="#700009"/>
    </linearGradient>
    <linearGradient id="drip" x1="0" x2="0" y1="0" y2="1">
      <stop stop-color="#B90C12"/>
      <stop offset=".38" stop-color="#830006"/>
      <stop offset=".76" stop-color="#5B0004"/>
      <stop offset="1" stop-color="#230001"/>
    </linearGradient>
    <radialGradient id="bead" cx=".36" cy=".28" r=".82">
      <stop stop-color="#E45757"/>
      <stop offset=".22" stop-color="#A50610"/>
      <stop offset=".72" stop-color="#570003"/>
      <stop offset="1" stop-color="#260001"/>
    </radialGradient>
    <filter id="liquid" x="-8%" y="-8%" width="116%" height="116%" color-interpolation-filters="sRGB">
      <feTurbulence baseFrequency=".018 .08" numOctaves="2" seed="12" type="fractalNoise"/>
      <feDisplacementMap in="SourceGraphic" scale="1.4"/>
      <feDropShadow dx="0" dy="5" stdDeviation="3.8" flood-color="#160001" flood-opacity=".5"/>
      <feDropShadow dx="0" dy="14" stdDeviation="11" flood-color="#000000" flood-opacity=".18"/>
    </filter>
    <filter id="thinBlur" x="-20%" y="-20%" width="140%" height="140%" color-interpolation-filters="sRGB">
      <feGaussianBlur stdDeviation=".22"/>
    </filter>
  </defs>

  <g filter="url(#liquid)">
    <path
      d="M0 0H240V59c-6 6-13 7-20 2-6-4-10-11-16-12-8-1-10 15-18 19-9 4-14-10-21-8-8 2-8 22-18 28-9 6-17-5-22-15-5-11-8-19-15-17-9 3-9 28-20 31-10 3-15-16-24-15-10 1-9 31-20 36-8 4-13-7-16-21-3-13-6-22-13-20-8 2-11 17-17 18V0Z"
      fill="url(#sheet)"
    />

    <path
      d="M20 50c8 13 12 30 11 54-.4 18-3 34-3 48 0 11 4 17 8 23 5 8 2 22-8 23-11 1-17-11-14-22 2-7 6-12 6-22-.2-19-9-39-10-61-.8-18 2-33 10-43Z"
      fill="url(#drip)"
    />
    <path
      d="M55 45c9 18 8 45 4 68-2 12-1 21 5 29 8 10 5 27-8 28-11 1-18-12-13-24 4-10 8-18 6-32-3-28-7-49 6-69Z"
      fill="url(#drip)"
    />
    <path
      d="M82 63c7 8 9 20 8 34-1 10-5 20-4 30 1 8 6 12 8 18 4 9-1 21-10 21-10 0-15-12-10-21 4-7 8-13 6-26-3-22-7-38 2-56Z"
      fill="url(#drip)"
      opacity=".88"
    />
    <path
      d="M114 54c10 15 14 37 12 66-1 18-6 33-6 52 0 15 8 25 11 36 5 17-4 36-21 34-16-2-22-22-13-37 8-14 11-25 9-45-4-42-8-76 8-106Z"
      fill="url(#drip)"
    />
    <path
      d="M153 62c7 14 8 36 5 56-2 14-3 27 4 36 8 11 4 27-9 28-13 1-20-15-13-27 6-10 9-19 6-36-4-24-5-42 7-57Z"
      fill="url(#drip)"
      opacity=".92"
    />
    <path
      d="M189 51c11 19 15 48 13 85-1 20-6 39-5 59 .5 13 8 23 12 34 6 17-4 35-21 34-17-1-24-20-15-36 8-15 12-27 10-48-4-52-13-94 6-128Z"
      fill="url(#drip)"
    />
    <path
      d="M222 62c9 15 9 34 6 54-2 14-4 26 2 36 8 13 2 29-10 29-12 0-18-15-11-27 5-9 9-18 7-34-3-25-6-43 6-58Z"
      fill="url(#drip)"
      opacity=".9"
    />

    <ellipse cx="28" cy="192" rx="9" ry="12" fill="url(#bead)"/>
    <ellipse cx="111" cy="235" rx="10" ry="14" fill="url(#bead)"/>
    <ellipse cx="188" cy="257" rx="11" ry="15" fill="url(#bead)"/>
    <ellipse cx="217" cy="177" rx="8" ry="11" fill="url(#bead)" opacity=".9"/>
    <ellipse cx="76" cy="166" rx="5" ry="7" fill="url(#bead)" opacity=".72"/>
    <ellipse cx="142" cy="184" rx="5" ry="7" fill="url(#bead)" opacity=".66"/>
  </g>

  <g filter="url(#thinBlur)" opacity=".42">
    <path d="M22 64c4 18 3 50 1 86" fill="none" stroke="#F3B2A5" stroke-linecap="round" stroke-width="2"/>
    <path d="M116 72c5 24 2 73-3 123" fill="none" stroke="#F5B4A5" stroke-linecap="round" stroke-width="2.2"/>
    <path d="M190 70c5 33 1 91-3 143" fill="none" stroke="#F5B4A5" stroke-linecap="round" stroke-width="2.1"/>
    <path d="M6 39c30 8 62 6 92 2 44-7 84 5 136-2" fill="none" stroke="#F8C9C1" stroke-linecap="round" stroke-opacity=".36" stroke-width="3"/>
  </g>
</svg>
